<svg aria-hidden="true" style="position: absolute; width: 0; height: 0; overflow: hidden;" version="1.1"
    xmlns="http://www.w3.org/2000/svg"
    xmlns:xlink="http://www.w3.org/1999/xlink">

    <defs>

        <symbol id="icon-menu" viewBox="0 0 10 10">
            <title>navigation</title>
            <path d="M8.6,0H1.4C0.6,0,0,0.6,0,1.4s0.6,1.4,1.4,1.4h7.1c0.8,0,1.4-0.6,1.4-1.4S9.4,0,8.6,0z M8.6,2.1H1.4
			c-0.4,0-0.7-0.3-0.7-0.7s0.3-0.7,0.7-0.7h7.1c0.4,0,0.7,0.3,0.7,0.7S8.9,2.1,8.6,2.1z"/>
            <path d="M8.6,3.6H1.4C0.6,3.6,0,4.2,0,5s0.6,1.4,1.4,1.4h7.1C9.4,6.4,10,5.8,10,5S9.4,3.6,8.6,3.6z M8.6,5.7H1.4
			C1.1,5.7,0.8,5.4,0.8,5s0.3-0.7,0.7-0.7h7.1c0.4,0,0.7,0.3,0.7,0.7S8.9,5.7,8.6,5.7z"/>
            <path d="M8.6,7.1H1.4C0.6,7.1,0,7.8,0,8.6S0.6,10,1.4,10h5.2C6.8,10,7,9.8,7,9.6S6.8,9.2,6.6,9.2H1.4c-0.4,0-0.7-0.3-0.7-0.7
			s0.3-0.7,0.7-0.7h7.1c0.4,0,0.7,0.3,0.7,0.7S8.9,9.2,8.6,9.2c-0.2,0-0.4,0.2-0.4,0.4S8.3,10,8.6,10C9.4,10,10,9.4,10,8.6
			S9.4,7.1,8.6,7.1z"/>
        </symbol>

        <symbol id="icon-login" viewBox="0 0 10 10">
            <title>login</title>
            <path id="Trazado_94_1_" d="M2.6,9.2H1.2c-0.1,0-0.2-0.1-0.3-0.1C0.8,9,0.8,8.8,0.8,8.7c0.4-2,2.1-3.4,4.1-3.4c0,0,0.1,0,0.1,0
	c0,0,0.1,0,0.1,0c0.5,0,1,0.1,1.4,0.3c0.2,0.1,0.4,0,0.5-0.2c0.1-0.2,0-0.4-0.2-0.5l0,0c-0.1,0-0.1,0-0.2-0.1C7.8,3.9,8,2.2,7.1,1.1
	C6.2-0.1,4.6-0.3,3.4,0.5S2,3.1,2.9,4.2C3,4.4,3.2,4.6,3.4,4.8c-1.7,0.6-3,2-3.4,3.8C-0.1,9.2,0.3,9.8,0.9,10c0.1,0,0.2,0,0.2,0h1.4
	C2.8,10,3,9.8,3,9.6S2.8,9.2,2.6,9.2L2.6,9.2z M3.1,2.7c0-1,0.8-1.9,1.9-1.9c1,0,1.9,0.8,1.9,1.9c0,1-0.8,1.8-1.8,1.9H5H4.9
	C3.9,4.5,3.1,3.7,3.1,2.7z"/>
            <path id="Trazado_95_2_" d="M9.7,6.7c-0.2-0.4-0.5-0.6-1-0.6H7.5c-0.4,0-0.8,0.3-1,0.7c0,0.1,0,0.1-0.1,0.2H3.9C3.8,7,3.7,7,3.6,7.1
	L3,7.8C2.8,7.9,2.8,8.2,3,8.3L3.6,9c0.1,0.1,0.2,0.1,0.3,0.1h1.3c0.2,0,0.4-0.2,0.4-0.4S5.4,8.4,5.2,8.4l0,0H4.1L3.8,8.1l0.3-0.3
	h2.7c0.2,0,0.3-0.1,0.4-0.3c0-0.1,0.1-0.3,0.1-0.4c0-0.1,0.1-0.2,0.2-0.2h1.2C8.8,6.9,8.9,7,9,7c0.1,0.3,0.2,0.7,0.2,1
	c0,0.3-0.1,0.7-0.2,1c0,0.1-0.1,0.2-0.2,0.2H7.5C7.4,9.2,7.3,9.1,7.3,9C7.2,8.9,7.2,8.8,7.1,8.7C7.1,8.4,6.9,8.3,6.7,8.4
	C6.5,8.4,6.3,8.6,6.4,8.8c0,0.2,0.1,0.3,0.2,0.5c0.2,0.4,0.5,0.7,1,0.7h1.2c0.4,0,0.8-0.2,1-0.6C9.9,9,10,8.5,10,8
	C10,7.6,9.9,7.1,9.7,6.7z"/>
            <circle id="Elipse_9_2_" cx="8.3" cy="8.2" r="0.2"/>
        </symbol>

        <symbol id="icon-register" viewBox="0 0 10 10">
            <title>register</title>
            <path id="Trazado_94_1_" d="M2.6,9.2H1.2c-0.1,0-0.2-0.1-0.3-0.1C0.8,9,0.8,8.8,0.8,8.7c0.4-2,2.1-3.4,4.1-3.4c0,0,0.1,0,0.1,0
	s0.1,0,0.1,0c0.5,0,1,0.1,1.4,0.3c0.2,0.1,0.4,0,0.5-0.2c0.1-0.2,0-0.4-0.2-0.5c-0.1,0-0.1,0-0.2-0.1C7.8,3.9,8,2.2,7.1,1.1
	S4.6-0.3,3.4,0.5S2,3.1,2.9,4.2C3,4.4,3.2,4.6,3.4,4.8c-1.7,0.6-3,2-3.4,3.8C-0.1,9.2,0.3,9.8,0.9,10c0.1,0,0.2,0,0.2,0h1.4
	C2.8,10,3,9.8,3,9.6S2.8,9.2,2.6,9.2z M3.1,2.7c0-1,0.8-1.9,1.9-1.9c1,0,1.9,0.8,1.9,1.9c0,1-0.8,1.8-1.8,1.9H5H4.9
	C3.9,4.5,3.1,3.7,3.1,2.7L3.1,2.7z"/>
            <path id="Trazado_99_2_" d="M9.7,5.7C9.2,5.2,8.5,5.2,8,5.7L5.9,7.8c0,0-0.1,0.1-0.1,0.2L5.3,9.5C5.2,9.7,5.3,9.9,5.6,10
	c0.1,0,0.1,0,0.2,0l1.6-0.4c0.1,0,0.1-0.1,0.2-0.1l2.1-2.1C10.1,6.9,10.1,6.1,9.7,5.7C9.7,5.7,9.7,5.7,9.7,5.7z M7,8.8L6.2,9
	l0.2-0.8l1.4-1.4l0.6,0.6L7,8.8z M9.1,6.8L9.1,6.8L8.5,6.3l0.1-0.1c0.2-0.1,0.4-0.1,0.6,0C9.2,6.4,9.2,6.6,9.1,6.8L9.1,6.8z"/>
        </symbol>

        <symbol id="icon-home" viewBox="0 0 10 10">
            <title>home</title>
            <path d="M9.9,4.4L5.8,0.3c0,0,0,0,0,0c-0.4-0.4-1.1-0.4-1.6,0c0,0,0,0,0,0L0.1,4.4C0,4.6,0,4.8,0.1,5c0.2,0.2,0.4,0.2,0.6,0L1,4.7
		V8c0,0.9,0.7,1.6,1.6,1.6h1.4c0.2,0,0.4-0.2,0.4-0.4V6h1.4v3.2c0,0.2,0.2,0.4,0.4,0.4h1.4C8.3,9.6,9,8.9,9,8c0-0.2-0.2-0.4-0.4-0.4
		C8.4,7.6,8.2,7.8,8.2,8c0,0.4-0.4,0.8-0.8,0.8h-1V5.6c0-0.2-0.2-0.4-0.4-0.4H3.9c-0.2,0-0.4,0.2-0.4,0.4v3.2h-1
		C2.1,8.8,1.8,8.5,1.8,8V3.9c0,0,0,0,0,0l3-3c0.1-0.1,0.4-0.1,0.5,0l3,3v2.2c0,0.2,0.2,0.4,0.4,0.4C8.8,6.5,9,6.3,9,6.1V4.7L9.3,5
		C9.4,5,9.5,5.1,9.6,5.1c0.1,0,0.2,0,0.3-0.1C10,4.8,10,4.6,9.9,4.4z"/>
        </symbol>

        <symbol id="icon-categories" viewBox="0 0 10 10">
            <title>categories</title>
            <path d="M8.6,0H5.8C5.6,0,5.4,0.2,5.4,0.4v2.8C5.4,4,6,4.6,6.8,4.6h2.8c0.2,0,0.4-0.2,0.4-0.4V1.4C10,0.6,9.4,0,8.6,0z M9.3,3.9H6.9
	c-0.4,0-0.8-0.3-0.8-0.8V0.7h2.3c0.4,0,0.8,0.3,0.8,0.8V3.9z"/>
            <path d="M3.2,5.4H0.3C0.1,5.4,0,5.6,0,5.7v2.9C0,9.4,0.6,10,1.3,10h2.9c0.2,0,0.3-0.1,0.3-0.3V6.8C4.6,6,4,5.4,3.2,5.4z M3.9,9.3
	H1.5c-0.4,0-0.7-0.3-0.7-0.7V6.1h2.4c0.4,0,0.7,0.3,0.7,0.7V9.3z"/>
            <path d="M3.2,0H0.3C0.1,0,0,0.1,0,0.3v2.9C0,4,0.6,4.6,1.3,4.6h2.9c0.2,0,0.3-0.1,0.3-0.3V1.4C4.6,0.6,4,0,3.2,0z M3.9,3.9H1.5
	c-0.4,0-0.7-0.3-0.7-0.7V0.7h2.4c0.4,0,0.7,0.3,0.7,0.7V3.9z"/>
            <path d="M8.6,5.4H5.7c-0.2,0-0.3,0.1-0.3,0.3v2.9C5.4,9.4,6,10,6.7,10h2.9C9.9,10,10,9.9,10,9.7V6.8C10,6,9.4,5.4,8.6,5.4z M9.3,9.3
	H6.9c-0.4,0-0.7-0.3-0.7-0.7V6.1h2.4c0.4,0,0.7,0.3,0.7,0.7V9.3z"/>
        </symbol>

        <symbol id="jardineria" viewBox="0 0 10 10">
            <title>gardering</title>
            <path d="M9.2,0.8c0,0.6-0.2,1.7-0.9,2.4C8.1,3.4,7.9,3.5,7.7,3.6C7.5,3.7,7.4,3.9,7.5,4.1c0.1,0.2,0.2,0.3,0.4,0.3
			c0,0,0.1,0,0.1,0C8.3,4.2,8.6,4,8.8,3.7C10,2.6,10,0.7,10,0.4c0,0,0,0,0,0C10,0.2,9.8,0,9.6,0C9.5,0,7.5-0.1,6.2,1.1
			c-0.5,0.5-0.7,1-0.7,1.5c0,0.4,0.2,0.8,0.3,1C5.5,4.1,5.2,4.5,5,5c0,0.1-0.1,0.2-0.1,0.3c-0.2-0.3-0.4-0.6-0.7-1
			c0.1-0.2,0.3-0.5,0.3-1c0-0.5-0.2-1-0.7-1.5C2.5,0.7,0.5,0.8,0.4,0.8C0.2,0.8,0,1,0,1.2c0,0.2,0,2.2,1.1,3.3
			c0.5,0.5,1,0.7,1.5,0.7c0,0,0.5,0,1-0.2C3.8,5.2,3.9,5.4,4,5.5c0.4,0.6,0.6,1.1,0.6,1.1c0,0,0,0,0,0.1c0,0.1,0,0.2,0,0.3v0.5
			C4.4,7.3,4.2,7.3,4,7.3c-0.7,0-1.2,0.5-1.3,1.2c-0.6,0.1-1,0.6-1,1.2c0,0.2,0.2,0.4,0.4,0.4s0.4-0.2,0.4-0.4
			c0-0.2,0.2-0.4,0.4-0.4c0.1,0,0.1,0,0.2,0c0.1,0.1,0.3,0,0.4-0.1c0.1-0.1,0.2-0.3,0.1-0.4c0-0.1,0-0.1,0-0.2
			c0-0.3,0.2-0.5,0.5-0.5c0.3,0,0.5,0.2,0.5,0.5c0,0.2,0.1,0.3,0.3,0.3c0.2,0,0.3,0,0.4-0.2c0.1-0.2,0.3-0.3,0.5-0.3
			c0.3,0,0.5,0.2,0.5,0.5c0,0.1,0.1,0.2,0.2,0.3c0.1,0.1,0.2,0.1,0.3,0c0,0,0.1,0,0.1,0c0.2,0,0.4,0.2,0.4,0.4
			c0,0.2,0.2,0.4,0.4,0.4s0.4-0.2,0.4-0.4C8.1,9,7.6,8.5,7,8.4C6.8,8,6.3,7.7,5.8,7.7c-0.1,0-0.2,0-0.3,0c0.3-0.5,1-1.1,1.3-1.2
			C7,6.4,7.1,6.2,7,6C6.9,5.8,6.7,5.7,6.5,5.7C6.2,5.8,5.8,6.1,5.4,6.5C5.5,5.6,5.9,4.7,6.6,4l1.6-1.7c0.2-0.2,0.1-0.4,0-0.6
			C8,1.6,7.8,1.6,7.6,1.8L6.4,3.1c0-0.1-0.1-0.3-0.1-0.4c0-0.3,0.2-0.6,0.5-1C7.5,1,8.6,0.8,9.2,0.8z M3.6,3.7
			C3.3,3.4,2.8,3,2.3,2.5C2.1,2.4,1.9,2.4,1.8,2.6S1.7,3,1.8,3.2c0.5,0.4,1,0.8,1.3,1.2C3,4.4,2.8,4.5,2.7,4.5C2.3,4.5,2,4.3,1.7,4
			C1,3.3,0.8,2.2,0.8,1.6c0.6,0,1.7,0.2,2.4,0.9c0.3,0.3,0.5,0.6,0.5,1C3.7,3.5,3.6,3.7,3.6,3.7z"/>
        </symbol>

        <symbol id="carpinteria">
            <title>carpinteria</title>
            <path d="M41.5,8.1l-6.2-6.2C34.1,0.7,32.5,0,30.7,0c0,0,0,0,0,0c-1.8,0-3.4,0.7-4.6,1.9c0,0,0,0,0,0l-1.4,1.4C24,4,24,5,24.7,5.7
	c0.6,0.6,1.7,0.6,2.3,0l1.4-1.4c0.6-0.6,1.4-1,2.3-1h0c0.9,0,1.7,0.3,2.3,1l4.3,4.3l-1.4,0c0,0,0,0,0,0c-0.4,0-0.9,0.2-1.2,0.5
	c-0.3,0.3-0.5,0.7-0.5,1.2v1.4h-1.4c-0.9,0-1.6,0.7-1.6,1.6v1.5h-1.5c-0.9,0-1.6,0.7-1.6,1.6v1.6h-1.6c-0.9,0-1.6,0.7-1.6,1.6v1.9
	h-1.4c-0.9,0-1.6,0.7-1.6,1.6v1.5h-1.5c-0.9,0-1.6,0.7-1.6,1.6v1.6h-1.6c-0.9,0-1.6,0.7-1.6,1.6v2.2l-7.2-7.1l12.8-12.9
	c0.6-0.6,0.6-1.7,0-2.3c-0.6-0.6-1.7-0.6-2.3,0l-16.9,17c-2.6,2.6-2.5,6.7,0,9.3l6,6C8.3,41.8,8.7,42,9.1,42c0.4,0,0.8-0.2,1.2-0.5
	c0.6-0.6,0.6-1.7,0-2.3l-6-6c-1.3-1.3-1.3-3.4,0-4.6L6,26.8l8.7,8.7c0.3,0.3,0.7,0.5,1.2,0.5h0c0.4,0,0.9-0.2,1.2-0.5l1.3-1.3
	c0.3-0.3,0.5-0.7,0.5-1.1V31h1.6c0.9,0,1.6-0.7,1.6-1.6v-1.6h1.5c0.9,0,1.6-0.7,1.6-1.6v-1.5h1.4c0.9,0,1.6-0.7,1.6-1.6v-1.9h1.6
	c0.9,0,1.6-0.7,1.6-1.6V18h1.5c0.9,0,1.6-0.7,1.6-1.6v-1.5h1.4c0.9,0,1.6-0.7,1.6-1.6v-1.4l2,0h0c0.4,0,0.9-0.2,1.2-0.5l0.9-0.9
	c0.3-0.3,0.5-0.7,0.5-1.2C42,8.8,41.8,8.4,41.5,8.1z"/>
        </symbol>

        <symbol id="icon-more" viewBox="0 0 10 10">
            <title>plus</title>
            <path d="M5.4,10H4.6C4,10,3.4,9.5,3.4,8.8V6.5H1.2C0.5,6.5,0,6,0,5.4V4.6c0-0.6,0.5-1.2,1.2-1.2h2.3V1.2C3.4,0.5,4,0,4.6,0h0.8
	C6,0,6.6,0.5,6.6,1.2v2.2h2.3c0.6,0,1.2,0.5,1.2,1.2v0.8C10,6,9.5,6.5,8.8,6.5H6.6v0.3c0,0.2-0.2,0.4-0.4,0.4S5.8,7.1,5.8,6.9V6.2
	c0-0.2,0.2-0.4,0.4-0.4h2.7c0.2,0,0.4-0.2,0.4-0.4V4.6c0-0.2-0.2-0.4-0.4-0.4H6.2C6,4.2,5.8,4,5.8,3.8V1.2c0-0.2-0.2-0.4-0.4-0.4
	H4.6C4.4,0.8,4.2,1,4.2,1.2v2.6C4.2,4,4,4.2,3.8,4.2H1.2C1,4.2,0.8,4.4,0.8,4.6v0.8c0,0.2,0.2,0.4,0.4,0.4h2.7
	c0.2,0,0.4,0.2,0.4,0.4v2.7c0,0.2,0.2,0.4,0.4,0.4h0.8c0.2,0,0.4-0.2,0.4-0.4c0-0.2,0.2-0.4,0.4-0.4s0.4,0.2,0.4,0.4
	C6.6,9.5,6,10,5.4,10z"/>
        </symbol>

        <symbol id="pintores">
            <title>painters</title>
            <path d="M37.1,6.2h-1.6V5.7c0-3.2-2.6-5.7-5.7-5.7h-24C2.6,0,0,2.6,0,5.7v4.1c0,3.2,2.6,5.7,5.7,5.7h15.8c0.9,0,1.6-0.7,1.6-1.6
			s-0.7-1.6-1.6-1.6H5.7c-1.4,0-2.5-1.1-2.5-2.5V5.7c0-1.4,1.1-2.5,2.5-2.5h24c1.4,0,2.5,1.1,2.5,2.5v4.1c0,1.4-1.1,2.5-2.5,2.5
			c-0.9,0-1.6,0.7-1.6,1.6s0.7,1.6,1.6,1.6c3.2,0,5.7-2.6,5.7-5.7V9.4h1.6c0.9,0,1.6,0.7,1.6,1.6v6.2c0,0.9-0.7,1.6-1.6,1.6H23.5
			c-3.6,0-6.6,2.9-6.6,6.6v0.8l-1.6,0c-0.9,0-1.6,0.7-1.6,1.6v9.2c0,2.7,2.2,4.9,4.9,4.9s4.9-2.2,4.9-4.9v-9.2
			c0-0.4-0.2-0.9-0.5-1.2c-0.3-0.3-0.7-0.5-1.2-0.5h0l-1.6,0v-0.8c0-1.8,1.5-3.3,3.3-3.3h13.6c2.7,0,4.9-2.2,4.9-4.9v-6.2
			C42,8.4,39.8,6.2,37.1,6.2z M20.2,37.1c0,0.9-0.7,1.6-1.6,1.6s-1.6-0.7-1.6-1.6v-7.5l3.3,0V37.1z"/>
        </symbol>

        <symbol id="electricistas">
            <title>electricians</title>
            <path d="M40.5,30.5c1.9-1.9,1.9-5.1,0-7c-1.9-1.9-5.1-1.9-7,0l-2.6,2.6c-0.7,0.7-1.9,0.7-2.6,0l-4.7-4.7c-0.3-0.3-0.7-0.5-1.1-0.5
			c-0.4,0-0.8,0.2-1.1,0.5c-1.3,1.3-3,2-4.8,2c-1.8,0-3.5-0.7-4.8-2l-4.3-4.3l9.6-9.6l4.3,4.3c1.2,1.2,1.9,2.8,2,4.4
			c0.1,0.8,0.7,1.5,1.5,1.5c0,0,0.1,0,0.1,0c0.8-0.1,1.5-0.8,1.4-1.6c-0.1-2.4-1.2-4.7-2.9-6.4l-4.3-4.3l0.5-0.5
			c0.6-0.6,0.6-1.6,0-2.2c-0.6-0.6-1.6-0.6-2.2,0l-3,3L9.3,0.4c-0.6-0.6-1.6-0.6-2.2,0C6.5,1,6.5,2,7.1,2.6l5.2,5.2l-4.5,4.5
			L2.6,7.1C2,6.5,1.1,6.5,0.4,7.1c-0.6,0.6-0.6,1.6,0,2.2l5.3,5.2l-3,3c-0.6,0.6-0.6,1.6,0,2.2c0.3,0.3,0.7,0.5,1.1,0.5
			s0.8-0.2,1.1-0.5l0.5-0.5l4.3,4.3c1.9,1.9,4.4,2.9,7,2.9c2.1,0,4.1-0.7,5.8-1.9l3.7,3.7c1,1,2.2,1.4,3.5,1.4
			c1.3,0,2.5-0.5,3.5-1.4l2.6-2.6c0.7-0.7,1.9-0.7,2.6,0c0.7,0.7,0.7,1.9,0,2.6l-2.6,2.6c-0.9,0.9-1.4,2.2-1.4,3.5s0.5,2.6,1.4,3.5
			c0.3,0.3,0.7,0.5,1.1,0.5c0.4,0,0.8-0.2,1.1-0.5c0.6-0.6,0.6-1.6,0-2.2c-0.4-0.4-0.5-0.8-0.5-1.3s0.2-1,0.5-1.3L40.5,30.5z"/>
        </symbol>

        <symbol id="construccion">
            <title>builder</title>
            <path d="M40.4,28.1c0.9,0,1.6-0.7,1.6-1.6V6.6C42,2.9,39.1,0,35.4,0H6.6C2.9,0,0,2.9,0,6.6v28.9C0,39.1,2.9,42,6.6,42h28.9
	c3.6,0,6.6-2.9,6.6-6.6c0-0.9-0.7-1.6-1.6-1.6s-1.6,0.7-1.6,1.6c0,1.8-1.5,3.3-3.3,3.3H23v-6.6h11.5c0.9,0,1.6-0.7,1.6-1.6
	s-0.7-1.6-1.6-1.6h-1.6v-6.4h5.9v3.9C38.7,27.3,39.5,28.1,40.4,28.1z M38.7,6.6v3h-5.9V3.3h2.6C37.2,3.3,38.7,4.8,38.7,6.6z
	 M13.8,9.6V3.3h15.8v6.3H13.8z M6.6,3.3h3.9v6.3H8.2c-0.9,0-1.6,0.7-1.6,1.6s0.7,1.6,1.6,1.6h11.4v6.3H3.3V6.6
	C3.3,4.8,4.8,3.3,6.6,3.3z M3.3,28.9v-6.4h7.2v6.4H3.3z M19.7,38.7H6.6c-1.8,0-3.3-1.5-3.3-3.3v-3.3h16.4V38.7z M31.2,19.2
	c-0.9,0-1.6,0.7-1.6,1.6v8H13.8v-6.4h10.7c0.9,0,1.6-0.7,1.6-1.6s-0.7-1.6-1.6-1.6h-1.6v-6.3h15.8v6.3H31.2z"/>
        </symbol>

    </defs>

</svg>



