<svg aria-hidden="true" style="position: absolute; width: 0; height: 0; overflow: hidden;" version="1.1"
    xmlns="http://www.w3.org/2000/svg"
    xmlns:xlink="http://www.w3.org/1999/xlink">

    <defs>

        <symbol id="icon-menu" viewBox="0 0 10 10">
            <title>navigation</title>
            <path d="M8.6,0H1.4C0.6,0,0,0.6,0,1.4s0.6,1.4,1.4,1.4h7.1c0.8,0,1.4-0.6,1.4-1.4S9.4,0,8.6,0z M8.6,2.1H1.4
			c-0.4,0-0.7-0.3-0.7-0.7s0.3-0.7,0.7-0.7h7.1c0.4,0,0.7,0.3,0.7,0.7S8.9,2.1,8.6,2.1z"/>
            <path d="M8.6,3.6H1.4C0.6,3.6,0,4.2,0,5s0.6,1.4,1.4,1.4h7.1C9.4,6.4,10,5.8,10,5S9.4,3.6,8.6,3.6z M8.6,5.7H1.4
			C1.1,5.7,0.8,5.4,0.8,5s0.3-0.7,0.7-0.7h7.1c0.4,0,0.7,0.3,0.7,0.7S8.9,5.7,8.6,5.7z"/>
            <path d="M8.6,7.1H1.4C0.6,7.1,0,7.8,0,8.6S0.6,10,1.4,10h5.2C6.8,10,7,9.8,7,9.6S6.8,9.2,6.6,9.2H1.4c-0.4,0-0.7-0.3-0.7-0.7
			s0.3-0.7,0.7-0.7h7.1c0.4,0,0.7,0.3,0.7,0.7S8.9,9.2,8.6,9.2c-0.2,0-0.4,0.2-0.4,0.4S8.3,10,8.6,10C9.4,10,10,9.4,10,8.6
			S9.4,7.1,8.6,7.1z"/>
        </symbol>

        <symbol id="icon-login" viewBox="0 0 10 10">
            <title>login</title>
            <path id="Trazado_94_1_" d="M2.6,9.2H1.2c-0.1,0-0.2-0.1-0.3-0.1C0.8,9,0.8,8.8,0.8,8.7c0.4-2,2.1-3.4,4.1-3.4c0,0,0.1,0,0.1,0
	c0,0,0.1,0,0.1,0c0.5,0,1,0.1,1.4,0.3c0.2,0.1,0.4,0,0.5-0.2c0.1-0.2,0-0.4-0.2-0.5l0,0c-0.1,0-0.1,0-0.2-0.1C7.8,3.9,8,2.2,7.1,1.1
	C6.2-0.1,4.6-0.3,3.4,0.5S2,3.1,2.9,4.2C3,4.4,3.2,4.6,3.4,4.8c-1.7,0.6-3,2-3.4,3.8C-0.1,9.2,0.3,9.8,0.9,10c0.1,0,0.2,0,0.2,0h1.4
	C2.8,10,3,9.8,3,9.6S2.8,9.2,2.6,9.2L2.6,9.2z M3.1,2.7c0-1,0.8-1.9,1.9-1.9c1,0,1.9,0.8,1.9,1.9c0,1-0.8,1.8-1.8,1.9H5H4.9
	C3.9,4.5,3.1,3.7,3.1,2.7z"/>
            <path id="Trazado_95_2_" d="M9.7,6.7c-0.2-0.4-0.5-0.6-1-0.6H7.5c-0.4,0-0.8,0.3-1,0.7c0,0.1,0,0.1-0.1,0.2H3.9C3.8,7,3.7,7,3.6,7.1
	L3,7.8C2.8,7.9,2.8,8.2,3,8.3L3.6,9c0.1,0.1,0.2,0.1,0.3,0.1h1.3c0.2,0,0.4-0.2,0.4-0.4S5.4,8.4,5.2,8.4l0,0H4.1L3.8,8.1l0.3-0.3
	h2.7c0.2,0,0.3-0.1,0.4-0.3c0-0.1,0.1-0.3,0.1-0.4c0-0.1,0.1-0.2,0.2-0.2h1.2C8.8,6.9,8.9,7,9,7c0.1,0.3,0.2,0.7,0.2,1
	c0,0.3-0.1,0.7-0.2,1c0,0.1-0.1,0.2-0.2,0.2H7.5C7.4,9.2,7.3,9.1,7.3,9C7.2,8.9,7.2,8.8,7.1,8.7C7.1,8.4,6.9,8.3,6.7,8.4
	C6.5,8.4,6.3,8.6,6.4,8.8c0,0.2,0.1,0.3,0.2,0.5c0.2,0.4,0.5,0.7,1,0.7h1.2c0.4,0,0.8-0.2,1-0.6C9.9,9,10,8.5,10,8
	C10,7.6,9.9,7.1,9.7,6.7z"/>
            <circle id="Elipse_9_2_" cx="8.3" cy="8.2" r="0.2"/>
        </symbol>

        <symbol id="icon-register" viewBox="0 0 10 10">
            <title>register</title>
            <path id="Trazado_94_1_" d="M2.6,9.2H1.2c-0.1,0-0.2-0.1-0.3-0.1C0.8,9,0.8,8.8,0.8,8.7c0.4-2,2.1-3.4,4.1-3.4c0,0,0.1,0,0.1,0
	s0.1,0,0.1,0c0.5,0,1,0.1,1.4,0.3c0.2,0.1,0.4,0,0.5-0.2c0.1-0.2,0-0.4-0.2-0.5c-0.1,0-0.1,0-0.2-0.1C7.8,3.9,8,2.2,7.1,1.1
	S4.6-0.3,3.4,0.5S2,3.1,2.9,4.2C3,4.4,3.2,4.6,3.4,4.8c-1.7,0.6-3,2-3.4,3.8C-0.1,9.2,0.3,9.8,0.9,10c0.1,0,0.2,0,0.2,0h1.4
	C2.8,10,3,9.8,3,9.6S2.8,9.2,2.6,9.2z M3.1,2.7c0-1,0.8-1.9,1.9-1.9c1,0,1.9,0.8,1.9,1.9c0,1-0.8,1.8-1.8,1.9H5H4.9
	C3.9,4.5,3.1,3.7,3.1,2.7L3.1,2.7z"/>
            <path id="Trazado_99_2_" d="M9.7,5.7C9.2,5.2,8.5,5.2,8,5.7L5.9,7.8c0,0-0.1,0.1-0.1,0.2L5.3,9.5C5.2,9.7,5.3,9.9,5.6,10
	c0.1,0,0.1,0,0.2,0l1.6-0.4c0.1,0,0.1-0.1,0.2-0.1l2.1-2.1C10.1,6.9,10.1,6.1,9.7,5.7C9.7,5.7,9.7,5.7,9.7,5.7z M7,8.8L6.2,9
	l0.2-0.8l1.4-1.4l0.6,0.6L7,8.8z M9.1,6.8L9.1,6.8L8.5,6.3l0.1-0.1c0.2-0.1,0.4-0.1,0.6,0C9.2,6.4,9.2,6.6,9.1,6.8L9.1,6.8z"/>
        </symbol>

        <symbol id="icon-home" viewBox="0 0 10 10">
            <title>home</title>
            <path d="M9.9,4.4L5.8,0.3c0,0,0,0,0,0c-0.4-0.4-1.1-0.4-1.6,0c0,0,0,0,0,0L0.1,4.4C0,4.6,0,4.8,0.1,5c0.2,0.2,0.4,0.2,0.6,0L1,4.7
		V8c0,0.9,0.7,1.6,1.6,1.6h1.4c0.2,0,0.4-0.2,0.4-0.4V6h1.4v3.2c0,0.2,0.2,0.4,0.4,0.4h1.4C8.3,9.6,9,8.9,9,8c0-0.2-0.2-0.4-0.4-0.4
		C8.4,7.6,8.2,7.8,8.2,8c0,0.4-0.4,0.8-0.8,0.8h-1V5.6c0-0.2-0.2-0.4-0.4-0.4H3.9c-0.2,0-0.4,0.2-0.4,0.4v3.2h-1
		C2.1,8.8,1.8,8.5,1.8,8V3.9c0,0,0,0,0,0l3-3c0.1-0.1,0.4-0.1,0.5,0l3,3v2.2c0,0.2,0.2,0.4,0.4,0.4C8.8,6.5,9,6.3,9,6.1V4.7L9.3,5
		C9.4,5,9.5,5.1,9.6,5.1c0.1,0,0.2,0,0.3-0.1C10,4.8,10,4.6,9.9,4.4z"/>
        </symbol>

        <symbol id="icon-categories" viewBox="0 0 10 10">
            <title>categories</title>
            <path d="M8.6,0H5.8C5.6,0,5.4,0.2,5.4,0.4v2.8C5.4,4,6,4.6,6.8,4.6h2.8c0.2,0,0.4-0.2,0.4-0.4V1.4C10,0.6,9.4,0,8.6,0z M9.3,3.9H6.9
	c-0.4,0-0.8-0.3-0.8-0.8V0.7h2.3c0.4,0,0.8,0.3,0.8,0.8V3.9z"/>
            <path d="M3.2,5.4H0.3C0.1,5.4,0,5.6,0,5.7v2.9C0,9.4,0.6,10,1.3,10h2.9c0.2,0,0.3-0.1,0.3-0.3V6.8C4.6,6,4,5.4,3.2,5.4z M3.9,9.3
	H1.5c-0.4,0-0.7-0.3-0.7-0.7V6.1h2.4c0.4,0,0.7,0.3,0.7,0.7V9.3z"/>
            <path d="M3.2,0H0.3C0.1,0,0,0.1,0,0.3v2.9C0,4,0.6,4.6,1.3,4.6h2.9c0.2,0,0.3-0.1,0.3-0.3V1.4C4.6,0.6,4,0,3.2,0z M3.9,3.9H1.5
	c-0.4,0-0.7-0.3-0.7-0.7V0.7h2.4c0.4,0,0.7,0.3,0.7,0.7V3.9z"/>
            <path d="M8.6,5.4H5.7c-0.2,0-0.3,0.1-0.3,0.3v2.9C5.4,9.4,6,10,6.7,10h2.9C9.9,10,10,9.9,10,9.7V6.8C10,6,9.4,5.4,8.6,5.4z M9.3,9.3
	H6.9c-0.4,0-0.7-0.3-0.7-0.7V6.1h2.4c0.4,0,0.7,0.3,0.7,0.7V9.3z"/>
        </symbol>

        <symbol id="icon-more" viewBox="0 0 10 10">
            <title>plus</title>
            <path d="M5.4,10H4.6C4,10,3.4,9.5,3.4,8.8V6.5H1.2C0.5,6.5,0,6,0,5.4V4.6c0-0.6,0.5-1.2,1.2-1.2h2.3V1.2C3.4,0.5,4,0,4.6,0h0.8
	C6,0,6.6,0.5,6.6,1.2v2.2h2.3c0.6,0,1.2,0.5,1.2,1.2v0.8C10,6,9.5,6.5,8.8,6.5H6.6v0.3c0,0.2-0.2,0.4-0.4,0.4S5.8,7.1,5.8,6.9V6.2
	c0-0.2,0.2-0.4,0.4-0.4h2.7c0.2,0,0.4-0.2,0.4-0.4V4.6c0-0.2-0.2-0.4-0.4-0.4H6.2C6,4.2,5.8,4,5.8,3.8V1.2c0-0.2-0.2-0.4-0.4-0.4
	H4.6C4.4,0.8,4.2,1,4.2,1.2v2.6C4.2,4,4,4.2,3.8,4.2H1.2C1,4.2,0.8,4.4,0.8,4.6v0.8c0,0.2,0.2,0.4,0.4,0.4h2.7
	c0.2,0,0.4,0.2,0.4,0.4v2.7c0,0.2,0.2,0.4,0.4,0.4h0.8c0.2,0,0.4-0.2,0.4-0.4c0-0.2,0.2-0.4,0.4-0.4s0.4,0.2,0.4,0.4
	C6.6,9.5,6,10,5.4,10z"/>
        </symbol>

        <symbol id="icon-bell" viewBox="0 0 10 10">
            <title>bell</title>
            <path d="M9.1,7.4c0-0.2-0.2-0.4-0.5-0.3c-0.2,0-0.4,0.2-0.3,0.5c0,0.2,0,0.3-0.1,0.3C8.2,8,8.1,8,8,8H2C1.9,8,1.8,8,1.7,7.9
	c0-0.1-0.1-0.2-0.1-0.3C1.8,7,2,6.6,2.2,6.2c0.3-0.5,0.5-0.9,0.5-1.7V4c0-1.2,1-2.2,2.2-2.3H5c1.2,0,2.2,1,2.2,2.3v0.6
	c0,0.6,0.2,1,0.4,1.4C7.7,6.1,7.9,6.2,8,6.2c0.1,0,0.1,0,0.2,0C8.4,6,8.4,5.8,8.3,5.6C8.2,5.2,8,5,8,4.6V4c0-0.8-0.3-1.6-0.9-2.1
	C6.7,1.4,6.1,1,5.4,1V0.4C5.4,0.2,5.2,0,5,0C4.8,0,4.6,0.2,4.6,0.4V1C3.1,1.2,1.9,2.4,1.9,4v0.6c0,0.5-0.2,0.9-0.4,1.3
	C1.3,6.3,1,6.7,0.9,7.4c-0.1,0.3,0,0.7,0.3,1C1.4,8.7,1.7,8.8,2,8.8h1.8C3.8,9.5,4.4,10,5,10s1.2-0.5,1.2-1.2H8
	c0.3,0,0.7-0.2,0.9-0.4C9.1,8.1,9.2,7.8,9.1,7.4z M5,9.2C4.8,9.2,4.6,9,4.6,8.8h0.8C5.4,9,5.2,9.2,5,9.2z"/>
            <rect style="fill: none" width="10" height="10"/>
        </symbol>

        <symbol id="icon-date" viewBox="0 0 10 10">
            <title>date</title>
            <circle cx="7.5" cy="4.1" r="0.4"/>
            <path d="M8.4,0.8H7.9V0.4C7.9,0.2,7.8,0,7.5,0S7.1,0.2,7.1,0.4v0.4H5.4V0.4C5.4,0.2,5.2,0,5,0S4.6,0.2,4.6,0.4v0.4H2.8V0.4
				C2.8,0.2,2.7,0,2.4,0S2.1,0.2,2.1,0.4v0.4H1.6C0.7,0.8,0,1.5,0,2.3v6.1C0,9.3,0.7,10,1.6,10h3c0.2,0,0.4-0.2,0.4-0.4
				S4.8,9.2,4.6,9.2h-3c-0.4,0-0.8-0.4-0.8-0.8V2.3c0-0.4,0.4-0.8,0.8-0.8h0.5V2c0,0.2,0.2,0.4,0.4,0.4S2.8,2.2,2.8,2V1.6h1.8V2
				c0,0.2,0.2,0.4,0.4,0.4c0.2,0,0.4-0.2,0.4-0.4V1.6h1.8V2c0,0.2,0.2,0.4,0.4,0.4S7.9,2.2,7.9,2V1.6h0.5c0.4,0,0.8,0.4,0.8,0.8v2.2
				C9.2,4.8,9.4,5,9.6,5S10,4.8,10,4.6V2.3C10,1.5,9.3,0.8,8.4,0.8z"/>
            <path d="M7.6,5.3c-1.3,0-2.4,1.1-2.4,2.4S6.3,10,7.6,10S10,8.9,10,7.6S8.9,5.3,7.6,5.3z M7.6,9.2c-0.9,0-1.6-0.7-1.6-1.6
				s0.7-1.6,1.6-1.6s1.6,0.7,1.6,1.6S8.5,9.2,7.6,9.2z"/>
            <path d="M8.2,7.2H8V6.8c0-0.2-0.2-0.4-0.4-0.4S7.2,6.6,7.2,6.8v0.8C7.2,7.9,7.4,8,7.6,8h0.6c0.2,0,0.4-0.2,0.4-0.4
				S8.4,7.2,8.2,7.2z"/>
            <circle cx="5.8" cy="4.1" r="0.4"/>
            <circle cx="4.1" cy="5.8" r="0.4"/>
            <circle cx="2.4" cy="4.1" r="0.4"/>
            <circle cx="2.4" cy="5.8" r="0.4"/>
            <circle cx="2.4" cy="7.5" r="0.4"/>
            <circle cx="4.1" cy="7.5" r="0.4"/>
            <circle cx="4.1" cy="4.1" r="0.4"/>
            <rect style="fill: none" y="0" class="st0" width="10" height="10"/>
        </symbol>

        <symbol id="icon-ellipsis-vertical" viewBox="0 0 10 10">
            <title>ellipsis vertical</title>
            <path d="M5,3.5c0.8,0,1.5,0.6,1.5,1.5c0,0.8-0.6,1.5-1.5,1.5C4.2,6.5,3.5,5.8,3.5,5C3.5,4.2,4.2,3.5,5,3.5
	C5,3.5,5,3.5,5,3.5z M3.5,1.5c0,0.8,0.6,1.5,1.5,1.5s1.5-0.6,1.5-1.5S5.8,0,5,0C4.2,0,3.5,0.6,3.5,1.5C3.5,1.5,3.5,1.5,3.5,1.5z
	 M3.5,8.5C3.5,9.4,4.2,10,5,10s1.5-0.6,1.5-1.5c0-0.8-0.6-1.5-1.5-1.5h0C4.2,7.1,3.5,7.7,3.5,8.5C3.5,8.5,3.5,8.5,3.5,8.5z"/>
            <rect style="fill: none" y="0" class="st0" width="10" height="10"/>
        </symbol>

        <symbol id="icon-bookmark" viewBox="0 0 10 10">
            <title>bookmark</title>
            <path d="M1.3,10V0.9C1.2,0.4,1.7,0,2.2,0c0,0,0,0,0,0h5.6c0.5,0,0.9,0.4,0.9,0.9c0,0,0,0,0,0V10L5,7.8
	L1.3,10z"/>
            <rect style="fill: none" width="10" height="10"/>
        </symbol>

        <symbol id="icon-arrow-down" viewBox="0 0 10 10">
            <title>arrow down</title>
            <path d="M0.7,2.2h8.7c0.4,0,0.7,0.3,0.7,0.7C10,3,9.9,3.2,9.8,3.3L5.5,7.6c-0.3,0.3-0.7,0.3-1,0L0.2,3.3
	c-0.3-0.3-0.3-0.7,0-0.9C0.3,2.2,0.5,2.2,0.7,2.2z"/>
            <rect style="fill: none" width="10" height="10"/>
        </symbol>

        <symbol id="icon-user" viewBox="0 0 10 10">
            <title>user</title>
            <path d="M10,8.6c0-0.2-0.3-0.3-0.5-0.3c-0.2,0-0.3,0.2-0.3,0.5c0,0.1,0,0.2-0.1,0.3C9.1,9.2,8.9,9.2,8.8,9.2
	H1.2c-0.1,0-0.2-0.1-0.3-0.1C0.8,9,0.8,8.9,0.8,8.7c0.4-2,2.1-3.4,4.1-3.4H5h0.1c1.4,0,2.7,0.7,3.5,1.9c0.1,0.2,0.4,0.2,0.5,0.1
	C9.3,7.2,9.3,7,9.2,6.8c-0.6-0.9-1.6-1.6-2.6-2C7.8,3.9,8,2.2,7.1,1.1S4.6-0.3,3.4,0.5S2,3.1,2.9,4.2C3,4.5,3.2,4.6,3.4,4.8
	c-1.7,0.6-3,2-3.4,3.8C-0.1,9.2,0.3,9.8,0.9,10c0.1,0,0.2,0,0.2,0h7.6C9.5,10,10,9.5,10,8.8C10,8.7,10,8.7,10,8.6z M3.1,2.7
	c0-1,0.8-1.9,1.9-1.9c1,0,1.9,0.8,1.9,1.9c0,1-0.8,1.8-1.8,1.9H4.9C3.9,4.5,3.1,3.7,3.1,2.7L3.1,2.7z"/>
            <rect style="fill: none" width="10" height="10"/>
        </symbol>

        <symbol id="icon-quotes" viewBox="0 0 10 10">
            <title>quotes</title>
            <path d="M2,2.2C2,2,2.1,1.8,2.3,1.8h5.3C7.9,1.8,8,2,8,2.2S7.9,2.6,7.7,2.6H2.3C2.1,2.6,2,2.4,2,2.2z M8,3.8c0-0.2-0.2-0.4-0.4-0.4
	H2.3C2.1,3.4,2,3.6,2,3.8s0.2,0.4,0.4,0.4h5.3C7.9,4.2,8,4,8,3.8z M2.3,4.9C2.1,4.9,2,5.1,2,5.3s0.2,0.4,0.4,0.4h1.8
	c0.2,0,0.4-0.2,0.4-0.4S4.4,4.9,4.1,4.9H2.3z M9.7,8c0.5,0.5,0.5,1.2,0,1.7C9.4,9.9,9.1,10,8.8,10S8.2,9.9,8,9.7L5.9,7.5
	c0,0-0.1-0.1-0.1-0.2L5.3,5.8c0-0.1,0-0.3,0.1-0.4c0.1-0.1,0.2-0.1,0.4-0.1l1.5,0.5c0.1,0,0.1,0.1,0.2,0.1L9.7,8z M6.5,7l1.4,1.4
	l0.6-0.6L7,6.5L6.3,6.2L6.5,7z M9.1,8.6L9.1,8.6L8.5,9l0.1,0.1c0.2,0.2,0.4,0.2,0.6,0C9.3,9,9.3,8.7,9.1,8.6z M8.4,0H1.6
	C0.7,0,0,0.7,0,1.6v6.9C0,9.3,0.7,10,1.6,10h4.8c0.2,0,0.4-0.2,0.4-0.4S6.6,9.2,6.3,9.2H1.6c-0.4,0-0.8-0.4-0.8-0.8V1.6
	c0-0.4,0.4-0.8,0.8-0.8h6.9c0.4,0,0.8,0.4,0.8,0.8v4.8c0,0.2,0.2,0.4,0.4,0.4S10,6.6,10,6.4V1.6C10,0.7,9.3,0,8.4,0z"/>
            <rect style="fill: none" width="10" height="10"/>
        </symbol>

        <symbol id="icon-directory" viewBox="0 0 10 10">
            <title>directory</title>
            <path d="M3.5,6.1c0,0.2,0,0.4,0.1,0.6C3.8,6.8,4,6.9,4.2,6.9h2.7c0.2,0,0.4-0.1,0.5-0.2c0.1-0.2,0.2-0.4,0.1-0.6c0,0,0,0,0,0
	C7.3,5.5,7,5,6.5,4.7c0.1-0.2,0.2-0.4,0.2-0.6c0-0.6-0.5-1.2-1.2-1.2c-0.6,0-1.2,0.5-1.2,1.2c0,0.2,0.1,0.5,0.2,0.6
	C4,5,3.6,5.5,3.5,6.1z M5.5,3.7c0.2,0,0.4,0.2,0.4,0.4S5.7,4.5,5.5,4.5c-0.2,0-0.4-0.2-0.4-0.4S5.3,3.7,5.5,3.7z M5.5,5.2
	c0.5,0,1,0.4,1.2,0.9H4.3C4.5,5.6,5,5.2,5.5,5.2z"/>
            <path d="M9.2,6.1c0.2,0,0.4-0.2,0.4-0.4V0.4C9.6,0.2,9.4,0,9.2,0H2.4C1.7,0,1.2,0.5,1.2,1.2v0.6C0.7,1.9,0.4,2.3,0.4,2.9
	S0.7,3.8,1.2,4v0.1C0.7,4.3,0.4,4.7,0.4,5.2s0.3,0.9,0.8,1.1v0.1C0.7,6.6,0.4,7,0.4,7.5s0.3,0.9,0.8,1.1v0.2c0,0.6,0.5,1.2,1.2,1.2
	h6.9c0.2,0,0.4-0.2,0.4-0.4V8.4C9.6,8.2,9.4,8,9.2,8S8.8,8.2,8.8,8.4v0.8H2.4C2.1,9.2,2,9,2,8.8V8.3c0-0.2-0.2-0.4-0.4-0.4
	c-0.2,0-0.4-0.2-0.4-0.4c0-0.2,0.2-0.4,0.4-0.4h0.8c0.2,0,0.4-0.2,0.4-0.4c0-0.2-0.2-0.4-0.4-0.4H2V6c0-0.2-0.2-0.4-0.4-0.4
	c-0.2,0-0.4-0.2-0.4-0.4c0-0.2,0.2-0.4,0.4-0.4h0.8c0.2,0,0.4-0.2,0.4-0.4C2.7,4.2,2.6,4,2.4,4H2V3.6c0-0.2-0.2-0.4-0.4-0.4
	c-0.2,0-0.4-0.2-0.4-0.4c0-0.2,0.2-0.4,0.4-0.4h0.8c0.2,0,0.4-0.2,0.4-0.4c0-0.2-0.2-0.4-0.4-0.4H2V1.2C2,1,2.1,0.8,2.4,0.8l6.5,0
	v4.9C8.8,5.9,9,6.1,9.2,6.1z"/>
            <rect style="fill: none" width="10" height="10"/>
        </symbol>

        <symbol id="icon-next" viewBox="0 0 10 10">
            <title>next</title>
            <path d="M9.8,4.6C9.8,2.9,9,1.5,7.4,0.6C6.8,0.2,6,0,5.2,0C5,0,4.8,0.1,4.8,0.4c0,0.2,0.1,0.3,0.4,0.4c0,0,0.1,0,0.1,0
		C6.9,0.8,8,1.6,8.8,3c0.4,0.8,0.4,1.6,0.3,2.4C9,7.5,7.4,9.2,5.3,9.3c-0.1,0-0.2,0-0.2,0c-0.2,0-0.3,0.2-0.3,0.3
		c0,0.2,0.1,0.3,0.3,0.4c0.1,0,0.2,0,0.3,0c1.1-0.1,2.1-0.4,2.9-1.2c1.1-1,1.6-2.3,1.5-3.8C9.8,4.9,9.8,4.8,9.8,4.6z"/>
            <path d="M6.4,4.7C6.3,4.5,6.1,4.3,5.9,4.1C5.5,3.7,5.1,3.4,4.7,3C4.5,2.8,4.3,2.8,4.2,3C4,3.1,4,3.3,4.2,3.5
		c0.1,0.1,0.1,0.1,0.2,0.2C4.7,4,5,4.3,5.3,4.6c-0.1,0-0.2,0-0.2,0c-1,0-1.9,0-2.9,0c-0.1,0-0.1,0-0.2,0C1.7,4.7,1.6,4.8,1.6,5
		c0,0.2,0.1,0.3,0.3,0.4c0.1,0,0.1,0,0.2,0c1,0,1.9,0,2.9,0c0.1,0,0.2,0,0.3,0C5.3,5.4,5.2,5.5,5.2,5.5c-0.3,0.3-0.6,0.6-1,0.9
		C4,6.7,4,6.9,4.2,7c0.2,0.2,0.4,0.1,0.5,0c0.6-0.6,1.2-1.1,1.7-1.7C6.7,5.1,6.7,4.9,6.4,4.7z"/>
            <path d="M1,4.7c-0.2,0-0.3,0-0.5,0C0.3,4.7,0.2,4.8,0.2,5c0,0.2,0.1,0.3,0.3,0.4c0.1,0,0.2,0,0.2,0c0,0,0,0,0,0c0.1,0,0.2,0,0.3,0
		c0.2,0,0.3-0.2,0.3-0.4C1.2,4.8,1.1,4.7,1,4.7z"/>
            <rect style="fill: none" width="10" height="10"/>
        </symbol>

        <symbol id="icon-previous" viewBox="0 0 10 10">
            <title>previous</title>
            <path d="M0.2,4.6C0.2,2.9,1,1.5,2.6,0.6C3.2,0.2,4,0,4.8,0C5,0,5.2,0.1,5.2,0.4c0,0.2-0.1,0.3-0.4,0.4c0,0-0.1,0-0.1,0
		C3.1,0.8,2,1.6,1.2,3C0.9,3.8,0.9,4.6,0.9,5.5C1,7.5,2.6,9.2,4.7,9.3c0.1,0,0.2,0,0.2,0c0.2,0,0.3,0.2,0.3,0.3
		c0,0.2-0.1,0.3-0.3,0.4c-0.1,0-0.2,0-0.3,0C3.5,9.9,2.5,9.5,1.7,8.8C0.6,7.8,0.1,6.5,0.2,5C0.2,4.9,0.2,4.8,0.2,4.6z"/>
            <path d="M3.6,4.7c0.2-0.2,0.4-0.4,0.6-0.6C4.5,3.7,4.9,3.4,5.3,3c0.2-0.2,0.4-0.2,0.5,0C6,3.1,6,3.3,5.8,3.5
		C5.7,3.6,5.6,3.7,5.6,3.7C5.3,4,5,4.3,4.7,4.6c0.1,0,0.2,0,0.2,0c1,0,1.9,0,2.9,0c0.1,0,0.1,0,0.2,0c0.2,0,0.3,0.1,0.3,0.3
		c0,0.2-0.1,0.3-0.3,0.4c-0.1,0-0.1,0-0.2,0c-1,0-1.9,0-2.9,0c-0.1,0-0.2,0-0.3,0c0.1,0.1,0.1,0.1,0.2,0.2c0.3,0.3,0.6,0.6,1,0.9
		C6,6.7,6,6.9,5.8,7C5.7,7.2,5.5,7.2,5.3,7C4.7,6.4,4.1,5.9,3.6,5.3C3.3,5.1,3.3,4.9,3.6,4.7z"/>
            <path d="M9,4.7c0.2,0,0.3,0,0.5,0c0.2,0,0.3,0.2,0.3,0.3c0,0.2-0.1,0.3-0.3,0.4c-0.1,0-0.2,0-0.2,0c0,0,0,0,0,0c-0.1,0-0.2,0-0.3,0
		C8.9,5.3,8.8,5.2,8.8,5C8.8,4.8,8.9,4.7,9,4.7z"/>
            <rect style="fill: none" width="10" height="10"/>
        </symbol>

        <symbol id="icon-airplane" viewBox="0 0 10 10">
            <title>airplane</title>
            <path d="M5.4,3c-0.5,0.5-0.5,1.2,0,1.7C5.6,4.8,5.9,5,6.2,5C6.5,5,6.8,4.8,7,4.6C7.5,4.2,7.5,3.4,7,3C6.6,2.5,5.8,2.5,5.4,3z
				 M6.5,4.1c-0.2,0.2-0.4,0.2-0.6,0c-0.2-0.2-0.2-0.4,0-0.6C6,3.4,6.1,3.4,6.2,3.4c0.1,0,0.2,0,0.3,0.1C6.6,3.7,6.6,3.9,6.5,4.1z" />
            <path d="M9.7,0.3C9.4,0.1,9.1,0,8.8,0c-0.5,0-1.2,0.2-2,0.4C5.9,0.8,5.1,1.2,4.6,1.8c0,0,0,0,0,0L4.5,1.9L0.3,3.2
				C0.1,3.3,0,3.4,0,3.5s0,0.3,0.1,0.4L2,5.8C1.6,5.8,1.2,6,0.9,6.3C0.6,6.6,0.4,7.3,0.2,8.3C0.1,8.9,0,9.6,0,9.6
				c0,0.1,0,0.2,0.1,0.3C0.2,10,0.3,10,0.4,10c0,0,0,0,0,0c0,0,0.6-0.1,1.3-0.2c1-0.2,1.6-0.4,1.9-0.7C4,8.8,4.2,8.4,4.2,8l1.9,1.9
				C6.2,10,6.3,10,6.4,10c0,0,0.1,0,0.1,0c0.1,0,0.2-0.1,0.3-0.3l1.3-4.2C8.2,5.3,8,5.1,7.8,5c0,0,0,0,0,0C7.7,5,7.5,5,7.4,5.1
				L4.9,7.6L2.4,5.1l2.5-2.6c0,0,0,0,0.1-0.1l0.1-0.1C6.3,1.2,8,0.9,8.9,0.8c0.1,0,0.2,0.1,0.3,0.1C9.2,1,9.2,1.1,9.2,1.2
				C9.1,1.8,9,2.7,8.5,3.6C8.4,3.8,8.5,4,8.7,4.1c0.2,0.1,0.4,0,0.5-0.2c0.5-1,0.7-2,0.8-2.6C10,0.9,9.9,0.6,9.7,0.3z M6.9,6.7
				L6.2,8.9L5.5,8.1L6.9,6.7z M2.7,6.9c0.1-0.1,0.1-0.1,0.2-0.1c0.1,0,0.1,0,0.2,0l0.1,0.1c0,0,0,0.1,0,0.2c0,0.1,0,0.2-0.1,0.2
				C3.1,7.4,2.8,7.4,2.5,7.5C2.6,7.2,2.7,6.9,2.7,6.9z M2.7,8.2C3.1,8.2,3.3,8.1,3.4,8C3.4,8.2,3.3,8.4,3.1,8.5
				C2.8,8.8,1.7,9.1,0.8,9.2c0.1-0.9,0.3-2,0.6-2.3C1.6,6.7,1.8,6.6,2,6.6C1.9,6.7,1.8,6.9,1.8,7.3C1.7,7.6,1.7,7.9,1.7,7.9
				c0,0.1,0,0.2,0.1,0.3C1.9,8.3,2,8.3,2.1,8.3c0,0,0,0,0,0C2.1,8.3,2.4,8.3,2.7,8.2z M1.9,4.5L1.1,3.8l2.2-0.7L1.9,4.5z"/>
            <circle cx="7.7" cy="2.3" r="0.4"/>
            <rect style="fill: none" width="10" height="10"/>
        </symbol>

        <symbol id="icon-send-quote" viewBox="0 0 10 10">
            <title>send quote</title>
            <path d="M7,6.6C7.2,6.8,7.3,7,7.3,7.3S7.2,7.8,7,8L6.3,8.7C6.2,8.8,6.1,8.8,6,8.8c-0.1,0-0.2,0-0.3-0.1c-0.2-0.2-0.2-0.4,0-0.6
	l0.5-0.5H4C3.6,7.6,3.2,8,3.2,8.4S3.6,9.2,4,9.2c0.2,0,0.4,0.2,0.4,0.4S4.2,10,4,10c-0.4,0-0.8-0.2-1.1-0.5C2.6,9.2,2.5,8.8,2.5,8.4
	c0-0.9,0.7-1.6,1.6-1.6h2.2L5.8,6.4C5.6,6.3,5.6,6,5.8,5.9c0.2-0.2,0.4-0.2,0.6,0L7,6.6z M10,1.6v2.6c0,0.2-0.2,0.4-0.4,0.4
	S9.2,4.3,9.2,4.1V1.7L5.8,3.8C5.6,3.9,5.3,4,5,4S4.4,3.9,4.2,3.8L0.8,1.7v4.4c0,0.4,0.4,0.8,0.8,0.8C1.8,6.9,2,7,2,7.2
	S1.8,7.6,1.6,7.6C0.7,7.6,0,6.9,0,6.1V1.6C0,0.7,0.7,0,1.6,0h6.9C9.3,0,10,0.7,10,1.6z M8.9,0.9C8.8,0.8,8.6,0.8,8.4,0.8H1.6
	c-0.2,0-0.3,0.1-0.5,0.2l3.5,2.2c0.3,0.2,0.6,0.2,0.8,0L8.9,0.9z M9.6,5.7c-0.2,0-0.4,0.2-0.4,0.4c0,0.4-0.4,0.8-0.8,0.8
	C8.2,6.9,8,7,8,7.2s0.2,0.4,0.4,0.4c0.9,0,1.6-0.7,1.6-1.6C10,5.9,9.8,5.7,9.6,5.7z"/>
            <rect style="fill: none" width="10" height="10"/>
        </symbol>

        <symbol id="icon-location" viewBox="0 0 10 10">
            <title>location</title>
            <path d="M2.3,4c0,0.9,0.7,1.7,1.7,1.7c0.2,0,0.4,0.2,0.4,0.4c0,0.2-0.2,0.4-0.4,0.4C2.7,6.4,1.6,5.3,1.6,4c0-1.3,1.1-2.4,2.4-2.4
	c1.3,0,2.4,1.1,2.4,2.4c0,0.2-0.2,0.4-0.4,0.4S5.7,4.2,5.7,4c0-0.9-0.7-1.7-1.7-1.7S2.3,3.1,2.3,4z M2.7,7.4c-1-1.1-1.9-2-1.9-3.5
	c0-1.8,1.4-3.2,3.2-3.2c1.8,0,3.2,1.4,3.2,3.2c0,0.2,0.2,0.4,0.4,0.4h0C7.8,4.4,8,4.2,8,4c0-1.1-0.4-2.1-1.2-2.8C6.1,0.4,5.1,0,4,0
	C2.9,0,1.9,0.4,1.2,1.2C0.4,1.9,0,2.9,0,4c0,0.8,0.2,1.5,0.7,2.2C1.1,6.8,1.6,7.4,2.1,8c0.5,0.6,1.1,1.2,1.5,1.8
	C3.6,9.9,3.8,10,3.9,10C4,10,4,10,4.1,9.9c0.2-0.1,0.2-0.4,0.1-0.5C3.8,8.6,3.2,8,2.7,7.4z M9.9,7.6C9.8,7.7,9.7,7.8,9.6,7.8
	c-0.1,0-0.2,0-0.3-0.1l0,0v1.3c0,0.6-0.5,1.1-1.1,1.1H6c-0.6,0-1.1-0.5-1.1-1.1V7.6l0,0c-0.2,0.1-0.4,0.1-0.6,0
	c-0.1-0.2-0.1-0.4,0-0.6l2-1.8c0.4-0.4,1.1-0.4,1.5,0l1.3,1.2c0,0,0,0,0,0l0.7,0.6C10,7.2,10,7.5,9.9,7.6z M8.5,6.9L7.3,5.8
	C7.2,5.7,7,5.7,6.9,5.8L5.7,6.9v2c0,0.2,0.1,0.3,0.3,0.3h2.2c0.2,0,0.3-0.1,0.3-0.3V6.9z"/>
            <rect style="fill: none" width="10" height="10"/>
        </symbol>

        <symbol id="icon-like" viewBox="0 0 10 10">
            <title>like</title>
            <path d="M1.2,3.7h0.6c0.1,0,0.2,0,0.4,0.1l1.9-3l0.3-0.4l0,0C4.5,0.1,4.8,0,5.2,0c0.6,0,1.2,0.5,1.2,1.2c0,0.1,0,0.3-0.1,0.4l0,0
	l0,0C6.2,1.7,6.1,1.9,6.1,2C5.9,2.3,5.6,2.9,5.5,3.1c0,0.2,0.3,0.3,0.5,0.3h2.6c0.6,0,1.1,0.5,1.1,1.1c0,0.2-0.1,0.4-0.2,0.6
	C9.8,5.3,10,5.6,10,6c0,0.3-0.1,0.5-0.3,0.7c0,0.1-0.1,0.1-0.2,0.1C9.7,7,9.7,7.2,9.7,7.4c0,0.4-0.2,0.8-0.6,1
	c0.1,0.1,0.1,0.3,0.1,0.5c0,0.7-0.5,1.1-1.1,1.1H4.3c-0.2,0-0.4-0.2-0.4-0.4s0.2-0.4,0.4-0.4h3.8c0.3,0,0.3-0.3,0.3-0.4
	c0-0.2-0.1-0.2-0.2-0.3C8,8.5,8,8.3,8,8.2c0-0.2,0.2-0.4,0.5-0.4h0.1c0.2,0,0.3-0.1,0.3-0.3c0-0.1-0.1-0.2-0.2-0.3c0,0,0,0,0,0
	C8.6,7,8.5,6.9,8.5,6.7c0-0.1,0.1-0.4,0.5-0.4c0.1,0,0.3-0.2,0.3-0.3c0-0.1-0.1-0.3-0.3-0.3C8.7,5.6,8.6,5.4,8.6,5.2
	c0-0.1,0-0.3,0.2-0.4c0.1-0.1,0.1-0.2,0.1-0.3c0-0.2-0.1-0.3-0.3-0.3H6c-0.6,0-1.3-0.4-1.3-1.1l0,0c0-0.2,0.2-0.6,0.6-1.4
	c0.1-0.1,0.1-0.2,0.2-0.4c0,0,0-0.1,0-0.1c0-0.2-0.2-0.4-0.4-0.4c-0.1,0-0.2,0-0.3,0.1L4.7,1.2l-2,3.1c0.1,0.2,0.2,0.4,0.2,0.6v4
	c0,0.6-0.5,1.2-1.2,1.2H1.2C0.5,10,0,9.5,0,8.8v-4C0,4.2,0.5,3.7,1.2,3.7z M0.8,8.8C0.8,9,1,9.2,1.2,9.2h0.6C2,9.2,2.1,9,2.1,8.8v-4
	c0-0.2-0.2-0.4-0.4-0.4H1.2C1,4.5,0.8,4.6,0.8,4.8V8.8z"/>
            <rect style="fill: none" width="10" height="10"/>
        </symbol>

        <symbol id="icon-work" viewBox="0 0 10 10">
            <title>work</title>
            <g>
                <path d="M8.4,1.7H6.8V1.2c0-0.6-0.5-1.1-1.1-1.1H4.3c-0.6,0-1.1,0.5-1.1,1.1v0.5H1.6C0.7,1.7,0,2.4,0,3.2v4.6
		c0,0.9,0.7,1.6,1.6,1.6h3.2C5,9.3,5.1,9.2,5.1,9c0-0.2-0.2-0.4-0.4-0.4H1.6c-0.4,0-0.8-0.4-0.8-0.8v-3h3.8v0.6
		c0,0.2,0.2,0.4,0.4,0.4c0.2,0,0.4-0.2,0.4-0.4V4.8h3.8v0.5c0,0.2,0.2,0.4,0.4,0.4c0.2,0,0.4-0.2,0.4-0.4V3.2
		C10,2.4,9.3,1.7,8.4,1.7z M4,1.2C4,1,4.2,0.9,4.3,0.9h1.4C5.8,0.9,6,1,6,1.2v0.5H4V1.2z M9.2,4H0.8V3.2c0-0.4,0.4-0.8,0.8-0.8h6.9
		c0.4,0,0.8,0.4,0.8,0.8V4z"/>
                <path d="M9.6,6.2c0,0-0.1-0.1-0.1,0L8.9,6.9c0,0-0.1,0.1-0.1,0.1L8.6,7C8.4,7,8.2,6.9,8.3,6.7l0-0.2c0,0,0-0.1,0-0.1l0.6-0.7
		c0,0,0-0.1,0-0.1C8.5,5.4,8,5.6,7.7,5.9c-0.2,0.3-0.3,0.7-0.2,1L6.9,7.8C6.5,7.7,6,7.8,5.7,8.1C5.5,8.4,5.4,8.9,5.6,9.3
		c0,0,0.1,0.1,0.1,0l0.6-0.7c0,0,0.1-0.1,0.1-0.1l0.2-0.1c0.2,0,0.3,0.1,0.3,0.3l0,0.2c0,0,0,0.1,0,0.1L6.3,9.8c0,0,0,0.1,0,0.1
		c0.4,0.1,0.9,0,1.1-0.4c0.2-0.3,0.3-0.7,0.1-1l0.7-0.8c0.4,0.1,0.9,0,1.2-0.3C9.7,7,9.8,6.5,9.6,6.2z"/>
            </g>
            <rect style="fill:none" width="10" height="10"/>
        </symbol>

        <symbol id="icon-contact" viewBox="0 0 10 10">
            <title>contact</title>
            <path d="M3.5,6.1c0,0.2,0,0.4,0.1,0.6C3.8,6.8,4,6.9,4.2,6.9h2.7c0.2,0,0.4-0.1,0.5-0.2c0.1-0.2,0.2-0.4,0.1-0.6c0,0,0,0,0,0
		C7.3,5.5,7,5,6.5,4.7c0.1-0.2,0.2-0.4,0.2-0.6c0-0.6-0.5-1.2-1.2-1.2c-0.6,0-1.2,0.5-1.2,1.2c0,0.2,0.1,0.5,0.2,0.6
		C4,5,3.6,5.5,3.5,6.1z M5.5,3.7c0.2,0,0.4,0.2,0.4,0.4S5.7,4.5,5.5,4.5c-0.2,0-0.4-0.2-0.4-0.4S5.3,3.7,5.5,3.7z M5.5,5.2
		c0.5,0,1,0.4,1.2,0.9H4.3C4.5,5.6,5,5.2,5.5,5.2z"/>
            <path d="M9.2,6.1c0.2,0,0.4-0.2,0.4-0.4V0.4C9.6,0.2,9.4,0,9.2,0H2.4C1.7,0,1.2,0.5,1.2,1.2v0.6C0.7,1.9,0.4,2.3,0.4,2.9
		S0.7,3.8,1.2,4v0.1C0.7,4.3,0.4,4.7,0.4,5.2s0.3,0.9,0.8,1.1v0.1C0.7,6.6,0.4,7,0.4,7.5s0.3,0.9,0.8,1.1v0.2c0,0.6,0.5,1.2,1.2,1.2
		h6.9c0.2,0,0.4-0.2,0.4-0.4V8.4C9.6,8.2,9.4,8,9.2,8S8.8,8.2,8.8,8.4v0.8H2.4C2.1,9.2,2,9,2,8.8V8.3c0-0.2-0.2-0.4-0.4-0.4
		c-0.2,0-0.4-0.2-0.4-0.4c0-0.2,0.2-0.4,0.4-0.4h0.8c0.2,0,0.4-0.2,0.4-0.4c0-0.2-0.2-0.4-0.4-0.4H2V6c0-0.2-0.2-0.4-0.4-0.4
		c-0.2,0-0.4-0.2-0.4-0.4c0-0.2,0.2-0.4,0.4-0.4h0.8c0.2,0,0.4-0.2,0.4-0.4C2.7,4.2,2.6,4,2.4,4H2V3.6c0-0.2-0.2-0.4-0.4-0.4
		c-0.2,0-0.4-0.2-0.4-0.4c0-0.2,0.2-0.4,0.4-0.4h0.8c0.2,0,0.4-0.2,0.4-0.4c0-0.2-0.2-0.4-0.4-0.4H2V1.2C2,1,2.1,0.8,2.4,0.8l6.5,0
		v4.9C8.8,5.9,9,6.1,9.2,6.1z"/>
            <rect style="fill: none" width="10" height="10"/>
        </symbol>

        <symbol id="icon-comment" viewBox="0 0 10 10">
            <title>coomment</title>
            <path d="M5,3.9c0.2,0,0.4,0.2,0.4,0.4c0,0.2-0.2,0.4-0.4,0.4S4.6,4.6,4.6,4.3C4.6,4.1,4.8,3.9,5,3.9z M6.3,4.3
	c0,0.2,0.2,0.4,0.4,0.4s0.4-0.2,0.4-0.4c0-0.2-0.2-0.4-0.4-0.4S6.3,4.1,6.3,4.3z M2.8,4.3c0,0.2,0.2,0.4,0.4,0.4s0.4-0.2,0.4-0.4
	c0-0.2-0.2-0.4-0.4-0.4S2.8,4.1,2.8,4.3z M9.7,8c0.5,0.5,0.5,1.2,0,1.7C9.4,9.9,9.1,10,8.8,10C8.5,10,8.2,9.9,8,9.7L5.9,7.5
	c0,0-0.1-0.1-0.1-0.2L5.3,5.8c0-0.1,0-0.3,0.1-0.4c0.1-0.1,0.2-0.1,0.4-0.1l1.6,0.4c0.1,0,0.1,0.1,0.2,0.1L9.7,8z M6.5,7l1.4,1.4
	l0.6-0.6L7,6.5L6.2,6.3L6.5,7z M9.1,8.6L9.1,8.6L8.5,9l0.1,0.1c0.2,0.2,0.4,0.2,0.6,0C9.3,9,9.3,8.7,9.1,8.6z M5.2,8.1
	c-0.1,0-0.1,0-0.2,0C4.4,8.1,3.8,8,3.2,7.8c-0.1,0-0.2,0-0.3,0L1.1,8.5l0.6-1.4c0.1-0.1,0-0.3-0.1-0.4C1.1,6,0.8,5.3,0.8,4.5
	c0-2,1.9-3.7,4.2-3.7s4.2,1.6,4.2,3.7c0,0.5-0.1,1-0.4,1.4C8.8,6.1,8.9,6.3,9,6.4c0.2,0.1,0.4,0,0.5-0.2C9.9,5.6,10,5.1,10,4.5
	C10,2,7.8,0,5,0C2.2,0,0,2,0,4.5C0,5.4,0.3,6.3,0.9,7L0,9.1C0,9.2,0,9.4,0.1,9.5c0.1,0.1,0.2,0.1,0.3,0.1c0.1,0,0.1,0,0.2,0l2.5-1.1
	C3.7,8.8,4.3,8.9,5,8.9c0.1,0,0.2,0,0.3,0c0.2,0,0.4-0.2,0.4-0.4C5.6,8.3,5.4,8.1,5.2,8.1z"/>
            <rect style="fill: none" class="st0" width="10" height="10"/>
        </symbol>

        <symbol id="icon-like-active" viewBox="0 0 10 10">
            <title>like active</title>
            <g>
                <path class="st1" d="M0.4,9.3c0,0.3,0.3,0.5,0.6,0.5h0.9c0.3,0,0.6-0.2,0.6-0.5V4.4c0-0.3-0.3-0.5-0.6-0.5H1
		c-0.3,0-0.6,0.2-0.6,0.5V9.3z"/>
                <path class="st2" d="M8.3,9.2C8.5,9.2,8.7,9,8.7,8.9c0-0.2-0.1-0.2-0.2-0.3C8.3,8.5,8.2,8.4,8.2,8.3c0-0.2,0.2-0.4,0.5-0.4h0.1
		c0.2,0,0.3-0.2,0.3-0.4c0-0.1-0.2-0.3-0.3-0.4c0,0,0,0,0,0C8.6,7,8.6,6.9,8.6,6.7c0-0.1,0-0.3,0.4-0.3c0.1,0,0.3-0.2,0.3-0.3
		c0-0.1,0-0.5-0.1-0.5C8.9,5.5,8.7,5.4,8.7,5.2c0-0.1,0-0.3,0.2-0.4C9,4.7,9.1,4.5,9.1,4.4c0-0.2-0.1-0.3-0.3-0.3H6.2
		C5.6,4.1,5,3.7,5,3.1V2.8c0-0.2,0.2-0.4,0.6-1.2c0.1-0.1,0.1-0.2,0.2-0.4c0,0,0-0.1,0-0.1c0-0.2-0.5-0.5-0.7-0.5
		c-0.1,0-0.2,0-0.3,0.1L4.7,1l-2,3.1c0.1,0.2,0.2,0.4,0.2,0.6v0.8C4.1,7.2,6.2,8.7,8.3,9.2z"/>
                <path d="M1.2,3.7h0.6c0.1,0,0.2,0,0.4,0.1l1.9-3l0.3-0.4l0,0C4.5,0.1,4.8,0,5.2,0c0.6,0,1.2,0.5,1.2,1.2c0,0.1,0,0.3-0.1,0.4l0,0
		l0,0C6.2,1.7,6.1,1.9,6.1,2C5.9,2.3,5.6,2.9,5.5,3.1c0,0.2,0.3,0.3,0.5,0.3h2.6c0.6,0,1.1,0.5,1.1,1.1c0,0.2-0.1,0.4-0.2,0.6
		C9.8,5.3,10,5.6,10,6c0,0.3-0.1,0.5-0.3,0.7c0,0.1-0.1,0.1-0.2,0.1C9.7,7,9.7,7.2,9.7,7.4c0,0.4-0.2,0.8-0.6,1
		c0.1,0.1,0.1,0.3,0.1,0.5c0,0.7-0.5,1.1-1.1,1.1H4.3c-0.2,0-0.4-0.2-0.4-0.4s0.2-0.4,0.4-0.4h3.8c0.3,0,0.3-0.3,0.3-0.4
		c0-0.2-0.1-0.2-0.2-0.3C8,8.5,8,8.3,8,8.2c0-0.2,0.2-0.4,0.5-0.4h0.1c0.2,0,0.3-0.1,0.3-0.3c0-0.1-0.1-0.2-0.2-0.3c0,0,0,0,0,0
		C8.6,7,8.5,6.9,8.5,6.7c0-0.1,0.1-0.4,0.5-0.4c0.1,0,0.3-0.2,0.3-0.3c0-0.1-0.1-0.3-0.3-0.3C8.7,5.6,8.6,5.4,8.6,5.2
		c0-0.1,0-0.3,0.2-0.4c0.1-0.1,0.1-0.2,0.1-0.3c0-0.2-0.1-0.3-0.3-0.3H6c-0.6,0-1.3-0.4-1.3-1.1l0,0c0-0.2,0.2-0.6,0.6-1.4
		c0.1-0.1,0.1-0.2,0.2-0.4c0,0,0-0.1,0-0.1c0-0.2-0.2-0.4-0.4-0.4c-0.1,0-0.2,0-0.3,0.1L4.7,1.2l-2,3.1c0.1,0.2,0.2,0.4,0.2,0.6v4
		c0,0.6-0.5,1.2-1.2,1.2H1.2C0.5,10,0,9.5,0,8.8v-4C0,4.2,0.5,3.7,1.2,3.7z M0.8,8.8C0.8,9,1,9.2,1.2,9.2h0.6C2,9.2,2.1,9,2.1,8.8
		v-4c0-0.2-0.2-0.4-0.4-0.4H1.2C1,4.5,0.8,4.6,0.8,4.8V8.8z"/>
            </g>
            <rect style="fill: none" width="10" height="10"/>
        </symbol>

        <symbol id="icon-search" viewBox="0 0 10 10">
            <title>search</title>
            <g>
                <path d="M9.4,3.2c-0.3,0-0.6,0.3-0.6,0.6s0.3,0.6,0.6,0.6S10,4.1,10,3.8S9.7,3.2,9.4,3.2z"/>
                <path d="M8.5,5.3L8.5,5.3C8.3,5.3,8.1,5.3,8,5.5C7,6.4,5.4,6.2,4.5,5.2c-0.9-1-0.7-2.6,0.3-3.5c1-0.8,2.4-0.8,3.3,0.1
		c0,0,0.1,0.1,0.1,0.1c0,0,0,0,0,0C8.4,2.2,8.8,2.2,9,2.1c0.3-0.2,0.3-0.5,0.2-0.8c0-0.1-0.1-0.1-0.2-0.2C9,1.1,9,1.1,8.9,1
		C7.6-0.3,5.3-0.3,3.9,1C2.7,2.3,2.5,4.2,3.5,5.6C3.2,5.6,3,5.7,2.8,5.9L0.3,8.3c-0.4,0.4-0.4,1,0,1.4c0.4,0.4,1,0.4,1.4,0
		c0,0,0,0,0,0l2.5-2.5C4.3,7,4.4,6.8,4.4,6.5c1.3,0.9,3.1,0.8,4.3-0.3C9,6.1,9.1,5.8,8.9,5.5C8.8,5.4,8.6,5.3,8.5,5.3z"/>
            </g>
            <rect x="0" style="fill: none" width="10" height="10"/>
        </symbol>

        <symbol id="icon-usuario" viewBox="0 0 10 10">
            <title>user</title>
            <path d="M10,8.6c0-0.2-0.3-0.3-0.5-0.3c-0.2,0-0.3,0.2-0.3,0.5c0,0.1,0,0.2-0.1,0.3C9,9.2,8.9,9.2,8.8,9.2H1.2
	C1.1,9.2,1,9.2,0.9,9.1C0.8,9,0.8,8.8,0.8,8.7c0.4-2,2.1-3.4,4.1-3.4H5h0.1c1.4,0,2.7,0.7,3.5,1.9c0.1,0.2,0.4,0.2,0.5,0.1
	C9.3,7.2,9.3,7,9.2,6.8c-0.6-0.9-1.6-1.6-2.6-2C7.8,3.9,8,2.2,7.1,1.1C6.2-0.1,4.6-0.3,3.4,0.5S2,3.1,2.9,4.2C3,4.4,3.2,4.6,3.4,4.8
	c-1.7,0.6-3,2-3.4,3.8C-0.1,9.2,0.3,9.8,0.9,10c0.1,0,0.2,0,0.2,0h7.6C9.5,10,10,9.5,10,8.8C10,8.7,10,8.6,10,8.6z M3.1,2.7
	c0-1,0.8-1.9,1.9-1.9c1,0,1.9,0.8,1.9,1.9c0,1-0.8,1.8-1.8,1.9H4.9C3.9,4.5,3.1,3.7,3.1,2.7L3.1,2.7z" />
            <rect y="0" style="fill: none" width="10" height="10" />
        </symbol>

    </defs>

</svg>
