<svg aria-hidden="true" style="position: absolute; width: 0; height: 0; overflow: hidden;" version="1.1"
	xmlns="http://www.w3.org/2000/svg"
	xmlns:xlink="http://www.w3.org/1999/xlink">

	<defs>

		<symbol id="icon-menu" viewBox="0 0 10 10">
			<title>navigation</title>
			<path d="M8.6,0H1.4C0.6,0,0,0.6,0,1.4s0.6,1.4,1.4,1.4h7.1c0.8,0,1.4-0.6,1.4-1.4S9.4,0,8.6,0z M8.6,2.1H1.4
			c-0.4,0-0.7-0.3-0.7-0.7s0.3-0.7,0.7-0.7h7.1c0.4,0,0.7,0.3,0.7,0.7S8.9,2.1,8.6,2.1z"/>
			<path d="M8.6,3.6H1.4C0.6,3.6,0,4.2,0,5s0.6,1.4,1.4,1.4h7.1C9.4,6.4,10,5.8,10,5S9.4,3.6,8.6,3.6z M8.6,5.7H1.4
			C1.1,5.7,0.8,5.4,0.8,5s0.3-0.7,0.7-0.7h7.1c0.4,0,0.7,0.3,0.7,0.7S8.9,5.7,8.6,5.7z"/>
			<path d="M8.6,7.1H1.4C0.6,7.1,0,7.8,0,8.6S0.6,10,1.4,10h5.2C6.8,10,7,9.8,7,9.6S6.8,9.2,6.6,9.2H1.4c-0.4,0-0.7-0.3-0.7-0.7
			s0.3-0.7,0.7-0.7h7.1c0.4,0,0.7,0.3,0.7,0.7S8.9,9.2,8.6,9.2c-0.2,0-0.4,0.2-0.4,0.4S8.3,10,8.6,10C9.4,10,10,9.4,10,8.6
			S9.4,7.1,8.6,7.1z"/>
		</symbol>

		<symbol id="icon-login" viewBox="0 0 10 10">
			<title>login</title>
			<path id="Trazado_94_1_" d="M2.6,9.2H1.2c-0.1,0-0.2-0.1-0.3-0.1C0.8,9,0.8,8.8,0.8,8.7c0.4-2,2.1-3.4,4.1-3.4c0,0,0.1,0,0.1,0
	c0,0,0.1,0,0.1,0c0.5,0,1,0.1,1.4,0.3c0.2,0.1,0.4,0,0.5-0.2c0.1-0.2,0-0.4-0.2-0.5l0,0c-0.1,0-0.1,0-0.2-0.1C7.8,3.9,8,2.2,7.1,1.1
	C6.2-0.1,4.6-0.3,3.4,0.5S2,3.1,2.9,4.2C3,4.4,3.2,4.6,3.4,4.8c-1.7,0.6-3,2-3.4,3.8C-0.1,9.2,0.3,9.8,0.9,10c0.1,0,0.2,0,0.2,0h1.4
	C2.8,10,3,9.8,3,9.6S2.8,9.2,2.6,9.2L2.6,9.2z M3.1,2.7c0-1,0.8-1.9,1.9-1.9c1,0,1.9,0.8,1.9,1.9c0,1-0.8,1.8-1.8,1.9H5H4.9
	C3.9,4.5,3.1,3.7,3.1,2.7z"/>
			<path id="Trazado_95_2_" d="M9.7,6.7c-0.2-0.4-0.5-0.6-1-0.6H7.5c-0.4,0-0.8,0.3-1,0.7c0,0.1,0,0.1-0.1,0.2H3.9C3.8,7,3.7,7,3.6,7.1
	L3,7.8C2.8,7.9,2.8,8.2,3,8.3L3.6,9c0.1,0.1,0.2,0.1,0.3,0.1h1.3c0.2,0,0.4-0.2,0.4-0.4S5.4,8.4,5.2,8.4l0,0H4.1L3.8,8.1l0.3-0.3
	h2.7c0.2,0,0.3-0.1,0.4-0.3c0-0.1,0.1-0.3,0.1-0.4c0-0.1,0.1-0.2,0.2-0.2h1.2C8.8,6.9,8.9,7,9,7c0.1,0.3,0.2,0.7,0.2,1
	c0,0.3-0.1,0.7-0.2,1c0,0.1-0.1,0.2-0.2,0.2H7.5C7.4,9.2,7.3,9.1,7.3,9C7.2,8.9,7.2,8.8,7.1,8.7C7.1,8.4,6.9,8.3,6.7,8.4
	C6.5,8.4,6.3,8.6,6.4,8.8c0,0.2,0.1,0.3,0.2,0.5c0.2,0.4,0.5,0.7,1,0.7h1.2c0.4,0,0.8-0.2,1-0.6C9.9,9,10,8.5,10,8
	C10,7.6,9.9,7.1,9.7,6.7z"/>
			<circle id="Elipse_9_2_" cx="8.3" cy="8.2" r="0.2"/>
		</symbol>

		<symbol id="icon-register" viewBox="0 0 10 10">
			<title>register</title>
			<path id="Trazado_94_1_" d="M2.6,9.2H1.2c-0.1,0-0.2-0.1-0.3-0.1C0.8,9,0.8,8.8,0.8,8.7c0.4-2,2.1-3.4,4.1-3.4c0,0,0.1,0,0.1,0
	s0.1,0,0.1,0c0.5,0,1,0.1,1.4,0.3c0.2,0.1,0.4,0,0.5-0.2c0.1-0.2,0-0.4-0.2-0.5c-0.1,0-0.1,0-0.2-0.1C7.8,3.9,8,2.2,7.1,1.1
	S4.6-0.3,3.4,0.5S2,3.1,2.9,4.2C3,4.4,3.2,4.6,3.4,4.8c-1.7,0.6-3,2-3.4,3.8C-0.1,9.2,0.3,9.8,0.9,10c0.1,0,0.2,0,0.2,0h1.4
	C2.8,10,3,9.8,3,9.6S2.8,9.2,2.6,9.2z M3.1,2.7c0-1,0.8-1.9,1.9-1.9c1,0,1.9,0.8,1.9,1.9c0,1-0.8,1.8-1.8,1.9H5H4.9
	C3.9,4.5,3.1,3.7,3.1,2.7L3.1,2.7z"/>
			<path id="Trazado_99_2_" d="M9.7,5.7C9.2,5.2,8.5,5.2,8,5.7L5.9,7.8c0,0-0.1,0.1-0.1,0.2L5.3,9.5C5.2,9.7,5.3,9.9,5.6,10
	c0.1,0,0.1,0,0.2,0l1.6-0.4c0.1,0,0.1-0.1,0.2-0.1l2.1-2.1C10.1,6.9,10.1,6.1,9.7,5.7C9.7,5.7,9.7,5.7,9.7,5.7z M7,8.8L6.2,9
	l0.2-0.8l1.4-1.4l0.6,0.6L7,8.8z M9.1,6.8L9.1,6.8L8.5,6.3l0.1-0.1c0.2-0.1,0.4-0.1,0.6,0C9.2,6.4,9.2,6.6,9.1,6.8L9.1,6.8z"/>
		</symbol>

		<symbol id="icon-home" viewBox="0 0 10 10">
			<title>home</title>
			<path d="M9.9,4.4L5.8,0.3c0,0,0,0,0,0c-0.4-0.4-1.1-0.4-1.6,0c0,0,0,0,0,0L0.1,4.4C0,4.6,0,4.8,0.1,5c0.2,0.2,0.4,0.2,0.6,0L1,4.7
		V8c0,0.9,0.7,1.6,1.6,1.6h1.4c0.2,0,0.4-0.2,0.4-0.4V6h1.4v3.2c0,0.2,0.2,0.4,0.4,0.4h1.4C8.3,9.6,9,8.9,9,8c0-0.2-0.2-0.4-0.4-0.4
		C8.4,7.6,8.2,7.8,8.2,8c0,0.4-0.4,0.8-0.8,0.8h-1V5.6c0-0.2-0.2-0.4-0.4-0.4H3.9c-0.2,0-0.4,0.2-0.4,0.4v3.2h-1
		C2.1,8.8,1.8,8.5,1.8,8V3.9c0,0,0,0,0,0l3-3c0.1-0.1,0.4-0.1,0.5,0l3,3v2.2c0,0.2,0.2,0.4,0.4,0.4C8.8,6.5,9,6.3,9,6.1V4.7L9.3,5
		C9.4,5,9.5,5.1,9.6,5.1c0.1,0,0.2,0,0.3-0.1C10,4.8,10,4.6,9.9,4.4z"/>
		</symbol>

		<symbol id="icon-categories" viewBox="0 0 10 10">
			<title>categories</title>
			<path d="M8.6,0H5.8C5.6,0,5.4,0.2,5.4,0.4v2.8C5.4,4,6,4.6,6.8,4.6h2.8c0.2,0,0.4-0.2,0.4-0.4V1.4C10,0.6,9.4,0,8.6,0z M9.3,3.9H6.9
	c-0.4,0-0.8-0.3-0.8-0.8V0.7h2.3c0.4,0,0.8,0.3,0.8,0.8V3.9z"/>
			<path d="M3.2,5.4H0.3C0.1,5.4,0,5.6,0,5.7v2.9C0,9.4,0.6,10,1.3,10h2.9c0.2,0,0.3-0.1,0.3-0.3V6.8C4.6,6,4,5.4,3.2,5.4z M3.9,9.3
	H1.5c-0.4,0-0.7-0.3-0.7-0.7V6.1h2.4c0.4,0,0.7,0.3,0.7,0.7V9.3z"/>
			<path d="M3.2,0H0.3C0.1,0,0,0.1,0,0.3v2.9C0,4,0.6,4.6,1.3,4.6h2.9c0.2,0,0.3-0.1,0.3-0.3V1.4C4.6,0.6,4,0,3.2,0z M3.9,3.9H1.5
	c-0.4,0-0.7-0.3-0.7-0.7V0.7h2.4c0.4,0,0.7,0.3,0.7,0.7V3.9z"/>
			<path d="M8.6,5.4H5.7c-0.2,0-0.3,0.1-0.3,0.3v2.9C5.4,9.4,6,10,6.7,10h2.9C9.9,10,10,9.9,10,9.7V6.8C10,6,9.4,5.4,8.6,5.4z M9.3,9.3
	H6.9c-0.4,0-0.7-0.3-0.7-0.7V6.1h2.4c0.4,0,0.7,0.3,0.7,0.7V9.3z"/>
		</symbol>

		<symbol id="jardineria" viewBox="0 0 10 10">
			<title>gardering</title>
			<path d="M9.2,0.8c0,0.6-0.2,1.7-0.9,2.4C8.1,3.4,7.9,3.5,7.7,3.6C7.5,3.7,7.4,3.9,7.5,4.1c0.1,0.2,0.2,0.3,0.4,0.3
			c0,0,0.1,0,0.1,0C8.3,4.2,8.6,4,8.8,3.7C10,2.6,10,0.7,10,0.4c0,0,0,0,0,0C10,0.2,9.8,0,9.6,0C9.5,0,7.5-0.1,6.2,1.1
			c-0.5,0.5-0.7,1-0.7,1.5c0,0.4,0.2,0.8,0.3,1C5.5,4.1,5.2,4.5,5,5c0,0.1-0.1,0.2-0.1,0.3c-0.2-0.3-0.4-0.6-0.7-1
			c0.1-0.2,0.3-0.5,0.3-1c0-0.5-0.2-1-0.7-1.5C2.5,0.7,0.5,0.8,0.4,0.8C0.2,0.8,0,1,0,1.2c0,0.2,0,2.2,1.1,3.3
			c0.5,0.5,1,0.7,1.5,0.7c0,0,0.5,0,1-0.2C3.8,5.2,3.9,5.4,4,5.5c0.4,0.6,0.6,1.1,0.6,1.1c0,0,0,0,0,0.1c0,0.1,0,0.2,0,0.3v0.5
			C4.4,7.3,4.2,7.3,4,7.3c-0.7,0-1.2,0.5-1.3,1.2c-0.6,0.1-1,0.6-1,1.2c0,0.2,0.2,0.4,0.4,0.4s0.4-0.2,0.4-0.4
			c0-0.2,0.2-0.4,0.4-0.4c0.1,0,0.1,0,0.2,0c0.1,0.1,0.3,0,0.4-0.1c0.1-0.1,0.2-0.3,0.1-0.4c0-0.1,0-0.1,0-0.2
			c0-0.3,0.2-0.5,0.5-0.5c0.3,0,0.5,0.2,0.5,0.5c0,0.2,0.1,0.3,0.3,0.3c0.2,0,0.3,0,0.4-0.2c0.1-0.2,0.3-0.3,0.5-0.3
			c0.3,0,0.5,0.2,0.5,0.5c0,0.1,0.1,0.2,0.2,0.3c0.1,0.1,0.2,0.1,0.3,0c0,0,0.1,0,0.1,0c0.2,0,0.4,0.2,0.4,0.4
			c0,0.2,0.2,0.4,0.4,0.4s0.4-0.2,0.4-0.4C8.1,9,7.6,8.5,7,8.4C6.8,8,6.3,7.7,5.8,7.7c-0.1,0-0.2,0-0.3,0c0.3-0.5,1-1.1,1.3-1.2
			C7,6.4,7.1,6.2,7,6C6.9,5.8,6.7,5.7,6.5,5.7C6.2,5.8,5.8,6.1,5.4,6.5C5.5,5.6,5.9,4.7,6.6,4l1.6-1.7c0.2-0.2,0.1-0.4,0-0.6
			C8,1.6,7.8,1.6,7.6,1.8L6.4,3.1c0-0.1-0.1-0.3-0.1-0.4c0-0.3,0.2-0.6,0.5-1C7.5,1,8.6,0.8,9.2,0.8z M3.6,3.7
			C3.3,3.4,2.8,3,2.3,2.5C2.1,2.4,1.9,2.4,1.8,2.6S1.7,3,1.8,3.2c0.5,0.4,1,0.8,1.3,1.2C3,4.4,2.8,4.5,2.7,4.5C2.3,4.5,2,4.3,1.7,4
			C1,3.3,0.8,2.2,0.8,1.6c0.6,0,1.7,0.2,2.4,0.9c0.3,0.3,0.5,0.6,0.5,1C3.7,3.5,3.6,3.7,3.6,3.7z"/>
		</symbol>

		<symbol id="carpinteria">
			<title>carpinteria</title>
			<path d="M41.5,8.1l-6.2-6.2C34.1,0.7,32.5,0,30.7,0c0,0,0,0,0,0c-1.8,0-3.4,0.7-4.6,1.9c0,0,0,0,0,0l-1.4,1.4C24,4,24,5,24.7,5.7
	c0.6,0.6,1.7,0.6,2.3,0l1.4-1.4c0.6-0.6,1.4-1,2.3-1h0c0.9,0,1.7,0.3,2.3,1l4.3,4.3l-1.4,0c0,0,0,0,0,0c-0.4,0-0.9,0.2-1.2,0.5
	c-0.3,0.3-0.5,0.7-0.5,1.2v1.4h-1.4c-0.9,0-1.6,0.7-1.6,1.6v1.5h-1.5c-0.9,0-1.6,0.7-1.6,1.6v1.6h-1.6c-0.9,0-1.6,0.7-1.6,1.6v1.9
	h-1.4c-0.9,0-1.6,0.7-1.6,1.6v1.5h-1.5c-0.9,0-1.6,0.7-1.6,1.6v1.6h-1.6c-0.9,0-1.6,0.7-1.6,1.6v2.2l-7.2-7.1l12.8-12.9
	c0.6-0.6,0.6-1.7,0-2.3c-0.6-0.6-1.7-0.6-2.3,0l-16.9,17c-2.6,2.6-2.5,6.7,0,9.3l6,6C8.3,41.8,8.7,42,9.1,42c0.4,0,0.8-0.2,1.2-0.5
	c0.6-0.6,0.6-1.7,0-2.3l-6-6c-1.3-1.3-1.3-3.4,0-4.6L6,26.8l8.7,8.7c0.3,0.3,0.7,0.5,1.2,0.5h0c0.4,0,0.9-0.2,1.2-0.5l1.3-1.3
	c0.3-0.3,0.5-0.7,0.5-1.1V31h1.6c0.9,0,1.6-0.7,1.6-1.6v-1.6h1.5c0.9,0,1.6-0.7,1.6-1.6v-1.5h1.4c0.9,0,1.6-0.7,1.6-1.6v-1.9h1.6
	c0.9,0,1.6-0.7,1.6-1.6V18h1.5c0.9,0,1.6-0.7,1.6-1.6v-1.5h1.4c0.9,0,1.6-0.7,1.6-1.6v-1.4l2,0h0c0.4,0,0.9-0.2,1.2-0.5l0.9-0.9
	c0.3-0.3,0.5-0.7,0.5-1.2C42,8.8,41.8,8.4,41.5,8.1z"/>
		</symbol>

		<symbol id="icon-more" viewBox="0 0 10 10">
			<title>plus</title>
			<path d="M5.4,10H4.6C4,10,3.4,9.5,3.4,8.8V6.5H1.2C0.5,6.5,0,6,0,5.4V4.6c0-0.6,0.5-1.2,1.2-1.2h2.3V1.2C3.4,0.5,4,0,4.6,0h0.8
	C6,0,6.6,0.5,6.6,1.2v2.2h2.3c0.6,0,1.2,0.5,1.2,1.2v0.8C10,6,9.5,6.5,8.8,6.5H6.6v0.3c0,0.2-0.2,0.4-0.4,0.4S5.8,7.1,5.8,6.9V6.2
	c0-0.2,0.2-0.4,0.4-0.4h2.7c0.2,0,0.4-0.2,0.4-0.4V4.6c0-0.2-0.2-0.4-0.4-0.4H6.2C6,4.2,5.8,4,5.8,3.8V1.2c0-0.2-0.2-0.4-0.4-0.4
	H4.6C4.4,0.8,4.2,1,4.2,1.2v2.6C4.2,4,4,4.2,3.8,4.2H1.2C1,4.2,0.8,4.4,0.8,4.6v0.8c0,0.2,0.2,0.4,0.4,0.4h2.7
	c0.2,0,0.4,0.2,0.4,0.4v2.7c0,0.2,0.2,0.4,0.4,0.4h0.8c0.2,0,0.4-0.2,0.4-0.4c0-0.2,0.2-0.4,0.4-0.4s0.4,0.2,0.4,0.4
	C6.6,9.5,6,10,5.4,10z"/>
		</symbol>

		<symbol id="pintor">
			<title>painters</title>
			<path d="M37.1,6.2h-1.6V5.7c0-3.2-2.6-5.7-5.7-5.7h-24C2.6,0,0,2.6,0,5.7v4.1c0,3.2,2.6,5.7,5.7,5.7h15.8c0.9,0,1.6-0.7,1.6-1.6
			s-0.7-1.6-1.6-1.6H5.7c-1.4,0-2.5-1.1-2.5-2.5V5.7c0-1.4,1.1-2.5,2.5-2.5h24c1.4,0,2.5,1.1,2.5,2.5v4.1c0,1.4-1.1,2.5-2.5,2.5
			c-0.9,0-1.6,0.7-1.6,1.6s0.7,1.6,1.6,1.6c3.2,0,5.7-2.6,5.7-5.7V9.4h1.6c0.9,0,1.6,0.7,1.6,1.6v6.2c0,0.9-0.7,1.6-1.6,1.6H23.5
			c-3.6,0-6.6,2.9-6.6,6.6v0.8l-1.6,0c-0.9,0-1.6,0.7-1.6,1.6v9.2c0,2.7,2.2,4.9,4.9,4.9s4.9-2.2,4.9-4.9v-9.2
			c0-0.4-0.2-0.9-0.5-1.2c-0.3-0.3-0.7-0.5-1.2-0.5h0l-1.6,0v-0.8c0-1.8,1.5-3.3,3.3-3.3h13.6c2.7,0,4.9-2.2,4.9-4.9v-6.2
			C42,8.4,39.8,6.2,37.1,6.2z M20.2,37.1c0,0.9-0.7,1.6-1.6,1.6s-1.6-0.7-1.6-1.6v-7.5l3.3,0V37.1z"/>
		</symbol>

		<symbol id="electricista">
			<title>electricians</title>
			<path d="M40.5,30.5c1.9-1.9,1.9-5.1,0-7c-1.9-1.9-5.1-1.9-7,0l-2.6,2.6c-0.7,0.7-1.9,0.7-2.6,0l-4.7-4.7c-0.3-0.3-0.7-0.5-1.1-0.5
			c-0.4,0-0.8,0.2-1.1,0.5c-1.3,1.3-3,2-4.8,2c-1.8,0-3.5-0.7-4.8-2l-4.3-4.3l9.6-9.6l4.3,4.3c1.2,1.2,1.9,2.8,2,4.4
			c0.1,0.8,0.7,1.5,1.5,1.5c0,0,0.1,0,0.1,0c0.8-0.1,1.5-0.8,1.4-1.6c-0.1-2.4-1.2-4.7-2.9-6.4l-4.3-4.3l0.5-0.5
			c0.6-0.6,0.6-1.6,0-2.2c-0.6-0.6-1.6-0.6-2.2,0l-3,3L9.3,0.4c-0.6-0.6-1.6-0.6-2.2,0C6.5,1,6.5,2,7.1,2.6l5.2,5.2l-4.5,4.5
			L2.6,7.1C2,6.5,1.1,6.5,0.4,7.1c-0.6,0.6-0.6,1.6,0,2.2l5.3,5.2l-3,3c-0.6,0.6-0.6,1.6,0,2.2c0.3,0.3,0.7,0.5,1.1,0.5
			s0.8-0.2,1.1-0.5l0.5-0.5l4.3,4.3c1.9,1.9,4.4,2.9,7,2.9c2.1,0,4.1-0.7,5.8-1.9l3.7,3.7c1,1,2.2,1.4,3.5,1.4
			c1.3,0,2.5-0.5,3.5-1.4l2.6-2.6c0.7-0.7,1.9-0.7,2.6,0c0.7,0.7,0.7,1.9,0,2.6l-2.6,2.6c-0.9,0.9-1.4,2.2-1.4,3.5s0.5,2.6,1.4,3.5
			c0.3,0.3,0.7,0.5,1.1,0.5c0.4,0,0.8-0.2,1.1-0.5c0.6-0.6,0.6-1.6,0-2.2c-0.4-0.4-0.5-0.8-0.5-1.3s0.2-1,0.5-1.3L40.5,30.5z"/>
		</symbol>

		<symbol id="constructor">
			<title>builder</title>
			<path d="M40.4,28.1c0.9,0,1.6-0.7,1.6-1.6V6.6C42,2.9,39.1,0,35.4,0H6.6C2.9,0,0,2.9,0,6.6v28.9C0,39.1,2.9,42,6.6,42h28.9
	c3.6,0,6.6-2.9,6.6-6.6c0-0.9-0.7-1.6-1.6-1.6s-1.6,0.7-1.6,1.6c0,1.8-1.5,3.3-3.3,3.3H23v-6.6h11.5c0.9,0,1.6-0.7,1.6-1.6
	s-0.7-1.6-1.6-1.6h-1.6v-6.4h5.9v3.9C38.7,27.3,39.5,28.1,40.4,28.1z M38.7,6.6v3h-5.9V3.3h2.6C37.2,3.3,38.7,4.8,38.7,6.6z
	 M13.8,9.6V3.3h15.8v6.3H13.8z M6.6,3.3h3.9v6.3H8.2c-0.9,0-1.6,0.7-1.6,1.6s0.7,1.6,1.6,1.6h11.4v6.3H3.3V6.6
	C3.3,4.8,4.8,3.3,6.6,3.3z M3.3,28.9v-6.4h7.2v6.4H3.3z M19.7,38.7H6.6c-1.8,0-3.3-1.5-3.3-3.3v-3.3h16.4V38.7z M31.2,19.2
	c-0.9,0-1.6,0.7-1.6,1.6v8H13.8v-6.4h10.7c0.9,0,1.6-0.7,1.6-1.6s-0.7-1.6-1.6-1.6h-1.6v-6.3h15.8v6.3H31.2z"/>
		</symbol>

		<symbol id="icon-bell" viewBox="0 0 10 10">
			<title>bell</title>
			<path d="M9.1,7.4c0-0.2-0.2-0.4-0.5-0.3c-0.2,0-0.4,0.2-0.3,0.5c0,0.2,0,0.3-0.1,0.3C8.2,8,8.1,8,8,8H2C1.9,8,1.8,8,1.7,7.9
	c0-0.1-0.1-0.2-0.1-0.3C1.8,7,2,6.6,2.2,6.2c0.3-0.5,0.5-0.9,0.5-1.7V4c0-1.2,1-2.2,2.2-2.3H5c1.2,0,2.2,1,2.2,2.3v0.6
	c0,0.6,0.2,1,0.4,1.4C7.7,6.1,7.9,6.2,8,6.2c0.1,0,0.1,0,0.2,0C8.4,6,8.4,5.8,8.3,5.6C8.2,5.2,8,5,8,4.6V4c0-0.8-0.3-1.6-0.9-2.1
	C6.7,1.4,6.1,1,5.4,1V0.4C5.4,0.2,5.2,0,5,0C4.8,0,4.6,0.2,4.6,0.4V1C3.1,1.2,1.9,2.4,1.9,4v0.6c0,0.5-0.2,0.9-0.4,1.3
	C1.3,6.3,1,6.7,0.9,7.4c-0.1,0.3,0,0.7,0.3,1C1.4,8.7,1.7,8.8,2,8.8h1.8C3.8,9.5,4.4,10,5,10s1.2-0.5,1.2-1.2H8
	c0.3,0,0.7-0.2,0.9-0.4C9.1,8.1,9.2,7.8,9.1,7.4z M5,9.2C4.8,9.2,4.6,9,4.6,8.8h0.8C5.4,9,5.2,9.2,5,9.2z"/>
			<rect style="fill: none" width="10" height="10"/>
		</symbol>

		<symbol id="icon-date" viewBox="0 0 10 10">
			<title>date</title>
			<circle cx="7.5" cy="4.1" r="0.4"/>
			<path d="M8.4,0.8H7.9V0.4C7.9,0.2,7.8,0,7.5,0S7.1,0.2,7.1,0.4v0.4H5.4V0.4C5.4,0.2,5.2,0,5,0S4.6,0.2,4.6,0.4v0.4H2.8V0.4
				C2.8,0.2,2.7,0,2.4,0S2.1,0.2,2.1,0.4v0.4H1.6C0.7,0.8,0,1.5,0,2.3v6.1C0,9.3,0.7,10,1.6,10h3c0.2,0,0.4-0.2,0.4-0.4
				S4.8,9.2,4.6,9.2h-3c-0.4,0-0.8-0.4-0.8-0.8V2.3c0-0.4,0.4-0.8,0.8-0.8h0.5V2c0,0.2,0.2,0.4,0.4,0.4S2.8,2.2,2.8,2V1.6h1.8V2
				c0,0.2,0.2,0.4,0.4,0.4c0.2,0,0.4-0.2,0.4-0.4V1.6h1.8V2c0,0.2,0.2,0.4,0.4,0.4S7.9,2.2,7.9,2V1.6h0.5c0.4,0,0.8,0.4,0.8,0.8v2.2
				C9.2,4.8,9.4,5,9.6,5S10,4.8,10,4.6V2.3C10,1.5,9.3,0.8,8.4,0.8z"/>
			<path d="M7.6,5.3c-1.3,0-2.4,1.1-2.4,2.4S6.3,10,7.6,10S10,8.9,10,7.6S8.9,5.3,7.6,5.3z M7.6,9.2c-0.9,0-1.6-0.7-1.6-1.6
				s0.7-1.6,1.6-1.6s1.6,0.7,1.6,1.6S8.5,9.2,7.6,9.2z"/>
			<path d="M8.2,7.2H8V6.8c0-0.2-0.2-0.4-0.4-0.4S7.2,6.6,7.2,6.8v0.8C7.2,7.9,7.4,8,7.6,8h0.6c0.2,0,0.4-0.2,0.4-0.4
				S8.4,7.2,8.2,7.2z"/>
			<circle cx="5.8" cy="4.1" r="0.4"/>
			<circle cx="4.1" cy="5.8" r="0.4"/>
			<circle cx="2.4" cy="4.1" r="0.4"/>
			<circle cx="2.4" cy="5.8" r="0.4"/>
			<circle cx="2.4" cy="7.5" r="0.4"/>
			<circle cx="4.1" cy="7.5" r="0.4"/>
			<circle cx="4.1" cy="4.1" r="0.4"/>
			<rect style="fill: none" y="0" class="st0" width="10" height="10"/>
		</symbol>

		<symbol id="icon-ellipsis-vertical" viewBox="0 0 10 10">
			<title>ellipsis vertical</title>
			<path d="M5,3.5c0.8,0,1.5,0.6,1.5,1.5c0,0.8-0.6,1.5-1.5,1.5C4.2,6.5,3.5,5.8,3.5,5C3.5,4.2,4.2,3.5,5,3.5
	C5,3.5,5,3.5,5,3.5z M3.5,1.5c0,0.8,0.6,1.5,1.5,1.5s1.5-0.6,1.5-1.5S5.8,0,5,0C4.2,0,3.5,0.6,3.5,1.5C3.5,1.5,3.5,1.5,3.5,1.5z
	 M3.5,8.5C3.5,9.4,4.2,10,5,10s1.5-0.6,1.5-1.5c0-0.8-0.6-1.5-1.5-1.5h0C4.2,7.1,3.5,7.7,3.5,8.5C3.5,8.5,3.5,8.5,3.5,8.5z"/>
			<rect style="fill: none" y="0" class="st0" width="10" height="10"/>
		</symbol>

		<symbol id="icon-bookmark" viewBox="0 0 10 10">
			<title>bookmark</title>
			<path d="M1.3,10V0.9C1.2,0.4,1.7,0,2.2,0c0,0,0,0,0,0h5.6c0.5,0,0.9,0.4,0.9,0.9c0,0,0,0,0,0V10L5,7.8
	L1.3,10z"/>
			<rect style="fill: none" width="10" height="10"/>
		</symbol>

		<symbol id="icon-arrow-down" viewBox="0 0 10 10">
			<title>arrow down</title>
			<path d="M0.7,2.2h8.7c0.4,0,0.7,0.3,0.7,0.7C10,3,9.9,3.2,9.8,3.3L5.5,7.6c-0.3,0.3-0.7,0.3-1,0L0.2,3.3
	c-0.3-0.3-0.3-0.7,0-0.9C0.3,2.2,0.5,2.2,0.7,2.2z"/>
			<rect style="fill: none" width="10" height="10"/>
		</symbol>

		<symbol id="icon-user" viewBox="0 0 10 10">
			<title>user</title>
			<path d="M10,8.6c0-0.2-0.3-0.3-0.5-0.3c-0.2,0-0.3,0.2-0.3,0.5c0,0.1,0,0.2-0.1,0.3C9.1,9.2,8.9,9.2,8.8,9.2
	H1.2c-0.1,0-0.2-0.1-0.3-0.1C0.8,9,0.8,8.9,0.8,8.7c0.4-2,2.1-3.4,4.1-3.4H5h0.1c1.4,0,2.7,0.7,3.5,1.9c0.1,0.2,0.4,0.2,0.5,0.1
	C9.3,7.2,9.3,7,9.2,6.8c-0.6-0.9-1.6-1.6-2.6-2C7.8,3.9,8,2.2,7.1,1.1S4.6-0.3,3.4,0.5S2,3.1,2.9,4.2C3,4.5,3.2,4.6,3.4,4.8
	c-1.7,0.6-3,2-3.4,3.8C-0.1,9.2,0.3,9.8,0.9,10c0.1,0,0.2,0,0.2,0h7.6C9.5,10,10,9.5,10,8.8C10,8.7,10,8.7,10,8.6z M3.1,2.7
	c0-1,0.8-1.9,1.9-1.9c1,0,1.9,0.8,1.9,1.9c0,1-0.8,1.8-1.8,1.9H4.9C3.9,4.5,3.1,3.7,3.1,2.7L3.1,2.7z"/>
			<rect style="fill: none" width="10" height="10"/>
		</symbol>

		<symbol id="icon-quotes" viewBox="0 0 10 10">
			<title>quotes</title>
			<path d="M2,2.2C2,2,2.1,1.8,2.3,1.8h5.3C7.9,1.8,8,2,8,2.2S7.9,2.6,7.7,2.6H2.3C2.1,2.6,2,2.4,2,2.2z M8,3.8c0-0.2-0.2-0.4-0.4-0.4
	H2.3C2.1,3.4,2,3.6,2,3.8s0.2,0.4,0.4,0.4h5.3C7.9,4.2,8,4,8,3.8z M2.3,4.9C2.1,4.9,2,5.1,2,5.3s0.2,0.4,0.4,0.4h1.8
	c0.2,0,0.4-0.2,0.4-0.4S4.4,4.9,4.1,4.9H2.3z M9.7,8c0.5,0.5,0.5,1.2,0,1.7C9.4,9.9,9.1,10,8.8,10S8.2,9.9,8,9.7L5.9,7.5
	c0,0-0.1-0.1-0.1-0.2L5.3,5.8c0-0.1,0-0.3,0.1-0.4c0.1-0.1,0.2-0.1,0.4-0.1l1.5,0.5c0.1,0,0.1,0.1,0.2,0.1L9.7,8z M6.5,7l1.4,1.4
	l0.6-0.6L7,6.5L6.3,6.2L6.5,7z M9.1,8.6L9.1,8.6L8.5,9l0.1,0.1c0.2,0.2,0.4,0.2,0.6,0C9.3,9,9.3,8.7,9.1,8.6z M8.4,0H1.6
	C0.7,0,0,0.7,0,1.6v6.9C0,9.3,0.7,10,1.6,10h4.8c0.2,0,0.4-0.2,0.4-0.4S6.6,9.2,6.3,9.2H1.6c-0.4,0-0.8-0.4-0.8-0.8V1.6
	c0-0.4,0.4-0.8,0.8-0.8h6.9c0.4,0,0.8,0.4,0.8,0.8v4.8c0,0.2,0.2,0.4,0.4,0.4S10,6.6,10,6.4V1.6C10,0.7,9.3,0,8.4,0z"/>
			<rect style="fill: none" width="10" height="10"/>
		</symbol>

		<symbol id="icon-directory" viewBox="0 0 10 10">
			<title>directory</title>
			<path d="M3.5,6.1c0,0.2,0,0.4,0.1,0.6C3.8,6.8,4,6.9,4.2,6.9h2.7c0.2,0,0.4-0.1,0.5-0.2c0.1-0.2,0.2-0.4,0.1-0.6c0,0,0,0,0,0
	C7.3,5.5,7,5,6.5,4.7c0.1-0.2,0.2-0.4,0.2-0.6c0-0.6-0.5-1.2-1.2-1.2c-0.6,0-1.2,0.5-1.2,1.2c0,0.2,0.1,0.5,0.2,0.6
	C4,5,3.6,5.5,3.5,6.1z M5.5,3.7c0.2,0,0.4,0.2,0.4,0.4S5.7,4.5,5.5,4.5c-0.2,0-0.4-0.2-0.4-0.4S5.3,3.7,5.5,3.7z M5.5,5.2
	c0.5,0,1,0.4,1.2,0.9H4.3C4.5,5.6,5,5.2,5.5,5.2z"/>
			<path d="M9.2,6.1c0.2,0,0.4-0.2,0.4-0.4V0.4C9.6,0.2,9.4,0,9.2,0H2.4C1.7,0,1.2,0.5,1.2,1.2v0.6C0.7,1.9,0.4,2.3,0.4,2.9
	S0.7,3.8,1.2,4v0.1C0.7,4.3,0.4,4.7,0.4,5.2s0.3,0.9,0.8,1.1v0.1C0.7,6.6,0.4,7,0.4,7.5s0.3,0.9,0.8,1.1v0.2c0,0.6,0.5,1.2,1.2,1.2
	h6.9c0.2,0,0.4-0.2,0.4-0.4V8.4C9.6,8.2,9.4,8,9.2,8S8.8,8.2,8.8,8.4v0.8H2.4C2.1,9.2,2,9,2,8.8V8.3c0-0.2-0.2-0.4-0.4-0.4
	c-0.2,0-0.4-0.2-0.4-0.4c0-0.2,0.2-0.4,0.4-0.4h0.8c0.2,0,0.4-0.2,0.4-0.4c0-0.2-0.2-0.4-0.4-0.4H2V6c0-0.2-0.2-0.4-0.4-0.4
	c-0.2,0-0.4-0.2-0.4-0.4c0-0.2,0.2-0.4,0.4-0.4h0.8c0.2,0,0.4-0.2,0.4-0.4C2.7,4.2,2.6,4,2.4,4H2V3.6c0-0.2-0.2-0.4-0.4-0.4
	c-0.2,0-0.4-0.2-0.4-0.4c0-0.2,0.2-0.4,0.4-0.4h0.8c0.2,0,0.4-0.2,0.4-0.4c0-0.2-0.2-0.4-0.4-0.4H2V1.2C2,1,2.1,0.8,2.4,0.8l6.5,0
	v4.9C8.8,5.9,9,6.1,9.2,6.1z"/>
			<rect style="fill: none" width="10" height="10"/>
		</symbol>

		<symbol id="icon-next" viewBox="0 0 10 10">
			<title>next</title>
			<path d="M9.8,4.6C9.8,2.9,9,1.5,7.4,0.6C6.8,0.2,6,0,5.2,0C5,0,4.8,0.1,4.8,0.4c0,0.2,0.1,0.3,0.4,0.4c0,0,0.1,0,0.1,0
		C6.9,0.8,8,1.6,8.8,3c0.4,0.8,0.4,1.6,0.3,2.4C9,7.5,7.4,9.2,5.3,9.3c-0.1,0-0.2,0-0.2,0c-0.2,0-0.3,0.2-0.3,0.3
		c0,0.2,0.1,0.3,0.3,0.4c0.1,0,0.2,0,0.3,0c1.1-0.1,2.1-0.4,2.9-1.2c1.1-1,1.6-2.3,1.5-3.8C9.8,4.9,9.8,4.8,9.8,4.6z"/>
			<path d="M6.4,4.7C6.3,4.5,6.1,4.3,5.9,4.1C5.5,3.7,5.1,3.4,4.7,3C4.5,2.8,4.3,2.8,4.2,3C4,3.1,4,3.3,4.2,3.5
		c0.1,0.1,0.1,0.1,0.2,0.2C4.7,4,5,4.3,5.3,4.6c-0.1,0-0.2,0-0.2,0c-1,0-1.9,0-2.9,0c-0.1,0-0.1,0-0.2,0C1.7,4.7,1.6,4.8,1.6,5
		c0,0.2,0.1,0.3,0.3,0.4c0.1,0,0.1,0,0.2,0c1,0,1.9,0,2.9,0c0.1,0,0.2,0,0.3,0C5.3,5.4,5.2,5.5,5.2,5.5c-0.3,0.3-0.6,0.6-1,0.9
		C4,6.7,4,6.9,4.2,7c0.2,0.2,0.4,0.1,0.5,0c0.6-0.6,1.2-1.1,1.7-1.7C6.7,5.1,6.7,4.9,6.4,4.7z"/>
			<path d="M1,4.7c-0.2,0-0.3,0-0.5,0C0.3,4.7,0.2,4.8,0.2,5c0,0.2,0.1,0.3,0.3,0.4c0.1,0,0.2,0,0.2,0c0,0,0,0,0,0c0.1,0,0.2,0,0.3,0
		c0.2,0,0.3-0.2,0.3-0.4C1.2,4.8,1.1,4.7,1,4.7z"/>
			<rect style="fill: none" width="10" height="10"/>
		</symbol>

		<symbol id="icon-previous" viewBox="0 0 10 10">
			<title>previous</title>
			<path d="M0.2,4.6C0.2,2.9,1,1.5,2.6,0.6C3.2,0.2,4,0,4.8,0C5,0,5.2,0.1,5.2,0.4c0,0.2-0.1,0.3-0.4,0.4c0,0-0.1,0-0.1,0
		C3.1,0.8,2,1.6,1.2,3C0.9,3.8,0.9,4.6,0.9,5.5C1,7.5,2.6,9.2,4.7,9.3c0.1,0,0.2,0,0.2,0c0.2,0,0.3,0.2,0.3,0.3
		c0,0.2-0.1,0.3-0.3,0.4c-0.1,0-0.2,0-0.3,0C3.5,9.9,2.5,9.5,1.7,8.8C0.6,7.8,0.1,6.5,0.2,5C0.2,4.9,0.2,4.8,0.2,4.6z"/>
			<path d="M3.6,4.7c0.2-0.2,0.4-0.4,0.6-0.6C4.5,3.7,4.9,3.4,5.3,3c0.2-0.2,0.4-0.2,0.5,0C6,3.1,6,3.3,5.8,3.5
		C5.7,3.6,5.6,3.7,5.6,3.7C5.3,4,5,4.3,4.7,4.6c0.1,0,0.2,0,0.2,0c1,0,1.9,0,2.9,0c0.1,0,0.1,0,0.2,0c0.2,0,0.3,0.1,0.3,0.3
		c0,0.2-0.1,0.3-0.3,0.4c-0.1,0-0.1,0-0.2,0c-1,0-1.9,0-2.9,0c-0.1,0-0.2,0-0.3,0c0.1,0.1,0.1,0.1,0.2,0.2c0.3,0.3,0.6,0.6,1,0.9
		C6,6.7,6,6.9,5.8,7C5.7,7.2,5.5,7.2,5.3,7C4.7,6.4,4.1,5.9,3.6,5.3C3.3,5.1,3.3,4.9,3.6,4.7z"/>
			<path d="M9,4.7c0.2,0,0.3,0,0.5,0c0.2,0,0.3,0.2,0.3,0.3c0,0.2-0.1,0.3-0.3,0.4c-0.1,0-0.2,0-0.2,0c0,0,0,0,0,0c-0.1,0-0.2,0-0.3,0
		C8.9,5.3,8.8,5.2,8.8,5C8.8,4.8,8.9,4.7,9,4.7z"/>
			<rect style="fill: none" width="10" height="10"/>
		</symbol>

		<symbol id="icon-airplane" viewBox="0 0 10 10">
			<title>airplane</title>
			<path d="M5.4,3c-0.5,0.5-0.5,1.2,0,1.7C5.6,4.8,5.9,5,6.2,5C6.5,5,6.8,4.8,7,4.6C7.5,4.2,7.5,3.4,7,3C6.6,2.5,5.8,2.5,5.4,3z
				 M6.5,4.1c-0.2,0.2-0.4,0.2-0.6,0c-0.2-0.2-0.2-0.4,0-0.6C6,3.4,6.1,3.4,6.2,3.4c0.1,0,0.2,0,0.3,0.1C6.6,3.7,6.6,3.9,6.5,4.1z" />
			<path d="M9.7,0.3C9.4,0.1,9.1,0,8.8,0c-0.5,0-1.2,0.2-2,0.4C5.9,0.8,5.1,1.2,4.6,1.8c0,0,0,0,0,0L4.5,1.9L0.3,3.2
				C0.1,3.3,0,3.4,0,3.5s0,0.3,0.1,0.4L2,5.8C1.6,5.8,1.2,6,0.9,6.3C0.6,6.6,0.4,7.3,0.2,8.3C0.1,8.9,0,9.6,0,9.6
				c0,0.1,0,0.2,0.1,0.3C0.2,10,0.3,10,0.4,10c0,0,0,0,0,0c0,0,0.6-0.1,1.3-0.2c1-0.2,1.6-0.4,1.9-0.7C4,8.8,4.2,8.4,4.2,8l1.9,1.9
				C6.2,10,6.3,10,6.4,10c0,0,0.1,0,0.1,0c0.1,0,0.2-0.1,0.3-0.3l1.3-4.2C8.2,5.3,8,5.1,7.8,5c0,0,0,0,0,0C7.7,5,7.5,5,7.4,5.1
				L4.9,7.6L2.4,5.1l2.5-2.6c0,0,0,0,0.1-0.1l0.1-0.1C6.3,1.2,8,0.9,8.9,0.8c0.1,0,0.2,0.1,0.3,0.1C9.2,1,9.2,1.1,9.2,1.2
				C9.1,1.8,9,2.7,8.5,3.6C8.4,3.8,8.5,4,8.7,4.1c0.2,0.1,0.4,0,0.5-0.2c0.5-1,0.7-2,0.8-2.6C10,0.9,9.9,0.6,9.7,0.3z M6.9,6.7
				L6.2,8.9L5.5,8.1L6.9,6.7z M2.7,6.9c0.1-0.1,0.1-0.1,0.2-0.1c0.1,0,0.1,0,0.2,0l0.1,0.1c0,0,0,0.1,0,0.2c0,0.1,0,0.2-0.1,0.2
				C3.1,7.4,2.8,7.4,2.5,7.5C2.6,7.2,2.7,6.9,2.7,6.9z M2.7,8.2C3.1,8.2,3.3,8.1,3.4,8C3.4,8.2,3.3,8.4,3.1,8.5
				C2.8,8.8,1.7,9.1,0.8,9.2c0.1-0.9,0.3-2,0.6-2.3C1.6,6.7,1.8,6.6,2,6.6C1.9,6.7,1.8,6.9,1.8,7.3C1.7,7.6,1.7,7.9,1.7,7.9
				c0,0.1,0,0.2,0.1,0.3C1.9,8.3,2,8.3,2.1,8.3c0,0,0,0,0,0C2.1,8.3,2.4,8.3,2.7,8.2z M1.9,4.5L1.1,3.8l2.2-0.7L1.9,4.5z"/>
			<circle cx="7.7" cy="2.3" r="0.4"/>
			<rect style="fill: none" width="10" height="10"/>
		</symbol>

		<symbol id="icon-send-quote" viewBox="0 0 10 10">
			<title>send quote</title>
			<path d="M7,6.6C7.2,6.8,7.3,7,7.3,7.3S7.2,7.8,7,8L6.3,8.7C6.2,8.8,6.1,8.8,6,8.8c-0.1,0-0.2,0-0.3-0.1c-0.2-0.2-0.2-0.4,0-0.6
	l0.5-0.5H4C3.6,7.6,3.2,8,3.2,8.4S3.6,9.2,4,9.2c0.2,0,0.4,0.2,0.4,0.4S4.2,10,4,10c-0.4,0-0.8-0.2-1.1-0.5C2.6,9.2,2.5,8.8,2.5,8.4
	c0-0.9,0.7-1.6,1.6-1.6h2.2L5.8,6.4C5.6,6.3,5.6,6,5.8,5.9c0.2-0.2,0.4-0.2,0.6,0L7,6.6z M10,1.6v2.6c0,0.2-0.2,0.4-0.4,0.4
	S9.2,4.3,9.2,4.1V1.7L5.8,3.8C5.6,3.9,5.3,4,5,4S4.4,3.9,4.2,3.8L0.8,1.7v4.4c0,0.4,0.4,0.8,0.8,0.8C1.8,6.9,2,7,2,7.2
	S1.8,7.6,1.6,7.6C0.7,7.6,0,6.9,0,6.1V1.6C0,0.7,0.7,0,1.6,0h6.9C9.3,0,10,0.7,10,1.6z M8.9,0.9C8.8,0.8,8.6,0.8,8.4,0.8H1.6
	c-0.2,0-0.3,0.1-0.5,0.2l3.5,2.2c0.3,0.2,0.6,0.2,0.8,0L8.9,0.9z M9.6,5.7c-0.2,0-0.4,0.2-0.4,0.4c0,0.4-0.4,0.8-0.8,0.8
	C8.2,6.9,8,7,8,7.2s0.2,0.4,0.4,0.4c0.9,0,1.6-0.7,1.6-1.6C10,5.9,9.8,5.7,9.6,5.7z"/>
			<rect style="fill: none" width="10" height="10"/>
		</symbol>

		<symbol id="icon-location" viewBox="0 0 10 10">
			<title>location</title>
			<path d="M2.3,4c0,0.9,0.7,1.7,1.7,1.7c0.2,0,0.4,0.2,0.4,0.4c0,0.2-0.2,0.4-0.4,0.4C2.7,6.4,1.6,5.3,1.6,4c0-1.3,1.1-2.4,2.4-2.4
	c1.3,0,2.4,1.1,2.4,2.4c0,0.2-0.2,0.4-0.4,0.4S5.7,4.2,5.7,4c0-0.9-0.7-1.7-1.7-1.7S2.3,3.1,2.3,4z M2.7,7.4c-1-1.1-1.9-2-1.9-3.5
	c0-1.8,1.4-3.2,3.2-3.2c1.8,0,3.2,1.4,3.2,3.2c0,0.2,0.2,0.4,0.4,0.4h0C7.8,4.4,8,4.2,8,4c0-1.1-0.4-2.1-1.2-2.8C6.1,0.4,5.1,0,4,0
	C2.9,0,1.9,0.4,1.2,1.2C0.4,1.9,0,2.9,0,4c0,0.8,0.2,1.5,0.7,2.2C1.1,6.8,1.6,7.4,2.1,8c0.5,0.6,1.1,1.2,1.5,1.8
	C3.6,9.9,3.8,10,3.9,10C4,10,4,10,4.1,9.9c0.2-0.1,0.2-0.4,0.1-0.5C3.8,8.6,3.2,8,2.7,7.4z M9.9,7.6C9.8,7.7,9.7,7.8,9.6,7.8
	c-0.1,0-0.2,0-0.3-0.1l0,0v1.3c0,0.6-0.5,1.1-1.1,1.1H6c-0.6,0-1.1-0.5-1.1-1.1V7.6l0,0c-0.2,0.1-0.4,0.1-0.6,0
	c-0.1-0.2-0.1-0.4,0-0.6l2-1.8c0.4-0.4,1.1-0.4,1.5,0l1.3,1.2c0,0,0,0,0,0l0.7,0.6C10,7.2,10,7.5,9.9,7.6z M8.5,6.9L7.3,5.8
	C7.2,5.7,7,5.7,6.9,5.8L5.7,6.9v2c0,0.2,0.1,0.3,0.3,0.3h2.2c0.2,0,0.3-0.1,0.3-0.3V6.9z"/>
			<rect style="fill: none" width="10" height="10"/>
		</symbol>

		<symbol id="icon-like" viewBox="0 0 10 10">
			<title>like</title>
			<path d="M1.2,3.7h0.6c0.1,0,0.2,0,0.4,0.1l1.9-3l0.3-0.4l0,0C4.5,0.1,4.8,0,5.2,0c0.6,0,1.2,0.5,1.2,1.2c0,0.1,0,0.3-0.1,0.4l0,0
	l0,0C6.2,1.7,6.1,1.9,6.1,2C5.9,2.3,5.6,2.9,5.5,3.1c0,0.2,0.3,0.3,0.5,0.3h2.6c0.6,0,1.1,0.5,1.1,1.1c0,0.2-0.1,0.4-0.2,0.6
	C9.8,5.3,10,5.6,10,6c0,0.3-0.1,0.5-0.3,0.7c0,0.1-0.1,0.1-0.2,0.1C9.7,7,9.7,7.2,9.7,7.4c0,0.4-0.2,0.8-0.6,1
	c0.1,0.1,0.1,0.3,0.1,0.5c0,0.7-0.5,1.1-1.1,1.1H4.3c-0.2,0-0.4-0.2-0.4-0.4s0.2-0.4,0.4-0.4h3.8c0.3,0,0.3-0.3,0.3-0.4
	c0-0.2-0.1-0.2-0.2-0.3C8,8.5,8,8.3,8,8.2c0-0.2,0.2-0.4,0.5-0.4h0.1c0.2,0,0.3-0.1,0.3-0.3c0-0.1-0.1-0.2-0.2-0.3c0,0,0,0,0,0
	C8.6,7,8.5,6.9,8.5,6.7c0-0.1,0.1-0.4,0.5-0.4c0.1,0,0.3-0.2,0.3-0.3c0-0.1-0.1-0.3-0.3-0.3C8.7,5.6,8.6,5.4,8.6,5.2
	c0-0.1,0-0.3,0.2-0.4c0.1-0.1,0.1-0.2,0.1-0.3c0-0.2-0.1-0.3-0.3-0.3H6c-0.6,0-1.3-0.4-1.3-1.1l0,0c0-0.2,0.2-0.6,0.6-1.4
	c0.1-0.1,0.1-0.2,0.2-0.4c0,0,0-0.1,0-0.1c0-0.2-0.2-0.4-0.4-0.4c-0.1,0-0.2,0-0.3,0.1L4.7,1.2l-2,3.1c0.1,0.2,0.2,0.4,0.2,0.6v4
	c0,0.6-0.5,1.2-1.2,1.2H1.2C0.5,10,0,9.5,0,8.8v-4C0,4.2,0.5,3.7,1.2,3.7z M0.8,8.8C0.8,9,1,9.2,1.2,9.2h0.6C2,9.2,2.1,9,2.1,8.8v-4
	c0-0.2-0.2-0.4-0.4-0.4H1.2C1,4.5,0.8,4.6,0.8,4.8V8.8z"/>
			<rect style="fill: none" width="10" height="10"/>
		</symbol>

		<symbol id="icon-work" viewBox="0 0 10 10">
			<title>work</title>
			<g>
				<path d="M8.4,1.7H6.8V1.2c0-0.6-0.5-1.1-1.1-1.1H4.3c-0.6,0-1.1,0.5-1.1,1.1v0.5H1.6C0.7,1.7,0,2.4,0,3.2v4.6
		c0,0.9,0.7,1.6,1.6,1.6h3.2C5,9.3,5.1,9.2,5.1,9c0-0.2-0.2-0.4-0.4-0.4H1.6c-0.4,0-0.8-0.4-0.8-0.8v-3h3.8v0.6
		c0,0.2,0.2,0.4,0.4,0.4c0.2,0,0.4-0.2,0.4-0.4V4.8h3.8v0.5c0,0.2,0.2,0.4,0.4,0.4c0.2,0,0.4-0.2,0.4-0.4V3.2
		C10,2.4,9.3,1.7,8.4,1.7z M4,1.2C4,1,4.2,0.9,4.3,0.9h1.4C5.8,0.9,6,1,6,1.2v0.5H4V1.2z M9.2,4H0.8V3.2c0-0.4,0.4-0.8,0.8-0.8h6.9
		c0.4,0,0.8,0.4,0.8,0.8V4z"/>
				<path d="M9.6,6.2c0,0-0.1-0.1-0.1,0L8.9,6.9c0,0-0.1,0.1-0.1,0.1L8.6,7C8.4,7,8.2,6.9,8.3,6.7l0-0.2c0,0,0-0.1,0-0.1l0.6-0.7
		c0,0,0-0.1,0-0.1C8.5,5.4,8,5.6,7.7,5.9c-0.2,0.3-0.3,0.7-0.2,1L6.9,7.8C6.5,7.7,6,7.8,5.7,8.1C5.5,8.4,5.4,8.9,5.6,9.3
		c0,0,0.1,0.1,0.1,0l0.6-0.7c0,0,0.1-0.1,0.1-0.1l0.2-0.1c0.2,0,0.3,0.1,0.3,0.3l0,0.2c0,0,0,0.1,0,0.1L6.3,9.8c0,0,0,0.1,0,0.1
		c0.4,0.1,0.9,0,1.1-0.4c0.2-0.3,0.3-0.7,0.1-1l0.7-0.8c0.4,0.1,0.9,0,1.2-0.3C9.7,7,9.8,6.5,9.6,6.2z"/>
			</g>
			<rect style="fill:none" width="10" height="10"/>
		</symbol>

		<symbol id="icon-contact" viewBox="0 0 10 10">
			<title>contact</title>
			<path d="M3.5,6.1c0,0.2,0,0.4,0.1,0.6C3.8,6.8,4,6.9,4.2,6.9h2.7c0.2,0,0.4-0.1,0.5-0.2c0.1-0.2,0.2-0.4,0.1-0.6c0,0,0,0,0,0
		C7.3,5.5,7,5,6.5,4.7c0.1-0.2,0.2-0.4,0.2-0.6c0-0.6-0.5-1.2-1.2-1.2c-0.6,0-1.2,0.5-1.2,1.2c0,0.2,0.1,0.5,0.2,0.6
		C4,5,3.6,5.5,3.5,6.1z M5.5,3.7c0.2,0,0.4,0.2,0.4,0.4S5.7,4.5,5.5,4.5c-0.2,0-0.4-0.2-0.4-0.4S5.3,3.7,5.5,3.7z M5.5,5.2
		c0.5,0,1,0.4,1.2,0.9H4.3C4.5,5.6,5,5.2,5.5,5.2z"/>
			<path d="M9.2,6.1c0.2,0,0.4-0.2,0.4-0.4V0.4C9.6,0.2,9.4,0,9.2,0H2.4C1.7,0,1.2,0.5,1.2,1.2v0.6C0.7,1.9,0.4,2.3,0.4,2.9
		S0.7,3.8,1.2,4v0.1C0.7,4.3,0.4,4.7,0.4,5.2s0.3,0.9,0.8,1.1v0.1C0.7,6.6,0.4,7,0.4,7.5s0.3,0.9,0.8,1.1v0.2c0,0.6,0.5,1.2,1.2,1.2
		h6.9c0.2,0,0.4-0.2,0.4-0.4V8.4C9.6,8.2,9.4,8,9.2,8S8.8,8.2,8.8,8.4v0.8H2.4C2.1,9.2,2,9,2,8.8V8.3c0-0.2-0.2-0.4-0.4-0.4
		c-0.2,0-0.4-0.2-0.4-0.4c0-0.2,0.2-0.4,0.4-0.4h0.8c0.2,0,0.4-0.2,0.4-0.4c0-0.2-0.2-0.4-0.4-0.4H2V6c0-0.2-0.2-0.4-0.4-0.4
		c-0.2,0-0.4-0.2-0.4-0.4c0-0.2,0.2-0.4,0.4-0.4h0.8c0.2,0,0.4-0.2,0.4-0.4C2.7,4.2,2.6,4,2.4,4H2V3.6c0-0.2-0.2-0.4-0.4-0.4
		c-0.2,0-0.4-0.2-0.4-0.4c0-0.2,0.2-0.4,0.4-0.4h0.8c0.2,0,0.4-0.2,0.4-0.4c0-0.2-0.2-0.4-0.4-0.4H2V1.2C2,1,2.1,0.8,2.4,0.8l6.5,0
		v4.9C8.8,5.9,9,6.1,9.2,6.1z"/>
			<rect style="fill: none" width="10" height="10"/>
		</symbol>

		<symbol id="icon-comment" viewBox="0 0 10 10">
			<title>coomment</title>
			<path d="M5,3.9c0.2,0,0.4,0.2,0.4,0.4c0,0.2-0.2,0.4-0.4,0.4S4.6,4.6,4.6,4.3C4.6,4.1,4.8,3.9,5,3.9z M6.3,4.3
	c0,0.2,0.2,0.4,0.4,0.4s0.4-0.2,0.4-0.4c0-0.2-0.2-0.4-0.4-0.4S6.3,4.1,6.3,4.3z M2.8,4.3c0,0.2,0.2,0.4,0.4,0.4s0.4-0.2,0.4-0.4
	c0-0.2-0.2-0.4-0.4-0.4S2.8,4.1,2.8,4.3z M9.7,8c0.5,0.5,0.5,1.2,0,1.7C9.4,9.9,9.1,10,8.8,10C8.5,10,8.2,9.9,8,9.7L5.9,7.5
	c0,0-0.1-0.1-0.1-0.2L5.3,5.8c0-0.1,0-0.3,0.1-0.4c0.1-0.1,0.2-0.1,0.4-0.1l1.6,0.4c0.1,0,0.1,0.1,0.2,0.1L9.7,8z M6.5,7l1.4,1.4
	l0.6-0.6L7,6.5L6.2,6.3L6.5,7z M9.1,8.6L9.1,8.6L8.5,9l0.1,0.1c0.2,0.2,0.4,0.2,0.6,0C9.3,9,9.3,8.7,9.1,8.6z M5.2,8.1
	c-0.1,0-0.1,0-0.2,0C4.4,8.1,3.8,8,3.2,7.8c-0.1,0-0.2,0-0.3,0L1.1,8.5l0.6-1.4c0.1-0.1,0-0.3-0.1-0.4C1.1,6,0.8,5.3,0.8,4.5
	c0-2,1.9-3.7,4.2-3.7s4.2,1.6,4.2,3.7c0,0.5-0.1,1-0.4,1.4C8.8,6.1,8.9,6.3,9,6.4c0.2,0.1,0.4,0,0.5-0.2C9.9,5.6,10,5.1,10,4.5
	C10,2,7.8,0,5,0C2.2,0,0,2,0,4.5C0,5.4,0.3,6.3,0.9,7L0,9.1C0,9.2,0,9.4,0.1,9.5c0.1,0.1,0.2,0.1,0.3,0.1c0.1,0,0.1,0,0.2,0l2.5-1.1
	C3.7,8.8,4.3,8.9,5,8.9c0.1,0,0.2,0,0.3,0c0.2,0,0.4-0.2,0.4-0.4C5.6,8.3,5.4,8.1,5.2,8.1z"/>
			<rect style="fill: none" class="st0" width="10" height="10"/>
		</symbol>


		<symbol id="mozo" viewBox="0 0 10 10">
			<title>mozo</title>
			<path d="M9.5,4.1H8V3.3c0.4-0.1,0.7-0.4,0.7-0.8v-1c0-0.1-0.1-0.2-0.2-0.2H7.2C7.1,1.3,7,1.4,7,1.5v1c0,0.4,0.3,0.8,0.7,0.8v0.8H6.2
	C6,4.1,5.9,4.2,5.9,4.3v0.2C5.9,4.7,6.1,5,6.4,5H7v0.2c0,0.1,0,0.2,0.1,0.3L7,5.7c-0.1,0-0.1,0-0.2,0c-0.1,0-0.1,0.1-0.1,0.1
	L6.3,6.9L6.1,6.3C5.9,5.8,5.5,5.4,5,5.2L4.3,4.9V4.3C4.5,4.2,4.7,4,4.7,3.9c0-0.1,0.1-0.2,0.1-0.3H5c0.3,0,0.5-0.2,0.5-0.5
	c0-0.1,0-0.2-0.1-0.3c0.2-0.5,0.3-0.9,0.2-1.1c0-0.2-0.1-0.3-0.3-0.5C5.2,1.1,5.1,1,5,1C4.7,0.6,3.9,0,3,0C3,0,2.9,0,2.9,0.1
	c0,0.1,0,0.1,0,0.2c0,0.1,0.1,0.1,0.1,0.1c-0.3-0.1-0.9-0.2-1.5,0c-0.1,0-0.1,0.1-0.1,0.1c0,0.1,0,0.1,0,0.2
	c0.1,0.2,0.3,0.3,0.4,0.4C1.7,1.4,1.4,2.1,1.8,2.8C1.7,2.9,1.7,3,1.7,3.1c0,0.3,0.2,0.5,0.5,0.5h0.2c0,0.1,0,0.2,0.1,0.3
	C2.5,4,2.7,4.2,2.9,4.3v0.5C2.4,4.9,1.8,5.3,1.3,5.9c0,0.1,0,0.2,0,0.2c0,0,0.1,0,0.1,0c0,0,0.1,0,0.1-0.1c0.2-0.3,0.4-0.5,0.6-0.6
	l0.2,1.2c0,0.2,0,0.5-0.2,0.7H2V6.9c0-0.1-0.1-0.1-0.1-0.1S1.7,6.8,1.7,6.9v0.4c-0.3,0-0.5,0.3-0.5,0.6v0.6c-0.3,0-0.6-0.3-0.6-0.6
	c0-0.1,0-0.2,0.1-0.4c0-0.1,0.4-0.6,0.5-0.8c0-0.1,0-0.2,0-0.2c-0.1,0-0.2,0-0.2,0C0.8,6.7,0.7,6.9,0.6,7C0.5,7.1,0.5,7.2,0.4,7.3
	C0.3,7.5,0.3,7.6,0.3,7.8c0,0.5,0.4,0.9,0.9,0.9v0.2c0,0.1,0.1,0.1,0.1,0.1c0.1,0,0.1-0.1,0.1-0.1v-1c0-0.1,0.1-0.3,0.3-0.3h1.6v2.1
	H2.8V9c0-0.1-0.1-0.1-0.1-0.1C2.6,8.8,2.5,8.9,2.5,9v0.7H2.1V9.4c0-0.1-0.1-0.1-0.1-0.1c-0.1,0-0.1,0.1-0.1,0.1v0.3H1.4V9.6
	c0-0.1-0.1-0.1-0.1-0.1c-0.1,0-0.1,0.1-0.1,0.1v0.2c0,0.1,0.1,0.2,0.2,0.2h4c0.1,0,0.2-0.1,0.2-0.2V8.9C5.7,9.2,6,9.4,6.3,9.4
	c0,0,0.1,0,0.1,0c0.3-0.1,0.6-0.3,0.7-0.6l0.5-1.3c0-0.1,0-0.2-0.1-0.2c-0.1,0-0.2,0-0.2,0.1L6.9,8.7C6.9,8.9,6.7,9,6.4,9.1
	c-0.3,0-0.6-0.1-0.7-0.4L5.5,8.1V7.8c0,0,0,0,0,0V6.9c0-0.1-0.1-0.1-0.1-0.1S5.2,6.8,5.2,6.9v0.6l-0.1,0C4.9,7.3,4.8,6.9,4.9,6.6
	l0.2-1.1C5.4,5.7,5.7,6,5.8,6.3l0.3,1L6,7.7c0,0.1,0,0.2,0.1,0.2c0,0,0,0,0,0c0.1,0,0.1,0,0.1-0.1l0.5-1.5c0,0,0,0,0,0L6.9,6
	l0.8,0.3L7.6,6.7c0,0.1,0,0.2,0.1,0.2c0.1,0,0.2,0,0.2-0.1l0.2-0.4c0-0.1,0-0.1,0-0.2C8,6.1,8,6.1,7.9,6.1l0.2-0.4h0.1
	c0.3,0,0.6-0.3,0.6-0.6V5h0.4c0.3,0,0.5-0.2,0.5-0.5V4.3C9.7,4.2,9.6,4.1,9.5,4.1L9.5,4.1z M8.4,1.6v0.5H7.3V1.6L8.4,1.6z M7.3,2.5
	L7.3,2.5l1.1,0v0C8.4,2.8,8.1,3,7.8,3C7.5,3,7.3,2.8,7.3,2.5z M5,3.3H4.8c0-0.1,0-0.3,0-0.4H5c0.1,0,0.2,0.1,0.2,0.2
	C5.2,3.2,5.1,3.3,5,3.3z M1.7,0.7c0.6-0.1,1.2,0,1.3,0.1c0.1,0,0.2,0,0.2,0c0.1-0.1,0.1-0.1,0-0.2c0-0.1,0-0.1-0.1-0.2
	c0.7,0.1,1.4,0.6,1.6,0.9c0,0,0.1,0.1,0.1,0.1c0.1,0,0.4,0.2,0.5,0.4c0,0.2-0.1,0.5-0.2,0.9c0,0-0.1,0-0.1,0H4.8c0-0.3,0-0.5,0-0.7
	c0-0.2-0.2-0.4-0.4-0.4H4c0,0-0.1,0-0.1,0C3.5,2,3,2.2,2.5,2.3c-0.1,0-0.1,0.1-0.1,0.1c0,0,0,0.1,0,0.1H2.2c-0.1,0-0.1,0-0.2,0
	C1.7,1.9,2.1,1.3,2.1,1.3c0-0.1,0-0.1,0-0.2C2.1,1.1,1.9,0.9,1.7,0.7L1.7,0.7z M2.2,3.3C2.1,3.3,2,3.2,2,3.1C2,3,2,3,2,2.9
	c0,0,0,0,0,0c0,0,0.1-0.1,0.1-0.1h0.2c0,0.1,0,0.3,0,0.4L2.2,3.3L2.2,3.3z M2.7,3.8c0-0.1-0.1-0.2-0.1-0.3c0,0,0,0,0,0
	c0-0.2,0-0.4,0-0.7c0,0,0,0,0,0c0,0,0,0,0,0c0-0.1,0-0.1,0-0.2c0.5-0.1,1-0.4,1.4-0.7h0.4c0.1,0,0.1,0,0.1,0.1c0,0.3,0,0.5,0,0.8
	c0,0,0,0,0,0c0,0,0,0,0,0c0,0.5,0,0.9-0.1,1C4.4,3.9,4.3,4,4.1,4.1c0,0,0,0,0,0C3.9,4.2,3.7,4.3,3.6,4.3C3.3,4.3,2.8,4,2.7,3.8
	L2.7,3.8z M3.6,4.6c0.1,0,0.3,0,0.4-0.1V5c0,0,0,0.1,0,0.1L4,5.2c-0.3,0.2-0.5,0.2-0.8,0L3.1,5.1c0,0,0-0.1,0-0.1V4.5
	C3.3,4.6,3.5,4.6,3.6,4.6L3.6,4.6z M3.8,5.6L3.6,6.3L3.3,5.6c0.1,0,0.2,0,0.3,0C3.7,5.7,3.8,5.6,3.8,5.6L3.8,5.6z M4,7.7h0.2
	c0.2,0,0.3,0.1,0.3,0.3v0.1c0,0.2-0.1,0.3-0.3,0.3H3.5v-1c0,0,0,0,0,0h0.3c0,0,0,0,0,0v0.2C3.8,7.6,3.9,7.7,4,7.7z M5,7.7l0.2,0.2
	v0.2c0,0,0,0,0,0c0,0,0,0,0,0v1.6H3.5v-1h0.6c0.3,0,0.6-0.3,0.6-0.6V8c0-0.3-0.3-0.6-0.6-0.6h0v0c0-0.2-0.1-0.3-0.3-0.3H3.6
	c-0.1,0-0.3,0.1-0.3,0.2H2.5c0.1-0.2,0.2-0.5,0.1-0.7L2.4,5.3c0.1-0.1,0.3-0.1,0.4-0.2l0.5,1.4c0,0.1,0.1,0.2,0.2,0.2h0
	c0.1,0,0.2-0.1,0.2-0.2l0.5-1.3l0.5,0.2L4.6,6.6C4.5,7,4.7,7.4,5,7.7L5,7.7z M8.5,5c0,0.2-0.1,0.3-0.3,0.3H8c-0.1,0-0.1,0-0.1,0.1
	L7.7,6L7.3,5.8l0.1-0.3c0-0.1,0-0.1-0.1-0.2c0,0-0.1-0.1-0.1-0.1V5L8.5,5L8.5,5z M9.4,4.5c0,0.1-0.1,0.2-0.2,0.2H6.4
	c-0.1,0-0.2-0.1-0.2-0.2V4.4h3.2V4.5z"/>
			<rect style="fill: none" class="st0" width="10" height="10"/>
		</symbol>

		<symbol id="fiestas" viewBox="0 0 10 10">
			<title>party</title>
			<path d="M6.8,6.3c0-0.1-0.1-0.1-0.2-0.1c-0.1,0-0.1,0.1-0.1,0.2c0,0,0,0,0,0c0.2,0.4,0.2,0.7,0,0.8C6.4,7.4,6,7.3,5.5,7.1
				C4.8,6.7,4.2,6.3,3.6,5.7C2.3,4.4,1.8,3.1,2.1,2.8c0.1-0.1,0.2-0.1,0.4-0.1c0.1,0,0.2-0.1,0.2-0.2c0-0.1-0.1-0.2-0.1-0.2
				c-0.2,0-0.5,0-0.6,0.2C1.3,3.2,2.2,4.8,3.4,5.9C3.9,6.5,4.6,7,5.3,7.4c0.1,0.1,0.3,0.1,0.4,0.2L4.5,8C3,7.4,1.8,6,1.6,4.3
				c0-0.1-0.1-0.2-0.2-0.1c-0.1,0-0.2,0.1-0.1,0.2c0,0.2,0.1,0.3,0.1,0.5c0.4,1.5,1.4,2.7,2.8,3.3L2.1,8.9c0,0,0,0,0,0
				c-0.5-0.4-0.8-1-0.9-1.6L1.2,6.3c0-0.1-0.1-0.2-0.2-0.2c0,0,0,0,0,0c-0.1,0-0.2,0.1-0.2,0.2c0,0,0,0,0,0l0.1,0.9
				C1,8,1.3,8.6,1.8,9L0.4,9.6l0.2-1c0-0.1,0-0.2-0.1-0.2s-0.2,0-0.2,0.1L0,9.8C0,9.9,0,10,0.1,10c0,0,0.1,0,0.1,0l6.2-2.3
				c0,0,0,0,0,0c0.1,0,0.3-0.1,0.4-0.2C6.9,7.3,7.1,7,6.8,6.3z"/>

			<path d="M8.4,5.8C7.5,5.5,6.5,5.4,5.6,5.6L5,5.7c-0.1,0-0.1,0.1-0.1,0.2C4.9,5.9,4.9,6,5,6l0.6-0.1c0.9-0.1,1.8-0.1,2.7,0.3
				c0,0,0,0,0.1,0c0.1,0,0.2-0.1,0.2-0.2C8.5,5.9,8.5,5.9,8.4,5.8z"/>

			<path d="M9,3.3c0-0.1-0.1-0.1-0.2-0.1L5.3,4.8C5.2,4.9,5.1,5,5.2,5.1c0,0,0,0,0,0c0,0.1,0.1,0.1,0.2,0.1c0,0,0,0,0,0l3.5-1.7
				C9,3.4,9,3.3,9,3.3z"/>

			<path d="M4,1.1C4,1,3.9,1,3.9,1C3.8,1,3.7,1.1,3.7,1.2c0,0,0,0,0,0C3.9,2.1,3.8,3.1,3.5,4L3.2,4.6c0,0.1,0,0.2,0.1,0.2
				c0,0,0,0,0.1,0c0.1,0,0.1,0,0.2-0.1l0.2-0.6C4.2,3.2,4.3,2.1,4,1.1z"/>

			<path d="M9.2,6C8.9,6,8.7,6.2,8.7,6.5C8.7,6.8,8.9,7,9.2,7c0.3,0,0.5-0.2,0.5-0.5C9.7,6.2,9.4,6,9.2,6z M9.2,6.7
				C9.1,6.7,9,6.6,9,6.5c0-0.1,0.1-0.2,0.2-0.2s0.2,0.1,0.2,0.2C9.3,6.6,9.3,6.7,9.2,6.7z"/>

			<path d="M5.2,1.3c-0.3,0-0.5,0.2-0.5,0.5s0.2,0.5,0.5,0.5c0.3,0,0.5-0.2,0.5-0.5S5.4,1.3,5.2,1.3z M5.2,2C5.1,2,5,1.9,5,1.8
				s0.1-0.2,0.2-0.2c0.1,0,0.2,0.1,0.2,0.2S5.3,2,5.2,2z"/>

			<circle cx="3.7" cy="0.3" r="0.3"/>

			<path d="M8.3,0.8C8.2,0.8,8.2,0.9,8.2,1v0.2c0,0.1,0.1,0.2,0.2,0.2s0.2-0.1,0.2-0.2V1C8.5,0.9,8.4,0.8,8.3,0.8z"/>

			<path d="M8.3,0C8.2,0,8.2,0.1,8.2,0.2v0.2c0,0.1,0.1,0.2,0.2,0.2s0.2-0.1,0.2-0.2V0.2C8.5,0.1,8.4,0,8.3,0z"/>

			<path d="M8.8,0.5H8.7c-0.1,0-0.2,0.1-0.2,0.2s0.1,0.2,0.2,0.2h0.2C8.9,0.8,9,0.8,9,0.7S8.9,0.5,8.8,0.5z"/>

			<path d="M8,0.5H7.8c-0.1,0-0.2,0.1-0.2,0.2s0.1,0.2,0.2,0.2H8c0.1,0,0.2-0.1,0.2-0.2S8.1,0.5,8,0.5z"/>

			<path d="M7.2,1.8H6.3C6.2,1.8,6.2,1.9,6.2,2v0.8C6.2,2.9,6.2,3,6.3,3h0.8c0.1,0,0.2-0.1,0.2-0.2V2C7.3,1.9,7.3,1.8,7.2,1.8z
				 M7,2.7H6.5V2.2H7V2.7z"/>

			<path d="M6,3.2c-0.1-0.1-0.2-0.1-0.2,0L4.1,4.7C4,4.8,4,4.9,4,4.9C4.1,5,4.2,5,4.3,5l1.7-1.5C6,3.4,6,3.3,6,3.2z"/>

			<path d="M9,3.8C8.9,3.8,8.8,3.9,8.8,4v0.2c0,0.1,0.1,0.2,0.2,0.2c0.1,0,0.2-0.1,0.2-0.2V4C9.2,3.9,9.1,3.8,9,3.8z"/>

			<path d="M9.7,3.8L9.6,3.7c-0.1-0.1-0.2-0.1-0.2,0c-0.1,0.1-0.1,0.2,0,0.2L9.5,4c0.1,0.1,0.2,0.1,0.2,0C9.8,4,9.8,3.9,9.7,3.8z"/>

			<path d="M9.8,3.2H9.7c-0.1,0-0.2,0.1-0.2,0.2c0,0.1,0.1,0.2,0.2,0.2h0.2c0.1,0,0.2-0.1,0.2-0.2C10,3.2,9.9,3.2,9.8,3.2z"/>

			<path d="M9.7,2.6c-0.1-0.1-0.2-0.1-0.2,0L9.4,2.7C9.3,2.8,9.3,2.9,9.4,3c0,0,0.1,0,0.1,0l0,0c0,0,0.1,0,0.1,0l0.1-0.1
				C9.8,2.8,9.8,2.7,9.7,2.6z"/>

			<path d="M9,2.3c-0.1,0-0.2,0.1-0.2,0.2v0.2c0,0.1,0.1,0.2,0.2,0.2c0.1,0,0.2-0.1,0.2-0.2V2.5C9.2,2.4,9.1,2.3,9,2.3z"/>

			<path d="M8.6,2.7L8.5,2.6c-0.1-0.1-0.2-0.1-0.2,0c-0.1,0.1-0.1,0.2,0,0.2L8.4,3C8.5,3,8.6,3,8.6,3C8.7,2.9,8.7,2.8,8.6,2.7z"/>

			<path d="M2,0.7c0-0.1-0.1-0.1-0.1-0.1L1.4,0.5L1.2,0.1C1.1,0,1,0,0.9,0c0,0,0,0-0.1,0.1L0.6,0.5L0.1,0.6C0.1,0.6,0,0.7,0,0.8
				c0,0,0,0.1,0,0.1l0.4,0.3L0.3,1.7c0,0.1,0,0.2,0.1,0.2c0,0,0.1,0,0.1,0L1,1.7l0.4,0.2c0.1,0,0.2,0,0.2-0.1c0,0,0-0.1,0-0.1
				L1.6,1.2L2,0.9C2,0.8,2,0.8,2,0.7z M1.3,1.1c0,0-0.1,0.1,0,0.1l0,0.2L1.1,1.3c0,0-0.1,0-0.2,0L0.7,1.4l0-0.2c0-0.1,0-0.1,0-0.1
				L0.5,0.9l0.2,0c0.1,0,0.1,0,0.1-0.1L1,0.5l0.1,0.2c0,0,0.1,0.1,0.1,0.1l0.2,0L1.3,1.1z"/>

			<path d="M9.4,8.4L9.4,8.4L9.4,8.2c-0.4-0.6-1-1-1.7-1.1c-0.1,0-0.2,0.1-0.2,0.1c0,0.1,0,0.2,0.1,0.2c0.5,0.1,0.9,0.3,1.3,0.7
				c-0.3,0-0.5,0.2-0.7,0.5C8.1,9,8.2,9.4,8.5,9.6s0.7,0.1,0.9-0.3C9.5,9.2,9.5,9,9.5,8.9c0.2,0.3,0.2,0.6,0,0.9
				c0,0.1,0,0.2,0.1,0.2c0.1,0,0.2,0,0.2-0.1c0,0,0,0,0,0C10.1,9.4,10,8.7,9.4,8.4z M9.1,9.1C9,9.3,8.8,9.4,8.7,9.3S8.4,9,8.5,8.8
				c0,0,0,0,0,0C8.6,8.7,8.8,8.6,9,8.5c0,0,0.1,0,0.1,0C9.2,8.6,9.2,9,9.1,9.1z"/>
			<rect x="0" y="0" style="fill: none" class="st0" width="10" height="10"/>
		</symbol>

		<symbol id="conductor" viewBox="0 0 10 10">
			<title>chofer</title>
			<path d="M3.3,6C2.9,6,2.5,6.4,2.5,6.8s0.4,0.8,0.8,0.8c0.5,0,0.8-0.4,0.8-0.8C4.1,6.4,3.8,6,3.3,6z M3.3,7.3C3,7.3,2.8,7.1,2.8,6.8S3,6.3,3.3,6.3s0.5,0.2,0.5,0.5S3.6,7.3,3.3,7.3z"/>
			<circle cx="2.3" cy="5.5" r="0.3"/>
			<circle cx="6.8" cy="3.2" r="0.3"/>
			<circle cx="8.1" cy="3.2" r="0.3"/>
			<path d="M9.1,5.8L8.3,5.7V5.1c0.5-0.3,0.8-0.8,0.8-1.3c0.2-0.1,0.3-0.3,0.3-0.5V3c0-0.1,0-0.2-0.1-0.3c0.1,0,0.1-0.1,0.1-0.2V0.2
		c0-0.1,0-0.1-0.1-0.1c0,0-0.1,0-0.1,0L8.5,0.3V0.2C8.5,0.1,8.4,0,8.3,0c0,0-0.1,0-0.1,0L7.8,0.2V0.2C7.8,0.1,7.7,0,7.6,0H4.1
		c0,0,0,0-0.1,0l-2,0.7C2,0.7,2,0.7,2,0.8L1.4,2.9C1.3,2.9,1.2,2.8,1.1,2.8c-0.3,0-0.5,0.3-0.5,0.7s0.2,0.7,0.5,0.7V8
		C1,8.1,0.9,8.1,0.8,8.2c-0.3,0.3-0.3,0.7,0,0.9C1,9.3,1.1,9.3,1.3,9.3h0.3v0.2c0,0.3,0.2,0.5,0.5,0.5H3c0.3,0,0.5-0.2,0.5-0.5V9.3
		h1.4L6.8,10c0,0,0,0,0.1,0h1.3c0,0,0,0,0.1,0l2.3-0.8c0.1,0,0.1-0.1,0.1-0.2V7.6C10.6,6.7,10,5.9,9.1,5.8z M9.1,3.3
		c0,0.1-0.1,0.2-0.2,0.2S8.8,3.6,8.8,3.7C8.8,4.4,8.2,5,7.5,5S6.1,4.4,6.1,3.7c0-0.1-0.1-0.2-0.2-0.2c-0.1,0-0.2-0.1-0.2-0.2V3
		c0-0.1,0.1-0.2,0.2-0.2c0.1,0,0.2-0.1,0.2-0.2V2.3L6.5,2c0.3-0.2,0.7-0.2,1,0l0.3,0.2c0,0,0.1,0,0.1,0h1v0.3c0,0.1,0.1,0.2,0.2,0.2
		S9.1,2.9,9.1,3V3.3z M8,5.3v0.6c0,0.3-0.2,0.5-0.5,0.5S7,6.1,7,5.8V5.3C7.3,5.4,7.7,5.4,8,5.3z M7.6,0.6c0,0,0.1,0,0.2,0l0.4-0.2
		v0.1c0,0.1,0,0.1,0.1,0.1c0,0,0.1,0,0.1,0l0.8-0.3v1.8C9.1,2.1,9.1,2,9,2H7.9L7.7,1.8c-0.4-0.3-1-0.3-1.4-0.1L5.9,2
		c0,0-0.1,0.1-0.1,0.1c0-0.9,0.7-1.7,1.7-1.8v0.2C7.5,0.6,7.5,0.6,7.6,0.6z M4.2,0.3h2.3C6.3,0.4,6.2,0.5,6.1,0.7H3.2L4.2,0.3z
		 M1.5,4l0.8-3h3.5C5.8,1.1,5.7,1.2,5.6,1.3h-3c-0.1,0-0.1,0.1-0.2,0.1L2,3.6c0,0.1,0,0.2,0.1,0.2c0,0,0,0,0,0h3.7
		c0.1,0.5,0.4,1,0.8,1.3v0.6L5.9,5.8C5.7,5.8,5.5,5.9,5.3,6c-1-1.4-3.2-1.8-3.8-1.8V4z M5.5,3.5H3.8l1-1.2L4.5,2.1L3.4,3.5h-1
		l0.4-1.8h2.8c0,0.2-0.1,0.3-0.1,0.5v0.3c0,0.1,0.1,0.1,0.1,0.2C5.5,2.8,5.5,2.9,5.5,3v0.3C5.5,3.4,5.5,3.4,5.5,3.5z M1,3.5
		c0-0.2,0.1-0.3,0.2-0.3c0.1,0,0.1,0.1,0.2,0.2L1.2,3.8c0,0,0,0,0,0C1.1,3.8,1,3.7,1,3.5z M3.1,9.5c0,0.1-0.1,0.2-0.2,0.2H2.1
		C2.1,9.7,2,9.6,2,9.5V9.3h1.2V9.5z M4.3,9h-3C1.1,9,1,8.9,1,8.7c0-0.2,0.1-0.3,0.3-0.3h3V9z M4.3,8H1.5V4.5C2.1,4.6,4.1,4.9,5,6.2
		C4.6,6.5,4.3,7.1,4.3,7.6V8z M5.6,9c0,0.1-0.1,0.2-0.2,0.2h0l-0.1,0V8.5h0.2c0.1,0,0.2,0.1,0.2,0.2V9z M6.5,9.5L5.9,9.3
		C5.9,9.2,6,9.1,6,9V8.7c0-0.2-0.2-0.4-0.4-0.5C6,7.7,6.7,7.4,7.3,7.3v1.3C6.9,8.8,6.5,9.1,6.5,9.5z M8.1,9.7H6.9l0,0
		C6.8,9.3,7.1,9,7.5,9C7.9,9,8.1,9.3,8.1,9.7L8.1,9.7z M9.1,9.3L8.5,9.5C8.4,9.1,8.1,8.8,7.6,8.7V7.3c0.7,0,1.3,0.3,1.7,0.8
		C9.1,8.2,9,8.4,9,8.7V9C9,9.1,9,9.2,9.1,9.3z M9.6,9.1l-0.1,0h0C9.4,9.2,9.3,9.1,9.3,9V8.7c0-0.1,0.1-0.2,0.2-0.2h0.2V9.1z
		 M10.3,8.9L10,9V8.3c0-0.1-0.1-0.2-0.2-0.2h0c-0.9-1.3-2.7-1.5-4-0.6C5.6,7.7,5.4,7.9,5.2,8.2h0C5.1,8.2,5,8.2,5,8.3V9L4.6,8.9V7.6
		c0-0.7,0.6-1.4,1.3-1.5L6.7,6c0.1,0.4,0.5,0.7,1,0.6C8,6.6,8.2,6.3,8.3,6L9,6.1c0.7,0.1,1.3,0.7,1.3,1.5V8V8.9z"/>
			<path class="st0" d="M10.6,8.1v0.7c-0.1,0-0.2,0-0.3,0c0-0.2,0-0.5,0-0.7C10.4,8,10.5,8.1,10.6,8.1z"/>
			<rect class="st0" style="fill: none" width="11.3" height="10"/>
		</symbol>
        <symbol id="icon-like-active" viewBox="0 0 10 10">
            <title>like active</title>
            <g>
                <path class="st1" d="M0.4,9.3c0,0.3,0.3,0.5,0.6,0.5h0.9c0.3,0,0.6-0.2,0.6-0.5V4.4c0-0.3-0.3-0.5-0.6-0.5H1
		c-0.3,0-0.6,0.2-0.6,0.5V9.3z"/>
                <path class="st2" d="M8.3,9.2C8.5,9.2,8.7,9,8.7,8.9c0-0.2-0.1-0.2-0.2-0.3C8.3,8.5,8.2,8.4,8.2,8.3c0-0.2,0.2-0.4,0.5-0.4h0.1
		c0.2,0,0.3-0.2,0.3-0.4c0-0.1-0.2-0.3-0.3-0.4c0,0,0,0,0,0C8.6,7,8.6,6.9,8.6,6.7c0-0.1,0-0.3,0.4-0.3c0.1,0,0.3-0.2,0.3-0.3
		c0-0.1,0-0.5-0.1-0.5C8.9,5.5,8.7,5.4,8.7,5.2c0-0.1,0-0.3,0.2-0.4C9,4.7,9.1,4.5,9.1,4.4c0-0.2-0.1-0.3-0.3-0.3H6.2
		C5.6,4.1,5,3.7,5,3.1V2.8c0-0.2,0.2-0.4,0.6-1.2c0.1-0.1,0.1-0.2,0.2-0.4c0,0,0-0.1,0-0.1c0-0.2-0.5-0.5-0.7-0.5
		c-0.1,0-0.2,0-0.3,0.1L4.7,1l-2,3.1c0.1,0.2,0.2,0.4,0.2,0.6v0.8C4.1,7.2,6.2,8.7,8.3,9.2z"/>
                <path d="M1.2,3.7h0.6c0.1,0,0.2,0,0.4,0.1l1.9-3l0.3-0.4l0,0C4.5,0.1,4.8,0,5.2,0c0.6,0,1.2,0.5,1.2,1.2c0,0.1,0,0.3-0.1,0.4l0,0
		l0,0C6.2,1.7,6.1,1.9,6.1,2C5.9,2.3,5.6,2.9,5.5,3.1c0,0.2,0.3,0.3,0.5,0.3h2.6c0.6,0,1.1,0.5,1.1,1.1c0,0.2-0.1,0.4-0.2,0.6
		C9.8,5.3,10,5.6,10,6c0,0.3-0.1,0.5-0.3,0.7c0,0.1-0.1,0.1-0.2,0.1C9.7,7,9.7,7.2,9.7,7.4c0,0.4-0.2,0.8-0.6,1
		c0.1,0.1,0.1,0.3,0.1,0.5c0,0.7-0.5,1.1-1.1,1.1H4.3c-0.2,0-0.4-0.2-0.4-0.4s0.2-0.4,0.4-0.4h3.8c0.3,0,0.3-0.3,0.3-0.4
		c0-0.2-0.1-0.2-0.2-0.3C8,8.5,8,8.3,8,8.2c0-0.2,0.2-0.4,0.5-0.4h0.1c0.2,0,0.3-0.1,0.3-0.3c0-0.1-0.1-0.2-0.2-0.3c0,0,0,0,0,0
		C8.6,7,8.5,6.9,8.5,6.7c0-0.1,0.1-0.4,0.5-0.4c0.1,0,0.3-0.2,0.3-0.3c0-0.1-0.1-0.3-0.3-0.3C8.7,5.6,8.6,5.4,8.6,5.2
		c0-0.1,0-0.3,0.2-0.4c0.1-0.1,0.1-0.2,0.1-0.3c0-0.2-0.1-0.3-0.3-0.3H6c-0.6,0-1.3-0.4-1.3-1.1l0,0c0-0.2,0.2-0.6,0.6-1.4
		c0.1-0.1,0.1-0.2,0.2-0.4c0,0,0-0.1,0-0.1c0-0.2-0.2-0.4-0.4-0.4c-0.1,0-0.2,0-0.3,0.1L4.7,1.2l-2,3.1c0.1,0.2,0.2,0.4,0.2,0.6v4
		c0,0.6-0.5,1.2-1.2,1.2H1.2C0.5,10,0,9.5,0,8.8v-4C0,4.2,0.5,3.7,1.2,3.7z M0.8,8.8C0.8,9,1,9.2,1.2,9.2h0.6C2,9.2,2.1,9,2.1,8.8
		v-4c0-0.2-0.2-0.4-0.4-0.4H1.2C1,4.5,0.8,4.6,0.8,4.8V8.8z"/>
            </g>
            <rect style="fill: none" width="10" height="10"/>
        </symbol>

        <symbol id="icon-search" viewBox="0 0 10 10">
            <title>search</title>
            <g>
                <path d="M9.4,3.2c-0.3,0-0.6,0.3-0.6,0.6s0.3,0.6,0.6,0.6S10,4.1,10,3.8S9.7,3.2,9.4,3.2z"/>
                <path d="M8.5,5.3L8.5,5.3C8.3,5.3,8.1,5.3,8,5.5C7,6.4,5.4,6.2,4.5,5.2c-0.9-1-0.7-2.6,0.3-3.5c1-0.8,2.4-0.8,3.3,0.1
		c0,0,0.1,0.1,0.1,0.1c0,0,0,0,0,0C8.4,2.2,8.8,2.2,9,2.1c0.3-0.2,0.3-0.5,0.2-0.8c0-0.1-0.1-0.1-0.2-0.2C9,1.1,9,1.1,8.9,1
		C7.6-0.3,5.3-0.3,3.9,1C2.7,2.3,2.5,4.2,3.5,5.6C3.2,5.6,3,5.7,2.8,5.9L0.3,8.3c-0.4,0.4-0.4,1,0,1.4c0.4,0.4,1,0.4,1.4,0
		c0,0,0,0,0,0l2.5-2.5C4.3,7,4.4,6.8,4.4,6.5c1.3,0.9,3.1,0.8,4.3-0.3C9,6.1,9.1,5.8,8.9,5.5C8.8,5.4,8.6,5.3,8.5,5.3z"/>
            </g>
            <rect x="0" style="fill: none" width="10" height="10"/>
        </symbol>

        <symbol id="icon-usuario" viewBox="0 0 10 10">
            <title>user</title>
            <path d="M10,8.6c0-0.2-0.3-0.3-0.5-0.3c-0.2,0-0.3,0.2-0.3,0.5c0,0.1,0,0.2-0.1,0.3C9,9.2,8.9,9.2,8.8,9.2H1.2
	C1.1,9.2,1,9.2,0.9,9.1C0.8,9,0.8,8.8,0.8,8.7c0.4-2,2.1-3.4,4.1-3.4H5h0.1c1.4,0,2.7,0.7,3.5,1.9c0.1,0.2,0.4,0.2,0.5,0.1
	C9.3,7.2,9.3,7,9.2,6.8c-0.6-0.9-1.6-1.6-2.6-2C7.8,3.9,8,2.2,7.1,1.1C6.2-0.1,4.6-0.3,3.4,0.5S2,3.1,2.9,4.2C3,4.4,3.2,4.6,3.4,4.8
	c-1.7,0.6-3,2-3.4,3.8C-0.1,9.2,0.3,9.8,0.9,10c0.1,0,0.2,0,0.2,0h7.6C9.5,10,10,9.5,10,8.8C10,8.7,10,8.6,10,8.6z M3.1,2.7
	c0-1,0.8-1.9,1.9-1.9c1,0,1.9,0.8,1.9,1.9c0,1-0.8,1.8-1.8,1.9H4.9C3.9,4.5,3.1,3.7,3.1,2.7L3.1,2.7z" />
            <rect y="0" style="fill: none" width="10" height="10" />
        </symbol>

    </defs>

		<symbol id="informatica" viewBox="0 0 10 10">
			<title>informatic</title>
			<path d="M5.1,5.1c0.1,0.1,0.1,0.1,0.2,0c0.1-0.1,0.1-0.1,0-0.2C5,4.6,4.7,4.5,4.3,4.6c0.2-0.8-0.5-1.4-1.2-1.2c0.1-0.3,0-0.7-0.3-1
		c-0.1-0.1-0.1-0.1-0.2,0c-0.1,0.1-0.1,0.1,0,0.2c0,0,0.1,0.1,0.1,0.1l-1,1c0,0-0.1-0.1-0.1-0.1c-0.1-0.1-0.1-0.1-0.2,0
		c-0.1,0.1-0.1,0.1,0,0.2c0.3,0.3,0.6,0.4,1,0.3C2.1,4.9,2.8,5.5,3.6,5.4c-0.1,0.3,0,0.7,0.3,1c0.1,0.1,0.1,0.1,0.2,0
		c0.1-0.1,0.1-0.1,0-0.2C4,6.1,4,6,4,6l1-1C5,5,5.1,5,5.1,5.1L5.1,5.1z M2,3.8L2.8,3C2.9,3.5,2.5,3.9,2,3.8z M2.6,4.4
		C2.6,4,2.9,3.6,3.4,3.6L2.6,4.4z M2.7,4.7l1-1C3.8,3.8,3.9,3.9,4,4l-1,1C2.8,4.9,2.8,4.8,2.7,4.7L2.7,4.7z M3.3,5.1l0.8-0.8
		C4.1,4.7,3.7,5.1,3.3,5.1z M3.9,5.7C3.8,5.2,4.2,4.8,4.7,4.9L3.9,5.7z"/>
			<path d="M5.9,3h2.3c0.1,0,0.1-0.1,0.1-0.1c0-0.1-0.1-0.1-0.1-0.1H5.9c-0.1,0-0.1,0.1-0.1,0.1C5.8,2.9,5.8,3,5.9,3L5.9,3z"/>
			<path d="M5.9,3.6h2.3c0.1,0,0.1-0.1,0.1-0.1c0-0.1-0.1-0.1-0.1-0.1H5.9c-0.1,0-0.1,0.1-0.1,0.1C5.8,3.5,5.8,3.6,5.9,3.6L5.9,3.6z" />
			<path d="M5.9,4.2h2.3c0.1,0,0.1-0.1,0.1-0.1c0-0.1-0.1-0.1-0.1-0.1H5.9C5.8,3.9,5.8,3.9,5.8,4C5.8,4.1,5.8,4.2,5.9,4.2L5.9,4.2z"/>
			<path d="M5.9,4.7h2.3c0.1,0,0.1-0.1,0.1-0.1S8.3,4.5,8.2,4.5H5.9c-0.1,0-0.1,0.1-0.1,0.1S5.8,4.7,5.9,4.7L5.9,4.7z"/>
			<path d="M5.9,5.3h2.3c0.1,0,0.1-0.1,0.1-0.1S8.3,5,8.2,5H5.9C5.8,5,5.8,5.1,5.8,5.2S5.8,5.3,5.9,5.3L5.9,5.3z"/>
			<path d="M5.9,5.9h2.3c0.1,0,0.1-0.1,0.1-0.1S8.3,5.6,8.2,5.6H5.9c-0.1,0-0.1,0.1-0.1,0.1S5.8,5.9,5.9,5.9L5.9,5.9z"/>
			<path d="M5.3,7h3.8c0.1,0,0.2-0.1,0.2-0.2c0-0.2,0-5.2,0-5.6C9.4,1.1,9.3,1,9.2,1c-0.3,0-8,0-8.3,0C0.7,1,0.6,1.1,0.6,1.2v5.6
		C0.6,6.9,0.7,7,0.8,7h3.8c0.1,0,0.1-0.1,0.1-0.1S4.7,6.7,4.7,6.7H0.9V2h8.2v4.7H5.3c-0.1,0-0.1,0.1-0.1,0.1S5.3,7,5.3,7z M1.5,1.7
		H0.9V1.3h0.6V1.7z M9.1,1.7H1.8V1.3h7.3L9.1,1.7L9.1,1.7z"/>
			<path d="M9.9,3.8c0.1,0,0.1-0.1,0.1-0.1V1.1c0-0.4-0.3-0.7-0.7-0.7H0.7C0.3,0.4,0,0.7,0,1.1v5.8c0,0.4,0.3,0.7,0.7,0.7h3.2V8
		c0,0.2-0.1,0.3-0.2,0.4L3.4,8.7H3.1c-0.2,0-0.3,0.2-0.3,0.3v0.2c0,0.2,0.2,0.3,0.3,0.3h3.9c0.2,0,0.3-0.2,0.3-0.3V9.1
		c0-0.2-0.2-0.3-0.3-0.3H6.6L6.3,8.5C6.1,8.4,6.1,8.2,6.1,8V7.6h3.2c0.4,0,0.7-0.3,0.7-0.7V4.4c0-0.1-0.1-0.1-0.1-0.1
		S9.7,4.3,9.7,4.4v2.5c0,0.2-0.2,0.4-0.4,0.4c-0.2,0-8.3,0-8.6,0c-0.2,0-0.4-0.2-0.4-0.4V1.1c0-0.2,0.2-0.4,0.4-0.4h8.6
		c0.2,0,0.4,0.2,0.4,0.4v2.6C9.7,3.8,9.8,3.8,9.9,3.8L9.9,3.8z M6.9,9C7,9,7,9,6.9,9l0,0.3c0,0,0,0,0,0H3.1c0,0,0,0,0,0V9.1
		c0,0,0,0,0,0H6.9z M4.2,8V7.6h1.5V8c0,0.3,0.1,0.5,0.4,0.7l0,0H3.9l0,0C4.1,8.6,4.2,8.3,4.2,8L4.2,8z"/>
			<rect class="st0" style="fill: none" width="10" height="10"/>
		</symbol>

		<symbol id="artista" viewBox="0 0 10 10">
			<title> artist</title>
			<path d="M3.3,3.1c0-0.2-0.1-0.3-0.2-0.3S3,3,3,3.1c0,0.2,0.1,0.3,0.2,0.3S3.3,3.3,3.3,3.1z"/>
			<path d="M5,3.4c0.1,0,0.2-0.1,0.2-0.3C5.2,3,5.1,2.8,5,2.8C4.9,2.8,4.9,3,4.9,3.1C4.9,3.3,4.9,3.4,5,3.4z"/>
			<path d="M4.1,4.3c0.2,0,0.4-0.1,0.5-0.3c0-0.1,0-0.2-0.1-0.2c-0.1,0-0.2,0-0.2,0.1C4.3,3.9,4.2,4,4.1,4S3.9,3.9,3.8,3.8
		c0-0.1-0.1-0.1-0.2-0.1c-0.1,0-0.1,0.1-0.1,0.2C3.7,4.2,3.9,4.3,4.1,4.3z"/>
			<path d="M8.8,1.1H7.7c-0.1,0-0.1,0.1-0.1,0.1c0,0.1,0.1,0.1,0.1,0.1h1V3c0,0.7-0.5,1.4-1.2,1.7l0,0c0,0-0.1-0.1-0.1-0.1
		C7.3,4.4,7.1,4.3,6.9,4.4c-0.1,0-0.1,0.1-0.2,0.2C6.1,4.3,5.6,3.7,5.6,3V1.4h1.5c0.1,0,0.1-0.1,0.1-0.1S7.2,1.1,7.1,1.1H6.7
		c0-0.2-0.1-0.4-0.3-0.5c-0.3-0.3-0.7-0.2-1,0c-0.2-0.3-1-0.8-2.8-0.4c-0.5,0.1-0.9,0.4-1,1c-0.1,0.4,0,1,0,1.5c0,0.1,0,0.2,0,0.3
		C1.6,2.9,1.5,3.1,1.5,3.3c0,0.3,0.2,0.5,0.4,0.6c0,0.1,0,0.2,0,0.2c0,0.5,0.3,0.9,0.7,1.1c-0.3,0.3-0.7,1-0.7,2.3
		c0,0.1-0.2,0.5,0,0.7C2,8.3,2.2,8.3,2.3,8.3c0.1,0,0.1,0,0.2,0c0,0.1,0,0.1,0,0.2c0,0.1,0.1,0.1,0.1,0.1c0,0,0,0,0,0
		c0.1,0,0.1-0.1,0.1-0.2c0-0.5,0-0.9,0-0.9c0,0,0,0,0,0c0-0.1,0-0.1,0-0.2h2.5l0,0.2c0,0,0.1,1-0.2,1.7H5.1c0,0,0,0,0,0H4.5
		c0.1-0.4,0.1-1.2-0.3-1.6c0,0-0.1,0-0.1,0c0,0-0.1,0-0.1,0C3.6,8.1,3.6,8.9,3.7,9.2H3.1c0,0,0,0,0,0H3C3,9.2,2.9,9.1,2.9,9
		c0-0.1-0.1-0.1-0.2-0.1C2.7,8.9,2.6,9,2.6,9c0,0.1,0.1,0.2,0.1,0.3C2.6,9.5,2.5,9.6,2.5,9.9c0,0.1,0.1,0.1,0.1,0.1h1.3
		C3.9,10,4,9.9,4,9.9V9.4c0,0,0,0,0,0c0,0,0,0,0,0C4,9.1,3.9,8.4,4.1,8c0.2,0.4,0.2,1.1,0.1,1.3c0,0,0,0,0,0v0.5
		c0,0.1,0.1,0.1,0.1,0.1h1.3c0.1,0,0.1-0.1,0.1-0.1c0-0.2-0.1-0.4-0.3-0.5c0.3-0.8,0.2-1.8,0.2-1.9l0-0.3c0,0,0,0,0,0
		c0-0.3-0.1-0.6-0.2-0.8c0.1,0,0.3,0.1,0.4,0.1c0.4,0,1-0.1,1.4-0.8c0.1-0.1,0.3-0.4,0.3-0.7l0,0C8.4,4.7,9,3.9,9,3V1.3
		C9,1.2,8.9,1.1,8.8,1.1L8.8,1.1z M2.8,9.7c0.1-0.1,0.2-0.2,0.3-0.2h0.7v0.2H2.8z M4.5,9.7V9.5h0.7c0.1,0,0.2,0.1,0.3,0.2H4.5z
		 M6.5,5.2C6.3,5.3,5.9,5.4,5.7,5.3c-0.1,0-0.1-0.1-0.2-0.1C5.8,5,6,4.8,6.1,4.6c0.1,0.1,0.3,0.2,0.5,0.3C6.6,5,6.5,5.1,6.5,5.2z
		 M1.8,3.3c0-0.1,0.1-0.2,0.2-0.3c0,0.2,0,0.3,0,0.5C1.8,3.5,1.8,3.4,1.8,3.3z M2.1,2.7C2,2.7,2,2.7,2.1,2.7C2,2.6,2,2.6,1.9,2.5
		c-0.1-0.5-0.1-1,0-1.4C2,0.7,2.2,0.5,2.6,0.4c0.6-0.1,1.5-0.2,2.1,0.1c0.4,0.2,0.5,0.4,0.5,0.4c0,0,0.1,0.1,0.1,0.1
		c0,0,0.1,0,0.1,0c0,0,0.1-0.1,0.3-0.2c0.2-0.1,0.3,0,0.5,0.1C6.3,0.9,6.3,1,6.4,1.1H5.5c-0.1,0-0.1,0.1-0.1,0.1v0.4
		c-0.1,0-0.2,0-0.2,0c-0.2,0-0.3,0.1-0.5,0.2C4.5,1.9,4.3,2,4.1,2C3.9,2,3.7,1.9,3.6,1.8C3.4,1.6,3.1,1.6,2.9,1.6
		C2.6,1.7,2.5,1.9,2.4,2.1C2.3,2.3,2.2,2.6,2.1,2.7L2.1,2.7z M2.2,4c0-0.4,0-0.8,0-1.1c0.2-0.1,0.3-0.3,0.4-0.7C2.7,2.1,2.8,2,3,1.9
		c0.1,0,0.3,0,0.4,0.1c0.2,0.2,0.5,0.3,0.7,0.3c0.3,0,0.5-0.1,0.7-0.3C4.9,1.9,5,1.9,5.1,1.9c0.1,0,0.2,0,0.2,0.1v1
		c0,0.5,0.2,1,0.5,1.4C5.7,4.7,5.4,5,5,5C4.4,5,3.8,5,3.2,5C2.7,5,2.3,4.6,2.2,4L2.2,4z M4.7,5.3C4.6,5.5,4.4,5.6,4.1,5.6
		S3.6,5.5,3.5,5.3c0.2,0,0.4,0,0.6,0C4.3,5.3,4.5,5.3,4.7,5.3z M2.2,8c0,0,0-0.2,0-0.3h0.4c0,0.1,0,0.2,0,0.3C2.3,8,2.2,8,2.2,8z
		 M5.2,6c-0.1,0-0.1,0-0.2,0c0,0,0,0.1,0,0.1c0,0,0,0.1,0,0.1c0,0,0.2,0.4,0.3,0.9H2.9C2.9,6.8,3,6.7,3,6.7c0-0.1,0-0.2-0.1-0.2
		c-0.1,0-0.2,0-0.2,0.1c0,0-0.1,0.2-0.1,0.6c0,0.1,0,0.1,0,0.2H2.2c0-0.7,0.1-1.2,0.4-1.6c0.1-0.3,0.3-0.4,0.4-0.5
		c0.1,0,0.2,0,0.2,0c0,0,0,0,0,0c0.1,0.3,0.4,0.6,0.9,0.6c0.5,0,0.8-0.3,0.9-0.6c0,0,0,0,0,0c0.1,0,0.1,0,0.2,0
		c0.1,0.1,0.2,0.3,0.3,0.3c0.4,0.2,0.9,0,1.1-0.1L7,5.6C6.2,6.5,5.3,6,5.2,6L5.2,6z M6.8,5.2c0-0.1,0-0.2,0.1-0.2
		c0-0.1,0.1-0.2,0.2-0.3c0,0,0.1,0,0.1,0c0.2,0.2,0,0.5-0.1,0.6L6.8,5.2z"/>
			<path d="M6.8,2.8c0,0.1,0.1,0.1,0.1,0.1c0.1,0,0.1-0.1,0.1-0.1c0-0.3-0.3-0.6-0.6-0.6c-0.3,0-0.6,0.3-0.6,0.6C5.9,2.8,6,2.9,6,2.9
		s0.1-0.1,0.1-0.1c0-0.2,0.1-0.3,0.3-0.3S6.8,2.6,6.8,2.8z"/>
			<path d="M7.4,2.9c0.1,0,0.1-0.1,0.1-0.1c0-0.2,0.1-0.3,0.3-0.3s0.3,0.1,0.3,0.3c0,0.1,0.1,0.1,0.1,0.1c0.1,0,0.1-0.1,0.1-0.1
		c0-0.3-0.3-0.6-0.6-0.6S7.3,2.4,7.3,2.8C7.3,2.8,7.4,2.9,7.4,2.9z"/>
			<path d="M7.2,3.9c0.2,0,0.5-0.1,0.6-0.3c0.1-0.1,0.1-0.1,0-0.2s-0.1-0.1-0.2,0C7.4,3.7,7,3.7,6.7,3.4c-0.1-0.1-0.1-0.1-0.2,0
		c-0.1,0.1-0.1,0.1,0,0.2C6.7,3.8,6.9,3.9,7.2,3.9L7.2,3.9z"/>
			<rect class="st0" style="fill: none" width="10" height="10"/>
		</symbol>


		<symbol id="gasfiteria" viewBox="0 0 10 10">
			<title> gasfitter</title>
			<path d="M9.7,0.8h-1C8.6,0.8,8.5,0.9,8.5,1v0.1H7.9c-0.1,0-0.1,0-0.2,0.1C6,1.2,4.6,2.7,4.6,4.5v0.2H4.5c-0.1,0-0.2,0.1-0.2,0.2
		v0.8c0,0.1,0.1,0.2,0.2,0.2h0.1v0.7c0,0.2-0.1,0.4-0.2,0.5C4.3,7.2,4.1,7.3,3.9,7.3c-0.2,0-0.4-0.1-0.5-0.2
		C3.3,6.9,3.2,6.8,3.2,6.6V5.9h0.1c0.1,0,0.2-0.1,0.2-0.2V4.9c0-0.1-0.1-0.2-0.2-0.2H3.2V2.1C3.3,2.1,3.3,2,3.3,2V1.4h0.1
		c0.1,0,0.2-0.1,0.2-0.2v-1C3.6,0.1,3.5,0,3.4,0H0.3C0.2,0,0.1,0.1,0.1,0.2v1c0,0.1,0.1,0.2,0.2,0.2h0.1V2c0,0.1,0,0.1,0.1,0.2v2.6
		H0.4c-0.1,0-0.2,0.1-0.2,0.2v0.8c0,0.1,0.1,0.2,0.2,0.2h0.1v0.7c0,0.5,0.1,0.9,0.3,1.3c0.1,0.2,0.2,0.4,0.3,0.6
		C1.2,8.7,1.3,8.8,1.5,9S1.8,9.3,2,9.4c0.2,0.1,0.4,0.2,0.6,0.3C3,9.9,3.4,10,3.9,10l0,0v0v0c0.3,0,0.5,0,0.7-0.1
		c0.2-0.1,0.5-0.1,0.7-0.2c0.2-0.1,0.4-0.2,0.6-0.4C6.1,9.2,6.3,9,6.4,8.9c0.1-0.1,0.1-0.2,0-0.3c0,0-0.1-0.1-0.1-0.1
		c-0.1,0-0.1,0-0.1,0.1c-0.6,0.6-1.4,1-2.2,1c-0.8,0-1.6-0.3-2.1-0.9C1.2,8.2,0.9,7.4,0.9,6.6V5.9h2v0.7c0,0.1,0,0.3,0.1,0.4
		C3,7.1,3,7.2,3.1,7.3s0.2,0.2,0.3,0.2c0.1,0.1,0.3,0.1,0.4,0.1c0.1,0,0.3,0,0.4-0.1c0.1-0.1,0.2-0.1,0.3-0.2S4.8,7.1,4.9,7
		C5,6.9,5,6.7,5,6.6V5.9h2v0.7c0,0.2,0,0.4-0.1,0.6c0,0.1,0,0.1,0,0.1c0,0,0.1,0.1,0.1,0.1c0,0,0,0,0,0c0.1,0,0.2-0.1,0.2-0.2
		c0-0.2,0.1-0.4,0.1-0.6V5.9h0.1c0.1,0,0.2-0.1,0.2-0.2V4.9c0-0.1-0.1-0.2-0.2-0.2H7.3V4.5c0-0.3,0.2-0.5,0.5-0.6C7.8,4,7.9,4,7.9,4
		h0.6v0.1c0,0.1,0.1,0.2,0.2,0.2h1c0.1,0,0.2-0.1,0.2-0.2V1C9.9,0.9,9.8,0.8,9.7,0.8L9.7,0.8z M3.1,5.5H0.6V5.1h2.5V5.5z M2.8,2.1
		v2.5h-2V2.1H2.8z M1.6,1.8V1.4h0.6v0.4H1.6z M2.5,1.8V1.4h0.4v0.4H2.5z M1.2,1.8H0.8V1.4h0.4V1.8z M0.5,1V0.4h2.7V1H0.5z M7.2,5.5
		H4.7V5.1h2.5V5.5z M7.8,3.5C7.3,3.6,6.9,4,6.9,4.5v0.2H5V4.5c0-1.6,1.2-2.8,2.8-2.9V3.5z M8.5,3.6H8.1V3.2h0.4V3.6z M8.5,2.8H8.1
		V2.2h0.4V2.8z M8.5,1.9H8.1V1.5h0.4V1.9z M9.5,3.9H8.9V1.2h0.6V3.9z"/>
			<path d="M2.1,7.8C2,7.8,2,7.8,1.9,7.8c0,0-0.1,0-0.1,0c0,0-0.1,0.1-0.1,0.1c0,0.1,0,0.1,0,0.1C2.1,8.6,2.6,9,3.2,9.1c0,0,0,0,0.1,0
		c0.1,0,0.2-0.1,0.2-0.1c0-0.1,0-0.2-0.1-0.2C2.8,8.6,2.4,8.3,2.1,7.8L2.1,7.8z"/>
			<path d="M5.7,3.2c-0.1,0.1,0,0.2,0.1,0.3c0,0,0.1,0,0.1,0c0.1,0,0.1,0,0.2-0.1c0,0,0-0.1,0.1-0.1C6.3,3,6.6,2.7,6.9,2.6
		C7,2.5,7.1,2.4,7,2.3C7,2.2,6.9,2.2,6.8,2.2C6.4,2.4,6,2.7,5.8,3.1C5.8,3.2,5.7,3.2,5.7,3.2z"/>
			<circle cx="6.8" cy="8" r="0.2"/>
			<rect class="st0" style="fill: none" width="10" height="10"/>
		</symbol>

		<symbol id="mesera" viewBox="0 0 10 10">
			<title> waitress</title>
			<path d="M0.5,9.8C0.6,9.9,0.7,10,0.9,10h7.8C8.8,10,9,9.9,9.1,9.8c0.1-0.1,0.1-0.3,0.1-0.4L9,8.3c0-0.1-0.1-0.1-0.2-0.1
	c-0.1,0-0.1,0.1-0.1,0.2l0.2,1.2c0,0.1,0,0.1,0,0.2c0,0-0.1,0.1-0.1,0.1H7.7V8.8c0,0,0,0,0-0.1L7.6,8.5c0,0,0,0,0-0.1l0,0V6.6
	l0.2,0.1c0.4,0.1,0.7,0.5,0.8,0.9l0,0.1c0,0.1,0.1,0.1,0.1,0.1c0,0,0,0,0,0c0.1,0,0.1-0.1,0.1-0.2l0-0.1c-0.1-0.5-0.5-1-1-1.1
	L6.1,5.9c-0.1,0-0.1,0-0.2,0c0,0,0,0,0-0.1H6c0.3,0,0.6-0.1,0.8-0.3C7,5.3,7.1,5,7.1,4.7L7,3.9c0.1-0.1,0.1-0.2,0.1-0.3V3.3
	C7.1,3.2,7.1,3.1,7,3V1.3c0-0.5-0.3-0.9-0.8-1L5.1,0C4.9,0,4.7,0,4.5,0L3.4,0.3c-0.5,0.1-0.8,0.5-0.8,1V3C2.5,3.1,2.4,3.2,2.4,3.3
	v0.2c0,0.1,0.1,0.2,0.1,0.3L2.5,4.7c0,0.3,0.1,0.6,0.3,0.8c0.2,0.2,0.5,0.3,0.8,0.3h0.2c0,0,0,0.1,0,0.1c-0.1,0-0.1,0-0.2,0L1.7,6.4
	C1.2,6.5,0.8,7,0.7,7.5l-0.3,2C0.4,9.6,0.4,9.7,0.5,9.8z M2.6,8C2.6,8,2.6,8,2.6,8L2.3,8.2V6.5l0.1,0l0.2-0.1V8z M2.8,4.7L2.8,4h0.1
	c0,0.3,0.2,0.6,0.5,1c0.1,0.1,0.2,0.2,0.3,0.3v0.3H3.5C3.3,5.5,3.1,5.5,3,5.3C2.8,5.2,2.7,5,2.8,4.7z M3.9,6.6
	c0-0.1-0.1-0.2-0.1-0.3c0,0,0,0,0,0c0,0,0,0,0,0c0,0,0.2,0,0.5,0.1v0.5C4,7.1,3.9,7.1,3.8,7.1c0,0,0,0,0,0c0-0.1,0-0.2,0.1-0.3
	C3.9,6.7,3.9,6.7,3.9,6.6z M4.6,6.1c0,0-0.1,0-0.1,0C4.3,6.1,4.1,6,3.9,6C4,5.9,4,5.8,4,5.7c0,0,0,0,0,0c0,0,0,0,0,0V5.5
	c0.2,0.1,0.5,0.2,0.8,0.2s0.5-0.1,0.8-0.2v0.2c0,0,0,0,0,0c0,0,0,0,0,0c0,0.1,0,0.2,0.1,0.3C5.5,6,5.3,6.1,5,6.2c0,0-0.1,0-0.1,0
	H4.6z M4.9,6.4v0.5H4.7V6.4H4.9z M5.7,6.7c0,0.1,0.1,0.2,0.1,0.3c0,0,0,0,0,0c0,0-0.2,0-0.5-0.1V6.4c0.3-0.1,0.4-0.1,0.5-0.1
	c0,0,0,0,0,0c0,0,0,0,0,0c0,0,0,0,0,0c0,0.1,0,0.2-0.1,0.3C5.7,6.7,5.7,6.7,5.7,6.7z M3.6,4.8C3.4,4.4,3.2,4,3.2,3.8V3.4
	c1-0.1,1.5-0.5,1.8-0.8c0.4,0,0.8,0.1,1.3,0.2c0,0,0,0,0,0v1c0,0.2-0.1,0.6-0.4,0.9C5.8,4.9,5.7,5,5.6,5.1c0,0,0,0,0,0
	C5.4,5.3,5.1,5.4,4.8,5.4S4.2,5.3,4,5.1c0,0,0,0,0,0C3.8,5,3.7,4.9,3.6,4.8z M3.1,3.1c-0.1,0-0.1,0-0.2,0V2.8c0,0,0,0,0,0
	c0,0,0,0,0,0c0,0,0,0,0,0c0,0,0,0,0,0c0,0,0,0,0,0c0,0,0,0,0,0c0,0,0,0,0,0c0,0,0,0,0,0c0,0,0,0,0,0c0,0,0,0,0,0c0,0,0,0,0,0
	c0,0,0,0,0,0c0,0,0,0,0,0c0,0,0,0,0,0c0,0,0,0,0,0c0,0,0,0,0,0c0,0,0,0,0,0c0,0,0,0,0,0h0c0,0,0,0,0,0c0,0,0,0,0,0c0,0,0,0,0,0
	c0,0,0,0,0,0c0,0,0,0,0,0c0,0,0,0,0,0c0,0,0,0,0,0c0,0,0,0,0,0c0.5-0.1,0.9-0.2,1.4-0.2C4.3,2.8,3.8,3,3.1,3.1z M2.9,3.4v0.3H2.8
	c-0.1,0-0.1-0.1-0.1-0.1V3.4C2.8,3.4,2.9,3.4,2.9,3.4z M6.7,2c-0.1,0-0.3-0.1-0.4-0.1c-0.1,0-0.2,0-0.2,0.1s0,0.2,0.1,0.2
	c0.2,0,0.3,0.1,0.5,0.1l0,0.1c0,0.1,0,0.1-0.1,0.1c0,0,0,0-0.1,0c0,0,0,0,0,0c0,0,0,0-0.1,0c0,0,0,0,0,0c0,0,0,0,0,0
	C5.9,2.4,5.5,2.3,5,2.3c-0.6,0-1.2,0.1-1.8,0.2c0,0,0,0,0,0c0,0-0.1,0-0.1,0c0,0-0.1-0.1-0.1-0.1l0-0.1C3.8,2,4.7,1.9,5.6,2
	c0.1,0,0.2,0,0.2-0.1c0-0.1,0-0.2-0.1-0.2C4.7,1.6,3.8,1.7,2.9,2V1.3c0-0.3,0.2-0.6,0.6-0.7l1.1-0.3c0.2,0,0.4,0,0.5,0l1.1,0.3
	c0.3,0.1,0.6,0.4,0.6,0.7V2z M6.7,2.9L6.7,2.9L6.6,2.8c0,0,0,0,0.1,0c0,0,0,0,0,0V2.9z M6.7,3.7L6.7,3.7L6.6,3.2h0.1
	c0.1,0,0.1,0.1,0.1,0.1v0.2C6.8,3.6,6.8,3.7,6.7,3.7z M5.8,5.5V5.3C6,5.2,6.1,5.1,6.2,4.9c0.3-0.3,0.4-0.7,0.5-1h0.1l0.1,0.8
	c0,0.2,0,0.4-0.2,0.6S6.3,5.5,6,5.5H5.8z M6.6,7.9H2.9V6.3l0.6-0.2c0,0,0,0,0,0c0,0,0,0,0,0c0,0,0,0,0,0c-0.1,0.2,0,0.4,0,0.5
	c0,0.1-0.1,0.3,0,0.5c0,0.1,0.1,0.2,0.2,0.2c0,0,0.1,0,0.2,0c0.2,0,0.4-0.1,0.6-0.2c0,0,0.1,0,0.1,0h0.3c0,0,0.1,0,0.1,0
	c0.3,0.1,0.5,0.2,0.6,0.2c0.1,0,0.1,0,0.2,0C5.9,7.3,6,7.2,6,7.2C6.1,7,6,6.8,6,6.7c0-0.1,0.1-0.3,0-0.5c0,0,0,0,0,0c0,0,0,0,0,0
	c0,0,0,0,0,0l0.6,0.2V7.9z M7.3,8.2L7,8c0,0,0,0,0,0V6.4l0.2,0.1l0.1,0V8.2z M2.1,8.9l0.1-0.2l0.6-0.5c0,0,0,0,0,0c0,0,0,0,0,0
	c0,0,0,0,0,0c0,0,0,0,0.1,0h3.8c0,0,0,0,0.1,0c0,0,0,0,0,0c0,0,0,0,0,0l0.6,0.5l0.1,0.2v0.8H2.1V8.9z M0.7,9.5l0.3-2
	c0.1-0.4,0.4-0.8,0.8-0.9L2,6.6v1.9l0,0c0,0,0,0,0,0.1L1.8,8.8c0,0,0,0,0,0.1v0.9H0.9c-0.1,0-0.1,0-0.1-0.1C0.7,9.6,0.7,9.5,0.7,9.5
	z"/>
			<rect class="st0" style="fill: none" width="10" height="10"/>
		</symbol>


		<symbol id="panaderia" viewBox="0 0 10 10">
			<title> bakery</title>
			<path d="M9.4,5.7c-0.1-0.1-0.2,0-0.2,0c-0.1,0.1,0,0.2,0,0.2c0.3,0.3,0.5,0.6,0.5,0.9c0,0.2-0.1,0.4-0.2,0.5
		C9.2,7.5,8.8,7.7,8.1,7.8C7.5,7.9,6.8,8,5.8,8C4.4,8,3.3,7.9,2.7,7.6C2.9,7.4,3.2,7.2,3.5,7c0.1,0.1,0.2,0.2,0.3,0.2
		c0.3,0,0.5-0.2,0.6-0.5c0-0.2,0-0.4,0-0.6c0.3-0.3,0.5-0.5,0.7-0.7C5.2,5.6,5.3,5.8,5.4,6c0,0.2,0,0.4,0,0.6c0,0.3,0.2,0.5,0.5,0.6
		c0.3,0,0.5-0.2,0.6-0.5c0-0.3,0-0.6,0-0.9C6.3,5.5,6.2,5.2,6.1,4.9c0.3,0,0.6,0,0.8,0.1c0.2,0.3,0.4,0.6,0.4,1c0,0.2,0,0.4,0,0.6
		c0,0.3,0.2,0.6,0.4,0.6c0.3,0,0.6-0.2,0.6-0.4c0-0.3,0-0.6,0-0.9c0-0.2-0.1-0.3-0.1-0.5c0.1,0.1,0.3,0.1,0.4,0.2
		c0.1,0,0.2,0,0.2-0.1c0-0.1,0-0.2-0.1-0.2C8,4.9,6.9,4.6,5.7,4.6C5.8,4.5,5.9,4.4,6,4.3c0.4-0.6,0.6-1.1,0.6-1.5
		c0-0.3-0.1-0.5-0.3-0.7c-0.4-0.4-1.1-0.5-2-0.2C3.5,2.2,2.6,2.8,1.8,3.5C0.7,4.7,0,6,0,7c0,0.4,0.1,0.8,0.4,1
		c0.2,0.2,0.4,0.3,0.7,0.3c0.3,0,0.7-0.1,1.1-0.3c0.1,0,0.2-0.1,0.3-0.2c0.7,0.3,1.8,0.5,3.4,0.5c0.9,0,1.7-0.1,2.3-0.2
		C8.9,8,9.4,7.8,9.7,7.5C9.9,7.3,10,7,10,6.8C10,6.4,9.8,6,9.4,5.7L9.4,5.7z M7.9,5.2C8,5.4,8,5.7,8.1,5.9c0,0.3,0,0.5,0,0.8
		c0,0.1-0.1,0.2-0.3,0.2c-0.1,0-0.2-0.1-0.2-0.3c0-0.2,0-0.4,0-0.7c0-0.3-0.2-0.6-0.3-0.9C7.5,5.1,7.7,5.2,7.9,5.2L7.9,5.2z
		 M4.1,6.7c0,0.1-0.1,0.2-0.2,0.2c-0.1,0-0.1,0-0.2-0.1C3.8,6.7,4,6.5,4.1,6.4C4.1,6.5,4.1,6.6,4.1,6.7L4.1,6.7z M6.1,5.9
		c0.1,0.3,0.1,0.5,0,0.8c0,0.1-0.1,0.2-0.3,0.2c-0.1,0-0.2-0.1-0.2-0.3c0-0.2,0-0.4,0-0.7C5.6,5.7,5.5,5.4,5.3,5.2
		C5.4,5.1,5.4,5,5.5,4.9c0.1,0,0.2,0,0.2,0C5.9,5.2,6,5.5,6.1,5.9L6.1,5.9z M3.7,2.5c0.2,0.1,0.4,0.2,0.6,0.3C4.5,3,4.7,3.2,4.9,3.4
		c0.1,0.1,0.1,0.2,0,0.3c-0.1,0.1-0.3,0.1-0.3,0C4.4,3.5,4.2,3.3,4,3.2C3.8,3,3.5,2.9,3.2,2.8C3.4,2.7,3.5,2.6,3.7,2.5L3.7,2.5z
		 M0.8,5.3c0.2,0.1,0.4,0.2,0.6,0.3C1.7,5.8,1.9,6,2.1,6.2c0.1,0.1,0.1,0.2,0,0.3c-0.1,0.1-0.3,0.1-0.3,0C1.6,6.3,1.4,6.1,1.2,6
		C1,5.9,0.8,5.8,0.6,5.7C0.7,5.6,0.8,5.4,0.8,5.3L0.8,5.3z M2,7.7C1.4,8.1,0.9,8.1,0.6,7.8C0.4,7.6,0.3,7.3,0.3,7
		c0-0.3,0.1-0.6,0.2-1C0.7,6.1,0.9,6.1,1,6.3c0.2,0.1,0.3,0.2,0.4,0.4c0.2,0.2,0.6,0.3,0.8,0c0.2-0.2,0.2-0.5,0-0.7
		C2.1,5.7,1.9,5.5,1.6,5.4C1.4,5.2,1.2,5.1,1,5.1c0.1-0.2,0.3-0.4,0.4-0.6c0.3,0,0.7,0.1,1.1,0.3c0.2,0.1,0.3,0.2,0.4,0.4
		c0.2,0.2,0.5,0.3,0.7,0.1c0.2-0.2,0.3-0.5,0.1-0.7C3.6,4.4,3.5,4.3,3.3,4.2c-0.1-0.1-0.2,0-0.2,0c-0.1,0.1,0,0.2,0,0.2
		c0.1,0.1,0.2,0.2,0.3,0.4c0.1,0.1,0.1,0.2,0,0.3C3.3,5.2,3.2,5.1,3.1,5C3,4.9,2.8,4.7,2.6,4.6C2.3,4.4,2,4.3,1.6,4.2
		C1.7,4.1,1.8,3.9,2,3.8C2.2,3.9,2.4,3.9,2.6,4c0.1,0,0.2,0,0.2-0.1c0-0.1,0-0.2-0.1-0.2C2.6,3.7,2.4,3.6,2.2,3.6
		C2.4,3.4,2.6,3.2,2.8,3c0.4,0,0.7,0.2,1,0.4C4,3.5,4.2,3.7,4.3,3.8c0.2,0.2,0.5,0.3,0.8,0.1c0.2-0.2,0.2-0.5,0.1-0.7
		C4.9,3,4.7,2.8,4.5,2.6C4.4,2.5,4.2,2.4,4,2.3c0.1-0.1,0.2-0.1,0.4-0.1C4.7,2.1,5,2,5.3,2c0.3,0,0.6,0.1,0.8,0.3
		c0.1,0.1,0.2,0.3,0.2,0.5c0,0.4-0.2,0.8-0.6,1.4C5.5,4.5,5.3,4.8,5,5C4.2,5.9,3.1,7.1,2,7.7L2,7.7z"/>
			<rect class="st0" style="fill: none" width="10" height="10"/>
		</symbol>


		<symbol id="wedding planer" viewBox="0 0 10 10">
			<title> wedding planer</title>
			<path d="M9.8,2H9.3V1.5c0-0.1-0.1-0.2-0.2-0.2H8.5c-0.1,0-0.2,0.1-0.2,0.2v5.7c0,0,0,0,0,0l0.2,0.7C8.5,7.9,8.6,8,8.7,8v0.3
		c0,0.1,0.1,0.2,0.2,0.2C8.9,8.5,9,8.4,9,8.3V8c0.1,0,0.1-0.1,0.2-0.1l0.2-0.7c0,0,0,0,0,0V2.3h0.3v1.5H10V2.2C10,2.1,9.9,2,9.8,2z
		 M8.9,7.7L8.9,7.7L8.7,7.3H9L8.9,7.7z M9,7H8.7V6.7H9V7z M9,6.3H8.7v-4H9V6.3z M9,2H8.7V1.7H9V2z"/>
			<path d="M0.8,10h7C7.9,10,8,9.9,8,9.8V0H1C0.4,0.1,0,0.6,0,1.2v8C0,9.6,0.4,10,0.8,10z M7.7,0.3v1.8L5.9,0.3H7.7z M5.4,0.3l2.2,2.2
		v0.7L4.7,0.3H5.4z M2,0.3h0.7v1.8L2.5,1.9c-0.1-0.1-0.2-0.1-0.2,0L2,2.1V0.3z M1.3,0.3h0.3v2.2c0,0.1,0.1,0.2,0.2,0.2
		c0,0,0.1,0,0.1,0l0.4-0.4l0.4,0.4c0.1,0.1,0.2,0.1,0.2,0c0,0,0-0.1,0-0.1V0.3h1.3l3.4,3.4v4.6H4.7L1.3,4.9V0.3z M1.3,5.4l2.9,2.9
		H3.6L1.3,6.1V5.4z M1.3,6.6l1.8,1.8H1.3V6.6z M0.3,3.5c0-0.2,0.1-0.3,0.3-0.3c0,0,0,0,0,0V2.8c-0.1,0-0.2,0-0.3,0.1V2.7
		c0-0.2,0.1-0.3,0.3-0.3c0,0,0,0,0,0V2C0.6,2,0.4,2,0.3,2.1V1.2c0-0.4,0.3-0.7,0.7-0.8v8H0.8c-0.2,0-0.4,0.1-0.5,0.2V3.5z M0.8,8.7
		h6.8V9h-7v0.3h7v0.3H0.8c-0.3,0-0.5-0.2-0.5-0.5S0.6,8.7,0.8,8.7z"/>
			<path d="M6.8,4.5c0-1.2-1-2.2-2.2-2.2s-2.2,1-2.2,2.2s1,2.2,2.2,2.2C5.9,6.7,6.8,5.7,6.8,4.5z M4.7,6.3c-1,0-1.8-0.8-1.8-1.8
		s0.8-1.8,1.8-1.8s1.8,0.8,1.8,1.8C6.5,5.5,5.7,6.3,4.7,6.3z"/>
			<path d="M5.8,3.7C5.5,3.4,5,3.4,4.7,3.6C4.3,3.3,3.7,3.4,3.5,3.8C3.4,4,3.3,4.2,3.3,4.3c0,0.2,0.1,0.5,0.3,0.6l1,0.8
		c0.1,0.1,0.2,0.1,0.2,0l1-0.8C6.1,4.6,6.1,4.1,5.8,3.7C5.8,3.7,5.8,3.7,5.8,3.7L5.8,3.7z M5.6,4.7L4.7,5.5L3.8,4.7
		C3.6,4.5,3.6,4.2,3.8,4C3.9,3.9,4,3.8,4.2,3.8c0.1,0,0.3,0.1,0.4,0.2C4.6,4,4.7,4,4.8,4c0.2-0.2,0.5-0.2,0.8,0c0,0,0,0,0,0
		C5.8,4.2,5.8,4.5,5.6,4.7L5.6,4.7z"/>
			<rect x="7" y="7.7" width="0.3" height="0.3"/>
			<rect x="6.3" y="7.7" width="0.3" height="0.3"/>
			<rect class="st0" style="fill: none" width="10" height="10"/>
		</symbol>

		<symbol id="docente" viewBox="0 0 10 10">
			<title>teacher</title>
			<path d="M9.4,0.6H9V0.2c0-0.1-0.1-0.1-0.1-0.1H8c-0.1,0-0.1,0.1-0.1,0.1v0.4H3V0.2c0-0.1-0.1-0.1-0.1-0.1H2c-0.1,0-0.1,0.1-0.1,0.1
		v0.4H1.5c-0.4,0-0.6,0.3-0.6,0.6v3.6C0.8,4.9,0.9,5,1,5s0.1-0.1,0.1-0.1V1.3c0-0.2,0.2-0.4,0.4-0.4h7.9c0.2,0,0.3,0.1,0.3,0.3v4.8
		c0,0.2-0.1,0.3-0.3,0.3H9.1V5.8C9.1,5.7,9,5.6,9,5.6H7.4c-0.1,0-0.1,0.1-0.1,0.1v0.6H4.9l0.6-0.2C5.7,6.1,6,5.9,6.2,5.7l0.9-1.1
		c0,0,0-0.1,0-0.1l0.1-1.1c0-0.1-0.1-0.2-0.2-0.3c0,0,0.1-0.1,0.1-0.1c0-0.1-0.1-0.1-0.1-0.1H6.4C6.3,2.9,6.2,2.9,6.2,3
		c0,0.1,0.1,0.1,0.1,0.1h0.5c0,0,0,0,0,0L6.3,3.7C6.2,3.8,6.1,4,6,4.1c-0.1,0.1,0,0.2,0,0.2c0.1,0.1,0.2,0,0.2,0L6.4,4l0.4,0.4
		L6,5.5C5.8,5.7,5.6,5.8,5.4,5.9L3.1,6.6C2.9,6.6,3,6.9,3.2,6.8l0.5-0.2v1.2H3.5C3.4,7.9,3.3,8,3.3,8.1c0,0.1,0.1,0.1,0.1,0.1h0.9
		c0.1,0,0.1-0.1,0.1-0.1c0-0.1-0.1-0.1-0.1-0.1H4V6.6h5.5c0.3,0,0.6-0.3,0.6-0.6V1.2C10,0.9,9.7,0.6,9.4,0.6L9.4,0.6z M8.1,0.4h0.6
		v0.2H8.1V0.4z M2.1,0.4h0.6v0.2H2.1V0.4z M6.9,3.5L6.9,4.1L6.6,3.8L6.9,3.5z M7.5,6.3V5.9h1.3v0.4H7.5z"/>
			<path d="M2.8,7.9H0.9V7.1c0-0.5,0.1-1,0.3-1.4c0.1-0.2,0.4-0.4,0.6-0.4h2.5c0.5,0,1-0.2,1.4-0.5c0.1-0.1,0.1-0.1,0-0.2
		c-0.1-0.1-0.1-0.1-0.2,0C5.2,4.8,4.8,5,4.3,5H3.3c0.2-0.2,0.3-0.4,0.3-0.7V3.8c0.4,0,0.7-0.3,0.7-0.7c0-0.4-0.3-0.7-0.7-0.7
		C3.2,2.4,3,2.4,2.8,2.6C2.7,2.7,2.6,2.7,2.5,2.7H2.1C1.8,2.7,1.5,3,1.5,3.4v1.1c0,0.1,0,0.2,0.1,0.3c0,0,0.1,0.1,0.1,0.1
		C1.8,5,1.8,5,1.9,5C1.5,5,1.1,5.2,0.9,5.6c-0.2,0.5-0.4,1-0.4,1.6v0.8H0.1C0.1,7.9,0,8,0,8.1s0.1,0.1,0.1,0.1h2.6
		c0.1,0,0.1-0.1,0.1-0.1S2.8,7.9,2.8,7.9L2.8,7.9z M2.5,5C2.4,5,2.4,5,2.3,4.9c0,0,0.1,0,0.1-0.1c0.1-0.1,0.2-0.2,0.2-0.4V3.8h0.6
		v0.5C3.2,4.7,2.9,5,2.5,5C2.6,5,2.5,5,2.5,5z M1.8,4.5V3.4C1.8,3.2,1.9,3,2.1,3h0.4C2.7,3,2.9,3,3,2.8c0.1-0.1,0.3-0.1,0.4-0.1
		c0.2,0,0.4,0.2,0.4,0.4c0,0.2-0.2,0.4-0.4,0.4h-1c-0.1,0-0.1,0.1-0.1,0.1v0.8c0,0.2-0.2,0.3-0.3,0.2C1.8,4.7,1.8,4.6,1.8,4.5
		L1.8,4.5z"/>
			<path d="M5,2.3h0.8C5.9,2.3,6,2.3,6,2.2V1.6c0-0.1-0.1-0.1-0.1-0.1H5c-0.1,0-0.1,0.1-0.1,0.1v0.5C4.9,2.3,4.9,2.3,5,2.3z M5.2,1.8
		h0.5V2H5.2V1.8z"/>
			<path d="M4.9,3.3c0,0.1,0.1,0.1,0.1,0.1h0.8C5.9,3.4,6,3.4,6,3.3V2.7c0-0.1-0.1-0.1-0.1-0.1H5c-0.1,0-0.1,0.1-0.1,0.1V3.3z
		 M5.2,2.9h0.5v0.2H5.2V2.9z"/>
			<path d="M6.4,2.1H9C9,2.1,9.1,2,9.1,1.9S9,1.8,9,1.8H6.4c-0.1,0-0.1,0.1-0.1,0.1S6.3,2.1,6.4,2.1z"/>
			<rect x="0.4" class="st0" style="fill: none" width="9.2" height="8.3"/>
		</symbol>

		<symbol id="mecanica" viewBox="0 0 10 10">
			<title>mecanic</title>
					<path d="M3.3,6.3c0.2-0.2,0.3-0.4,0.3-0.6v0c0-0.1-0.1-0.2-0.2-0.2h0V5.1c0-0.1-0.1-0.2-0.2-0.2H3.2V1.8l0.4-0.5
					c0,0,0-0.1,0-0.2L3.2,0.1C3.1,0.1,3.1,0,3,0H2.3c-0.1,0-0.1,0-0.2,0.1L1.8,1.2c0,0.1,0,0.1,0,0.2l0.4,0.5v1.3
					c0,0.1,0.1,0.2,0.2,0.2c0.1,0,0.2-0.1,0.2-0.2V1.8c0,0,0-0.1,0-0.1L2.1,1.2l0.3-0.9h0.5l0.3,0.9L2.9,1.7c0,0,0,0.1,0,0.1v3.1
					H2.5V3.7c0-0.1-0.1-0.2-0.2-0.2c-0.1,0-0.2,0.1-0.2,0.2v1.2H2.1C2,4.9,1.9,5,1.9,5.1v0.4h0c-0.1,0-0.2,0.1-0.2,0.2v0
					c0,0.2,0.1,0.5,0.3,0.6c0,0,0.1,0.1,0.1,0.1c0,0.1,0,0.1-0.1,0.1C1.8,6.8,1.7,7,1.7,7.3v1.7c0,0.5,0.4,0.9,0.9,0.9
					s0.9-0.4,0.9-0.9V7.3c0-0.3-0.1-0.5-0.3-0.7c0,0-0.1-0.1-0.1-0.1C3.2,6.4,3.2,6.3,3.3,6.3z M2.2,5.2h0.8v0.3H2.2
					C2.2,5.5,2.2,5.2,2.2,5.2z M3.1,6C3,6.1,2.9,6.3,2.9,6.4c0,0.1,0.1,0.3,0.2,0.4c0.1,0.1,0.2,0.3,0.2,0.5v1.7
					c0,0.3-0.3,0.6-0.6,0.6C2.3,9.5,2,9.3,2,8.9V7.3c0-0.2,0.1-0.3,0.2-0.5c0.1-0.1,0.2-0.2,0.2-0.4c0-0.2-0.1-0.3-0.2-0.4
					C2.2,6,2.1,5.9,2.1,5.8h1.1C3.2,5.9,3.1,6,3.1,6z"/>
		
					<path d="M8.2,8C8.1,7.7,7.8,7.3,7.5,7.2C7.2,7,7.1,6.7,7.1,6.4V3c0-0.3,0.1-0.5,0.2-0.8C7.4,2,7.4,1.8,7.4,1.5
					c0-0.4-0.2-0.8-0.5-1.1C6.7,0.1,6.3,0,5.9,0C5.8,0,5.8,0,5.7,0.1c0,0,0,0.1,0,0.2L6.1,1c0.1,0.1,0.1,0.2,0,0.3
					c0,0.1-0.1,0.2-0.2,0.3c-0.1,0.1-0.2,0.1-0.3,0c-0.1,0-0.2-0.1-0.3-0.2L5,0.7c0-0.1-0.1-0.1-0.1-0.1c-0.1,0-0.1,0-0.1,0.1
					C4.5,0.9,4.4,1.1,4.4,1.4c0,0.6,0.3,1.1,0.8,1.4C5.4,3,5.6,3.8,5.6,4.2v0.5c0,0.1,0.1,0.2,0.2,0.2s0.2-0.1,0.2-0.2V4.2
					c0-0.3-0.2-1.4-0.6-1.6C4.9,2.3,4.7,1.9,4.7,1.4c0-0.1,0-0.2,0.1-0.4l0.3,0.5c0.1,0.2,0.3,0.3,0.4,0.4C5.7,2,5.9,2,6.1,1.9
					c0.2-0.1,0.3-0.3,0.4-0.4c0.1-0.2,0-0.4-0.1-0.6L6.1,0.4c0.2,0,0.4,0.2,0.6,0.3C7,0.9,7.1,1.2,7.1,1.5c0,0.2,0,0.4-0.1,0.5
					C6.8,2.4,6.7,2.7,6.7,3v3.4c0,0.4,0.2,0.8,0.6,1c0.3,0.1,0.5,0.4,0.6,0.7c0,0.1,0.1,0.1,0.2,0.1c0,0,0,0,0,0
					C8.2,8.2,8.2,8.1,8.2,8z"/>

					<path d="M8.1,8.4C8,8.4,8,8.5,8,8.6c0,0.1,0,0.2-0.1,0.4L7.6,8.4C7.4,8.1,7,7.9,6.6,8.1c-0.4,0.2-0.5,0.7-0.3,1l0.3,0.5
					c-0.2,0-0.4-0.2-0.6-0.3C5.7,9.1,5.6,8.8,5.6,8.5c0-0.2,0-0.4,0.1-0.5C5.9,7.6,5.9,7.3,5.9,7V5.3c0-0.1-0.1-0.2-0.2-0.2
					c-0.1,0-0.2,0.1-0.2,0.2V7c0,0.3-0.1,0.5-0.2,0.8C5.3,8,5.2,8.2,5.2,8.5c0,0.4,0.2,0.8,0.5,1.1C6,9.8,6.4,10,6.8,10c0,0,0,0,0,0
					c0.1,0,0.1,0,0.1-0.1c0,0,0-0.1,0-0.2L6.6,9c-0.1-0.2,0-0.5,0.2-0.6c0.1-0.1,0.2-0.1,0.3,0c0.1,0,0.2,0.1,0.3,0.2l0.4,0.8
					c0,0.1,0.1,0.1,0.1,0.1c0.1,0,0.1,0,0.1-0.1c0.2-0.2,0.3-0.5,0.3-0.8C8.3,8.5,8.2,8.4,8.1,8.4z"/>

					<rect class="st0" style="fill: none" width="10" height="10"/>
		</symbol>

	</defs>
</svg>











