<svg xmlns="http://www.w3.org/2000/svg" 
    xmlns:xlink="http://www.w3.org/1999/xlink" width="235" height="227.369" viewBox="0 0 235 227.369">
    <defs>
        <linearGradient id="linear-gradient" x1="0.5" x2="0.5" y2="1" gradientUnits="objectBoundingBox">
            <stop offset="0" stop-color="#9550b6" />
            <stop offset="1" stop-color="#d48ef5" />
        </linearGradient>
        <clipPath id="clip-path">
            <path id="Trazado_2226" data-name="Trazado 2226" d="M776.75-273.168a3.261,3.261,0,0,0-1.913,2.681l.017-6.527a3.27,3.27,0,0,1,1.913-2.672q-.007,3.253-.017,6.514.012-3.258.017-6.514a10.3,10.3,0,0,1,9.336,0c-.006,2.169-.017,4.346-.021,6.515,0-2.169.016-4.345.021-6.515a3.3,3.3,0,0,1,1.945,2.717l-.016,6.522a3.308,3.308,0,0,0-1.95-2.725A10.3,10.3,0,0,0,776.75-273.168Z" transform="translate(-774.837 280.803)" fill="none" />
        </clipPath>
        <clipPath id="clip-path-2">
            <path id="Trazado_2245" data-name="Trazado 2245" d="M788.048-276.4l-.016,6.515a3.28,3.28,0,0,1-1.917,2.689,10.265,10.265,0,0,1-9.329,0,3.313,3.313,0,0,1-1.95-2.725q.01-3.259.017-6.527a3.322,3.322,0,0,0,1.953,2.733,10.265,10.265,0,0,0,9.329,0A3.288,3.288,0,0,0,788.048-276.4Z" transform="translate(-774.837 276.452)" fill="none" />
        </clipPath>
        <linearGradient id="linear-gradient-4" y1="0.5" x2="1" y2="0.5" gradientUnits="objectBoundingBox">
            <stop offset="0" stop-color="#6851f5" />
            <stop offset="1" stop-color="#00cfff" />
        </linearGradient>
        <linearGradient id="linear-gradient-7" x1="0" y1="0.521" x2="1" y2="0.438" xlink:href="#linear-gradient" />
    </defs>
    <g id="Grupo_1818" data-name="Grupo 1818" transform="translate(-717.12 488.31)">
        <g id="Grupo_1761" data-name="Grupo 1761" transform="translate(727.376 -469.889)">
            <g id="Grupo_1760" data-name="Grupo 1760" style="isolation: isolate">
                <g id="Grupo_1754" data-name="Grupo 1754" transform="translate(36.023)">
                    <path id="Trazado_2193" data-name="Trazado 2193" d="M775.251-416.936l-4.994-2.9,35.875-47.32,4.993,2.9Z" transform="translate(-770.257 467.159)" fill="#cacaca" />
                </g>
                <g id="Grupo_1755" data-name="Grupo 1755" transform="translate(0 41.508)">
                    <path id="Trazado_2194" data-name="Trazado 2194" d="M733.89-416.6l-4.994-2.9,36.023,5.811,4.994,2.9Z" transform="translate(-728.896 419.5)" fill="#b8b8b8" />
                </g>
                <g id="Grupo_1756" data-name="Grupo 1756" transform="translate(0 41.508)">
                    <path id="Trazado_2195" data-name="Trazado 2195" d="M734.041-363.465l-4.994-2.9L728.9-419.5l4.994,2.9Z" transform="translate(-728.896 419.5)" fill="#9550b6" />
                </g>
                <g id="Grupo_1757" data-name="Grupo 1757" transform="translate(4.994 2.9)">
                    <path id="Trazado_2196" data-name="Trazado 2196" d="M806.527-463.829l-35.875,47.323-36.023-5.813Z" transform="translate(-734.63 463.829)" fill="url(#linear-gradient)" />
                </g>
                <g id="Grupo_1758" data-name="Grupo 1758">
                    <path id="Trazado_2197" data-name="Trazado 2197" d="M733.89-422.749l-4.994-2.9,71.9-41.508,4.993,2.9Z" transform="translate(-728.896 467.159)" fill="#d48ef5" />
                </g>
                <g id="Grupo_1759" data-name="Grupo 1759" transform="translate(4.994 2.9)">
                    <path id="Trazado_2198" data-name="Trazado 2198" d="M806.527-463.829l.151,53.135-71.9,41.508-.151-53.133,36.023,5.813Z" transform="translate(-734.63 463.829)" fill="#d48ef5" />
                </g>
            </g>
        </g>
        <g id="Grupo_1769" data-name="Grupo 1769" transform="translate(739.862 -460.744)">
            <g id="Grupo_1768" data-name="Grupo 1768" style="isolation: isolate">
                <g id="Grupo_1762" data-name="Grupo 1762" transform="translate(36.023)">
                    <path id="Trazado_2199" data-name="Trazado 2199" d="M789.588-406.436l-4.994-2.9,35.875-47.32,4.994,2.9Z" transform="translate(-784.594 456.659)" fill="#cacaca" />
                </g>
                <g id="Grupo_1763" data-name="Grupo 1763" transform="translate(0 41.508)">
                    <path id="Trazado_2200" data-name="Trazado 2200" d="M748.227-406.1l-4.994-2.9,36.023,5.811,4.994,2.9Z" transform="translate(-743.233 409)" fill="#b8b8b8" />
                </g>
                <g id="Grupo_1764" data-name="Grupo 1764" transform="translate(0 41.508)">
                    <path id="Trazado_2201" data-name="Trazado 2201" d="M748.378-352.965l-4.994-2.9L743.233-409l4.994,2.9Z" transform="translate(-743.233 409)" fill="#9550b6" />
                </g>
                <g id="Grupo_1765" data-name="Grupo 1765" transform="translate(4.994 2.9)">
                    <path id="Trazado_2202" data-name="Trazado 2202" d="M820.864-453.329l-35.875,47.323-36.023-5.813Z" transform="translate(-748.966 453.329)" fill="url(#linear-gradient)" />
                </g>
                <g id="Grupo_1766" data-name="Grupo 1766">
                    <path id="Trazado_2203" data-name="Trazado 2203" d="M748.227-412.249l-4.994-2.9,71.9-41.508,4.994,2.9Z" transform="translate(-743.233 456.659)" fill="#d48ef5" />
                </g>
                <g id="Grupo_1767" data-name="Grupo 1767" transform="translate(4.994 2.9)">
                    <path id="Trazado_2204" data-name="Trazado 2204" d="M820.864-453.329l.151,53.135-71.9,41.508-.151-53.133,36.023,5.813Z" transform="translate(-748.966 453.329)" fill="#d48ef5" />
                </g>
            </g>
        </g>
        <g id="Grupo_1782" data-name="Grupo 1782" transform="translate(717.12 -403.632)">
            <g id="Grupo_1770" data-name="Grupo 1770" transform="translate(132.128 6.655)">
                <path id="Trazado_2206" data-name="Trazado 2206" d="M959.078-331.348l-.02,6.526-90.23-52.1.014-6.518Z" transform="translate(-868.828 383.441)" fill="#778489" />
            </g>
            <g id="Grupo_1771" data-name="Grupo 1771" transform="translate(23.882 6.655)">
                <path id="Trazado_2207" data-name="Trazado 2207" d="M852.8-383.441l-.014,6.518L744.542-314.015l.02-6.522Z" transform="translate(-744.542 383.441)" fill="#abbec5" />
            </g>
            <g id="Grupo_1774" data-name="Grupo 1774" transform="translate(50.268 96.046)" style="isolation: isolate">
                <g id="Grupo_1773" data-name="Grupo 1773" clip-path="url(#clip-path)">
                    <g id="Grupo_1772" data-name="Grupo 1772" transform="translate(0 -0.004)" style="isolation: isolate">
                        <path id="Trazado_2208" data-name="Trazado 2208" d="M789.574-276.867l-.016,6.515a3.308,3.308,0,0,0-1.95-2.717,6.893,6.893,0,0,0-.952-.45l.018-6.527a7.107,7.107,0,0,1,.955.462,3.3,3.3,0,0,1,1.945,2.717Z" transform="translate(-776.362 280.709)" fill="#738085" />
                        <path id="Trazado_2209" data-name="Trazado 2209" d="M786.555-280.087l-.018,6.527a7.48,7.48,0,0,0-.8-.273l.017-6.522a8.3,8.3,0,0,1,.8.268Z" transform="translate(-776.243 280.749)" fill="#78858a" />
                        <path id="Trazado_2210" data-name="Trazado 2210" d="M785.65-280.38l-.017,6.522c-.223-.065-.455-.126-.688-.174l.014-6.515c.235.049.465.1.691.166Z" transform="translate(-776.142 280.774)" fill="#7c8a8f" />
                        <path id="Trazado_2211" data-name="Trazado 2211" d="M784.861-280.563l-.014,6.515c-.221-.041-.437-.082-.662-.11l.02-6.522a6.572,6.572,0,0,1,.656.118Z" transform="translate(-776.043 280.791)" fill="#818f94" />
                        <path id="Trazado_2212" data-name="Trazado 2212" d="M784.109-280.691l-.02,6.522c-.21-.029-.427-.053-.644-.073l.024-6.518c.212.016.427.04.64.069Z" transform="translate(-775.948 280.801)" fill="#859499" />
                        <path id="Trazado_2213" data-name="Trazado 2213" d="M783.373-280.765l-.024,6.518c-.211-.017-.43-.029-.647-.033l.02-6.522q.32.005.651.037Z" transform="translate(-775.852 280.807)" fill="#8a999e" />
                        <path id="Trazado_2214" data-name="Trazado 2214" d="M782.622-280.8l-.02,6.522c-.23,0-.451,0-.677,0l.015-6.518c.229-.008.456-.012.682,0Z" transform="translate(-775.752 280.807)" fill="#8e9da3" />
                        <path id="Trazado_2215" data-name="Trazado 2215" d="M781.831-280.8l-.015,6.518c-.247.009-.493.029-.737.053l.018-6.522c.246-.02.491-.041.733-.049Z" transform="translate(-775.643 280.806)" fill="#93a2a8" />
                        <path id="Trazado_2216" data-name="Trazado 2216" d="M780.973-280.742l-.018,6.522c-.282.024-.558.065-.839.11l.017-6.515c.28-.052.56-.093.84-.118Z" transform="translate(-775.518 280.799)" fill="#97a7ad" />
                        <path id="Trazado_2217" data-name="Trazado 2217" d="M779.948-280.607l-.016,6.515a10.5,10.5,0,0,0-1.243.317l.017-6.522a9.35,9.35,0,0,1,1.243-.309Z" transform="translate(-775.334 280.782)" fill="#9bacb3" />
                        <path id="Trazado_2218" data-name="Trazado 2218" d="M778.479-280.252l-.017,6.522a7.2,7.2,0,0,0-1.441.633c-.026.012-.055.029-.084.044l.023-6.522a.734.734,0,0,1,.077-.04,7.17,7.17,0,0,1,1.441-.638Z" transform="translate(-775.108 280.736)" fill="#a0b1b8" />
                        <path id="Trazado_2219" data-name="Trazado 2219" d="M776.837-279.474l-.023,6.522a5.282,5.282,0,0,0-.833.617l.021-6.518a4.811,4.811,0,0,1,.834-.622Z" transform="translate(-774.985 280.635)" fill="#9bacb3" />
                        <path id="Trazado_2220" data-name="Trazado 2220" d="M775.942-278.76l-.021,6.518a4.673,4.673,0,0,0-.408.435l.02-6.518a3.22,3.22,0,0,1,.408-.435Z" transform="translate(-774.924 280.543)" fill="#97a7ad" />
                        <path id="Trazado_2221" data-name="Trazado 2221" d="M775.495-278.261l-.02,6.518c-.1.138-.187.268-.264.394l.016-6.514a3.587,3.587,0,0,1,.268-.4Z" transform="translate(-774.885 280.479)" fill="#93a2a8" />
                        <path id="Trazado_2222" data-name="Trazado 2222" d="M775.2-277.8l-.016,6.514a2.84,2.84,0,0,0-.175.378l.017-6.518a3.36,3.36,0,0,1,.174-.374Z" transform="translate(-774.859 280.42)" fill="#8e9da3" />
                        <path id="Trazado_2223" data-name="Trazado 2223" d="M775.011-277.375l-.016,6.518a2.011,2.011,0,0,0-.105.369l.018-6.518a2.651,2.651,0,0,1,.1-.369Z" transform="translate(-774.844 280.364)" fill="#8a999e" />
                        <path id="Trazado_2224" data-name="Trazado 2224" d="M774.9-276.951l-.018,6.518a1.88,1.88,0,0,0-.043.386l.014-6.526a2.939,2.939,0,0,1,.047-.378Z" transform="translate(-774.837 280.31)" fill="#859499" />
                        <path id="Trazado_2225" data-name="Trazado 2225" d="M774.854-276.517l-.014,6.526a.39.39,0,0,0,0,.057l.017-6.527v-.057Z" transform="translate(-774.837 280.254)" fill="#818f94" />
                    </g>
                </g>
            </g>
            <g id="Grupo_1777" data-name="Grupo 1777" transform="translate(50.268 99.836)" style="isolation: isolate">
                <g id="Grupo_1776" data-name="Grupo 1776" clip-path="url(#clip-path-2)">
                    <g id="Grupo_1775" data-name="Grupo 1775" style="isolation: isolate">
                        <path id="Trazado_2227" data-name="Trazado 2227" d="M790-276.4l-.016,6.515a.385.385,0,0,1,0,.069l.02-6.527v-.057Z" transform="translate(-776.792 276.445)" fill="#376a80" />
                        <path id="Trazado_2228" data-name="Trazado 2228" d="M790-276.331l-.02,6.527a1.86,1.86,0,0,1-.041.378l.017-6.527a1.738,1.738,0,0,0,.044-.378Z" transform="translate(-776.786 276.436)" fill="#396e85" />
                        <path id="Trazado_2229" data-name="Trazado 2229" d="M789.937-275.9l-.017,6.527a3.061,3.061,0,0,1-.105.365l.016-6.518a2.506,2.506,0,0,0,.105-.374Z" transform="translate(-776.77 276.38)" fill="#3b7189" />
                        <path id="Trazado_2230" data-name="Trazado 2230" d="M789.8-275.468l-.016,6.518a2.393,2.393,0,0,1-.179.378l.018-6.518a2.631,2.631,0,0,0,.177-.378Z" transform="translate(-776.744 276.325)" fill="#3d758d" />
                        <path id="Trazado_2231" data-name="Trazado 2231" d="M789.589-275.034l-.018,6.518a2.525,2.525,0,0,1-.264.394l.017-6.522a3.017,3.017,0,0,0,.266-.389Z" transform="translate(-776.705 276.269)" fill="#3f7992" />
                        <path id="Trazado_2232" data-name="Trazado 2232" d="M789.263-274.587l-.017,6.522a3.381,3.381,0,0,1-.41.443l.02-6.519a4.032,4.032,0,0,0,.407-.447Z" transform="translate(-776.644 276.211)" fill="#417c96" />
                        <path id="Trazado_2233" data-name="Trazado 2233" d="M788.732-274.074l-.02,6.519a5.1,5.1,0,0,1-.837.613l.023-6.518a5.675,5.675,0,0,0,.834-.614Z" transform="translate(-776.52 276.145)" fill="#43809b" />
                        <path id="Trazado_2234" data-name="Trazado 2234" d="M787.672-273.369l-.023,6.518a.419.419,0,0,1-.077.049,7.7,7.7,0,0,1-1.446.638l.02-6.522a7.976,7.976,0,0,0,1.446-.634.478.478,0,0,1,.079-.048Z" transform="translate(-776.294 276.054)" fill="#44849f" />
                        <path id="Trazado_2235" data-name="Trazado 2235" d="M785.962-272.586l-.02,6.522a9.473,9.473,0,0,1-1.251.3l.024-6.518a9.38,9.38,0,0,0,1.247-.308Z" transform="translate(-776.109 275.953)" fill="#43809b" />
                        <path id="Trazado_2236" data-name="Trazado 2236" d="M784.59-272.232l-.024,6.518a7.012,7.012,0,0,1-.839.118l.017-6.518c.283-.025.569-.07.845-.118Z" transform="translate(-775.984 275.907)" fill="#417c96" />
                        <path id="Trazado_2237" data-name="Trazado 2237" d="M783.637-272.1l-.017,6.518c-.247.024-.486.049-.729.052l.014-6.518c.25-.012.493-.024.732-.052Z" transform="translate(-775.876 275.89)" fill="#3f7992" />
                        <path id="Trazado_2238" data-name="Trazado 2238" d="M782.8-272.036l-.014,6.518c-.228.009-.451.009-.678,0l.016-6.522c.228,0,.451,0,.677,0Z" transform="translate(-775.776 275.882)" fill="#3d758d" />
                        <path id="Trazado_2239" data-name="Trazado 2239" d="M782.032-272.041l-.016,6.522c-.215,0-.43-.02-.645-.037l.016-6.518c.213.016.43.028.645.032Z" transform="translate(-775.68 275.887)" fill="#3b7189" />
                        <path id="Trazado_2240" data-name="Trazado 2240" d="M781.291-272.084l-.016,6.518c-.216-.02-.433-.044-.644-.073l.018-6.518c.212.032.427.053.642.073Z" transform="translate(-775.585 275.898)" fill="#396e85" />
                        <path id="Trazado_2241" data-name="Trazado 2241" d="M780.552-272.173l-.018,6.518c-.217-.032-.436-.069-.656-.11l.018-6.518c.218.037.431.077.656.11Z" transform="translate(-775.488 275.914)" fill="#376a80" />
                        <path id="Trazado_2242" data-name="Trazado 2242" d="M779.794-272.308l-.018,6.518c-.227-.053-.461-.11-.686-.171l.016-6.518q.341.091.688.171Z" transform="translate(-775.386 275.939)" fill="#35667c" />
                        <path id="Trazado_2243" data-name="Trazado 2243" d="M778.988-272.519,778.971-266c-.274-.077-.544-.171-.8-.267l.014-6.522c.26.1.53.191.8.272Z" transform="translate(-775.267 275.979)" fill="#336377" />
                        <path id="Trazado_2244" data-name="Trazado 2244" d="M777.755-273.263l-.014,6.522a8.042,8.042,0,0,1-.955-.459,3.313,3.313,0,0,1-1.95-2.725l.017-6.527a3.322,3.322,0,0,0,1.953,2.733,8.589,8.589,0,0,0,.948.456Z" transform="translate(-774.837 276.452)" fill="#315f73" />
                    </g>
                </g>
            </g>
            <g id="Grupo_1778" data-name="Grupo 1778" transform="translate(23.882 69.559)">
                <path id="Trazado_2246" data-name="Trazado 2246" d="M834.79-259.122l-.016,6.526-90.232-52.1.02-6.522Z" transform="translate(-744.542 311.215)" fill="#336277" />
            </g>
            <g id="Grupo_1779" data-name="Grupo 1779" transform="translate(50.285 96.046)">
                <path id="Trazado_2247" data-name="Trazado 2247" d="M786.1-279.682c2.586,1.5,2.6,3.907.035,5.4a10.265,10.265,0,0,1-9.328,0c-2.583-1.495-2.611-3.919-.04-5.405A10.289,10.289,0,0,1,786.1-279.682Z" transform="translate(-774.857 280.803)" fill="#9550b6" />
            </g>
            <g id="Grupo_1780" data-name="Grupo 1780" transform="translate(114.114 58.749)">
                <path id="Trazado_2248" data-name="Trazado 2248" d="M956.409-323.628l-.02,6.526L848.145-254.2l.016-6.526Z" transform="translate(-848.145 323.628)" fill="#498dab" />
            </g>
            <g id="Grupo_1781" data-name="Grupo 1781" transform="translate(23.903 6.655)">
                <path id="Trazado_2249" data-name="Trazado 2249" d="M943.04-331.348l-108.247,62.9-90.228-52.093,108.239-62.9Z" transform="translate(-744.565 383.441)" fill="url(#linear-gradient)" />
            </g>
            <path id="Trazado_2250" data-name="Trazado 2250" d="M967.671-323.321a.372.372,0,0,1-.018.061,2.428,2.428,0,0,1-.31.6.709.709,0,0,0-.061.1,3.58,3.58,0,0,1-.512.561c-.138.122-.313.239-.475.357-.124.085-.236.179-.374.264l-127.413,74.04-.014,6.518L965.9-314.861a.865.865,0,0,0,.077-.044h0a3.388,3.388,0,0,0,.3-.219,4.414,4.414,0,0,0,.473-.349c.01-.012.03-.024.039-.033a3.454,3.454,0,0,0,.4-.426.945.945,0,0,0,.067-.105.736.736,0,0,0,.076-.1c.036-.061.085-.126.118-.179a2.642,2.642,0,0,0,.166-.361c.008-.024.01-.04.017-.057a.437.437,0,0,0,.022-.073,1.5,1.5,0,0,0,.067-.232,2.308,2.308,0,0,0,.043-.374l.023-6.514v-.061A2.211,2.211,0,0,1,967.671-323.321Z" transform="translate(-732.786 382.423)" fill="#c781e8" />
            <path id="Trazado_2251" data-name="Trazado 2251" d="M950.23-335.287c2.51,1.45,2.522,3.8.029,5.251L822.846-256a10,10,0,0,1-9.056,0l-94.754-54.713c-2.516-1.45-2.528-3.8-.035-5.243L846.41-390a9.973,9.973,0,0,1,9.058,0ZM831.253-269.43l108.247-62.9-90.236-52.093-108.239,62.9,90.228,52.093ZM769.36-288.514a10.265,10.265,0,0,0,9.329,0c2.567-1.495,2.551-3.906-.032-5.4a10.3,10.3,0,0,0-9.336,0c-2.571,1.486-2.543,3.91.04,5.4Z" transform="translate(-717.123 391.083)" fill="#def6ff" />
            <path id="Trazado_2252" data-name="Trazado 2252" d="M822.843-244.475a6.881,6.881,0,0,1-1.259.552c-.159.052-.325.1-.483.15-.211.057-.422.114-.637.154-.26.057-.52.1-.78.138l-.192.024c-.353.037-.711.057-1.068.061h-.186a10.215,10.215,0,0,1-1.058-.061c-.057,0-.1-.008-.157-.017-.341-.04-.686-.1-1.017-.174-.071-.012-.144-.037-.213-.053a8.4,8.4,0,0,1-.848-.26c-.061-.021-.126-.037-.187-.057a7.659,7.659,0,0,1-.97-.458l-94.754-54.713a3.2,3.2,0,0,1-1.9-2.64c0,2.169-.008,4.349-.015,6.518a3.2,3.2,0,0,0,1.893,2.644l94.757,54.708a7.577,7.577,0,0,0,.926.442.216.216,0,0,0,.047.017c.055.02.111.037.169.057.182.064.368.134.558.186a2.725,2.725,0,0,0,.32.078,1.427,1.427,0,0,0,.185.044,1.67,1.67,0,0,0,.167.045c.206.044.418.081.633.109.075.012.154.017.227.025.053,0,.11.016.158.02.079.008.159.02.235.024.212.02.419.032.634.037.064,0,.134,0,.2,0,.051,0,.107,0,.16,0,.093,0,.193,0,.29,0,.238-.012.477-.024.711-.049a.679.679,0,0,0,.088-.008c.057-.012.113-.02.174-.029.183-.02.372-.044.554-.073.079-.016.155-.044.234-.061.217-.044.424-.1.638-.159.113-.028.233-.044.341-.081.052-.024.093-.049.144-.069a7.378,7.378,0,0,0,1.263-.552Z" transform="translate(-717.12 379.563)" fill="#c781e8" />
        </g>
        <g id="Grupo_1797" data-name="Grupo 1797" transform="translate(840.782 -407.787)">
            <path id="Trazado_2253" data-name="Trazado 2253" d="M893.654-370.985a5.369,5.369,0,0,0-4.517,5.919c.183,5.341,5.127,28.412,10.8,33s5.548-6.327,5.548-6.327S902-372.164,893.654-370.985Z" transform="translate(-862.984 392.648)" fill="#bad1de" />
            <path id="Trazado_2254" data-name="Trazado 2254" d="M931.059-329.979s6.476,1.212,10.888-.625,3.357-1.978,3.018-2.652c-.741-1.452-6.579-1.05-7.652-1.334s.892-1.141,1.34-1.879,1.462-1.612,1.109-1.856-1.255-.493-2.891.814a35.576,35.576,0,0,1-5.785,3.082Z" transform="translate(-868.395 388.454)" fill="#efb185" />
            <path id="Trazado_2255" data-name="Trazado 2255" d="M928.043-334.9a11.087,11.087,0,0,0-.341,2.883,6.511,6.511,0,0,0,.93,3.322s-21.116,4.236-26.482,1.514c0,0-5.186-8,2.745-10.121Z" transform="translate(-864.449 388.296)" fill="#bad1de" />
            <path id="Trazado_2256" data-name="Trazado 2256" d="M902.507-330.448a3.052,3.052,0,0,1-1.746-.544c-.026-.014-.057-.018-.077-.03,0,0-.017-.024-.021-.033a6.167,6.167,0,0,1-.731-.508c-5.668-4.585-10.612-27.656-10.8-33a6.536,6.536,0,0,1,.394-2.526c1.728,5.948,9.779,33.232,12.246,33.714,2.264.442,18.736-.534,24.67-.9a6.365,6.365,0,0,0,.718,1.737S909.712-329.04,902.507-330.448Z" transform="translate(-862.984 392.141)" fill="#a3c1ce" />
            <g id="Grupo_1783" data-name="Grupo 1783" transform="translate(5.639 65.517)">
                <path id="Trazado_2257" data-name="Trazado 2257" d="M921.818-251.12s-1.2,4.218,1.763,5.278a25.839,25.839,0,0,1,6.542,3.226c1.137.9,13.885,6.318,15.457,3.753s-2.232-5.464-3.2-6.356-9.655-8.4-9.655-8.4Z" transform="translate(-872.81 311.979)" fill="#3f327a" />
                <path id="Trazado_2258" data-name="Trazado 2258" d="M909.989-242.7s-1.2,4.217,1.769,5.281a25.664,25.664,0,0,1,6.535,3.222c1.143.9,13.885,6.313,15.455,3.757s-2.234-5.469-3.188-6.36-9.66-8.4-9.66-8.4Z" transform="translate(-871.284 310.892)" fill="#3f327a" />
                <path id="Trazado_2259" data-name="Trazado 2259" d="M896.173-320.627s31.255,19.65,32.156,24.647.711,34.437.711,34.437-8.008,3.444-11.866,1.3l-3.241-27.74s-24.591-18.148-25.671-18.822S896.173-320.627,896.173-320.627Z" transform="translate(-868.499 320.627)" fill="url(#linear-gradient-4)" />
                <path id="Trazado_2261" data-name="Trazado 2261" d="M893.294-319.769s-3.608,10.726-5.486,13.065c0,0,24.974,13.225,26.255,19.612s2.837,33.74,2.837,33.74a15.61,15.61,0,0,1-13.1.973s-2.8-21-3.087-29.46c0,0-37.771-10-34.979-30.68C865.731-312.52,880.187-306.768,893.294-319.769Z" transform="translate(-865.584 320.516)" fill="url(#linear-gradient-4)" />
            </g>
            <path id="Trazado_2263" data-name="Trazado 2263" d="M876.875-369.231s-11.922,6.073-12.218,6.993-3.387,3.132,1.028,13.606c0,0,5.921,11.377,2.952,22.743a70.874,70.874,0,0,1-3.265,10.037s5.292,7.849,20.164,2.38c3.007-1.1,8.051-5.2,9.578-8.49a77.426,77.426,0,0,1,.467-21.082c1.864-11.363,2.91-26.105-3.538-28.059C892.043-371.1,890.409-373.088,876.875-369.231Z" transform="translate(-859.653 392.725)" fill="#bad1de" />
            <path id="Trazado_2264" data-name="Trazado 2264" d="M897.786-342.074a77.43,77.43,0,0,0-.467,21.082c-1.528,3.286-6.571,7.387-9.578,8.49a33.785,33.785,0,0,1-4.625,1.345,87.1,87.1,0,0,0,2.611-8.395c2.969-11.373-2.951-22.747-2.951-22.747-4.417-10.474-1.326-12.687-1.027-13.6s12.22-6.994,12.22-6.994c1.7-.483,3.212-.877,4.557-1.194C899.856-358.29,899-349.473,897.786-342.074Z" transform="translate(-861.859 391.754)" fill="#cae0ea" />
            <path id="Trazado_2265" data-name="Trazado 2265" d="M883.694-373.066s8.663,4.563,4.8,11.1l4.073,2.24S896.568-371.161,883.694-373.066Z" transform="translate(-862.282 392.913)" fill="#feffff" />
            <path id="Trazado_2266" data-name="Trazado 2266" d="M877.31-378.351s3.643,5.539.756,9.277c-1.615,2.088,2.187,7.042,8.681,6.644,0,0,2.9-.711,2.6-1.764-.674-2.39.285-3.735,1.32-5.562S877.31-378.351,877.31-378.351Z" transform="translate(-861.458 393.595)" fill="#efb185" />
            <path id="Trazado_2267" data-name="Trazado 2267" d="M878.127-369.022a1.7,1.7,0,0,0-.343.857c2.439-2.477,7.105-2.662,7.105-2.662l-6.169-6.826c-.238-.113-.445-.209-.624-.294l-.189.6C878.8-375.6,880.281-371.809,878.127-369.022Z" transform="translate(-861.519 393.542)" fill="#dd9569" />
            <path id="Trazado_2268" data-name="Trazado 2268" d="M890.528-363.272c-.613-3.789.285-3.735,1.32-5.562.286-.5-.6-1.377-2.023-2.376a4.378,4.378,0,0,0-1.051,1.186c-2.518,3.878-2.5,6.9-2.2,8.516a6.341,6.341,0,0,0,1.348,0C888.7-361.625,890.712-362.1,890.528-363.272Z" transform="translate(-862.636 392.673)" fill="#f2b78f" />
            <g id="Grupo_1784" data-name="Grupo 1784" transform="translate(13.477)">
                <path id="Trazado_2269" data-name="Trazado 2269" d="M875.687-383.665s1.589,7.328,6.629,10.654c4.467,2.946,9.669,4.88,10.619-.453.764-4.24,2.844-15.031-.9-17.2-4.823-2.789-6.588-6.232-12.171-4.174C879.866-394.84,873.486-391.912,875.687-383.665Z" transform="translate(-874.666 395.804)" fill="#efb185" />
                <path id="Trazado_2270" data-name="Trazado 2270" d="M875.687-383.316a16.479,16.479,0,0,0,6.6,10.75,21.349,21.349,0,0,0,4.232,2.254,20.06,20.06,0,0,1-4.412-4.386c-1.83-2.122,2.715-1.308-.388-6.725-1.048-1.846,4.113.534,5.271.5,6.872-.171,6.36-4.11,6.495-5.769a11.693,11.693,0,0,0-.569-2.037l-.654-1.255c-.073-.113-.152-.232-.227-.334a24.016,24.016,0,0,0-2.231-2.443c-2.943.058-11.312.244-11.48.28-.118.037-1.551,1.986-2.887,3.842A11.187,11.187,0,0,0,875.687-383.316Z" transform="translate(-874.666 395.454)" fill="#e6a376" />
                <path id="Trazado_2271" data-name="Trazado 2271" d="M878.623-376.619s-5.565-5.109-3.633-12.441a8.582,8.582,0,0,1,7.582-6.681c3.129-.371,9.15-.177,11.53,6.139.747,1.967.241,6.285-7.5,4.276-1.109-.294-4.053-.68-5.085.262-1.048.941-1.156,2.706-.654,4.2.441,1.314-.726,1.454-.884,1.178s-1.646-4.032-3.044-2.562C875.673-380.927,878.486-376.872,878.623-376.619Z" transform="translate(-874.583 395.854)" fill="#3f327a" />
            </g>
            <path id="Trazado_2273" data-name="Trazado 2273" d="M878.928-369.762a11.313,11.313,0,0,0,8.714,8.22l-2.114,5.159S872.264-363.031,878.928-369.762Z" transform="translate(-861.425 392.486)" fill="#feffff" />
            <path id="Trazado_2274" data-name="Trazado 2274" d="M864.656-360.953c-.3.924-3.387,3.132,1.028,13.606,0,0,4.975,11.286,2.386,22.642-1.11,4.874-1.009,5.209-2.865,9.35-1.069,2.372,3.586,3.8,7.828,5.1,2.544-6.023,2.263-6.123,3.328-12.714,1.446-9.032.427-16.46-6.973-25.521-6.507-7.966-3.767-11.064-3.916-13.166A2.462,2.462,0,0,0,864.656-360.953Z" transform="translate(-859.653 391.44)" fill="#9dbcc9" />
            <g id="Grupo_1796" data-name="Grupo 1796" transform="translate(20.809 57.389)">
                <g id="Grupo_1789" data-name="Grupo 1789" transform="translate(0 9.497)">
                    <g id="Grupo_1788" data-name="Grupo 1788" style="isolation: isolate">
                        <g id="Grupo_1785" data-name="Grupo 1785" transform="translate(0 14.084)">
                            <path id="Trazado_2276" data-name="Trazado 2276" d="M883.093-302.884,883-301.755l16.4,11.69.1-1.131Z" transform="translate(-883.002 302.884)" fill="#b4b9bc" />
                        </g>
                        <g id="Grupo_1786" data-name="Grupo 1786" transform="translate(16.403 11.694)">
                            <path id="Trazado_2277" data-name="Trazado 2277" d="M901.933-291.551l-.1,1.131L932.472-304.5l.1-1.131Z" transform="translate(-901.836 305.629)" fill="#7d8183" />
                        </g>
                        <g id="Grupo_1787" data-name="Grupo 1787" transform="translate(0.092)">
                            <path id="Trazado_2278" data-name="Trazado 2278" d="M883.107-304.972l16.409,11.688,30.642-14.078-16.4-11.694Z" transform="translate(-883.107 319.056)" fill="#e3e5e5" />
                        </g>
                    </g>
                </g>
                <g id="Grupo_1795" data-name="Grupo 1795" transform="translate(15.089)">
                    <g id="Grupo_1794" data-name="Grupo 1794" style="isolation: isolate">
                        <g id="Grupo_1790" data-name="Grupo 1790" transform="translate(0 14.708)">
                            <path id="Trazado_2279" data-name="Trazado 2279" d="M906.661-311.938l-1.222-1.135-5.111,20.5,1.223,1.131Z" transform="translate(-900.327 313.073)" fill="#bdbbbb" />
                        </g>
                        <g id="Grupo_1791" data-name="Grupo 1791" transform="translate(5.111)">
                            <path id="Trazado_2280" data-name="Trazado 2280" d="M939.441-328.829l-1.22-1.131L906.2-315.253l1.222,1.135Z" transform="translate(-906.196 329.96)" fill="#d2d0d0" />
                        </g>
                        <g id="Grupo_1792" data-name="Grupo 1792" transform="translate(1.222 1.131)">
                            <path id="Trazado_2281" data-name="Trazado 2281" d="M906.842-313.95l-5.111,20.5,32.023-14.724,5.111-20.487Z" transform="translate(-901.731 328.662)" fill="#d5dfe6" />
                        </g>
                        <g id="Grupo_1793" data-name="Grupo 1793" transform="translate(6.333 1.131)">
                            <path id="Trazado_2282" data-name="Trazado 2282" d="M907.6-313.95h0l26.912,5.775,5.111-20.487Z" transform="translate(-907.599 328.662)" fill="#e9f0f4" />
                        </g>
                    </g>
                </g>
            </g>
            <path id="Trazado_2283" data-name="Trazado 2283" d="M895.945-307.729s7.14,5.893,14.134,4.518c0,0-.012-1.816-3.119-2.494a5.5,5.5,0,0,1-4.267-3.418c.026-.361,2.461-.57,3.552-.625s2.4-1.547-.256-1.71-7.189-1.182-9.767-.615C896.221-312.072,893.646-309.325,895.945-307.729Z" transform="translate(-863.74 385.062)" fill="#efb185" />
            <path id="Trazado_2284" data-name="Trazado 2284" d="M868.276-363.3s-5.862,1.353-7.284,6.5-3.614,28.648.422,34.713,30.349,9.26,30.349,9.26a7.193,7.193,0,0,1,.8-7.3l-22.729-9.505S873.9-361.07,868.276-363.3Z" transform="translate(-859.108 391.652)" fill="#bad1de" />
            <path id="Trazado_2285" data-name="Trazado 2285" d="M870.856-329.459l22.729,9.505a7.5,7.5,0,0,0-.859,1.525c-5.442-1.864-23.356-8.114-25.175-10.368-1.987-2.445,2.284-29.062,2.965-33.18C874.267-355.834,870.856-329.459,870.856-329.459Z" transform="translate(-860.131 391.481)" fill="#cae0ea" />
        </g>
        <g id="Grupo_1805" data-name="Grupo 1805" transform="translate(752.349 -451.6)">
            <g id="Grupo_1804" data-name="Grupo 1804" style="isolation: isolate">
                <g id="Grupo_1798" data-name="Grupo 1798" transform="translate(36.023)">
                    <path id="Trazado_2286" data-name="Trazado 2286" d="M803.925-395.936l-4.994-2.9,35.875-47.32,4.993,2.9Z" transform="translate(-798.931 446.159)" fill="#cacaca" />
                </g>
                <g id="Grupo_1799" data-name="Grupo 1799" transform="translate(0 41.508)">
                    <path id="Trazado_2287" data-name="Trazado 2287" d="M762.563-395.6l-4.994-2.9,36.023,5.811,4.994,2.9Z" transform="translate(-757.57 398.5)" fill="#b8b8b8" />
                </g>
                <g id="Grupo_1800" data-name="Grupo 1800" transform="translate(0 41.508)">
                    <path id="Trazado_2288" data-name="Trazado 2288" d="M762.715-342.465l-4.993-2.9L757.57-398.5l4.994,2.9Z" transform="translate(-757.57 398.5)" fill="#9550b6" />
                </g>
                <g id="Grupo_1801" data-name="Grupo 1801" transform="translate(4.994 2.9)">
                    <path id="Trazado_2289" data-name="Trazado 2289" d="M835.2-442.829l-35.875,47.323L763.3-401.319Z" transform="translate(-763.303 442.829)" fill="url(#linear-gradient)" />
                </g>
                <g id="Grupo_1802" data-name="Grupo 1802">
                    <path id="Trazado_2290" data-name="Trazado 2290" d="M762.563-401.749l-4.994-2.9,71.9-41.508,4.993,2.9Z" transform="translate(-757.57 446.159)" fill="#d48ef5" />
                </g>
                <g id="Grupo_1803" data-name="Grupo 1803" transform="translate(4.994 2.9)">
                    <path id="Trazado_2291" data-name="Trazado 2291" d="M835.2-442.829l.151,53.135-71.9,41.508-.151-53.133,36.023,5.813Z" transform="translate(-763.303 442.829)" fill="#d48ef5" />
                </g>
            </g>
        </g>
        <g id="Grupo_1817" data-name="Grupo 1817" transform="translate(764.764 -488.31)">
            <g id="Grupo_1816" data-name="Grupo 1816">
                <g id="Grupo_1806" data-name="Grupo 1806" transform="translate(0 90.287)">
                    <path id="Trazado_2292" data-name="Trazado 2292" d="M774.952-328.491l-2.973-1.728-.154-54.425,2.973,1.728Z" transform="translate(-771.825 384.643)" fill="#9550b6" />
                </g>
                <g id="Grupo_1815" data-name="Grupo 1815">
                    <g id="Grupo_1807" data-name="Grupo 1807" transform="translate(2.973 49.257)">
                        <path id="Trazado_2293" data-name="Trazado 2293" d="M849.3-431.753,812.381-370.49,775.238-389Z" transform="translate(-775.238 431.753)" fill="url(#linear-gradient-7)" />
                    </g>
                    <g id="Grupo_1811" data-name="Grupo 1811" transform="translate(0 30.558)" style="isolation: isolate">
                        <g id="Grupo_1808" data-name="Grupo 1808">
                            <path id="Trazado_2294" data-name="Trazado 2294" d="M774.8-391.767l-2.973-1.728,36.92-59.729,2.973,1.728Z" transform="translate(-771.825 453.223)" fill="#9550b6" />
                        </g>
                        <g id="Grupo_1809" data-name="Grupo 1809" transform="translate(2.973 1.728)">
                            <path id="Trazado_2295" data-name="Trazado 2295" d="M812.159-451.239,849.3-434.268l-74.058,42.758Z" transform="translate(-775.238 451.239)" fill="url(#linear-gradient-7)" />
                        </g>
                        <g id="Grupo_1810" data-name="Grupo 1810" transform="translate(36.92)">
                            <path id="Trazado_2296" data-name="Trazado 2296" d="M817.19-451.5l-2.973-1.728,37.138,16.971,2.973,1.728Z" transform="translate(-814.217 453.223)" fill="#352964" />
                        </g>
                    </g>
                    <g id="Grupo_1812" data-name="Grupo 1812" transform="translate(9.544)">
                        <path id="Trazado_2297" data-name="Trazado 2297" d="M845.36-488.31l.283,99.762-62.577,36.129-.283-99.762Z" transform="translate(-782.783 488.31)" fill="#fff" />
                    </g>
                    <g id="Grupo_1813" data-name="Grupo 1813" transform="translate(16.748 12.864)">
                        <line id="Línea_16" data-name="Línea 16" x1="50.429" y2="28.81" stroke-width="1.841" stroke="rgba(25,25,39,0.63)" stroke-linecap="round" stroke-linejoin="round" fill="none" />
                        <line id="Línea_17" data-name="Línea 17" x1="50.429" y2="28.81" transform="translate(0 7.832)" fill="none" stroke="rgba(25,25,39,0.63)" stroke-linecap="round" stroke-linejoin="round" stroke-width="1.841" />
                        <line id="Línea_18" data-name="Línea 18" x1="50.429" y2="28.81" transform="translate(0 15.664)" fill="none" stroke="rgba(25,25,39,0.63)" stroke-linecap="round" stroke-linejoin="round" stroke-width="1.841" />
                        <line id="Línea_19" data-name="Línea 19" x1="50.429" y2="28.81" transform="translate(0 23.497)" fill="none" stroke="rgba(25,25,39,0.63)" stroke-linecap="round" stroke-linejoin="round" stroke-width="1.841" />
                        <line id="Línea_20" data-name="Línea 20" x1="50.429" y2="28.81" transform="translate(0 31.329)" fill="none" stroke="rgba(25,25,39,0.63)" stroke-linecap="round" stroke-linejoin="round" stroke-width="1.841" />
                        <line id="Línea_21" data-name="Línea 21" x1="50.429" y2="28.81" transform="translate(0 39.161)" fill="none" stroke="rgba(25,25,39,0.63)" stroke-linecap="round" stroke-linejoin="round" stroke-width="1.841" />
                        <line id="Línea_22" data-name="Línea 22" x1="50.429" y2="28.81" transform="translate(0 46.993)" fill="none" stroke="rgba(25,25,39,0.63)" stroke-linecap="round" stroke-linejoin="round" stroke-width="1.841" />
                        <line id="Línea_23" data-name="Línea 23" x1="50.429" y2="28.81" transform="translate(0 54.826)" fill="none" stroke="rgba(25,25,39,0.63)" stroke-linecap="round" stroke-linejoin="round" stroke-width="1.841" />
                        <line id="Línea_24" data-name="Línea 24" x1="50.429" y2="28.81" transform="translate(0 62.658)" fill="none" stroke="rgba(25,25,39,0.63)" stroke-linecap="round" stroke-linejoin="round" stroke-width="1.841" />
                        <line id="Línea_25" data-name="Línea 25" x1="50.429" y2="28.81" transform="translate(0 70.49)" fill="none" stroke="rgba(25,25,39,0.63)" stroke-linecap="round" stroke-linejoin="round" stroke-width="1.841" />
                        <line id="Línea_26" data-name="Línea 26" x1="50.429" y2="28.81" transform="translate(0 78.322)" fill="none" stroke="rgba(25,25,39,0.63)" stroke-linecap="round" stroke-linejoin="round" stroke-width="1.841" />
                    </g>
                    <g id="Grupo_1814" data-name="Grupo 1814" transform="translate(2.973 49.257)">
                        <path id="Trazado_2298" data-name="Trazado 2298" d="M849.3-431.753l.154,54.425-74.058,42.758L775.238-389l37.142,18.506Z" transform="translate(-775.238 431.753)" fill="url(#linear-gradient-7)" />
                    </g>
                </g>
            </g>
        </g>
        <g id="Grupo_1819" data-name="Grupo 1819" transform="translate(901.646 -469.752)">
            <g id="Grupo_1343" data-name="Grupo 1343">
                <g id="Grupo_1342" data-name="Grupo 1342" transform="translate(3.726 43.026)">
                    <g id="Grupo_1341" data-name="Grupo 1341" transform="translate(0 0.001)">
                        <path id="Trazado_2103" data-name="Trazado 2103" d="M-1326.763,1305.414l-18.142,6.093v22.83c0,4.621,6.15,8.367,13.736,8.367s13.736-3.745,13.736-8.367v-22.83Z" transform="translate(1344.905 -1303.139)" fill="#f0f0f0" />
                        <ellipse id="Elipse_46" data-name="Elipse 46" cx="13.736" cy="8.368" rx="13.736" ry="8.368" transform="translate(0)" fill="#dcbae8" />
                        <path id="Trazado_2104" data-name="Trazado 2104" d="M-1343.354,1315.428c2.419,2.387,6.751,3.978,11.694,3.978s9.275-1.591,11.694-3.978a4.585,4.585,0,0,0,.257-1.5c0-4.02-5.35-7.279-11.951-7.279s-11.95,3.26-11.95,7.279A4.592,4.592,0,0,0-1343.354,1315.428Z" transform="translate(1345.396 -1302.671)" fill="#872437" />
                    </g>
                    <path id="Trazado_2105" data-name="Trazado 2105" d="M-1331.169,1304.728c6.925,0,12.774,3.391,12.774,7.4s-5.85,7.4-12.774,7.4-12.773-3.391-12.773-7.4,5.848-7.4,12.773-7.4m0-.963c-7.586,0-13.736,3.746-13.736,8.368s6.15,8.368,13.736,8.368,13.736-3.747,13.736-8.368-6.149-8.368-13.736-8.368Z" transform="translate(1344.905 -1303.765)" fill="#bdbacf" />
                </g>
                <path id="Trazado_2106" data-name="Trazado 2106" d="M-1322.055,1281.892c-1.149,2.444-1.165,5.247-1.158,7.947q.01,4.55.021,9.1a37.386,37.386,0,0,1-.932,10.288c-.941,3.323-2.964,6.5-6.059,8.036a5.13,5.13,0,0,1-4.91.146,5.171,5.171,0,0,1-1.541-1.646c-3.487-5.466-.262-12.81,2.245-18.058A46.36,46.36,0,0,1-1322.055,1281.892Z" transform="translate(1351.192 -1269.05)" fill="#006859" />
                <path id="Trazado_2107" data-name="Trazado 2107" d="M-1344.546,1310.377c-.861-11.334-.28-22.88-3.059-33.9a45.66,45.66,0,0,1,10.011,33.374c2.51-7.833,5.045-15.828,5-24.052-.022-3.933,2.4-13.212,2.4-13.212s1.424,8.879,2.732,13.194a38.867,38.867,0,0,1,1.25,9.124q.385,6.725.769,13.449c3.729-11.272,13.714-26.807,13.714-26.807s-3.676,29.619-5.625,36.395c-2.21,7.686-9.406,12.914-17.647,11.1C-1342.5,1327.384-1344.072,1316.605-1344.546,1310.377Z" transform="translate(1347.605 -1272.586)" fill="#009681" />
                <path id="Trazado_2108" data-name="Trazado 2108" d="M-1340.958,1316.266c-1.568-4.308-.11-9.043.868-13.522a37.89,37.89,0,0,0,.44-16.259,244.311,244.311,0,0,1,10.391,25.6c.769,2.255,1.51,4.707.777,6.974-.688,2.138-4.552,5.913-7.115,5.281C-1337.611,1323.84-1340.269,1318.156-1340.958,1316.266Z" transform="translate(1349.868 -1267.305)" fill="#00b09d" />
            </g>
        </g>
    </g>
</svg>