<svg xmlns="http://www.w3.org/2000/svg" 
    xmlns:xlink="http://www.w3.org/1999/xlink" viewBox="0 0 172.4 195.01">
    <defs>
        <style>.cls-1{fill:#67148f;}.cls-2{opacity:0.53;}.cls-3{opacity:0.37;}.cls-4{fill:#9550b6;}.cls-5{opacity:0.47;}.cls-6{fill:#d48ef5;}.cls-7{fill:url(#Degradado_sin_nombre_4);}.cls-8{fill:url(#Degradado_sin_nombre_2);}.cls-9{fill:url(#Degradado_sin_nombre_3);}.cls-10{fill:url(#Degradado_sin_nombre_8);}.cls-11{fill:url(#Degradado_sin_nombre_5);}.cls-12{fill:#f9fbfc;}.cls-13{fill:#113c7a;}.cls-14{fill:#f5b697;}.cls-15{fill:#5167b0;}.cls-16{fill:url(#Degradado_sin_nombre_8-2);}.cls-17{fill:url(#Degradado_sin_nombre_8-3);}.cls-18{fill:#ff7c40;}.cls-19{fill:#ff9d6f;}.cls-20{fill:url(#Degradado_sin_nombre_8-4);}.cls-21{fill:#efefef;}.cls-22{fill:#fff;stroke:#ccc;stroke-miterlimit:10;}.cls-23{fill:#a3a3a3;}.cls-24{fill:#f3f333;}.cls-25{fill:none;}.cls-26{fill:#666;}.cls-27{fill:#191927;}.cls-28{fill:#a6a6a6;}.cls-29{fill:url(#Degradado_sin_nombre_10);}.cls-30{fill:url(#Degradado_sin_nombre_10-2);}.cls-31{fill:#843837;}</style>
        <linearGradient id="Degradado_sin_nombre_4" x1="304.49" y1="916.82" x2="305.49" y2="916.82" gradientTransform="matrix(72.61, 0, 0, -51.85, -22030.73, 47564.19)" gradientUnits="userSpaceOnUse">
            <stop offset="0" stop-color="#67148f"/>
            <stop offset="0.24" stop-color="#9550b6"/>
            <stop offset="0.6" stop-color="#97f"/>
            <stop offset="0.94" stop-color="#d48ef5"/>
            <stop offset="1" stop-color="#d48ef5"/>
        </linearGradient>
        <linearGradient id="Degradado_sin_nombre_2" x1="273.68" y1="914.83" x2="273.68" y2="915.76" gradientTransform="matrix(8.68, 0, 0, -133.34, -2229.34, 122161.5)" gradientUnits="userSpaceOnUse">
            <stop offset="0" stop-color="#67148f"/>
            <stop offset="0.19" stop-color="#9550b6"/>
            <stop offset="0.46" stop-color="#d48ef5"/>
            <stop offset="0.78" stop-color="#67148f"/>
            <stop offset="0.94" stop-color="#a46eff"/>
            <stop offset="1" stop-color="#d48ef5"/>
        </linearGradient>
        <linearGradient id="Degradado_sin_nombre_3" x1="305.22" y1="914.43" x2="304.83" y2="915.35" gradientTransform="matrix(71.17, 0, 0, -172.88, -21591.34, 158305.32)" gradientUnits="userSpaceOnUse">
            <stop offset="0" stop-color="#67148f"/>
            <stop offset="0.24" stop-color="#d48ef5"/>
            <stop offset="0.6" stop-color="#67148f"/>
            <stop offset="0.94" stop-color="#b391ff"/>
            <stop offset="1" stop-color="#d48ef5"/>
        </linearGradient>
        <linearGradient id="Degradado_sin_nombre_8" x1="288.9" y1="925.15" x2="288.9" y2="924.3" gradientTransform="matrix(15.18, 0, 0, -10.71, -4274.8, 9946.6)" gradientUnits="userSpaceOnUse">
            <stop offset="0" stop-color="#7f5eff"/>
            <stop offset="0.24" stop-color="#8664ff"/>
            <stop offset="0.6" stop-color="#97f"/>
            <stop offset="0.94" stop-color="#b391ff"/>
        </linearGradient>
        <linearGradient id="Degradado_sin_nombre_5" x1="275.19" y1="937.31" x2="275.19" y2="940.96" gradientTransform="matrix(6.02, 0, 0, -10.4, -1547.57, 9919.64)" gradientUnits="userSpaceOnUse">
            <stop offset="0" stop-color="#9a79ff"/>
            <stop offset="0.94" stop-color="#b391ff"/>
        </linearGradient>
        <linearGradient id="Degradado_sin_nombre_8-2" x1="295.39" y1="922.93" x2="295.73" y2="925.69" gradientTransform="matrix(22.24, 0, 0, -14.78, -6534.05, 13759.34)" xlink:href="#Degradado_sin_nombre_8"/>
        <linearGradient id="Degradado_sin_nombre_8-3" x1="297.37" y1="926.78" x2="298.26" y2="927.94" gradientTransform="matrix(17.42, 0, 0, -26.41, -5059.62, 24399.95)" xlink:href="#Degradado_sin_nombre_8"/>
        <linearGradient id="Degradado_sin_nombre_8-4" x1="293.26" y1="925.18" x2="293.28" y2="923.25" gradientTransform="matrix(19.32, 0, 0, -13.11, -5646.24, 12240.97)" xlink:href="#Degradado_sin_nombre_8"/>
        <linearGradient id="Degradado_sin_nombre_10" x1="267.09" y1="918.11" x2="266.45" y2="917.16" gradientTransform="matrix(7.29, 0, 0, -38.35, -1870.36, 35359.71)" gradientUnits="userSpaceOnUse">
            <stop offset="0" stop-color="#6851f5"/>
            <stop offset="1" stop-color="#00cfff"/>
        </linearGradient>
        <linearGradient id="Degradado_sin_nombre_10-2" x1="282.78" y1="917.4" x2="283.78" y2="917.4" gradientTransform="matrix(11.89, 0, 0, -41.67, -3288.76, 38399.45)" xlink:href="#Degradado_sin_nombre_10"/>
    </defs>
    <title>Recurso 11</title>
    <g id="Capa_2" data-name="Capa 2">
        <g id="Capa_1-2" data-name="Capa 1">
            <g id="OBJECTS">
                <g id="Grupo_810" data-name="Grupo 810">
                    <g id="Grupo_806" data-name="Grupo 806">
                        <path id="Trazado_262" data-name="Trazado 262" class="cls-1" d="M56.71,38.43v1.22a.93.93,0,0,0,1.41.81l5.77-3.35a.93.93,0,0,0,.47-.81V35.08a.94.94,0,0,0-.94-.94,1,1,0,0,0-.47.13l-5.77,3.35A.92.92,0,0,0,56.71,38.43Z"/>
                    </g>
                    <g id="Grupo_807" data-name="Grupo 807">
                        <path id="Trazado_263" data-name="Trazado 263" class="cls-1" d="M38.46,55.06v1.22a.94.94,0,0,0,.94.94,1,1,0,0,0,.47-.13l24-13.88a.94.94,0,0,0,.47-.81V41.17A.93.93,0,0,0,63,40.36l-24,13.88A1,1,0,0,0,38.46,55.06Z"/>
                    </g>
                    <g id="Grupo_808" data-name="Grupo 808" class="cls-2">
                        <path id="Trazado_264" data-name="Trazado 264" class="cls-1" d="M48.41,61.51v1.23a.93.93,0,0,0,.93.93.94.94,0,0,0,.47-.12l14.13-8.16a.94.94,0,0,0,.47-.81V53.35a.94.94,0,0,0-.94-.94,1,1,0,0,0-.47.13L48.87,60.7A1,1,0,0,0,48.41,61.51Z"/>
                    </g>
                    <g id="Grupo_809" data-name="Grupo 809">
                        <path id="Trazado_265" data-name="Trazado 265" class="cls-1" d="M42.2,59v1.23a.94.94,0,0,0,1.4.81L63.92,49.3a.94.94,0,0,0,.48-.82V47.25a.94.94,0,0,0-.94-.93,1,1,0,0,0-.47.12L42.67,58.18A.94.94,0,0,0,42.2,59Z"/>
                    </g>
                </g>
                <g id="Grupo_815" data-name="Grupo 815">
                    <g id="Grupo_812" data-name="Grupo 812" class="cls-3">
                        <g id="Grupo_811" data-name="Grupo 811">
                            <path id="Trazado_266" data-name="Trazado 266" class="cls-4" d="M168.05,57a1.09,1.09,0,0,1,.48.83l0,8.33c0,.3-.21.43-.48.28l-10.54-6.09a1.05,1.05,0,0,1-.48-.83l0-8.33a.3.3,0,0,1,.48-.28Z"/>
                        </g>
                    </g>
                    <g id="Grupo_814" data-name="Grupo 814" class="cls-5">
                        <g id="Grupo_813" data-name="Grupo 813">
                            <path id="Trazado_267" data-name="Trazado 267" class="cls-6" d="M171.92,71.81a1,1,0,0,1,.48.82l0,8.34c0,.3-.22.42-.48.27l-10.55-6.09a1.06,1.06,0,0,1-.48-.83l0-8.33c0-.3.21-.43.48-.27Z"/>
                        </g>
                    </g>
                </g>
                <g id="Grupo_820" data-name="Grupo 820">
                    <g id="Grupo_817" data-name="Grupo 817" class="cls-3">
                        <g id="Grupo_816" data-name="Grupo 816">
                            <path id="Trazado_268" data-name="Trazado 268" class="cls-4" d="M64.53,79.69a.67.67,0,0,1,.31.54v5.38c0,.2-.14.28-.31.18L57.7,81.85a.67.67,0,0,1-.31-.53l0-5.38c0-.2.14-.28.31-.18Z"/>
                        </g>
                    </g>
                    <g id="Grupo_819" data-name="Grupo 819" class="cls-5">
                        <g id="Grupo_818" data-name="Grupo 818">
                            <path id="Trazado_269" data-name="Trazado 269" class="cls-6" d="M67,89.27a.72.72,0,0,1,.31.53l0,5.39c0,.2-.14.27-.31.17L60.2,91.43a.68.68,0,0,1-.3-.54V85.51c0-.2.14-.27.31-.18Z"/>
                        </g>
                    </g>
                </g>
                <g id="Grupo_826" data-name="Grupo 826">
                    <path id="Trazado_270" data-name="Trazado 270" class="cls-7" d="M136.72,33.88l.11.09q.49.41,1,.84l.12.1c.31.3.63.61.93.94l.08.08q.5.52,1,1.08h0c.31.39.62.78.92,1.18h0c.27.37.53.75.79,1.14.16.24.3.48.45.72s.26.4.38.61.11.2.16.3c.2.35.39.7.57,1.06l.06.11c.22.43.43.87.62,1.31l0,.07a21.19,21.19,0,0,1,1.89,8.33l5.06-2.93a20.58,20.58,0,0,0-1.52-7.39h0c-.07-.18-.14-.37-.22-.55s-.11-.26-.17-.4l0-.07,0-.07c-.08-.19-.16-.37-.25-.55s-.19-.4-.29-.6l0-.09-.06-.11c-.08-.16-.16-.32-.25-.48s-.21-.39-.32-.58-.11-.2-.17-.29l-.06-.12c-.1-.17-.21-.33-.31-.49s-.3-.49-.46-.73l-.07-.12q-.35-.51-.72-1h0c-.16-.22-.33-.44-.5-.65s-.27-.35-.42-.52v0h0c-.14-.18-.29-.35-.44-.51s-.29-.34-.44-.49L144,33l-.08-.08-.31-.33-.48-.47L143,32l-.12-.11-.23-.22-.5-.44-.23-.18-.11-.09-.16-.14-.5-.37-.37-.26-.06-.05-.07,0a5.72,5.72,0,0,0-.48-.32l-.47-.29-.11-.07L91.31,1.55,91,1.35l-.47-.24L90.18,1l-.07,0L90,.89,89.57.7,89.12.53,89,.51,89,.48l-.31-.1L88.2.25,88,.2l-.1,0-.15,0L87.24.07l-.3,0h-.2l-.53,0h-.59c-.22,0-.44.05-.65.09h0l-.14,0c-.22,0-.43.11-.64.18l-.07,0a.21.21,0,0,0-.1,0,4.57,4.57,0,0,0-.74.35L78.21,3.7A4.57,4.57,0,0,1,79,3.35l.1,0a4.41,4.41,0,0,1,.71-.2l.14,0A6,6,0,0,1,80.74,3h.18a8.23,8.23,0,0,1,.86,0h.1a7.5,7.5,0,0,1,.93.15l.1,0a8.73,8.73,0,0,1,1,.28l.07,0a10.39,10.39,0,0,1,1.07.43l.07,0c.37.17.74.36,1.12.58l48.25,27.86c.38.22.76.46,1.13.72l.06,0C136,33.35,136.38,33.61,136.72,33.88Z"/>
                    <path id="Trazado_271" data-name="Trazado 271" class="cls-8" d="M150.81,48.6l0-.54c0-.19,0-.37,0-.55l-.06-.56-.09-.56c0-.19-.06-.38-.1-.57s-.07-.4-.11-.59-.09-.4-.14-.6-.1-.4-.16-.6-.11-.4-.17-.6-.13-.39-.19-.58-.13-.38-.2-.58l-.21-.55-5.05,2.94.21.55.2.58c.06.19.13.38.18.58l.18.6c.05.2.11.4.16.6s.09.39.13.59.09.39.12.59.07.38.1.57.06.38.08.57,0,.37.07.55,0,.37,0,.55,0,.37,0,.55,0,.34,0,.51l-.33,115.76a12.41,12.41,0,0,1-.06,1.24.45.45,0,0,1,0,.11c0,.36-.09.71-.15,1.05l0,.13c-.07.33-.15.64-.24.94l-.06.17c-.09.27-.19.54-.31.81a.2.2,0,0,0,0,.08,6.66,6.66,0,0,1-.45.83.86.86,0,0,0-.07.1,6.17,6.17,0,0,1-.44.57l-.17.19a5.51,5.51,0,0,1-.43.41l-.18.16a6,6,0,0,1-.66.46l5.06-2.94a6.22,6.22,0,0,0,.65-.45l.18-.16c.15-.13.29-.27.43-.41l.17-.19a5.9,5.9,0,0,0,.44-.58.86.86,0,0,1,.07-.1l0,0a5.86,5.86,0,0,0,.42-.78s0,0,0,0l0-.09c.08-.17.16-.35.23-.53l.09-.28a1,1,0,0,0,.05-.16,1.31,1.31,0,0,0,0-.15,5.47,5.47,0,0,0,.15-.58c0-.07,0-.14.05-.21l0-.14a1.3,1.3,0,0,0,0-.21c0-.17.06-.35.09-.54l0-.3s0-.07,0-.11,0-.09,0-.13a4.58,4.58,0,0,0,0-.53c0-.18,0-.36,0-.55v0l.33-115.76C150.81,48.94,150.81,48.77,150.81,48.6Z"/>
                    <g id="Grupo_821" data-name="Grupo 821">
                        <path id="Trazado_272" data-name="Trazado 272" class="cls-9" d="M134.5,32.37c6.24,3.61,11.28,12.36,11.26,19.54l-.33,115.89c0,7.18-5.1,10.07-11.33,6.47L85.85,146.38c-6.24-3.6-11.28-12.35-11.26-19.53L74.92,11c0-7.19,5.1-10.08,11.33-6.47Z"/>
                    </g>
                    <g id="Grupo_825" data-name="Grupo 825">
                        <g id="Grupo_822" data-name="Grupo 822">
                            <path id="Trazado_273" data-name="Trazado 273" class="cls-10" d="M116.71,33.2a3,3,0,0,1,1.36,2.36c0,.88-.62,1.23-1.37.79l-12.44-7.18a3,3,0,0,1-1.37-2.37c0-.87.62-1.22,1.37-.78Z"/>
                        </g>
                        <g id="Grupo_823" data-name="Grupo 823">
                            <ellipse id="Elipse_17" data-name="Elipse 17" class="cls-11" cx="110.15" cy="147.92" rx="3.01" ry="5.2" transform="translate(-59.41 75.37) rotate(-30.16)"/>
                        </g>
                        <g id="Grupo_824" data-name="Grupo 824">
                            <path id="Trazado_274" data-name="Trazado 274" class="cls-12" d="M140.81,57.36a2.5,2.5,0,0,1,1.13,2l-.27,96.87c0,.72-.52,1-1.14.65l-60.7-35.1a2.49,2.49,0,0,1-1.13-2L79,22.91c0-.72.51-1,1.14-.65Z"/>
                        </g>
                    </g>
                    <path id="Trazado_275" data-name="Trazado 275" class="cls-12" d="M148.41,91h0a.71.71,0,0,1-.72-.71h0V68.73a.72.72,0,0,1,.72-.72h0a.72.72,0,0,1,.72.72h0V90.24a.71.71,0,0,1-.72.71Z"/>
                    <path id="Trazado_276" data-name="Trazado 276" class="cls-12" d="M148.41,117.75h0a.71.71,0,0,1-.72-.71h0V95.53a.72.72,0,0,1,.72-.72h0a.72.72,0,0,1,.72.72h0V117a.71.71,0,0,1-.72.71Z"/>
                    <path id="Trazado_277" data-name="Trazado 277" class="cls-13" d="M148.41,150.72h0a.72.72,0,0,1-.72-.72h0V138.86a.72.72,0,0,1,.72-.72h0a.72.72,0,0,1,.72.72V150a.72.72,0,0,1-.72.72Z"/>
                </g>
                <g id="Grupo_832" data-name="Grupo 832">
                    <g id="Grupo_831" data-name="Grupo 831">
                        <g id="Grupo_830" data-name="Grupo 830">
                            <g id="Grupo_827" data-name="Grupo 827">
                                <path id="Trazado_278" data-name="Trazado 278" class="cls-14" d="M13.73,144.08S15,151.88,16,156.2c0,0,.21,7.18.41,9.65s.82,7.8.82,7.8a1.49,1.49,0,0,0,1.54.2s1-15.3,1.24-17.76.92-13.55.92-13.55S18.56,140.39,13.73,144.08Z"/>
                                <path id="Trazado_279" data-name="Trazado 279" class="cls-14" d="M21.43,141s1.24,7.8,2.26,12.12c0,0,.21,7.18.41,9.65s.82,7.8.82,7.8a1.49,1.49,0,0,0,1.54.2s1-15.3,1.24-17.76.3-13.45.3-13.45S26.26,137.31,21.43,141Z"/>
                                <path id="Trazado_280" data-name="Trazado 280" class="cls-13" d="M15.28,133.54s-2.91,3.18-1.23,14A48.88,48.88,0,0,0,15.17,153a17.49,17.49,0,0,0,8.32-1.13c4.52-1.74,4.62-2.67,4.62-2.67s.2-13.51-.82-17S15.28,133.54,15.28,133.54Z"/>
                                <path id="Trazado_281" data-name="Trazado 281" class="cls-15" d="M26.51,170.05a1.6,1.6,0,0,0,.72,1.39c.82.62,2.36,1.75,2.62,2.41,0,.52-2,0-2.82-.51a6.57,6.57,0,0,1-1.7-1.54l.05.46a.82.82,0,0,1-.56-.26c-.26-.25.05-1.84.05-1.84Z"/>
                                <path id="Trazado_282" data-name="Trazado 282" class="cls-15" d="M18.82,173.6a1.58,1.58,0,0,0,.71,1.38c.83.62,2.37,1.75,2.62,2.41,0,.52-1.95,0-2.82-.51a6.37,6.37,0,0,1-1.69-1.54l.05.46a.86.86,0,0,1-.57-.25c-.25-.26.05-1.85.05-1.85Z"/>
                            </g>
                            <path id="Trazado_283" data-name="Trazado 283" class="cls-16" d="M26.34,113.14s2.67.42,4.4,6.21c1,3.83,2.53,4.18,4.26,4.52s9,0,9.58,0,1.27,1.27.46,2.2-10.85,1.84-12.81,1.84-6.46-3.69-8.31-6.69S23.92,112.91,26.34,113.14Z"/>
                            <path id="Trazado_284" data-name="Trazado 284" class="cls-13" d="M25.08,98.72s2.65,3.4,2.07,7.21-3.92,3.63-4.5,5.71,1.62,5.08-1.38,7-4.39,1.5-5.2,5.66-3.69,6.34-8.65,6.81S-1,125.61.26,121.22s5.66-3,6.58-6.58.58-6.4,3.7-7.79,2-6.63,5.07-8.25S22.77,96.06,25.08,98.72Z"/>
                            <g id="Grupo_828" data-name="Grupo 828">
                                <path id="Trazado_285" data-name="Trazado 285" class="cls-17" d="M18.16,112s-5.7,4.08-6.27,5.44-1.36,5.58.49,7.65c3.21,3.59,1.28,9.75,1.7,11.56s4.78,2,7.8,1.45,5.83-2.13,5.71-5.66.82-8.36,1-9.94a27.56,27.56,0,0,0-.75-8.25c-.16-.57-2.06-1.16-2.06-1.16S23.79,111.75,18.16,112Z"/>
                                <path id="Trazado_286" data-name="Trazado 286" class="cls-18" d="M23.13,111.22a.54.54,0,0,0,0,.18c.06.42.27,1.49.31,1.94s-.45,1.17-1.61,1.14-3.12-.5-3.77-1.88a32.53,32.53,0,0,0-.19-4.07Z"/>
                                <path id="Trazado_287" data-name="Trazado 287" class="cls-19" d="M26.33,103.52c-.62-3.3-3.24-5.18-6.2-4.49a6.23,6.23,0,0,0-4.64,3.15c-1.43,2.82.67,5.2,2,6.69.57.61,1,1.09,1.26,1.39l.3.33,0,0h0a6.65,6.65,0,0,0,2.75,1.66,3.71,3.71,0,0,0,3.65-.71C26.31,110.69,27,106.83,26.33,103.52Z"/>
                            </g>
                            <path id="Trazado_288" data-name="Trazado 288" class="cls-13" d="M26.86,105.76a4.77,4.77,0,0,1-3.75-1.39c-1.38-1.62-3.34,0-5-1.38a5.14,5.14,0,0,1,0,3.46,18.77,18.77,0,0,0-.92,4.38l-3-4.73V102L18,98.37l5.07-.23,2.43,2.31S27.1,104,26.86,105.76Z"/>
                            <g id="Grupo_829" data-name="Grupo 829">
                                <path id="Trazado_290" data-name="Trazado 290" class="cls-20" d="M14,119.15s-3.81-.92-2.2,4.27,7,9,9,8.77,9.93-8.66,9.93-9.69A1.51,1.51,0,0,0,29.28,121a1.31,1.31,0,0,0-.39,0c-.92.23-7,6.8-7.62,6.57S17.12,121.34,14,119.15Z"/>
                                <path id="Trazado_291" data-name="Trazado 291" class="cls-19" d="M29.66,122.88a1.15,1.15,0,0,1-.78-1.42v0c.32-1.14,2.42-2,2.74-2.1s3.43.58,3.56,1-.58.57-1.34.38a13.5,13.5,0,0,0-1.91-.26s.83.89.77,1.28a2.4,2.4,0,0,1-1.15,1.46c-.63.32-1.4-.38-1.4-.38Z"/>
                            </g>
                            <path id="Trazado_292" data-name="Trazado 292" class="cls-19" d="M43.62,124s2.52-2.14,2.66-1.75-.86,1.44-.86,1.44,3.37-1.29,3.41-.85-1.78,1.81-2.26,2.13a12.56,12.56,0,0,1-2.2.79S43.43,124.54,43.62,124Z"/>
                        </g>
                    </g>
                </g>
                <g id="Grupo_834" data-name="Grupo 834">
                    <path id="Rectángulo_400" data-name="Rectángulo 400" class="cls-21" d="M88.32,46.07l40,21a8,8,0,0,1,3.82,6.6l-.76,59.45c0,.81-.58,1.15-1.28.75l-39.4-22.07a8.05,8.05,0,0,1-3.64-6.39h0V46.93C87.08,46.1,87.64,45.72,88.32,46.07Z"/>
                    <g id="Grupo_833" data-name="Grupo 833">
                        <path id="Elipse_15-2" data-name="Elipse 15-2" class="cls-22" d="M94.45,80.63a8,8,0,0,1,3.69,6.45c0,2.44-1.67,3.51-3.71,2.4a8,8,0,0,1-3.68-6.43C90.76,80.61,92.41,79.53,94.45,80.63Z"/>
                    </g>
                    <path id="los_simspon" data-name="los simspon" class="cls-23" d="M94.45,81.27a6.81,6.81,0,0,1,3.16,5.52c0,2.09-1.43,3-3.18,2.06a6.84,6.84,0,0,1-3.15-5.51C91.28,81.25,92.7,80.32,94.45,81.27Z"/>
                    <g id="Grupo_786" data-name="Grupo 786">
                        <g id="Grupo_797" data-name="Grupo 797">
                            <path id="Elipse_16" data-name="Elipse 16" class="cls-24" d="M115.66,111.77a2.54,2.54,0,0,1,1.18,2.06c0,.77-.54,1.1-1.2.74a2.58,2.58,0,0,1-1.18-2.06C114.47,111.74,115,111.41,115.66,111.77Z"/>
                            <path id="Trazado_257" data-name="Trazado 257" class="cls-24" d="M115.71,112.74l.09.27.2.15a.13.13,0,0,1,0,.11s0,0,0,0l-.15.08,0,.26s0,.07,0,0l0,0-.18-.22-.19,0s-.06,0-.08-.08v0l0-.21-.14-.25s0-.09,0-.1a0,0,0,0,1,0,0l.2.07.09-.16s0,0,.08,0,0,0,0,0Z"/>
                            <path id="Trazado_258" data-name="Trazado 258" d="M115.19,112.73a.19.19,0,0,0,0,.18l.12.2,0,.18a.26.26,0,0,0,.11.24s0,0,0,0h.21l.14.18c.07.07.15.09.19,0a.14.14,0,0,0,0-.09l0-.21.12-.07c.06,0,.06-.13,0-.22a.22.22,0,0,0-.07-.09l-.17-.12-.07-.22a.26.26,0,0,0-.12-.15h0a.08.08,0,0,0-.12,0l-.07.13-.17-.06a.08.08,0,0,0-.1,0v0Zm.33.22a0,0,0,0,0,0,0h0l.08-.14.08.22a.12.12,0,0,0,.06.08l.17.13-.13.07a.06.06,0,0,0,0,.07l0,.22-.16-.18a.07.07,0,0,0-.07,0h-.15l0-.19a.15.15,0,0,0,0-.09l-.12-.21Z"/>
                            <path id="Trazado_259" data-name="Trazado 259" d="M115.64,114.27c.52.29.94,0,1-.58a2,2,0,0,0-.57-1.34s-.09,0-.1,0a.15.15,0,0,0,0,.13,1.49,1.49,0,0,1,.42,1.44c-.17.39-.63.35-1-.06a1.51,1.51,0,0,1-.42-1.45.42.42,0,0,1,.43-.26s.06,0,.05-.09a.13.13,0,0,0-.1-.1h0c-.48,0-.72.48-.52,1.15a2,2,0,0,0,.86,1.16Z"/>
                            <path id="Trazado_260" data-name="Trazado 260" d="M115.66,112.24s.07,0,.07,0a.11.11,0,0,0,0-.08c0-.05-.07-.07-.1-.06a.12.12,0,0,0,0,.13A.12.12,0,0,0,115.66,112.24Z"/>
                            <g id="Grupo_796" data-name="Grupo 796">
                                <path id="Trazado_261" data-name="Trazado 261" d="M115.64,114.64a2.71,2.71,0,0,1-1.24-2.17c0-.81.57-1.16,1.26-.78a2.72,2.72,0,0,1,1.25,2.17C116.9,114.67,116.33,115,115.64,114.64Zm0-2.8c-.62-.35-1.13,0-1.13.7a2.42,2.42,0,0,0,1.11,1.95c.62.34,1.13,0,1.14-.7a2.42,2.42,0,0,0-1.12-2Z"/>
                            </g>
                        </g>
                        <g id="Grupo_799" data-name="Grupo 799">
                            <path id="Elipse_16-2" data-name="Elipse 16-2" class="cls-24" d="M123.76,116.25a2.55,2.55,0,0,1,1.19,2.06c0,.78-.56,1.1-1.22.74a2.55,2.55,0,0,1-1.18-2.07C122.55,116.21,123.1,115.88,123.76,116.25Z"/>
                            <path id="Trazado_257-2" data-name="Trazado 257-2" class="cls-24" d="M123.8,117.23l.09.27.2.14a.13.13,0,0,1,0,.11s0,0,0,0l-.15.09,0,.26s0,.06-.05.05,0,0,0,0l-.18-.21h-.19a.13.13,0,0,1-.08-.07v0l0-.22-.15-.25s0-.09,0-.1a0,0,0,0,1,0,0l.21.08.09-.17s0,0,.08,0l0,0Z"/>
                            <path id="Trazado_258-2" data-name="Trazado 258-2" d="M123.28,117.21a.23.23,0,0,0,0,.18l.12.2,0,.18a.26.26,0,0,0,.11.24l0,0h.21l.15.18c.06.07.15.09.18,0a.1.1,0,0,0,0-.09l0-.21.12-.07s0-.13,0-.22a.24.24,0,0,0-.08-.09l-.16-.12-.08-.22a.26.26,0,0,0-.12-.15h0s-.1,0-.12,0l-.07.13-.17-.06a.07.07,0,0,0-.1,0h0Zm.33.22a0,0,0,0,0,.06,0l.08-.14.08.23a.18.18,0,0,0,0,.07l.18.13-.13.08a0,0,0,0,0,0,.06l0,.22-.15-.18a.1.1,0,0,0-.07,0h-.16l0-.19a.1.1,0,0,0,0-.09l-.12-.21Z"/>
                            <path id="Trazado_259-2" data-name="Trazado 259-2" d="M123.73,118.75c.53.29,1,0,1-.58a2,2,0,0,0-.57-1.34s-.08,0-.1,0a.14.14,0,0,0,0,.13,1.51,1.51,0,0,1,.42,1.45c-.18.38-.64.35-1-.07a1.51,1.51,0,0,1-.42-1.45.42.42,0,0,1,.44-.27s.06,0,0-.08a.13.13,0,0,0-.1-.11h0c-.48,0-.72.48-.53,1.16a2,2,0,0,0,.87,1.16Z"/>
                            <path id="Trazado_260-2" data-name="Trazado 260-2" d="M123.76,116.72s.07,0,.07,0a.19.19,0,0,0,0-.07s-.08-.08-.1-.06,0,.07,0,.13A.12.12,0,0,0,123.76,116.72Z"/>
                            <g id="Grupo_796-2" data-name="Grupo 796-2">
                                <path id="Trazado_261-2" data-name="Trazado 261-2" d="M123.73,119.13a2.7,2.7,0,0,1-1.25-2.18c0-.81.58-1.16,1.28-.78a2.7,2.7,0,0,1,1.25,2.18C125,119.17,124.43,119.51,123.73,119.13Zm0-2.8c-.63-.35-1.14,0-1.15.7a2.43,2.43,0,0,0,1.12,2c.63.35,1.14,0,1.15-.7a2.44,2.44,0,0,0-1.12-2Z"/>
                            </g>
                        </g>
                        <g id="Grupo_800" data-name="Grupo 800">
                            <path id="Elipse_16-3" data-name="Elipse 16-3" class="cls-24" d="M121.05,114.75a2.55,2.55,0,0,1,1.19,2.06c0,.78-.55,1.1-1.21.74a2.55,2.55,0,0,1-1.19-2.06C119.85,114.72,120.39,114.38,121.05,114.75Z"/>
                            <path id="Trazado_257-3" data-name="Trazado 257-3" class="cls-24" d="M121.1,115.73l.09.27.2.14a.16.16,0,0,1,0,.11s0,0,0,0l-.15.09,0,.26s0,.06,0,.05l0,0-.18-.21h-.18a.09.09,0,0,1-.08-.07.11.11,0,0,1,0,0l0-.22-.15-.25a.09.09,0,0,1,0-.1,0,0,0,0,1,0,0l.2.08.09-.17s0,0,.08,0l0,0Z"/>
                            <path id="Trazado_258-3" data-name="Trazado 258-3" d="M120.57,115.71a.28.28,0,0,0,0,.18l.12.2,0,.18a.3.3,0,0,0,.11.24l0,0H121l.14.18c.07.07.15.09.18,0a.15.15,0,0,0,0-.09l0-.21.12-.07c.06,0,.06-.13,0-.22a.22.22,0,0,0-.07-.09l-.17-.12-.07-.22a.26.26,0,0,0-.12-.15h0a.09.09,0,0,0-.12,0h0l-.08.13-.16-.06a.09.09,0,0,0-.11,0v0Zm.34.22a0,0,0,0,0,0,0l.08-.14.08.23a.22.22,0,0,0,0,.08l.18.12-.13.08a0,0,0,0,0,0,.06l0,.22-.16-.18a.08.08,0,0,0-.07,0h-.15l0-.19a.19.19,0,0,0,0-.08l-.13-.22Z"/>
                            <path id="Trazado_259-3" data-name="Trazado 259-3" d="M121,117.25c.52.29,1,0,1-.58a2,2,0,0,0-.57-1.34s-.08,0-.1,0a.12.12,0,0,0,0,.13,1.51,1.51,0,0,1,.42,1.45c-.18.38-.64.35-1-.07a1.45,1.45,0,0,1-.42-1.45.42.42,0,0,1,.43-.26s.06,0,.05-.09a.13.13,0,0,0-.1-.1h0c-.48,0-.72.48-.52,1.15a2,2,0,0,0,.86,1.17Z"/>
                            <path id="Trazado_260-3" data-name="Trazado 260-3" d="M121.05,115.22s.07,0,.07,0a.12.12,0,0,0,0-.08s-.07-.07-.1,0,0,.07,0,.12Z"/>
                            <g id="Grupo_796-3" data-name="Grupo 796-3">
                                <path id="Trazado_261-3" data-name="Trazado 261-3" d="M121,117.63a2.71,2.71,0,0,1-1.24-2.18c0-.81.58-1.16,1.27-.77a2.66,2.66,0,0,1,1.25,2.17C122.29,117.67,121.72,118,121,117.63Zm0-2.8c-.63-.35-1.14,0-1.14.7a2.41,2.41,0,0,0,1.12,2c.62.35,1.14,0,1.14-.7a2.44,2.44,0,0,0-1.12-2Z"/>
                            </g>
                        </g>
                        <g id="Grupo_801" data-name="Grupo 801">
                            <path id="Elipse_16-4" data-name="Elipse 16-4" class="cls-24" d="M118.35,113.26a2.55,2.55,0,0,1,1.19,2.06c0,.77-.55,1.1-1.21.74a2.57,2.57,0,0,1-1.18-2.06C117.15,113.22,117.69,112.89,118.35,113.26Z"/>
                            <path id="Trazado_257-4" data-name="Trazado 257-4" class="cls-24" d="M118.4,114.24l.09.26.2.15a.16.16,0,0,1,0,.11l0,0-.15.09,0,.25s0,.07,0,.06l0,0-.18-.21h-.19s-.06,0-.08-.08,0,0,0,0l0-.22-.14-.25s0-.09,0-.1h0l.2.08.09-.17s0,0,.08,0,0,0,0,0Z"/>
                            <path id="Trazado_258-4" data-name="Trazado 258-4" d="M117.87,114.22a.23.23,0,0,0,0,.18l.12.2,0,.18a.28.28,0,0,0,.1.24h0a.07.07,0,0,0,.06,0h.15l.14.17c.07.08.15.1.19,0a.14.14,0,0,0,0-.09l0-.21.12-.07c.06,0,.06-.14,0-.23a.18.18,0,0,0-.07-.08l-.17-.12-.07-.22a.26.26,0,0,0-.12-.15h0a.08.08,0,0,0-.12,0l-.07.13-.17-.06a.07.07,0,0,0-.1,0v0Zm.34.21s0,0,.05,0h0l.08-.14.08.22a.16.16,0,0,0,.06.08l.17.13-.13.07a.06.06,0,0,0,0,.07l0,.22-.16-.18a.07.07,0,0,0-.07,0h-.15l0-.19a.15.15,0,0,0,0-.09l-.12-.21Z"/>
                            <path id="Trazado_259-4" data-name="Trazado 259-4" d="M118.34,115.76c.51.29.94,0,1-.58a2,2,0,0,0-.58-1.34s-.08,0-.1,0a.17.17,0,0,0,0,.13,1.49,1.49,0,0,1,.42,1.44c-.17.39-.63.35-1-.06a1.51,1.51,0,0,1-.42-1.45.44.44,0,0,1,.44-.27s.06,0,0-.08a.12.12,0,0,0-.09-.1h0c-.48,0-.71.48-.52,1.15A2,2,0,0,0,118.34,115.76Z"/>
                            <path id="Trazado_260-4" data-name="Trazado 260-4" d="M118.35,113.73a.05.05,0,0,0,.08,0,.11.11,0,0,0,0-.07s-.07-.08-.1-.06,0,.08,0,.13Z"/>
                            <g id="Grupo_796-4" data-name="Grupo 796-4">
                                <path id="Trazado_261-4" data-name="Trazado 261-4" d="M118.33,116.13a2.68,2.68,0,0,1-1.24-2.17c0-.82.57-1.16,1.27-.78a2.67,2.67,0,0,1,1.24,2.17C119.59,116.17,119,116.51,118.33,116.13Zm0-2.8c-.62-.35-1.13,0-1.14.7a2.43,2.43,0,0,0,1.12,2c.62.35,1.14,0,1.14-.7a2.42,2.42,0,0,0-1.12-2Z"/>
                            </g>
                        </g>
                        <g id="Grupo_798" data-name="Grupo 798">
                            <path id="Elipse_16-5" data-name="Elipse 16-5" class="cls-25" d="M126.47,117.75a2.53,2.53,0,0,1,1.19,2.07c0,.77-.55,1.1-1.22.73a2.54,2.54,0,0,1-1.18-2.06C125.26,117.71,125.81,117.38,126.47,117.75Z"/>
                            <path id="Trazado_257-5" data-name="Trazado 257-5" class="cls-25" d="M126.52,118.73l.09.27.2.15a.12.12,0,0,1,0,.1.05.05,0,0,1,0,0l-.15.08,0,.26s0,.07,0,.05a.05.05,0,0,1,0,0l-.19-.22h-.18a.09.09,0,0,1-.08-.07.09.09,0,0,1,0,0l0-.22-.15-.25a.09.09,0,0,1,0-.1h0l.2.08.1-.17s0,0,.08,0l0,0Z"/>
                            <path id="Trazado_258-5" data-name="Trazado 258-5" d="M126,118.71a.23.23,0,0,0,0,.18l.12.2,0,.18a.25.25,0,0,0,.11.24l0,0h.21l.15.17c.07.08.15.09.19,0a.17.17,0,0,0,0-.1l0-.21.12-.07c.06,0,.06-.13,0-.22a.24.24,0,0,0-.08-.09l-.16-.12-.08-.22a.26.26,0,0,0-.12-.15h0a.08.08,0,0,0-.12,0l-.08.13-.16-.06a.08.08,0,0,0-.11,0v0Zm.33.22a0,0,0,0,0,.06,0l.08-.14.08.23a.16.16,0,0,0,.06.08l.17.13-.13.07a.06.06,0,0,0,0,.07l0,.22-.16-.19-.07,0h-.16l0-.18a.12.12,0,0,0,0-.09l-.12-.22Z"/>
                            <path id="Trazado_259-5" data-name="Trazado 259-5" d="M126.44,120.26c.53.29,1,0,1-.58a2,2,0,0,0-.57-1.35s-.08,0-.1,0a.12.12,0,0,0,0,.13,1.51,1.51,0,0,1,.42,1.45c-.18.39-.64.35-1-.07a1.51,1.51,0,0,1-.42-1.45.42.42,0,0,1,.44-.27s.06,0,0-.08a.13.13,0,0,0-.1-.11h0c-.49,0-.72.48-.53,1.16a2,2,0,0,0,.87,1.17Z"/>
                            <path id="Trazado_260-5" data-name="Trazado 260-5" d="M126.47,118.22s.08,0,.08,0a.19.19,0,0,0,0-.08s-.08-.08-.11-.06,0,.08,0,.13Z"/>
                            <g id="Grupo_796-5" data-name="Grupo 796-5">
                                <path id="Trazado_261-5" data-name="Trazado 261-5" d="M126.44,120.63a2.7,2.7,0,0,1-1.25-2.18c0-.82.59-1.16,1.29-.78a2.71,2.71,0,0,1,1.25,2.19C127.72,120.67,127.14,121,126.44,120.63Zm0-2.81c-.63-.35-1.14,0-1.15.7a2.44,2.44,0,0,0,1.12,2c.63.35,1.15,0,1.16-.7a2.42,2.42,0,0,0-1.13-2Z"/>
                            </g>
                        </g>
                    </g>
                    <path id="Trazado_293" data-name="Trazado 293" class="cls-26" d="M90.78,57.42l37.45,19.87,0,2.81L90.78,60.19Z"/>
                    <path id="Trazado_294" data-name="Trazado 294" class="cls-26" d="M90.78,61.88l37.4,19.94,0,2.8-37.36-20Z"/>
                    <path id="Trazado_295" data-name="Trazado 295" class="cls-26" d="M90.77,66.34l37.35,20,0,2.79-37.32-20Z"/>
                    <path id="Trazado_296" data-name="Trazado 296" class="cls-26" d="M90.77,70.78l11.84,6.37v2.76L90.76,73.53Z"/>
                    <path id="Trazado_297" data-name="Trazado 297" class="cls-27" d="M100.63,83.81,128,98.64l0,2.2L100.62,86Z"/>
                    <path id="Trazado_298" data-name="Trazado 298" class="cls-27" d="M116.77,107.89l11,6.07,0,2.09-11-6.08Z"/>
                    <path id="Trazado_299" data-name="Trazado 299" class="cls-28" d="M110.25,113l17.44,9.68,0,1.8-17.43-9.7Z"/>
                    <path id="Trazado_300" data-name="Trazado 300" class="cls-27" d="M100.62,87.51l8.54,4.65,0,2.18-8.53-4.65Z"/>
                    <path id="Trazado_301" data-name="Trazado 301" class="cls-28" d="M100.6,91.4l16,8.71v1.67L100.6,93.06Z"/>
                </g>
                <g id="Grupo_836" data-name="Grupo 836">
                    <path id="Trazado_302" data-name="Trazado 302" class="cls-19" d="M99.52,117.9a9,9,0,0,0,1.37-1.1c.27-.36.64-2.46.27-2.55s-.63,1.37-.63,1.37-.1-3.84-.55-4.38-1.92,2.19-2,2.64l-.46,2.37S98.06,117.9,99.52,117.9Z"/>
                    <path id="Trazado_303" data-name="Trazado 303" class="cls-13" d="M71.63,128.9s-2.86,2.87-.85,6.33,15.7-5.11,17.15-6.38S99,119,99.52,117.9s-.64-2.19-2.1-2-7.3,6.39-11.86,9.31C85.56,125.2,74.67,127.67,71.63,128.9Z"/>
                    <path id="Trazado_304" data-name="Trazado 304" class="cls-13" d="M73.31,189.58a6.46,6.46,0,0,0,.08,2.44,1.77,1.77,0,0,0,2.43.47,27.3,27.3,0,0,0,2.36-2.2s2.51-1.34,2.74-2-.62-1.33-1.33-1.17-2.75,1.41-3.69,1.41S73.62,188.72,73.31,189.58Z"/>
                    <path id="Trazado_305" data-name="Trazado 305" class="cls-29" d="M70.72,152.81s2.2,36.27,2.47,37.32,3.13,1.65,3.65,0c.34-1.06,1.17-34.62,1.17-34.62Z"/>
                    <path id="Trazado_306" data-name="Trazado 306" class="cls-13" d="M80.58,191.74a.55.55,0,0,0-.2.42,5.11,5.11,0,0,0,.3,2.05,2.13,2.13,0,0,0,2.73.51c1-.56,4.15-2.9,4.79-3.41a1.93,1.93,0,0,0,.63-1,.57.57,0,0,0-.32-.66,2.72,2.72,0,0,0-1.88-.22c-1,.35-2.35,1.47-3.76,1.41A3.47,3.47,0,0,0,80.58,191.74Z"/>
                    <path id="Trazado_307" data-name="Trazado 307" class="cls-30" d="M85.43,153.2c-.16-1.51-2-2-3.63-1.48-3.17-.18-8.08,0-8.25,2.42a10.4,10.4,0,0,0,3.1,8,13.65,13.65,0,0,1,2.37,5c.29,9.62.93,23.19,1.32,24.49.64,2.09,3.8,2,3.94,0C84.92,184.73,85.43,153.2,85.43,153.2Z"/>
                    <path id="Trazado_308" data-name="Trazado 308" class="cls-13" d="M85.44,154.33c-.37,1.87-5.68,2.8-8.78,2.3s-6.44-2-6.33-5.61c0,0,.59-8.6.35-10.13a43,43,0,0,1-.82-7.07,8.31,8.31,0,0,1,1.78-4.92s1.73-2,7.2-.87c0,0,4.44,1,6.5,4.26,0,0,1.41,3.61.94,11.15S85.44,154.33,85.44,154.33Z"/>
                    <path id="Trazado_309" data-name="Trazado 309" class="cls-18" d="M74.57,124s.47,2.75,0,4c-.08.63,2.67,2.75,5.1,2.2,1.41-.31,1.33-1,1.33-1a7.52,7.52,0,0,1-1-3.85C80.14,123.49,76.21,123.65,74.57,124Z"/>
                    <g id="Grupo_835" data-name="Grupo 835">
                        <path id="Trazado_310" data-name="Trazado 310" class="cls-19" d="M83.75,118.51A6.48,6.48,0,1,1,77.27,112a6.48,6.48,0,0,1,6.48,6.48Z"/>
                        <path id="Trazado_311" data-name="Trazado 311" class="cls-19" d="M83.75,118.93s.08,6.49-1.33,7.8-3.59-1.22-7.06-2,2.82-7.64,2.82-7.64Z"/>
                    </g>
                    <path id="Trazado_312" data-name="Trazado 312" class="cls-19" d="M98.13,128.53a11.2,11.2,0,0,1-.41-2.74c.21-.2,1,.89,1,.89a10.94,10.94,0,0,1,.75-2.87c.34-.28,1.71,1.1,1.92,1.84s-.82,3.77-1.23,3.84S98.34,129.76,98.13,128.53Z"/>
                    <path id="Trazado_313" data-name="Trazado 313" class="cls-13" d="M83.42,131.54a3.79,3.79,0,0,0-1.65,4.93c1.24,3.56,10.4,4.92,11.5,3.83s5.89-6.71,7.26-11c0,0-.55-1.64-2.74-1,0,0-5.2,6.57-6,7.25S84.79,131.26,83.42,131.54Z"/>
                    <path id="Trazado_314" data-name="Trazado 314" class="cls-31" d="M71.73,113.57a8.25,8.25,0,0,1,5.5-2.69c3.48-.22,5.16.9,6.5.78a2,2,0,0,1,2.23,1.8,2,2,0,0,1-.1.9c-.45,1.68-1.46,3.36-3.7,3.36a6.5,6.5,0,0,1-2.8-.34,3.59,3.59,0,0,1,2,2.36,34.21,34.21,0,0,1,.22,3.92H81s-.45-2.58-1.34-2.58-.9,2.8-.11,3.26l.78.45s-1.51,2.79-2.32,2.9-3.51-1.9-3.51-1.9-4.49-2.13-4.94-5.6S71.73,113.57,71.73,113.57Z"/>
                </g>
            </g>
        </g>
    </g>
</svg>