<svg xmlns="http://www.w3.org/2000/svg" 
    xmlns:xlink="http://www.w3.org/1999/xlink" viewBox="0 0 160.19 194.99">
    <defs>
        <style>.cls-1{fill:none;}.cls-2{clip-path:url(#clip-path);}.cls-3{fill:#aac5cd;}.cls-4{fill:#a5c0c8;}.cls-5{fill:#a2bbc3;}.cls-6{fill:#9db6be;}.cls-7{fill:#99b2b9;}.cls-8{fill:#94adb4;}.cls-9{fill:#90a8ae;}.cls-10{fill:#8da2a9;}.cls-11{fill:#889da4;}.cls-12{fill:#84999f;}.cls-13{fill:#7f949a;}.cls-14{fill:#7c8f95;}.cls-15{fill:#778a90;}.cls-16{fill:#73858a;}.cls-17{fill:#6e8085;}.cls-18{clip-path:url(#clip-path-2);}.cls-19{clip-path:url(#clip-path-3);}.cls-20{fill:#76acbc;}.cls-21{fill:#73a8b8;}.cls-22{fill:#6fa4b3;}.cls-23{fill:#6d9eae;}.cls-24{fill:#6a9aa9;}.cls-25{fill:#6696a5;}.cls-26{fill:#6392a0;}.cls-27{fill:#618d9b;}.cls-28{fill:#5d8997;}.cls-29{fill:#5b8592;}.cls-30{clip-path:url(#clip-path-4);}.cls-31{fill:#4b707b;}.cls-32{fill:#4d757f;}.cls-33{fill:#527984;}.cls-34{fill:#547d89;}.cls-35{fill:#57808d;}.cls-36{fill:#7dc4df;}.cls-37{fill:#b6d4db;}.cls-38{fill:#728488;}.cls-39{fill:#f9fbfc;}.cls-40{fill:#7eb8ca;}.cls-41{fill:#4d737e;}.cls-42{fill:#d48ef5;}.cls-43{fill:url(#Degradado_sin_nombre_7);}.cls-44{fill:#e0f;}.cls-45{fill:#ffa800;}.cls-46{fill:#d4f5ff;}.cls-47{fill:#ff002b;}.cls-48{fill:#ffdf00;}.cls-49{fill:#0f9;}.cls-50{fill:#05cf7e;}.cls-51{fill:#005dff;}.cls-52{fill:#054fcf;}.cls-53{fill:#e2e2e2;}.cls-54{fill:#001f44;}.cls-55{fill:#09090c;}.cls-56{fill:url(#Degradado_sin_nombre_8);}.cls-57{fill:#0e4492;}.cls-58{fill:#113c7a;}.cls-59{fill:#ffb183;}.cls-60{fill:#05161f;}.cls-61{fill:#0f2330;}.cls-62{fill:#d6eff9;}.cls-63{fill:#67148f;}.cls-64{opacity:0.53;}.cls-65{opacity:0.37;}.cls-66{fill:#8ed2ff;}.cls-67{opacity:0.47;}.cls-68{fill:#7974f5;}</style>
        <clipPath id="clip-path">
            <path class="cls-1" d="M90.13,154.77a2.89,2.89,0,0,0-1.2-2.65l4.39,2.56h0a2.86,2.86,0,0,1,1.2,2.64,9,9,0,0,1-4.09,7.09L86,161.86A9,9,0,0,0,90.13,154.77Z"/>
        </clipPath>
        <clipPath id="clip-path-2">
            <path class="cls-1" d="M83.1,162.15a2.91,2.91,0,0,0,2.93-.29l4.4,2.55a2.93,2.93,0,0,1-2.94.29Z"/>
        </clipPath>
        <clipPath id="clip-path-3">
            <path class="cls-1" d="M88.93,152.12l4.39,2.56a2.87,2.87,0,0,0-2.92.28L86,152.41A2.9,2.9,0,0,1,88.93,152.12Z"/>
        </clipPath>
        <clipPath id="clip-path-4">
            <path class="cls-1" d="M87.5,164.7l-3.51-2-.22-.13-.66-.38a2.86,2.86,0,0,1-1.2-2.64,9,9,0,0,1,4.1-7.1L90.4,155a9,9,0,0,0-4.1,7.1A2.89,2.89,0,0,0,87.5,164.7Z"/>
        </clipPath>
        <linearGradient id="Degradado_sin_nombre_7" x1="-112.3" y1="939.45" x2="-112.78" y2="938.47" gradientTransform="matrix(79.06, 0, 0, -171.74, 8991.01, 161351.1)" gradientUnits="userSpaceOnUse">
            <stop offset="0" stop-color="#d48ef5"/>
            <stop offset="0.8" stop-color="#67148f"/>
            <stop offset="1" stop-color="#d48ef5"/>
        </linearGradient>
        <linearGradient id="Degradado_sin_nombre_8" x1="-104.41" y1="947.24" x2="-103.52" y2="948.41" gradientTransform="matrix(25.93, 0, 0, -62.08, 2952.49, 58519.27)" gradientUnits="userSpaceOnUse">
            <stop offset="0" stop-color="#7f5eff"/>
            <stop offset="0.24" stop-color="#8664ff"/>
            <stop offset="0.6" stop-color="#97f"/>
            <stop offset="0.94" stop-color="#b391ff"/>
        </linearGradient>
    </defs>
    <title>Recurso 13</title>
    <g id="Capa_2" data-name="Capa 2">
        <g id="Capa_1-2" data-name="Capa 1">
            <g id="Grupo_972" data-name="Grupo 972">
                <g id="Grupo_943" data-name="Grupo 943">
                    <g id="Grupo_926" data-name="Grupo 926">
                        <g class="cls-2">
                            <g id="Grupo_925" data-name="Grupo 925">
                                <g id="Grupo_924" data-name="Grupo 924">
                                    <path id="Trazado_419" data-name="Trazado 419" class="cls-3" d="M90.43,164.41,86,161.86a6.51,6.51,0,0,0,1.37-1.06l4.4,2.55a6.7,6.7,0,0,1-1.37,1.06Z"/>
                                    <path id="Trazado_420" data-name="Trazado 420" class="cls-4" d="M91.8,163.35l-4.4-2.55.46-.48,4.39,2.55Z"/>
                                    <path id="Trazado_421" data-name="Trazado 421" class="cls-5" d="M92.25,162.87l-4.39-2.55.33-.41,4.39,2.55c-.11.15-.22.28-.33.41Z"/>
                                    <path id="Trazado_422" data-name="Trazado 422" class="cls-6" d="M92.58,162.46l-4.39-2.55.27-.37,4.4,2.55c-.09.13-.18.25-.28.37Z"/>
                                    <path id="Trazado_423" data-name="Trazado 423" class="cls-7" d="M92.86,162.09l-4.4-2.55.24-.36,4.39,2.56c-.07.12-.15.24-.23.35Z"/>
                                    <path id="Trazado_424" data-name="Trazado 424" class="cls-8" d="M93.09,161.74l-4.39-2.56.21-.34,4.39,2.55A3.24,3.24,0,0,1,93.09,161.74Z"/>
                                    <path id="Trazado_425" data-name="Trazado 425" class="cls-9" d="M93.3,161.39l-4.39-2.55.19-.35L93.49,161a3.9,3.9,0,0,1-.19.35Z"/>
                                    <path id="Trazado_426" data-name="Trazado 426" class="cls-10" d="M93.5,161l-4.39-2.55a3.78,3.78,0,0,0,.17-.35l4.4,2.56Z"/>
                                    <path id="Trazado_427" data-name="Trazado 427" class="cls-11" d="M93.67,160.7l-4.39-2.56a3.92,3.92,0,0,0,.16-.36l4.4,2.56c0,.12-.1.24-.16.36Z"/>
                                    <path id="Trazado_428" data-name="Trazado 428" class="cls-12" d="M93.84,160.34l-4.4-2.56.15-.36L94,160c0,.12-.1.25-.15.37Z"/>
                                    <path id="Trazado_429" data-name="Trazado 429" class="cls-13" d="M94,160l-4.4-2.55c0-.13.1-.26.14-.39l4.4,2.55Z"/>
                                    <path id="Trazado_430" data-name="Trazado 430" class="cls-14" d="M94.13,159.58,89.73,157c0-.14.09-.28.13-.42l4.4,2.56c0,.14-.09.28-.13.42Z"/>
                                    <path id="Trazado_431" data-name="Trazado 431" class="cls-15" d="M94.25,159.16l-4.39-2.55.12-.47,4.39,2.56A3.9,3.9,0,0,1,94.25,159.16Z"/>
                                    <path id="Trazado_432" data-name="Trazado 432" class="cls-16" d="M94.37,158.7,90,156.14c0-.19.07-.38.1-.57l4.39,2.55c0,.19-.06.38-.1.58Z"/>
                                    <path id="Trazado_433" data-name="Trazado 433" class="cls-17" d="M94.47,158.12l-4.39-2.55a7.16,7.16,0,0,0,0-.8,2.92,2.92,0,0,0-1.2-2.65l4.39,2.56a2.86,2.86,0,0,1,1.2,2.64,5.29,5.29,0,0,1,0,.8Z"/>
                                </g>
                            </g>
                        </g>
                    </g>
                    <g id="Grupo_929" data-name="Grupo 929">
                        <g class="cls-18">
                            <g id="Grupo_928" data-name="Grupo 928">
                                <g id="Grupo_927" data-name="Grupo 927">
                                    <path id="Trazado_435" data-name="Trazado 435" class="cls-12" d="M87.5,164.7l-4.39-2.55h0l4.39,2.55Z"/>
                                    <path id="Trazado_436" data-name="Trazado 436" class="cls-11" d="M87.52,164.71l-4.39-2.55.2.1,4.39,2.55A.93.93,0,0,1,87.52,164.71Z"/>
                                    <path id="Trazado_437" data-name="Trazado 437" class="cls-10" d="M87.72,164.81l-4.39-2.55.22.08,4.4,2.55-.22-.08Z"/>
                                    <path id="Trazado_438" data-name="Trazado 438" class="cls-9" d="M87.94,164.89l-4.4-2.55.23,0,4.4,2.55-.23-.05Z"/>
                                    <path id="Trazado_439" data-name="Trazado 439" class="cls-8" d="M88.17,164.94l-4.39-2.55a1,1,0,0,0,.25,0l4.4,2.55a1,1,0,0,1-.25,0Z"/>
                                    <path id="Trazado_440" data-name="Trazado 440" class="cls-7" d="M88.42,165,84,162.42h.27l4.4,2.55Z"/>
                                    <path id="Trazado_441" data-name="Trazado 441" class="cls-6" d="M88.69,165l-4.39-2.55.31,0L89,164.94A1.55,1.55,0,0,1,88.69,165Z"/>
                                    <path id="Trazado_442" data-name="Trazado 442" class="cls-5" d="M89,164.94l-4.39-2.55a2.61,2.61,0,0,0,.36-.08l4.39,2.56a2.29,2.29,0,0,1-.36.07Z"/>
                                    <path id="Trazado_443" data-name="Trazado 443" class="cls-4" d="M89.36,164.87,85,162.31a3.86,3.86,0,0,0,.48-.16l4.4,2.55A4,4,0,0,1,89.36,164.87Z"/>
                                    <path id="Trazado_444" data-name="Trazado 444" class="cls-3" d="M89.85,164.7l-4.4-2.55a5.23,5.23,0,0,0,.58-.29l4.4,2.55a6.27,6.27,0,0,1-.58.29Z"/>
                                </g>
                            </g>
                        </g>
                    </g>
                    <g id="Grupo_932" data-name="Grupo 932">
                        <g class="cls-19">
                            <g id="Grupo_931" data-name="Grupo 931">
                                <g id="Grupo_930" data-name="Grupo 930">
                                    <path id="Trazado_446" data-name="Trazado 446" class="cls-20" d="M90.4,155,86,152.41a5.07,5.07,0,0,1,.57-.29L91,154.68C90.78,154.76,90.59,154.86,90.4,155Z"/>
                                    <path id="Trazado_447" data-name="Trazado 447" class="cls-21" d="M91,154.68l-4.4-2.56a4,4,0,0,1,.49-.16l4.39,2.55A3.39,3.39,0,0,0,91,154.68Z"/>
                                    <path id="Trazado_448" data-name="Trazado 448" class="cls-22" d="M91.46,154.51,87.07,152a1.9,1.9,0,0,1,.36-.08l4.39,2.55-.36.08Z"/>
                                    <path id="Trazado_449" data-name="Trazado 449" class="cls-23" d="M91.82,154.43l-4.39-2.55.3,0,4.4,2.55-.31,0Z"/>
                                    <path id="Trazado_450" data-name="Trazado 450" class="cls-24" d="M92.13,154.4l-4.4-2.55H88l4.4,2.55Z"/>
                                    <path id="Trazado_451" data-name="Trazado 451" class="cls-25" d="M92.4,154.4,88,151.85l.24,0,4.4,2.55Z"/>
                                    <path id="Trazado_452" data-name="Trazado 452" class="cls-26" d="M92.64,154.43l-4.39-2.55.23.05,4.4,2.55Z"/>
                                    <path id="Trazado_453" data-name="Trazado 453" class="cls-27" d="M92.88,154.49l-4.4-2.55a.81.81,0,0,1,.22.07l4.39,2.55Z"/>
                                    <path id="Trazado_454" data-name="Trazado 454" class="cls-28" d="M93.09,154.56,88.7,152a1.24,1.24,0,0,1,.2.1l4.4,2.55-.21-.1Z"/>
                                    <path id="Trazado_455" data-name="Trazado 455" class="cls-29" d="M93.3,154.66l-4.39-2.55h0l4.39,2.56,0,0Z"/>
                                </g>
                            </g>
                        </g>
                    </g>
                    <g id="Grupo_935" data-name="Grupo 935">
                        <g class="cls-30">
                            <g id="Grupo_934" data-name="Grupo 934">
                                <g id="Grupo_933" data-name="Grupo 933">
                                    <path id="Trazado_457" data-name="Trazado 457" class="cls-31" d="M87.5,164.7l-4.39-2.55a2.86,2.86,0,0,1-1.2-2.64,5.29,5.29,0,0,1,0-.8l4.39,2.55a7.34,7.34,0,0,0,0,.81A2.89,2.89,0,0,0,87.5,164.7Z"/>
                                    <path id="Trazado_458" data-name="Trazado 458" class="cls-32" d="M86.35,161.26,82,158.71c0-.19.06-.38.1-.58l4.39,2.56c0,.19-.07.38-.1.57Z"/>
                                    <path id="Trazado_459" data-name="Trazado 459" class="cls-33" d="M86.45,160.69l-4.39-2.56c0-.15.07-.31.11-.47l4.4,2.55a4.21,4.21,0,0,0-.12.48Z"/>
                                    <path id="Trazado_460" data-name="Trazado 460" class="cls-34" d="M86.56,160.21l-4.39-2.55c0-.14.08-.28.13-.42l4.39,2.56Z"/>
                                    <path id="Trazado_461" data-name="Trazado 461" class="cls-35" d="M86.69,159.8l-4.39-2.56c0-.13.09-.26.14-.39l4.39,2.56-.14.39Z"/>
                                    <path id="Trazado_462" data-name="Trazado 462" class="cls-29" d="M86.83,159.41l-4.39-2.56.15-.36L87,159Z"/>
                                    <path id="Trazado_463" data-name="Trazado 463" class="cls-28" d="M87,159l-4.39-2.55c0-.13.11-.24.16-.36l4.4,2.55C87.09,158.8,87,158.92,87,159Z"/>
                                    <path id="Trazado_464" data-name="Trazado 464" class="cls-27" d="M87.15,158.68l-4.4-2.55.18-.35,4.39,2.55Z"/>
                                    <path id="Trazado_465" data-name="Trazado 465" class="cls-26" d="M87.32,158.33l-4.39-2.56.19-.34,4.4,2.55-.2.35Z"/>
                                    <path id="Trazado_466" data-name="Trazado 466" class="cls-25" d="M87.52,158l-4.4-2.55a4.05,4.05,0,0,1,.21-.35l4.39,2.55-.21.35Z"/>
                                    <path id="Trazado_467" data-name="Trazado 467" class="cls-24" d="M87.73,157.64l-4.4-2.55.24-.36L88,157.29c-.08.11-.16.23-.23.35Z"/>
                                    <path id="Trazado_468" data-name="Trazado 468" class="cls-23" d="M88,157.29l-4.39-2.56c.09-.12.18-.25.28-.37l4.39,2.56C88.14,157,88.05,157.16,88,157.29Z"/>
                                    <path id="Trazado_469" data-name="Trazado 469" class="cls-22" d="M88.24,156.92l-4.39-2.56a4.12,4.12,0,0,1,.33-.4l4.39,2.55Z"/>
                                    <path id="Trazado_470" data-name="Trazado 470" class="cls-21" d="M88.57,156.51,84.18,154a5.11,5.11,0,0,1,.45-.48L89,156Z"/>
                                    <path id="Trazado_471" data-name="Trazado 471" class="cls-20" d="M89,156l-4.39-2.55A6.54,6.54,0,0,1,86,152.41L90.4,155A7.18,7.18,0,0,0,89,156Z"/>
                                </g>
                            </g>
                        </g>
                    </g>
                    <g id="Grupo_936" data-name="Grupo 936">
                        <path id="Trazado_473" data-name="Trazado 473" class="cls-36" d="M90.4,155c2.27-1.31,4.11-.26,4.12,2.36a9,9,0,0,1-4.09,7.09c-2.28,1.32-4.13.26-4.13-2.34A9,9,0,0,1,90.4,155Z"/>
                    </g>
                    <g id="Grupo_937" data-name="Grupo 937">
                        <path id="Trazado_474" data-name="Trazado 474" class="cls-37" d="M56.64,169.07l-4.39-2.56,67.66-39.06L124.3,130Z"/>
                    </g>
                    <g id="Grupo_938" data-name="Grupo 938">
                        <path id="Trazado_475" data-name="Trazado 475" class="cls-38" d="M124.3,130l-4.39-2.55-.29-101.26L124,28.74Z"/>
                    </g>
                    <g id="Grupo_939" data-name="Grupo 939">
                        <path id="Trazado_476" data-name="Trazado 476" class="cls-39" d="M124,28.74,124.3,130,56.64,169.07,56.36,67.8Z"/>
                    </g>
                    <g id="Grupo_940" data-name="Grupo 940">
                        <path id="Trazado_477" data-name="Trazado 477" class="cls-40" d="M56.36,67.8,52,65.25l67.66-39.06,4.4,2.55Z"/>
                    </g>
                    <g id="Grupo_941" data-name="Grupo 941">
                        <path id="Trazado_478" data-name="Trazado 478" class="cls-41" d="M56.64,169.07l-4.39-2.56L52,65.25l4.4,2.55Z"/>
                    </g>
                    <path id="Trazado_479" data-name="Trazado 479" class="cls-42" d="M51.38,188.82,51,67.55,46.64,65,47,186.27a2.47,2.47,0,0,0,1,2.27l4.39,2.56A2.49,2.49,0,0,1,51.38,188.82Z"/>
                    <g id="Grupo_942" data-name="Grupo 942">
                        <path id="Trazado_480" data-name="Trazado 480" class="cls-43" d="M126.21,20.07c2-1.12,3.54-.21,3.54,2l.35,121.28a7.78,7.78,0,0,1-3.53,6.11L54.94,190.85c-2,1.13-3.55.22-3.56-2L51,67.55a7.75,7.75,0,0,1,3.53-6.11ZM124.31,130,124,28.74,56.36,67.8l.29,101.27ZM90.43,164.41a9,9,0,0,0,4.09-7.09c0-2.62-1.85-3.67-4.11-2.36a9,9,0,0,0-4.1,7.11c0,2.6,1.85,3.66,4.13,2.34Z"/>
                    </g>
                    <path id="Trazado_481" data-name="Trazado 481" class="cls-42" d="M124.33,17.28h0a.76.76,0,0,0-.18-.09l-.19-.07-.12,0h-.08a.76.76,0,0,0-.21,0H123l-.31.06-.13.05-.12,0-.17.06c-.16.07-.33.15-.49.24L50.17,58.88a6.08,6.08,0,0,0-.66.47c-.07,0-.14.12-.21.18L49,59.8l-.13.14a1.42,1.42,0,0,0-.12.13l-.14.15c-.1.11-.2.22-.29.34a.57.57,0,0,0-.08.13l-.06.07-.09.12-.21.31c-.06.11-.12.2-.18.3s0,0,0,0h0c-.05.09-.1.17-.14.26s-.1.2-.16.3-.08.18-.12.28h0c-.05.11-.09.21-.13.32S47,62.93,47,63a1.09,1.09,0,0,0-.05.17l0,.08a.61.61,0,0,1,0,.11c0,.14-.07.28-.1.41a2,2,0,0,0,0,.24l0,.14s0,.08,0,.12a5.21,5.21,0,0,0-.05.69l4.4,2.55a5.52,5.52,0,0,1,.06-.81l0-.13a5.49,5.49,0,0,1,.18-.78.14.14,0,0,1,0-.06,8.39,8.39,0,0,1,.3-.84h0c.13-.29.27-.56.42-.83a0,0,0,0,1,0,0,7.8,7.8,0,0,1,.5-.77s0,0,.05,0a7.91,7.91,0,0,1,.52-.63l.11-.12.46-.43.2-.17a4.88,4.88,0,0,1,.66-.46l71.64-41.36a3.45,3.45,0,0,1,.65-.3l.13-.05a2.71,2.71,0,0,1,.58-.12h0a2.18,2.18,0,0,1,.57,0h0a1.49,1.49,0,0,1,.51.19Z"/>
                </g>
                <g id="Grupo_944" data-name="Grupo 944">
                    <path id="Trazado_482" data-name="Trazado 482" class="cls-44" d="M115.8,39.6l4.66,23-13,7.34-5.94-1.8-4-1.3-3-14.93Z"/>
                    <path id="Trazado_483" data-name="Trazado 483" class="cls-45" d="M97.57,66.82l7.55-3.31,2.37,6.42Z"/>
                    <path id="Trazado_484" data-name="Trazado 484" class="cls-46" d="M113,46l.28,1.37L100,55.16l-.32-1.52Z"/>
                    <path id="Trazado_485" data-name="Trazado 485" class="cls-46" d="M114,50.17l.29,1.37L101,59.37l-.31-1.53Z"/>
                    <path id="Trazado_486" data-name="Trazado 486" class="cls-46" d="M115.29,54.13l.28,1.37-13.25,7.83L102,61.8Z"/>
                </g>
                <g id="Grupo_945" data-name="Grupo 945">
                    <path id="Trazado_487" data-name="Trazado 487" class="cls-47" d="M115.8,70.24l4.66,23-13,7.34-5.94-1.8-4-1.3-3-14.94Z"/>
                    <path id="Trazado_488" data-name="Trazado 488" class="cls-45" d="M97.57,97.47l7.55-3.31,2.37,6.41Z"/>
                    <path id="Trazado_489" data-name="Trazado 489" class="cls-46" d="M113,76.61l.28,1.38L100,85.81l-.32-1.53Z"/>
                    <path id="Trazado_490" data-name="Trazado 490" class="cls-46" d="M114,80.81l.29,1.37L101,90l-.31-1.53Z"/>
                    <path id="Trazado_491" data-name="Trazado 491" class="cls-46" d="M115.29,84.77l.28,1.37L102.32,94,102,92.44Z"/>
                </g>
                <g id="Grupo_946" data-name="Grupo 946">
                    <path id="Trazado_492" data-name="Trazado 492" class="cls-48" d="M115.8,100.89l4.66,23-13,7.34-5.94-1.8-4-1.3-3-14.93Z"/>
                    <path id="Trazado_493" data-name="Trazado 493" class="cls-45" d="M97.57,128.11l7.55-3.31,2.37,6.42Z"/>
                    <path id="Trazado_494" data-name="Trazado 494" class="cls-46" d="M113,107.25l.28,1.38L100,116.45l-.32-1.52Z"/>
                    <path id="Trazado_495" data-name="Trazado 495" class="cls-46" d="M114,111.45l.29,1.38L101,120.65l-.31-1.53Z"/>
                    <path id="Trazado_496" data-name="Trazado 496" class="cls-46" d="M115.29,115.42l.28,1.37-13.25,7.82-.32-1.53Z"/>
                </g>
                <g id="Grupo_947" data-name="Grupo 947">
                    <path id="Trazado_497" data-name="Trazado 497" class="cls-49" d="M85,86.84l4.66,23-13,7.34-5.94-1.8-4-1.3-3-14.93Z"/>
                    <path id="Trazado_498" data-name="Trazado 498" class="cls-50" d="M66.78,114.06l7.55-3.31,2.37,6.42Z"/>
                    <path id="Trazado_499" data-name="Trazado 499" class="cls-46" d="M82.19,93.21l.28,1.37-13.25,7.83-.31-1.53Z"/>
                    <path id="Trazado_500" data-name="Trazado 500" class="cls-46" d="M83.2,97.41l.28,1.37-13.25,7.83-.31-1.53Z"/>
                    <path id="Trazado_501" data-name="Trazado 501" class="cls-46" d="M84.5,101.37l.28,1.37-13.25,7.83L71.21,109Z"/>
                </g>
                <g id="Grupo_948" data-name="Grupo 948">
                    <path id="Trazado_502" data-name="Trazado 502" class="cls-51" d="M85,117.48l4.66,23-13,7.34L70.75,146l-4-1.3-3-14.93Z"/>
                    <path id="Trazado_503" data-name="Trazado 503" class="cls-52" d="M66.78,144.71l7.55-3.31,2.37,6.41Z"/>
                    <path id="Trazado_504" data-name="Trazado 504" class="cls-46" d="M82.19,123.85l.28,1.38-13.25,7.82-.31-1.53Z"/>
                    <path id="Trazado_505" data-name="Trazado 505" class="cls-46" d="M83.2,128.05l.28,1.37-13.25,7.83-.31-1.53Z"/>
                    <path id="Trazado_506" data-name="Trazado 506" class="cls-46" d="M84.5,132l.28,1.37-13.25,7.83-.32-1.53Z"/>
                </g>
                <g id="Grupo_961" data-name="Grupo 961">
                    <g id="Grupo_949" data-name="Grupo 949">
                        <path id="Trazado_507" data-name="Trazado 507" class="cls-48" d="M82,57.87l4.66,23-13,7.34-5.94-1.8-4-1.3L60.76,70.17Z"/>
                        <path id="Trazado_508" data-name="Trazado 508" class="cls-45" d="M63.81,85.09l7.55-3.31,2.37,6.42Z"/>
                        <path id="Trazado_509" data-name="Trazado 509" class="cls-46" d="M79.23,64.24l.28,1.37L66.26,73.44l-.32-1.53Z"/>
                        <path id="Trazado_510" data-name="Trazado 510" class="cls-46" d="M80.23,68.44l.29,1.37L67.26,77.64,67,76.11Z"/>
                        <path id="Trazado_511" data-name="Trazado 511" class="cls-46" d="M81.53,72.4l.28,1.37L68.56,81.6l-.32-1.53Z"/>
                    </g>
                    <g id="Grupo_959" data-name="Grupo 959">
                        <g id="Grupo_951" data-name="Grupo 951">
                            <g id="Grupo_950" data-name="Grupo 950">
                                <path id="Trazado_512" data-name="Trazado 512" class="cls-53" d="M105.57,81.07q13.82,50.06,27.64,100.11c.74,2.69-3.43,3.83-4.17,1.14L101.41,82.22c-.75-2.68,3.42-3.83,4.16-1.14Z"/>
                            </g>
                        </g>
                        <g id="Grupo_953" data-name="Grupo 953">
                            <g id="Grupo_952" data-name="Grupo 952">
                                <path id="Trazado_513" data-name="Trazado 513" class="cls-53" d="M83.75,92.21q13.81,50.05,27.64,100.1c.74,2.7-3.43,3.84-4.16,1.15q-13.83-50-27.64-100.1c-.74-2.69,3.42-3.83,4.16-1.15Z"/>
                            </g>
                        </g>
                        <g id="Grupo_954" data-name="Grupo 954">
                            <path id="Trazado_514" data-name="Trazado 514" class="cls-53" d="M108.45,97.55l-21.3,13c-2.36,1.43-4.49-2.25-2.15-3.68q10.64-6.51,21.3-13C108.65,92.44,110.78,96.12,108.45,97.55Z"/>
                        </g>
                        <g id="Grupo_955" data-name="Grupo 955">
                            <path id="Trazado_515" data-name="Trazado 515" class="cls-53" d="M112.48,114.4l-20,12.79c-2.32,1.49-4.45-2.2-2.15-3.67l19.94-12.79c2.32-1.49,4.46,2.2,2.15,3.67Z"/>
                        </g>
                        <g id="Grupo_956" data-name="Grupo 956">
                            <path id="Trazado_516" data-name="Trazado 516" class="cls-53" d="M116.7,133.24,96.92,144.92c-2.37,1.4-4.51-2.28-2.15-3.68l19.78-11.67C116.92,128.17,119.06,131.85,116.7,133.24Z"/>
                        </g>
                        <g id="Grupo_957" data-name="Grupo 957">
                            <path id="Trazado_517" data-name="Trazado 517" class="cls-53" d="M121.58,147.47,101.68,160c-2.34,1.47-4.47-2.22-2.15-3.68l19.9-12.5C121.76,142.33,123.89,146,121.58,147.47Z"/>
                        </g>
                        <g id="Grupo_958" data-name="Grupo 958">
                            <path id="Trazado_518" data-name="Trazado 518" class="cls-53" d="M125.9,164.88l-19.64,11.8c-2.36,1.42-4.5-2.26-2.15-3.68l19.64-11.8c2.36-1.41,4.5,2.27,2.15,3.68Z"/>
                        </g>
                    </g>
                    <g id="Grupo_960" data-name="Grupo 960">
                        <path id="Trazado_519" data-name="Trazado 519" class="cls-54" d="M81.5,99l-.41.86,1.39-1,.4-.86Z"/>
                    </g>
                    <path id="Trazado_520" data-name="Trazado 520" class="cls-55" d="M113.78,158.33s-2.37.61-1.65,1.94,3.72,3.16,4.18,4,3,3.75,3.74,3.38,2.65-.12,2.06-3.68S117,157.85,113.78,158.33Z"/>
                    <path id="Trazado_521" data-name="Trazado 521" class="cls-55" d="M110.89,171.72s1.53,3.31-1.32,4.42-2.15-.81-8.35,1.45-7.1-1-7.19-1.7c-.2-1.72,4.18-2.5,5.53-3a31.25,31.25,0,0,0,4-2.17l7.48,0Z"/>
                    <path id="Unión_5" data-name="Unión 5" class="cls-56" d="M102.05,170.85s-2.17-23.23-2.87-28.06-2.6-18.32-1.49-26.33c.88-6.24,7.37-3.9,10.18-2.56l8.94-3.1s2.16,20.76,2.4,23.1,4.73,20.49,4,28.7c0,0-4.07,5-8.53.87,0,0-3.18-20-5-26.8,0,1.59.07,3.2.11,4.82,0,0,2,26.45,1.8,30.31a20.11,20.11,0,0,1-5.69,1.08C104.15,172.88,102.55,172.41,102.05,170.85Z"/>
                    <path id="Trazado_524" data-name="Trazado 524" class="cls-57" d="M104.16,69.49s4-1.44,5.84,5.37c1.46,5.5,2.44,14.39,1.74,18.15a117.46,117.46,0,0,1-3.56,11.78s-5,.68-5-2.44l2.6-12.11S99.45,70.13,104.16,69.49Z"/>
                    <path id="Trazado_525" data-name="Trazado 525" class="cls-58" d="M104.5,69.34s4.89.6,5,8.51.12,13.06,1.18,15.65,5.19,11.1,6.39,12.7c0,0,2.76,5.57-9.31,13.76,0,0-10.55,5-11.31-2.85S92.31,97.38,91,94.71s-4.89-7.62.71-13.82S100,70.64,104.5,69.34Z"/>
                    <path id="Trazado_526" data-name="Trazado 526" class="cls-59" d="M98.34,67.6s.87,3.84,3,5.71c1.9,1.69-6.12,6.69-7,4.82a8.87,8.87,0,0,0-3-7C89.48,69.55,98.34,67.6,98.34,67.6Z"/>
                    <path id="Trazado_527" data-name="Trazado 527" class="cls-59" d="M85.69,61.05a16.83,16.83,0,0,0,1.14,6.62c1.39,3,1.15,3.8,1.84,5.11a3.47,3.47,0,0,0,1.42,1.78c1.29.58,3.39.23,5.72-1.7,2.82-2.34,4.65-8,1.84-11.52S89.41,56.05,85.69,61.05Z"/>
                    <path id="Trazado_528" data-name="Trazado 528" class="cls-60" d="M84.25,60a4.39,4.39,0,0,0,3.87,3.42c2,.23,2.82,3,2.92,3.57s.42,3,.73,3.24c.61.43,1.3-1.82,2-1.92,1.72-.26,1.63,1.46.72,3.56s3.38,1.46,4.78-.6c.76-1.09,1-1.66,1.35-4.76.57-4.52-1-9.15-6.37-10S87.46,60.13,84.25,60Z"/>
                    <path id="Trazado_529" data-name="Trazado 529" class="cls-61" d="M99.25,71.28c.75-1.09,1-1.66,1.35-4.76.56-4.52-1-9.15-6.37-10s-6.77,3.61-10,3.49a4.31,4.31,0,0,0,.43,1.15c1.52-.28,5.72-.9,7.34.43,2,1.64,3.12.48,3.94,3.09s2.59,5.57-1.1,8.45C96.82,73.7,98.71,72.08,99.25,71.28Z"/>
                    <path id="Trazado_530" data-name="Trazado 530" class="cls-62" d="M94.36,76.81l-2,3.39s9.72-.61,10.77-5.85a2.67,2.67,0,0,0-2.7-2.47S101.39,75.51,94.36,76.81Z"/>
                    <path id="Trazado_531" data-name="Trazado 531" class="cls-59" d="M81.06,91.82s.17-2.1-.34-2.59a13.89,13.89,0,0,1-1.83-3.11c-.13-.44-1-1.12-1.13-.74a17.38,17.38,0,0,0,.3,3.67c.1.51-2.23-.33-2.73-1.16s-1.19-1.75-1.41-1.47a4.52,4.52,0,0,0,.53,4.88,11.38,11.38,0,0,0,4.17,3.2Z"/>
                    <path id="Trazado_532" data-name="Trazado 532" class="cls-57" d="M93.12,82.16c-1.28-.23-3.51.43-4,3.38s1.43,14.94,1.43,14.94l-9.1-9.43s-3.64,1.6-3.3,4.16c0,0,14,16.47,15.84,16.28C98.91,111,99.88,83.36,93.12,82.16Z"/>
                </g>
                <g id="Grupo_966" data-name="Grupo 966">
                    <g id="Grupo_962" data-name="Grupo 962">
                        <path id="Trazado_533" data-name="Trazado 533" class="cls-63" d="M38.63,9.07v2.59a2,2,0,0,0,2,2,1.91,1.91,0,0,0,1-.27L53.83,6.29a2,2,0,0,0,1-1.72V2a2,2,0,0,0-2-2,1.91,1.91,0,0,0-1,.27L39.62,7.35A2,2,0,0,0,38.63,9.07Z"/>
                    </g>
                    <g id="Grupo_963" data-name="Grupo 963">
                        <path id="Trazado_534" data-name="Trazado 534" class="cls-63" d="M0,44.24v2.6a2,2,0,0,0,2,2,2,2,0,0,0,1-.26L53.86,19.18a2,2,0,0,0,1-1.73V14.86a2,2,0,0,0-2-2,1.9,1.9,0,0,0-1,.27L1,42.52A2,2,0,0,0,0,44.24Z"/>
                    </g>
                    <g id="Grupo_964" data-name="Grupo 964" class="cls-64">
                        <path id="Trazado_535" data-name="Trazado 535" class="cls-42" d="M21.05,57.91V60.5a2,2,0,0,0,2,2,2,2,0,0,0,1-.26L53.93,45a2,2,0,0,0,1-1.72V40.64a2,2,0,0,0-3-1.72L22,56.19A2,2,0,0,0,21.05,57.91Z"/>
                    </g>
                    <g id="Grupo_965" data-name="Grupo 965">
                        <path id="Trazado_536" data-name="Trazado 536" class="cls-63" d="M7.93,52.58v2.59a2,2,0,0,0,2,2,1.91,1.91,0,0,0,1-.27l43-24.82a2,2,0,0,0,1-1.72v-2.6a2,2,0,0,0-2-2,2.12,2.12,0,0,0-1,.27l-43,24.82A2,2,0,0,0,7.93,52.58Z"/>
                    </g>
                </g>
                <g id="Grupo_971" data-name="Grupo 971">
                    <g id="Grupo_968" data-name="Grupo 968" class="cls-65">
                        <g id="Grupo_967" data-name="Grupo 967">
                            <path id="Trazado_537" data-name="Trazado 537" class="cls-66" d="M154.24,66.3a1.41,1.41,0,0,1,.65,1.13l0,11.39c0,.42-.3.59-.66.38l-14.42-8.33a1.44,1.44,0,0,1-.65-1.13l0-11.39c0-.42.3-.58.66-.38Z"/>
                        </g>
                    </g>
                    <g id="Grupo_970" data-name="Grupo 970" class="cls-67">
                        <g id="Grupo_969" data-name="Grupo 969">
                            <path id="Trazado_538" data-name="Trazado 538" class="cls-68" d="M159.54,86.57a1.44,1.44,0,0,1,.65,1.13l0,11.39c0,.41-.3.58-.66.37l-14.42-8.32a1.43,1.43,0,0,1-.65-1.14l0-11.39c0-.41.3-.58.66-.37Z"/>
                        </g>
                    </g>
                </g>
            </g>
        </g>
    </g>
</svg>