<svg xmlns="http://www.w3.org/2000/svg" 
    xmlns:xlink="http://www.w3.org/1999/xlink" viewBox="0 0 176.16 195">
    <defs>
        <style>.cls-1{fill:#67148f;}.cls-2{opacity:0.53;}.cls-3{fill:#9550b6;}.cls-4{opacity:0.37;}.cls-5{opacity:0.47;}.cls-6{fill:#d48ef5;}.cls-7{fill:#f5b697;}.cls-8{fill:#113c7a;}.cls-9{fill:#5167b0;}.cls-10{fill:url(#Degradado_sin_nombre_8);}.cls-11{fill:url(#Degradado_sin_nombre_8-2);}.cls-12{fill:#ff7c40;}.cls-13{fill:#ff9d6f;}.cls-14{fill:url(#Degradado_sin_nombre_8-3);}.cls-15{fill:#efefef;}.cls-16{fill:#666;}.cls-17,.cls-22{fill:#fff;}.cls-17{stroke:#ccc;stroke-miterlimit:10;}.cls-18{fill:#a3a3a3;}.cls-19{fill:#191927;}.cls-20{fill:#a6a6a6;}.cls-21{fill:#a4c639;}.cls-23{fill:url(#Degradado_sin_nombre_6);}.cls-24{fill:url(#Degradado_sin_nombre_6-2);}.cls-25{fill:url(#Degradado_sin_nombre_6-3);}.cls-26{fill:url(#Degradado_sin_nombre_6-4);}.cls-27{fill:url(#Degradado_sin_nombre_6-5);}.cls-28{opacity:0.49;}.cls-29{fill:#f3f333;}.cls-30{fill:none;}</style>
        <linearGradient id="Degradado_sin_nombre_8" x1="90.46" y1="945.59" x2="90.8" y2="948.35" gradientTransform="matrix(26.64, 0, 0, -17.7, -2314.64, 16866.45)" gradientUnits="userSpaceOnUse">
            <stop offset="0" stop-color="#7f5eff"/>
            <stop offset="0.24" stop-color="#8664ff"/>
            <stop offset="0.6" stop-color="#97f"/>
            <stop offset="0.94" stop-color="#b391ff"/>
        </linearGradient>
        <linearGradient id="Degradado_sin_nombre_8-2" x1="94.7" y1="948.81" x2="95.59" y2="949.98" gradientTransform="matrix(20.87, 0, 0, -31.64, -1790.16, 29931.71)" xlink:href="#Degradado_sin_nombre_8"/>
        <linearGradient id="Degradado_sin_nombre_8-3" x1="89.91" y1="948.01" x2="89.93" y2="946.08" gradientTransform="matrix(23.15, 0, 0, -15.71, -2002.83, 15003.48)" xlink:href="#Degradado_sin_nombre_8"/>
        <linearGradient id="Degradado_sin_nombre_6" x1="85.73" y1="947.59" x2="86.6" y2="946.2" gradientTransform="matrix(12, 0, 0, -15.29, -886.03, 14598.09)" gradientUnits="userSpaceOnUse">
            <stop offset="0" stop-color="#9a79ff"/>
            <stop offset="0.34" stop-color="#ba75e7"/>
            <stop offset="0.94" stop-color="#fb6fb9"/>
        </linearGradient>
        <linearGradient id="Degradado_sin_nombre_6-2" x1="85.73" y1="947.59" x2="86.6" y2="946.2" gradientTransform="matrix(11.99, 0, 0, -15.29, -863.29, 14527.72)" xlink:href="#Degradado_sin_nombre_6"/>
        <linearGradient id="Degradado_sin_nombre_6-3" x1="85.73" y1="947.59" x2="86.6" y2="946.2" gradientTransform="matrix(11.99, 0, 0, -15.28, -990.47, 14520.84)" xlink:href="#Degradado_sin_nombre_6"/>
        <linearGradient id="Degradado_sin_nombre_6-4" x1="84.58" y1="949.43" x2="85.45" y2="948.04" gradientTransform="matrix(11.99, 0, 0, -15.28, -1027.46, 14586.03)" xlink:href="#Degradado_sin_nombre_6"/>
        <linearGradient id="Degradado_sin_nombre_6-5" x1="82.82" y1="952.26" x2="83.69" y2="950.87" gradientTransform="matrix(11.99, 0, 0, -15.28, -989.46, 14478.84)" xlink:href="#Degradado_sin_nombre_6"/>
    </defs>
    <title>Recurso 12</title>
    <g id="Capa_2" data-name="Capa 2">
        <g id="Capa_1-2" data-name="Capa 1">
            <g id="Grupo_923" data-name="Grupo 923">
                <g id="Grupo_849" data-name="Grupo 849">
                    <g id="Grupo_845" data-name="Grupo 845">
                        <path id="Trazado_324" data-name="Trazado 324" class="cls-1" d="M101.63,33.84V35.3a1.12,1.12,0,0,0,1.12,1.12,1.09,1.09,0,0,0,.56-.15l6.92-4a1.11,1.11,0,0,0,.55-1V29.82a1.12,1.12,0,0,0-1.12-1.12,1.09,1.09,0,0,0-.56.15l-6.91,4A1.12,1.12,0,0,0,101.63,33.84Z"/>
                    </g>
                    <g id="Grupo_846" data-name="Grupo 846">
                        <path id="Trazado_325" data-name="Trazado 325" class="cls-1" d="M79.76,53.74v1.47a1.13,1.13,0,0,0,1.69,1l28.8-16.63a1.13,1.13,0,0,0,.56-1V37.11A1.13,1.13,0,0,0,109.68,36a1.09,1.09,0,0,0-.56.15L80.32,52.77A1.11,1.11,0,0,0,79.76,53.74Z"/>
                    </g>
                    <g id="Grupo_847" data-name="Grupo 847" class="cls-2">
                        <path id="Trazado_326" data-name="Trazado 326" class="cls-3" d="M91.68,61.48V63a1.13,1.13,0,0,0,1.13,1.12,1.06,1.06,0,0,0,.55-.15l16.93-9.77a1.14,1.14,0,0,0,.56-1V51.7a1.12,1.12,0,0,0-1.12-1.12,1.2,1.2,0,0,0-.56.15L92.24,60.51A1.11,1.11,0,0,0,91.68,61.48Z"/>
                    </g>
                    <g id="Grupo_848" data-name="Grupo 848">
                        <path id="Trazado_327" data-name="Trazado 327" class="cls-1" d="M84.25,58.46v1.47a1.12,1.12,0,0,0,1.12,1.12,1.09,1.09,0,0,0,.56-.15l24.34-14a1.14,1.14,0,0,0,.56-1V44.41a1.13,1.13,0,0,0-1.13-1.12,1.09,1.09,0,0,0-.56.15L84.81,57.49A1.11,1.11,0,0,0,84.25,58.46Z"/>
                    </g>
                </g>
                <g id="Grupo_854" data-name="Grupo 854">
                    <g id="Grupo_851" data-name="Grupo 851" class="cls-4">
                        <g id="Grupo_850" data-name="Grupo 850">
                            <path id="Trazado_328" data-name="Trazado 328" class="cls-3" d="M124.36,64.2a.8.8,0,0,1,.37.64l0,6.45c0,.23-.16.33-.37.21l-8.16-4.71a.81.81,0,0,1-.37-.64l0-6.45c0-.24.17-.33.37-.21Z"/>
                        </g>
                    </g>
                    <g id="Grupo_853" data-name="Grupo 853" class="cls-5">
                        <g id="Grupo_852" data-name="Grupo 852">
                            <path id="Trazado_329" data-name="Trazado 329" class="cls-6" d="M127.36,75.67a.8.8,0,0,1,.37.64l0,6.45c0,.23-.16.33-.37.21l-8.16-4.71a.8.8,0,0,1-.37-.64l0-6.45c0-.24.16-.33.37-.21Z"/>
                        </g>
                    </g>
                </g>
                <g id="Grupo_860" data-name="Grupo 860">
                    <g id="Grupo_859" data-name="Grupo 859">
                        <g id="Grupo_858" data-name="Grupo 858">
                            <g id="Grupo_855" data-name="Grupo 855">
                                <path id="Trazado_330" data-name="Trazado 330" class="cls-7" d="M70.13,154.85s1.47,9.35,2.7,14.51c0,0,.25,8.61.49,11.56s1,9.35,1,9.35a1.76,1.76,0,0,0,1.84.24s1.23-18.32,1.48-21.27S78.74,153,78.74,153,75.91,150.43,70.13,154.85Z"/>
                                <path id="Trazado_331" data-name="Trazado 331" class="cls-7" d="M79.35,151.16s1.48,9.35,2.7,14.51c0,0,.25,8.61.5,11.56s1,9.35,1,9.35a1.76,1.76,0,0,0,1.84.24s1.23-18.32,1.48-21.27.37-16.11.37-16.11S85.13,146.74,79.35,151.16Z"/>
                                <path id="Trazado_332" data-name="Trazado 332" class="cls-8" d="M72,142.23S68.49,146,70.5,159a56.76,56.76,0,0,0,1.35,6.6,20.9,20.9,0,0,0,10-1.35c5.41-2.09,5.53-3.2,5.53-3.2s.25-16.19-1-20.37S72,142.23,72,142.23Z"/>
                                <path id="Trazado_333" data-name="Trazado 333" class="cls-9" d="M85.44,186a1.87,1.87,0,0,0,.86,1.66c1,.74,2.83,2.09,3.13,2.89,0,.62-2.33-.06-3.38-.61a7.78,7.78,0,0,1-2-1.85l.06.56a1.07,1.07,0,0,1-.67-.31c-.31-.31.06-2.21.06-2.21Z"/>
                                <path id="Trazado_334" data-name="Trazado 334" class="cls-9" d="M76.21,190.21a1.94,1.94,0,0,0,.86,1.66c1,.73,2.83,2.09,3.14,2.89,0,.61-2.34-.07-3.38-.62a7.75,7.75,0,0,1-2-1.84l.06.55a1.12,1.12,0,0,1-.68-.31c-.3-.3.07-2.21.07-2.21Z"/>
                            </g>
                            <path id="Trazado_335" data-name="Trazado 335" class="cls-10" d="M85.23,117.79s3.2.5,5.26,7.44c1.24,4.59,3,5,5.11,5.42s10.78,0,11.47,0,1.53,1.52.56,2.62-13,2.22-15.35,2.22-7.74-4.43-10-8S82.33,117.51,85.23,117.79Z"/>
                            <path id="Trazado_336" data-name="Trazado 336" class="cls-8" d="M83.71,100.51s3.18,4.08,2.49,8.64-4.7,4.36-5.39,6.85,1.93,6.08-1.66,8.43-5.25,1.8-6.22,6.77-4.42,7.6-10.37,8.16S52.47,132.72,54,127.47s6.77-3.6,7.88-7.88.69-7.67,4.42-9.33,2.35-8,6.09-9.89S81,97.33,83.71,100.51Z"/>
                            <g id="Grupo_856" data-name="Grupo 856">
                                <path id="Trazado_337" data-name="Trazado 337" class="cls-11" d="M75.43,116.41s-6.83,4.88-7.51,6.51-1.63,6.68.59,9.16c3.84,4.29,1.53,11.67,2,13.84s5.73,2.44,9.35,1.74,7-2.55,6.84-6.77,1-10,1.21-11.92a33.19,33.19,0,0,0-.9-9.88c-.19-.67-2.46-1.38-2.46-1.38S82.17,116.12,75.43,116.41Z"/>
                                <path id="Trazado_338" data-name="Trazado 338" class="cls-12" d="M81.38,115.48a.89.89,0,0,0,0,.23c.08.5.33,1.78.37,2.31s-.54,1.4-1.92,1.38-3.74-.61-4.52-2.26a37.88,37.88,0,0,0-.23-4.88Z"/>
                                <path id="Trazado_339" data-name="Trazado 339" class="cls-13" d="M85.22,106.27c-.74-4-3.88-6.21-7.43-5.38a7.46,7.46,0,0,0-5.56,3.77c-1.72,3.38.8,6.22,2.41,8,.68.74,1.19,1.3,1.51,1.67.12.14.23.27.36.4l0,0h0a8.1,8.1,0,0,0,3.29,2,4.44,4.44,0,0,0,4.37-.86C85.19,114.86,86,110.24,85.22,106.27Z"/>
                            </g>
                            <path id="Trazado_340" data-name="Trazado 340" class="cls-8" d="M85.85,108.94a5.69,5.69,0,0,1-4.49-1.65c-1.66-1.94-4,0-5.94-1.66a6.13,6.13,0,0,1,0,4.14A22.62,22.62,0,0,0,74.31,115l-3.59-5.67v-5l4.56-4.28,6.08-.28,2.9,2.77S86.13,106.87,85.85,108.94Z"/>
                            <g id="Grupo_857" data-name="Grupo 857">
                                <path id="Trazado_342" data-name="Trazado 342" class="cls-14" d="M70.45,125s-4.56-1.11-2.63,5.11,8.44,10.79,10.79,10.51S90.5,130.24,90.5,129a1.8,1.8,0,0,0-1.74-1.85,1.48,1.48,0,0,0-.47,0c-1.11.27-8.44,8.15-9.13,7.88S74.18,127.61,70.45,125Z"/>
                                <path id="Trazado_343" data-name="Trazado 343" class="cls-13" d="M89.2,129.45a1.37,1.37,0,0,1-.93-1.7.17.17,0,0,1,0,0c.38-1.37,2.89-2.44,3.27-2.51s4.11.68,4.26,1.14-.68.69-1.6.46a14.52,14.52,0,0,0-2.28-.3s1,1.06.91,1.52a2.89,2.89,0,0,1-1.37,1.75c-.76.38-1.67-.46-1.67-.46Z"/>
                            </g>
                            <path id="Trazado_344" data-name="Trazado 344" class="cls-13" d="M105.93,130.85s3-2.56,3.18-2.1-1,1.73-1,1.73,4-1.55,4.08-1-2.13,2.16-2.7,2.55a14.77,14.77,0,0,1-2.63,1S105.7,131.45,105.93,130.85Z"/>
                        </g>
                    </g>
                </g>
                <g id="Grupo_872" data-name="Grupo 872">
                    <g id="Grupo_868" data-name="Grupo 868">
                        <g id="Grupo_866" data-name="Grupo 866">
                            <path id="Rectángulo_400" data-name="Rectángulo 400" class="cls-15" d="M147.72,123.27l-25.79,13.54a5.15,5.15,0,0,0-2.46,4.26l.49,38.3c0,.52.37.74.83.49l25.38-14.23a5.15,5.15,0,0,0,2.34-4.11h0V123.81C148.51,123.28,148.16,123,147.72,123.27Z"/>
                            <g id="Grupo_861" data-name="Grupo 861">
                                <path id="Trazado_345" data-name="Trazado 345" class="cls-16" d="M146.13,139.53,122,152.33l0,1.81,24.11-12.83Z"/>
                                <path id="Trazado_346" data-name="Trazado 346" class="cls-16" d="M146.13,142.41,122,155.25l0,1.8,24.08-12.87Z"/>
                                <path id="Trazado_347" data-name="Trazado 347" class="cls-16" d="M146.13,145.27l-24.06,12.89,0,1.8,24-12.91Z"/>
                                <path id="Trazado_348" data-name="Trazado 348" class="cls-16" d="M146.14,148.14l-7.64,4.1V154l7.63-4.11Z"/>
                            </g>
                            <g id="Grupo_865" data-name="Grupo 865">
                                <g id="Grupo_863" data-name="Grupo 863">
                                    <g id="Grupo_862" data-name="Grupo 862">
                                        <path id="Elipse_15-2" data-name="Elipse 15-2" class="cls-17" d="M143.77,130.85a5.14,5.14,0,0,0-2.38,4.16c0,1.57,1.08,2.26,2.39,1.54a5.13,5.13,0,0,0,2.37-4.14C146.15,130.84,145.08,130.14,143.77,130.85Z"/>
                                    </g>
                                    <path id="los_simspon" data-name="los simspon" class="cls-18" d="M143.77,131.26a4.39,4.39,0,0,0-2,3.56c0,1.35.92,1.94,2.05,1.33a4.4,4.4,0,0,0,2-3.55C145.81,131.25,144.89,130.65,143.77,131.26Z"/>
                                </g>
                                <g id="Grupo_864" data-name="Grupo 864">
                                    <path id="Trazado_349" data-name="Trazado 349" class="cls-19" d="M139.78,132.9l-17.62,9.56,0,1.42,17.61-9.57Z"/>
                                    <path id="Trazado_350" data-name="Trazado 350" class="cls-19" d="M139.79,135.29l-5.5,3v1.41l5.5-3Z"/>
                                    <path id="Trazado_351" data-name="Trazado 351" class="cls-20" d="M139.8,137.79l-10.27,5.62v1.07l10.27-5.62Z"/>
                                </g>
                            </g>
                        </g>
                        <g id="Grupo_867" data-name="Grupo 867">
                            <path id="Trazado_352" data-name="Trazado 352" class="cls-21" d="M141.6,154.81c.2-.12.36,0,.36.28v.25a2.1,2.1,0,0,1,1.33-.14c.14,0,.26.13.26.4a1.14,1.14,0,0,1-.48.9.34.34,0,0,1-.26.05,1.87,1.87,0,0,0-.88,0v2.19c1.3-.31,1.85.06,1.85,1.28a4.14,4.14,0,0,1-1.82,3.27V164a.87.87,0,0,1-.36.7c-.21.12-.38,0-.38-.28v-.7a2.31,2.31,0,0,1-1.75.12c-.15,0-.23-.17-.23-.41a1.07,1.07,0,0,1,.47-.9.31.31,0,0,1,.28,0,1.71,1.71,0,0,0,1.26,0v-2.24c-1.24.29-1.83,0-1.83-1.29a4.13,4.13,0,0,1,1.8-3.22v-.24A.89.89,0,0,1,141.6,154.81Zm-.35,4.09v-2a1.8,1.8,0,0,0-.82,1.43C140.43,158.79,140.6,159,141.25,158.9Zm.68,1.19v2.08a1.9,1.9,0,0,0,.85-1.49c0-.5-.19-.7-.85-.59Z"/>
                            <path id="Trazado_353" data-name="Trazado 353" class="cls-21" d="M136.7,157.41c.21-.12.37,0,.37.27v.25a2,2,0,0,1,1.32-.13c.14,0,.26.12.26.4a1.12,1.12,0,0,1-.48.9.39.39,0,0,1-.26,0,1.75,1.75,0,0,0-.88,0v2.19c1.3-.32,1.86,0,1.86,1.27a4.16,4.16,0,0,1-1.82,3.28v.68a.88.88,0,0,1-.37.7c-.2.12-.38,0-.38-.27v-.71a2.26,2.26,0,0,1-1.75.12c-.14,0-.23-.17-.23-.41a1.11,1.11,0,0,1,.47-.9.31.31,0,0,1,.28,0,1.79,1.79,0,0,0,1.27,0v-2.25c-1.25.29-1.83,0-1.83-1.29a4,4,0,0,1,1.8-3.21v-.24A.88.88,0,0,1,136.7,157.41Zm-.34,4.08v-2a1.79,1.79,0,0,0-.82,1.43c0,.48.16.69.82.59Zm.67,1.19v2.08a1.84,1.84,0,0,0,.85-1.48c0-.5-.19-.7-.85-.6Z"/>
                            <path id="Trazado_354" data-name="Trazado 354" class="cls-21" d="M131.86,160c.2-.12.37,0,.37.28v.25a2.07,2.07,0,0,1,1.32-.14c.14,0,.26.13.26.4a1.14,1.14,0,0,1-.48.9.34.34,0,0,1-.26.05,1.75,1.75,0,0,0-.88,0v2.18c1.3-.31,1.86.06,1.86,1.28a4.2,4.2,0,0,1-1.82,3.28v.68a.88.88,0,0,1-.37.7c-.21.12-.38,0-.38-.27v-.71a2.31,2.31,0,0,1-1.75.12c-.15,0-.23-.17-.23-.41a1.1,1.1,0,0,1,.47-.9.31.31,0,0,1,.28,0,1.74,1.74,0,0,0,1.27,0v-2.24c-1.25.29-1.83,0-1.83-1.29a4,4,0,0,1,1.8-3.21v-.24A.89.89,0,0,1,131.86,160Zm-.34,4.09v-2a1.77,1.77,0,0,0-.82,1.43c0,.48.16.68.82.58Zm.67,1.2v2.07a1.87,1.87,0,0,0,.85-1.48c0-.51-.19-.71-.85-.6Z"/>
                        </g>
                    </g>
                    <g id="Grupo_871" data-name="Grupo 871">
                        <g id="Grupo_869" data-name="Grupo 869">
                            <path id="Trazado_355" data-name="Trazado 355" class="cls-22" d="M147.74,122.61a8,8,0,0,1,3.64,6.25v.06a4.45,4.45,0,0,1-3.71-.46l-.07,0a11.77,11.77,0,0,1-3.35-3.43,2.5,2.5,0,0,1-.18-.29C144.08,122.39,145.72,121.45,147.74,122.61Z"/>
                        </g>
                        <path id="Trazado_356" data-name="Trazado 356" class="cls-23" d="M153.23,121.81a10.93,10.93,0,0,1,.4,1.87,8,8,0,0,1,.07,1.09c0,.11,0,.21,0,.32v0a2.64,2.64,0,0,1,0,.29v.06a2.36,2.36,0,0,1,0,.28c0,.12,0,.21,0,.3a2.06,2.06,0,0,1-.07.29v0a2.17,2.17,0,0,1-.07.24v0l-.09.23a1.94,1.94,0,0,1-.1.24,1.78,1.78,0,0,1-.12.24l0,0a2,2,0,0,1-.11.2l0,0-.13.18-.15.18,0,0-.15.15,0,0-.15.14,0,0-.16.12-.19.12,0,0-.18.09,0,0-.19.08-.12,0a8.07,8.07,0,0,0-3.64-6.25c-2-1.17-3.67-.23-3.67,2.09l.16.26c0-.07-.1-.14-.14-.2l-.21-.32,0,0c-.07-.1-.13-.2-.19-.3l0-.06-.19-.31-.18-.32,0-.06a3.18,3.18,0,0,1-.16-.32l0-.06-.15-.3c-.07-.14-.11-.25-.16-.36l0-.06-.14-.33a2.62,2.62,0,0,1-.13-.35l0,0-.12-.33,0-.06c-.08-.23-.14-.45-.2-.68l0-.06c0-.11-.05-.22-.08-.33V120c0-.1-.05-.21-.07-.31a3,3,0,0,1-.06-.36l0-.07c0-.11,0-.22,0-.33s0-.24,0-.34v0c0-.1,0-.22,0-.32v-.07c0-.1,0-.21,0-.32a6.87,6.87,0,0,1,.08-1,5,5,0,0,1,.4-1.4l.12-.23c1-1.76,3-2.16,5.43-.79a13.05,13.05,0,0,1,5.07,6.15c.07.17.13.34.2.5S153.16,121.56,153.23,121.81Zm-5.41.18c1.24.71,2.24.13,2.24-1.28a4.9,4.9,0,0,0-2.22-3.85c-1.23-.71-2.23-.14-2.24,1.28a4.92,4.92,0,0,0,2.22,3.85"/>
                        <g id="Grupo_870" data-name="Grupo 870">
                            <path id="Trazado_357" data-name="Trazado 357" class="cls-22" d="M147.84,116.86a4.89,4.89,0,0,1,2.22,3.85c0,1.41-1,2-2.24,1.27a4.91,4.91,0,0,1-2.22-3.85C145.61,116.72,146.61,116.15,147.84,116.86Z"/>
                        </g>
                    </g>
                </g>
                <g id="Grupo_884" data-name="Grupo 884">
                    <g id="Grupo_880" data-name="Grupo 880">
                        <g id="Grupo_878" data-name="Grupo 878">
                            <path id="Rectángulo_400-2" data-name="Rectángulo 400-2" class="cls-15" d="M170.18,53.36,144.39,66.9a5.16,5.16,0,0,0-2.46,4.26l.49,38.3c0,.52.38.74.83.49l25.38-14.23A5.16,5.16,0,0,0,171,91.61h0V53.9C171,53.37,170.62,53.13,170.18,53.36Z"/>
                            <g id="Grupo_873" data-name="Grupo 873">
                                <path id="Trazado_358" data-name="Trazado 358" class="cls-16" d="M168.59,69.62l-24.13,12.8,0,1.81L168.59,71.4Z"/>
                                <path id="Trazado_359" data-name="Trazado 359" class="cls-16" d="M168.59,72.5l-24.1,12.84,0,1.8,24.08-12.87Z"/>
                                <path id="Trazado_360" data-name="Trazado 360" class="cls-16" d="M168.6,75.37,144.53,88.25l0,1.8,24-12.91Z"/>
                                <path id="Trazado_361" data-name="Trazado 361" class="cls-16" d="M168.6,78.23,161,82.33v1.78L168.6,80Z"/>
                            </g>
                            <g id="Grupo_877" data-name="Grupo 877">
                                <g id="Grupo_875" data-name="Grupo 875">
                                    <g id="Grupo_874" data-name="Grupo 874">
                                        <path id="Elipse_15-2-2" data-name="Elipse 15-2-2" class="cls-17" d="M166.23,61a5.12,5.12,0,0,0-2.38,4.15c0,1.57,1.08,2.26,2.39,1.54a5.12,5.12,0,0,0,2.37-4.14C168.61,60.93,167.55,60.23,166.23,61Z"/>
                                    </g>
                                    <path id="los_simspon-2" data-name="los simspon-2" class="cls-18" d="M166.23,61.35a4.4,4.4,0,0,0-2,3.56c0,1.35.92,1.94,2,1.33a4.4,4.4,0,0,0,2-3.55C168.27,61.34,167.36,60.74,166.23,61.35Z"/>
                                </g>
                                <g id="Grupo_876" data-name="Grupo 876">
                                    <path id="Trazado_362" data-name="Trazado 362" class="cls-19" d="M162.25,63l-17.62,9.56V74l17.61-9.57Z"/>
                                    <path id="Trazado_363" data-name="Trazado 363" class="cls-19" d="M162.26,65.38l-5.5,3v1.41l5.5-3Z"/>
                                    <path id="Trazado_364" data-name="Trazado 364" class="cls-20" d="M162.27,67.88,152,73.5v1.07L162.27,69Z"/>
                                </g>
                            </g>
                        </g>
                        <g id="Grupo_879" data-name="Grupo 879">
                            <path id="Trazado_365" data-name="Trazado 365" class="cls-21" d="M164.06,84.9c.2-.12.37,0,.37.28v.25a2.07,2.07,0,0,1,1.32-.14c.14,0,.26.13.26.4a1.14,1.14,0,0,1-.48.9.34.34,0,0,1-.26,0,1.75,1.75,0,0,0-.88,0v2.18c1.3-.31,1.86.06,1.86,1.28a4.2,4.2,0,0,1-1.82,3.28v.68a.88.88,0,0,1-.37.7c-.2.12-.38,0-.38-.27v-.71a2.31,2.31,0,0,1-1.75.12c-.14,0-.23-.17-.23-.41a1.11,1.11,0,0,1,.47-.9.31.31,0,0,1,.28,0,1.79,1.79,0,0,0,1.27,0V90.35c-1.25.29-1.83,0-1.83-1.29a4.09,4.09,0,0,1,1.79-3.22v-.23A.93.93,0,0,1,164.06,84.9ZM163.72,89V87a1.79,1.79,0,0,0-.82,1.43C162.9,88.88,163.06,89.08,163.72,89Zm.67,1.19v2.08a1.87,1.87,0,0,0,.85-1.48c0-.51-.19-.7-.85-.6Z"/>
                            <path id="Trazado_366" data-name="Trazado 366" class="cls-21" d="M159.17,87.5c.2-.12.36,0,.36.28V88a2,2,0,0,1,1.33-.14c.13,0,.25.12.25.4a1.11,1.11,0,0,1-.47.9.34.34,0,0,1-.26,0,1.87,1.87,0,0,0-.88,0v2.19c1.3-.32,1.85.06,1.85,1.28A4.16,4.16,0,0,1,159.53,96v.68a.85.85,0,0,1-.37.7c-.2.12-.37,0-.37-.27v-.71a2.32,2.32,0,0,1-1.75.13c-.15,0-.23-.18-.23-.42a1.1,1.1,0,0,1,.47-.9.31.31,0,0,1,.28,0,1.77,1.77,0,0,0,1.26,0V92.94c-1.24.29-1.83,0-1.83-1.29a4.11,4.11,0,0,1,1.8-3.21V88.2A.89.89,0,0,1,159.17,87.5Zm-.35,4.08v-2A1.82,1.82,0,0,0,158,91C158,91.47,158.17,91.68,158.82,91.58Zm.68,1.2v2.07a1.86,1.86,0,0,0,.84-1.48c0-.5-.18-.7-.84-.59Z"/>
                            <path id="Trazado_367" data-name="Trazado 367" class="cls-21" d="M154.32,90.1c.2-.12.37,0,.37.28v.25a2,2,0,0,1,1.33-.14c.13,0,.25.13.25.4a1.08,1.08,0,0,1-.48.9.32.32,0,0,1-.25,0,1.87,1.87,0,0,0-.88,0V94c1.3-.32,1.85.06,1.85,1.28a4.14,4.14,0,0,1-1.82,3.27v.69a.85.85,0,0,1-.37.7c-.2.12-.37,0-.37-.28V99a2.34,2.34,0,0,1-1.76.12c-.14,0-.23-.17-.23-.41a1.1,1.1,0,0,1,.47-.9.3.3,0,0,1,.29,0,1.71,1.71,0,0,0,1.26,0V95.55c-1.25.28-1.83,0-1.83-1.3A4.07,4.07,0,0,1,154,91V90.8A.88.88,0,0,1,154.32,90.1ZM154,94.19v-2a1.8,1.8,0,0,0-.82,1.43C153.16,94.08,153.32,94.28,154,94.19Zm.68,1.19v2.07A1.83,1.83,0,0,0,155.5,96c0-.5-.18-.7-.84-.59Z"/>
                        </g>
                    </g>
                    <g id="Grupo_883" data-name="Grupo 883">
                        <g id="Grupo_881" data-name="Grupo 881">
                            <path id="Trazado_368" data-name="Trazado 368" class="cls-22" d="M170.2,52.71A8.06,8.06,0,0,1,173.85,59V59a4.45,4.45,0,0,1-3.71-.46l-.07,0a11.53,11.53,0,0,1-3.35-3.43l-.19-.29C166.54,52.48,168.18,51.54,170.2,52.71Z"/>
                        </g>
                        <path id="Trazado_369" data-name="Trazado 369" class="cls-24" d="M175.7,51.9a10.73,10.73,0,0,1,.4,1.87,7.88,7.88,0,0,1,.06,1.09v.37l0,.29v0l0,.29c0,.12,0,.21,0,.3s-.05.2-.07.28v.05a2.17,2.17,0,0,1-.07.24v0l-.09.24-.1.24a1.2,1.2,0,0,1-.12.23l0,0-.11.19,0,0-.14.19c0,.06-.1.12-.14.17l0,0-.15.15,0,0-.15.13,0,0-.16.13-.19.12h0l-.18.1h0l-.19.08-.12,0a8.06,8.06,0,0,0-3.65-6.25c-2-1.16-3.66-.23-3.66,2.09a2.45,2.45,0,0,0,.16.26,1.43,1.43,0,0,1-.14-.2l-.21-.31,0,0-.18-.3,0-.06a3.37,3.37,0,0,1-.19-.32l-.18-.32,0-.06-.17-.31,0-.06-.15-.3a3.38,3.38,0,0,1-.16-.36l0-.06c0-.11-.1-.22-.14-.33l-.14-.35,0,0c0-.11-.07-.22-.11-.33l0-.07c-.08-.22-.14-.44-.2-.67l0-.07a3,3,0,0,1-.08-.32l0-.06-.06-.31-.07-.36v-.07c0-.11,0-.22,0-.33s0-.24,0-.34v-.06c0-.1,0-.21,0-.31v-.07c0-.11,0-.21,0-.32a8.42,8.42,0,0,1,.07-1,5.14,5.14,0,0,1,.41-1.4l.12-.24c1-1.75,3-2.16,5.42-.78a12.94,12.94,0,0,1,5.07,6.15c.07.17.14.34.2.51Zm-5.41.17c1.23.72,2.23.14,2.24-1.27A4.9,4.9,0,0,0,170.3,47c-1.23-.71-2.23-.14-2.23,1.27a4.89,4.89,0,0,0,2.22,3.85"/>
                        <g id="Grupo_882" data-name="Grupo 882">
                            <path id="Trazado_370" data-name="Trazado 370" class="cls-22" d="M170.3,47a4.9,4.9,0,0,1,2.23,3.85c0,1.41-1,2-2.24,1.27a4.89,4.89,0,0,1-2.22-3.85C168.07,46.81,169.07,46.24,170.3,47Z"/>
                        </g>
                    </g>
                </g>
                <g id="Grupo_896" data-name="Grupo 896">
                    <g id="Grupo_892" data-name="Grupo 892">
                        <g id="Grupo_890" data-name="Grupo 890">
                            <path id="Rectángulo_400-3" data-name="Rectángulo 400-3" class="cls-15" d="M42.82,51.86,17,65.4a5.18,5.18,0,0,0-2.46,4.26l.49,38.3c0,.53.38.75.83.49L41.27,94.23a5.18,5.18,0,0,0,2.35-4.12h0V52.41C43.62,51.87,43.26,51.63,42.82,51.86Z"/>
                            <g id="Grupo_885" data-name="Grupo 885">
                                <path id="Trazado_371" data-name="Trazado 371" class="cls-16" d="M41.23,68.12,17.1,80.92l0,1.81L41.23,69.9Z"/>
                                <path id="Trazado_372" data-name="Trazado 372" class="cls-16" d="M41.23,71,17.13,83.84l0,1.8L41.23,72.77Z"/>
                                <path id="Trazado_373" data-name="Trazado 373" class="cls-16" d="M41.24,73.87,17.17,86.76l0,1.8L41.24,75.64Z"/>
                                <path id="Trazado_374" data-name="Trazado 374" class="cls-16" d="M41.24,76.73l-7.63,4.11v1.77l7.63-4.11Z"/>
                            </g>
                            <g id="Grupo_889" data-name="Grupo 889">
                                <g id="Grupo_887" data-name="Grupo 887">
                                    <g id="Grupo_886" data-name="Grupo 886">
                                        <path id="Elipse_15-2-3" data-name="Elipse 15-2-3" class="cls-17" d="M38.87,59.45a5.13,5.13,0,0,0-2.38,4.15c0,1.57,1.08,2.26,2.39,1.55A5.15,5.15,0,0,0,41.25,61C41.25,59.43,40.18,58.74,38.87,59.45Z"/>
                                    </g>
                                    <path id="los_simspon-3" data-name="los simspon-3" class="cls-18" d="M38.87,59.86a4.37,4.37,0,0,0-2,3.55c0,1.35.92,2,2,1.33a4.39,4.39,0,0,0,2-3.55C40.91,59.84,40,59.24,38.87,59.86Z"/>
                                </g>
                                <g id="Grupo_888" data-name="Grupo 888">
                                    <path id="Trazado_375" data-name="Trazado 375" class="cls-19" d="M34.89,61.5,17.27,71.05l0,1.42,17.6-9.57Z"/>
                                    <path id="Trazado_376" data-name="Trazado 376" class="cls-19" d="M34.9,63.88l-5.5,3v1.41l5.5-3Z"/>
                                    <path id="Trazado_377" data-name="Trazado 377" class="cls-20" d="M34.91,66.39,24.63,72v1.08l10.27-5.62Z"/>
                                </g>
                            </g>
                        </g>
                        <g id="Grupo_891" data-name="Grupo 891">
                            <path id="Trazado_378" data-name="Trazado 378" class="cls-21" d="M36.7,83.41c.2-.12.37,0,.37.27v.25a2,2,0,0,1,1.32-.13c.14,0,.26.12.26.4a1.15,1.15,0,0,1-.48.9.39.39,0,0,1-.26,0,1.87,1.87,0,0,0-.88,0v2.19c1.3-.32,1.86,0,1.86,1.27a4.19,4.19,0,0,1-1.82,3.28v.68a.88.88,0,0,1-.37.7c-.21.12-.38,0-.38-.27v-.71a2.31,2.31,0,0,1-1.75.13c-.14,0-.23-.18-.23-.42a1.11,1.11,0,0,1,.47-.9.31.31,0,0,1,.28,0,1.79,1.79,0,0,0,1.27,0V88.85c-1.25.29-1.83,0-1.83-1.29a4,4,0,0,1,1.8-3.21v-.24A.88.88,0,0,1,36.7,83.41Zm-.34,4.08v-2a1.79,1.79,0,0,0-.82,1.43C35.54,87.38,35.7,87.58,36.36,87.49ZM37,88.68v2.08a1.87,1.87,0,0,0,.85-1.48c0-.5-.19-.7-.85-.6Z"/>
                            <path id="Trazado_379" data-name="Trazado 379" class="cls-21" d="M31.8,86c.21-.12.37,0,.37.28v.25a2,2,0,0,1,1.33-.14c.13,0,.25.13.25.4a1.1,1.1,0,0,1-.48.9.36.36,0,0,1-.25,0,1.87,1.87,0,0,0-.88,0v2.19c1.3-.32,1.85.06,1.85,1.28a4.14,4.14,0,0,1-1.82,3.27v.69a.88.88,0,0,1-.37.7c-.2.11-.37,0-.37-.28v-.7a2.36,2.36,0,0,1-1.75.12c-.15,0-.24-.18-.24-.42a1.16,1.16,0,0,1,.47-.9.33.33,0,0,1,.29,0,1.71,1.71,0,0,0,1.26,0V91.44c-1.25.29-1.83,0-1.83-1.29a4.11,4.11,0,0,1,1.8-3.21V86.7A.91.91,0,0,1,31.8,86Zm-.34,4.08v-2a1.8,1.8,0,0,0-.82,1.43C30.64,90,30.8,90.18,31.46,90.08Zm.68,1.2v2.08A1.86,1.86,0,0,0,33,91.88c0-.51-.18-.71-.84-.6Z"/>
                            <path id="Trazado_380" data-name="Trazado 380" class="cls-21" d="M27,88.6c.21-.11.37,0,.37.28v.25A2.07,2.07,0,0,1,28.65,89c.14,0,.26.13.26.4a1.08,1.08,0,0,1-.48.9.31.31,0,0,1-.25,0,1.75,1.75,0,0,0-.88,0v2.19c1.3-.32,1.85,0,1.85,1.27a4.16,4.16,0,0,1-1.82,3.28v.68a.85.85,0,0,1-.37.7c-.2.12-.37,0-.37-.27v-.71a2.34,2.34,0,0,1-1.76.12c-.14,0-.23-.17-.23-.41a1.14,1.14,0,0,1,.47-.9.33.33,0,0,1,.29,0,1.77,1.77,0,0,0,1.26,0V94.05c-1.25.29-1.83,0-1.83-1.29a4.1,4.1,0,0,1,1.8-3.22v-.23A.91.91,0,0,1,27,88.6Zm-.34,4.09v-2a1.81,1.81,0,0,0-.82,1.43C25.8,92.58,26,92.78,26.62,92.69Zm.68,1.2V96a1.86,1.86,0,0,0,.84-1.48c0-.5-.19-.7-.84-.6Z"/>
                        </g>
                    </g>
                    <g id="Grupo_895" data-name="Grupo 895">
                        <g id="Grupo_893" data-name="Grupo 893">
                            <path id="Trazado_381" data-name="Trazado 381" class="cls-22" d="M42.84,51.21a8.06,8.06,0,0,1,3.65,6.26v.05a4.45,4.45,0,0,1-3.71-.46l-.07,0a11.53,11.53,0,0,1-3.35-3.43l-.19-.29C39.18,51,40.82,50,42.84,51.21Z"/>
                        </g>
                        <path id="Trazado_382" data-name="Trazado 382" class="cls-25" d="M48.34,50.4a12,12,0,0,1,.4,1.87,10,10,0,0,1,.06,1.09v.37l0,.29v.06a2.36,2.36,0,0,1,0,.28,1.86,1.86,0,0,1,0,.3c0,.11,0,.2-.06.29v0a2.17,2.17,0,0,0-.07.24l0,.05c0,.08-.05.16-.08.23l-.1.24-.12.23,0,0-.12.2,0,0c0,.07-.09.13-.13.19l-.15.18,0,0-.14.15,0,0-.16.14,0,0-.17.12-.19.12,0,0-.18.09,0,0-.19.08-.12,0a8,8,0,0,0-3.64-6.25c-2-1.17-3.66-.23-3.67,2.08l.17.27-.15-.2L39,53l0,0-.19-.3,0-.06-.18-.31a3.58,3.58,0,0,1-.18-.32l0-.06c0-.1-.11-.21-.16-.32l0-.06-.15-.3-.16-.35,0-.07-.14-.32c0-.15-.1-.25-.13-.35l0-.05-.12-.33,0-.07c-.07-.22-.14-.45-.2-.67l0-.07c0-.11,0-.22-.08-.33v0c0-.1-.05-.21-.07-.31s0-.26-.06-.37v-.07c0-.11,0-.21-.05-.32s0-.24,0-.34v-.06c0-.1,0-.21,0-.31v-.07c0-.11,0-.22,0-.32a8.42,8.42,0,0,1,.07-1,5.14,5.14,0,0,1,.41-1.4l.12-.24c1-1.75,3-2.16,5.42-.78a12.94,12.94,0,0,1,5.07,6.15l.2.5Zm-5.41.18c1.23.71,2.23.13,2.23-1.28a4.89,4.89,0,0,0-2.22-3.85c-1.23-.71-2.23-.14-2.23,1.28a4.89,4.89,0,0,0,2.22,3.85"/>
                        <g id="Grupo_894" data-name="Grupo 894">
                            <path id="Trazado_383" data-name="Trazado 383" class="cls-22" d="M42.94,45.45a4.89,4.89,0,0,1,2.22,3.85c0,1.41-1,2-2.23,1.28a4.89,4.89,0,0,1-2.22-3.85C40.71,45.31,41.71,44.74,42.94,45.45Z"/>
                        </g>
                    </g>
                </g>
                <g id="Grupo_908" data-name="Grupo 908">
                    <g id="Grupo_904" data-name="Grupo 904">
                        <g id="Grupo_902" data-name="Grupo 902">
                            <path id="Rectángulo_400-4" data-name="Rectángulo 400-4" class="cls-15" d="M6,116l25.79,13.55a5.15,5.15,0,0,1,2.46,4.26l-.49,38.3c0,.52-.38.74-.83.49L7.52,158.38a5.16,5.16,0,0,1-2.35-4.11h0v-37.7C5.17,116,5.53,115.79,6,116Z"/>
                            <g id="Grupo_897" data-name="Grupo 897">
                                <path id="Trazado_384" data-name="Trazado 384" class="cls-16" d="M7.56,132.28l24.12,12.8,0,1.81L7.56,134.06Z"/>
                                <path id="Trazado_385" data-name="Trazado 385" class="cls-16" d="M7.55,135.16,31.65,148l0,1.8L7.56,136.93Z"/>
                                <path id="Trazado_386" data-name="Trazado 386" class="cls-16" d="M7.55,138l24.07,12.88,0,1.8-24-12.91Z"/>
                                <path id="Trazado_387" data-name="Trazado 387" class="cls-16" d="M7.55,140.89l7.63,4.1v1.78l-7.62-4.11Z"/>
                            </g>
                            <g id="Grupo_901" data-name="Grupo 901">
                                <g id="Grupo_899" data-name="Grupo 899">
                                    <g id="Grupo_898" data-name="Grupo 898">
                                        <path id="Elipse_15-2-4" data-name="Elipse 15-2-4" class="cls-17" d="M9.92,123.61a5.14,5.14,0,0,1,2.37,4.15c0,1.57-1.07,2.26-2.39,1.54a5.11,5.11,0,0,1-2.36-4.14C7.54,123.59,8.6,122.89,9.92,123.61Z"/>
                                    </g>
                                    <path id="los_simspon-4" data-name="los simspon-4" class="cls-18" d="M9.91,124a4.39,4.39,0,0,1,2,3.56c0,1.35-.92,1.94-2,1.33a4.45,4.45,0,0,1-2-3.55C7.88,124,8.79,123.4,9.91,124Z"/>
                                </g>
                                <g id="Grupo_900" data-name="Grupo 900">
                                    <path id="Trazado_388" data-name="Trazado 388" class="cls-19" d="M13.9,125.65l17.62,9.56,0,1.42-17.6-9.57Z"/>
                                    <path id="Trazado_389" data-name="Trazado 389" class="cls-19" d="M13.89,128l5.5,3v1.41l-5.5-3Z"/>
                                    <path id="Trazado_390" data-name="Trazado 390" class="cls-20" d="M13.88,130.54l10.28,5.62v1.07l-10.27-5.62Z"/>
                                </g>
                            </g>
                        </g>
                        <g id="Grupo_903" data-name="Grupo 903">
                            <path id="Trazado_391" data-name="Trazado 391" class="cls-21" d="M12.46,148.27v.24a4.07,4.07,0,0,1,1.8,3.22c0,1.28-.58,1.57-1.83,1.29v2.24a1.71,1.71,0,0,0,1.26,0,.33.33,0,0,1,.29,0,1.1,1.1,0,0,1,.47.9c0,.24-.09.37-.23.41a2.34,2.34,0,0,1-1.76-.12v.7c0,.28-.17.4-.37.28a.85.85,0,0,1-.37-.7v-.69a4.14,4.14,0,0,1-1.82-3.27c0-1.22.56-1.6,1.85-1.28v-2.19a1.87,1.87,0,0,0-.88,0,.37.37,0,0,1-.25-.05,1.12,1.12,0,0,1-.48-.9c0-.27.12-.37.26-.4a1.94,1.94,0,0,1,1.32.14v-.25c0-.28.16-.4.37-.28A.85.85,0,0,1,12.46,148.27Zm.79,2.79a1.79,1.79,0,0,0-.82-1.43v2C13.09,151.74,13.25,151.54,13.25,151.06Zm-2.34,2.38a1.86,1.86,0,0,0,.84,1.48v-2.08c-.65-.1-.84.09-.84.6Z"/>
                            <path id="Trazado_392" data-name="Trazado 392" class="cls-21" d="M17.36,150.86v.24a4.06,4.06,0,0,1,1.79,3.22c0,1.29-.58,1.58-1.83,1.29v2.24a1.74,1.74,0,0,0,1.27,0,.31.31,0,0,1,.28,0,1.07,1.07,0,0,1,.47.9c0,.24-.08.37-.23.41a2.31,2.31,0,0,1-1.75-.12v.71c0,.27-.17.39-.38.27a.87.87,0,0,1-.36-.7v-.69a4.15,4.15,0,0,1-1.83-3.27c0-1.22.56-1.6,1.86-1.28V151.9a1.87,1.87,0,0,0-.88,0,.4.4,0,0,1-.26-.05A1.15,1.15,0,0,1,15,151c0-.27.12-.37.26-.4a2,2,0,0,1,1.33.14v-.25c0-.28.16-.4.36-.28A.89.89,0,0,1,17.36,150.86Zm.79,2.8a1.82,1.82,0,0,0-.82-1.44v2C18,154.34,18.15,154.13,18.15,153.66ZM15.8,156a1.87,1.87,0,0,0,.85,1.48v-2.07C16,155.33,15.8,155.53,15.8,156Z"/>
                            <path id="Trazado_393" data-name="Trazado 393" class="cls-21" d="M22.2,153.47v.24a4.08,4.08,0,0,1,1.8,3.21c0,1.29-.59,1.58-1.83,1.29v2.25a1.77,1.77,0,0,0,1.26,0,.31.31,0,0,1,.28,0,1.1,1.1,0,0,1,.47.9c0,.24-.08.38-.23.42a2.32,2.32,0,0,1-1.75-.13v.71c0,.27-.17.39-.38.27a.87.87,0,0,1-.36-.7v-.68A4.14,4.14,0,0,1,19.64,158c0-1.22.55-1.6,1.85-1.28v-2.19a2,2,0,0,0-.88,0,.34.34,0,0,1-.26,0,1.11,1.11,0,0,1-.47-.9c0-.27.12-.38.25-.4a2,2,0,0,1,1.33.14v-.25c0-.28.16-.4.36-.28A.89.89,0,0,1,22.2,153.47Zm.79,2.79a1.8,1.8,0,0,0-.82-1.43v2C22.83,156.94,23,156.74,23,156.26Zm-2.34,2.37a1.83,1.83,0,0,0,.84,1.48V158C20.83,157.93,20.65,158.13,20.65,158.63Z"/>
                        </g>
                    </g>
                    <g id="Grupo_907" data-name="Grupo 907">
                        <g id="Grupo_905" data-name="Grupo 905">
                            <path id="Trazado_394" data-name="Trazado 394" class="cls-22" d="M5.94,115.37a8.07,8.07,0,0,0-3.64,6.25v.06A4.45,4.45,0,0,0,6,121.22l.07,0a11.45,11.45,0,0,0,3.35-3.44,3,3,0,0,1,.19-.28C9.61,115.14,8,114.2,5.94,115.37Z"/>
                        </g>
                        <path id="Trazado_395" data-name="Trazado 395" class="cls-26" d="M.7,113.81c.06-.17.13-.33.2-.5A13,13,0,0,1,6,107.16c2.38-1.38,4.45-1,5.42.78a1,1,0,0,1,.12.23,4.68,4.68,0,0,1,.41,1.4,7,7,0,0,1,.07,1V111c0,.1,0,.21,0,.32v0c0,.1,0,.2,0,.35s0,.21,0,.32v.07c0,.11,0,.22-.06.36s-.05.21-.07.31v.06c0,.11-.06.22-.08.33l0,.07c-.06.22-.13.45-.2.67l0,.07c0,.11-.07.21-.11.32l0,.06-.13.34L11,115l0,.07-.16.35-.15.3,0,.06c-.05.11-.11.21-.16.31l0,.06-.18.33-.18.31,0,.06-.19.3,0,0-.21.31-.15.2.17-.26c0-2.31-1.65-3.25-3.67-2.08a8,8,0,0,0-3.64,6.25l-.12,0L2,121.5l0,0-.18-.09,0,0-.18-.12-.17-.12,0,0L1.21,121l0,0L1,120.79l0,0-.15-.18c0-.06-.09-.12-.13-.19l0,0-.12-.19,0,0a2.3,2.3,0,0,1-.12-.23l-.1-.24a2.09,2.09,0,0,1-.08-.23l0,0c0-.08-.05-.16-.07-.24v-.05c0-.08,0-.17-.06-.28s0-.18-.06-.3l0-.29v0a2.83,2.83,0,0,1,0-.29v0c0-.11,0-.21,0-.32a7.88,7.88,0,0,1,.07-1.09,10.73,10.73,0,0,1,.4-1.87A7.16,7.16,0,0,1,.7,113.81Zm5.16.93a4.92,4.92,0,0,0,2.22-3.85c0-1.42-1-2-2.23-1.28a4.91,4.91,0,0,0-2.23,3.85c0,1.41,1,2,2.24,1.28"/>
                        <g id="Grupo_906" data-name="Grupo 906">
                            <path id="Trazado_396" data-name="Trazado 396" class="cls-22" d="M5.85,109.61a4.93,4.93,0,0,0-2.23,3.85c0,1.42,1,2,2.24,1.28a4.92,4.92,0,0,0,2.22-3.85C8.08,109.47,7.07,108.9,5.85,109.61Z"/>
                        </g>
                    </g>
                </g>
                <g id="Grupo_920" data-name="Grupo 920">
                    <g id="Grupo_916" data-name="Grupo 916">
                        <g id="Grupo_914" data-name="Grupo 914">
                            <path id="Rectángulo_400-5" data-name="Rectángulo 400-5" class="cls-15" d="M43.78,9.69,69.57,23.23A5.17,5.17,0,0,1,72,27.49l-.5,38.3c0,.52-.37.74-.83.49L45.33,52.05A5.15,5.15,0,0,1,43,47.94h0V10.23C43,9.7,43.34,9.46,43.78,9.69Z"/>
                            <g id="Grupo_909" data-name="Grupo 909">
                                <path id="Trazado_397" data-name="Trazado 397" class="cls-16" d="M45.38,26,69.5,38.75l0,1.81L45.37,27.73Z"/>
                                <path id="Trazado_398" data-name="Trazado 398" class="cls-16" d="M45.37,28.83l24.1,12.84,0,1.8L45.37,30.6Z"/>
                                <path id="Trazado_399" data-name="Trazado 399" class="cls-16" d="M45.37,31.7,69.43,44.58l0,1.8-24-12.91Z"/>
                                <path id="Trazado_400" data-name="Trazado 400" class="cls-16" d="M45.37,34.56,53,38.66v1.78l-7.63-4.11Z"/>
                            </g>
                            <g id="Grupo_913" data-name="Grupo 913">
                                <g id="Grupo_911" data-name="Grupo 911">
                                    <g id="Grupo_910" data-name="Grupo 910">
                                        <path id="Elipse_15-2-5" data-name="Elipse 15-2-5" class="cls-17" d="M47.73,17.28a5.12,5.12,0,0,1,2.38,4.15C50.11,23,49,23.69,47.72,23a5.14,5.14,0,0,1-2.37-4.14C45.35,17.26,46.42,16.56,47.73,17.28Z"/>
                                    </g>
                                    <path id="los_simspon-5" data-name="los simspon-5" class="cls-18" d="M47.73,17.68a4.39,4.39,0,0,1,2,3.56c0,1.35-.92,1.94-2.05,1.33a4.43,4.43,0,0,1-2-3.55C45.69,17.67,46.61,17.07,47.73,17.68Z"/>
                                </g>
                                <g id="Grupo_912" data-name="Grupo 912">
                                    <path id="Trazado_401" data-name="Trazado 401" class="cls-19" d="M51.72,19.32l17.62,9.56,0,1.42L51.71,20.73Z"/>
                                    <path id="Trazado_402" data-name="Trazado 402" class="cls-19" d="M51.71,21.71l5.5,3v1.41l-5.5-3Z"/>
                                    <path id="Trazado_403" data-name="Trazado 403" class="cls-20" d="M51.7,24.21,62,29.83V30.9L51.7,25.28Z"/>
                                </g>
                            </g>
                        </g>
                        <g id="Grupo_915" data-name="Grupo 915">
                            <path id="Trazado_404" data-name="Trazado 404" class="cls-21" d="M50.28,41.94v.24a4.06,4.06,0,0,1,1.8,3.21c0,1.29-.58,1.58-1.83,1.29v2.25a1.74,1.74,0,0,0,1.27,0,.31.31,0,0,1,.28,0,1.13,1.13,0,0,1,.47.9c0,.24-.09.38-.23.42a2.36,2.36,0,0,1-1.75-.12v.7c0,.28-.18.39-.38.28a.91.91,0,0,1-.37-.7v-.69a4.17,4.17,0,0,1-1.82-3.27c0-1.22.56-1.6,1.86-1.28V43a1.87,1.87,0,0,0-.88,0,.4.4,0,0,1-.26,0A1.15,1.15,0,0,1,48,42c0-.27.12-.38.26-.4a1.94,1.94,0,0,1,1.32.14v-.26c0-.27.16-.4.37-.28A.89.89,0,0,1,50.28,41.94Zm.79,2.79a1.8,1.8,0,0,0-.82-1.43v2c.66.1.82-.1.82-.58Zm-2.34,2.38a1.86,1.86,0,0,0,.84,1.48V46.51c-.66-.11-.84.09-.84.6Z"/>
                            <path id="Trazado_405" data-name="Trazado 405" class="cls-21" d="M55.18,44.53v.24A4.07,4.07,0,0,1,57,48c0,1.29-.58,1.58-1.83,1.29v2.24a1.74,1.74,0,0,0,1.27,0,.31.31,0,0,1,.28,0,1.1,1.1,0,0,1,.47.9c0,.24-.09.37-.23.41a2.31,2.31,0,0,1-1.75-.12v.71c0,.27-.17.39-.38.27a.88.88,0,0,1-.37-.7v-.69A4.17,4.17,0,0,1,52.62,49c0-1.22.56-1.6,1.86-1.28V45.57a1.87,1.87,0,0,0-.88,0,.4.4,0,0,1-.26,0,1.15,1.15,0,0,1-.48-.9c0-.27.12-.38.26-.4a1.94,1.94,0,0,1,1.32.14v-.25c0-.28.16-.4.37-.28A.85.85,0,0,1,55.18,44.53ZM56,47.32a1.81,1.81,0,0,0-.82-1.43v2c.65.1.81-.11.81-.59ZM53.63,49.7a1.86,1.86,0,0,0,.84,1.48V49.11c-.66-.11-.85.09-.85.59Z"/>
                            <path id="Trazado_406" data-name="Trazado 406" class="cls-21" d="M60,47.14v.24a4,4,0,0,1,1.8,3.21c0,1.29-.58,1.58-1.83,1.29v2.25a1.82,1.82,0,0,0,1.26,0,.33.33,0,0,1,.29,0A1.14,1.14,0,0,1,62,55c0,.24-.09.38-.23.42A2.34,2.34,0,0,1,60,55.32V56c0,.27-.17.39-.37.27a.85.85,0,0,1-.37-.7v-.69a4.14,4.14,0,0,1-1.82-3.27c0-1.22.55-1.6,1.85-1.28V48.17a1.87,1.87,0,0,0-.88,0,.31.31,0,0,1-.25-.05,1.1,1.1,0,0,1-.48-.9c0-.27.12-.37.25-.4a2,2,0,0,1,1.33.14v-.25c0-.27.16-.4.37-.27A.91.91,0,0,1,60,47.14Zm.79,2.79A1.82,1.82,0,0,0,60,48.5v2C60.64,50.61,60.81,50.41,60.81,49.93ZM58.46,52.3a1.85,1.85,0,0,0,.85,1.48V51.71C58.65,51.6,58.46,51.8,58.46,52.3Z"/>
                        </g>
                    </g>
                    <g id="Grupo_919" data-name="Grupo 919">
                        <g id="Grupo_917" data-name="Grupo 917">
                            <path id="Trazado_407" data-name="Trazado 407" class="cls-22" d="M43.76,9a8.07,8.07,0,0,0-3.64,6.25v.06a4.45,4.45,0,0,0,3.71-.47l.07,0a11.53,11.53,0,0,0,3.35-3.43,2.5,2.5,0,0,0,.18-.29C47.42,8.81,45.78,7.87,43.76,9Z"/>
                        </g>
                        <path id="Trazado_408" data-name="Trazado 408" class="cls-27" d="M38.52,7.48c.06-.17.13-.34.2-.5A13,13,0,0,1,43.79.82c2.38-1.37,4.45-1,5.42.79l.12.23a5,5,0,0,1,.41,1.4,7,7,0,0,1,.07,1v.39c0,.11,0,.21,0,.32V5c0,.1,0,.2,0,.34s0,.22,0,.33l0,.07a3,3,0,0,1-.06.36c0,.1,0,.21-.07.31v.06c0,.11,0,.22-.08.33l0,.06c-.06.23-.13.45-.2.68l0,.06-.12.33,0,0c0,.1-.08.21-.13.35l-.14.33,0,.07-.16.35-.15.3,0,.06c-.05.1-.1.21-.16.31l0,.06-.18.32-.19.31,0,.07c-.06.1-.12.2-.19.3l0,0-.21.31-.14.2c.1-.16.16-.25.16-.26,0-2.32-1.65-3.25-3.67-2.09a8.07,8.07,0,0,0-3.64,6.25l-.12,0-.19-.08h0l-.18-.1,0,0-.19-.12a.67.67,0,0,1-.16-.12l0,0L39,14.64l0,0-.15-.15,0,0-.15-.17c0-.06-.09-.12-.13-.19l0,0a1.18,1.18,0,0,1-.11-.19l0,0c0-.07-.07-.13-.11-.23a1.33,1.33,0,0,1-.1-.24l-.09-.24v0a2.17,2.17,0,0,1-.07-.24l0-.05c0-.08,0-.17-.06-.28s0-.18,0-.3a2.89,2.89,0,0,1,0-.29v-.05c0-.1,0-.2,0-.3v0c0-.1,0-.22,0-.32a9.82,9.82,0,0,1,.06-1.09,11.73,11.73,0,0,1,.4-1.87A7.24,7.24,0,0,1,38.52,7.48Zm5.16.92A4.89,4.89,0,0,0,45.9,4.55c0-1.41-1-2-2.24-1.27a4.89,4.89,0,0,0-2.22,3.85c0,1.41,1,2,2.24,1.27"/>
                        <g id="Grupo_918" data-name="Grupo 918">
                            <path id="Trazado_409" data-name="Trazado 409" class="cls-22" d="M43.66,3.28a4.89,4.89,0,0,0-2.22,3.85c0,1.41,1,2,2.24,1.27A4.89,4.89,0,0,0,45.9,4.55C45.9,3.14,44.89,2.57,43.66,3.28Z"/>
                        </g>
                    </g>
                </g>
                <g id="Grupo_922" data-name="Grupo 922" class="cls-28">
                    <path id="Rectángulo_400-6" data-name="Rectángulo 400-6" class="cls-15" d="M120.91,92.89l-28,14.69a5.61,5.61,0,0,0-2.67,4.62l.53,41.54c0,.57.41.8.9.54l27.54-15.44a5.59,5.59,0,0,0,2.54-4.46h0V93.48C121.77,92.9,121.38,92.64,120.91,92.89Z"/>
                    <g id="Grupo_921" data-name="Grupo 921">
                        <path id="Elipse_15-2-6" data-name="Elipse 15-2-6" class="cls-17" d="M116.62,117a5.59,5.59,0,0,0-2.58,4.5c0,1.71,1.17,2.46,2.6,1.68a5.59,5.59,0,0,0,2.57-4.49C119.2,117,118.05,116.27,116.62,117Z"/>
                    </g>
                    <path id="los_simspon-6" data-name="los simspon-6" class="cls-18" d="M116.62,117.48a4.82,4.82,0,0,0-2.21,3.86c0,1.47,1,2.11,2.23,1.44a4.77,4.77,0,0,0,2.2-3.85C118.84,117.47,117.85,116.82,116.62,117.48Z"/>
                    <g id="Grupo_786" data-name="Grupo 786">
                        <g id="Grupo_797" data-name="Grupo 797">
                            <path id="Elipse_16" data-name="Elipse 16" class="cls-29" d="M101.8,138.8a1.79,1.79,0,0,0-.83,1.44c0,.54.38.77.84.52a1.8,1.8,0,0,0,.83-1.44C102.63,138.78,102.26,138.55,101.8,138.8Z"/>
                            <path id="Trazado_257" data-name="Trazado 257" class="cls-29" d="M101.76,139.49l-.06.18-.14.1a.08.08,0,0,0,0,.08s0,0,0,0l.1.06,0,.18s0,0,0,0l0,0,.12-.15h.13a.07.07,0,0,0,.06-.05v0l0-.15.1-.17s0-.06,0-.07h0l-.15.05-.06-.11s0,0-.06,0,0,0,0,0Z"/>
                            <path id="Trazado_258" data-name="Trazado 258" d="M102.13,139.48a.06.06,0,0,0-.07,0h0l-.11.05,0-.1a.08.08,0,0,0-.08,0h0a.15.15,0,0,0-.08.11l0,.15-.12.08,0,.06a.12.12,0,0,0,0,.16l.08,0v.15a.06.06,0,0,0,0,.07s.08,0,.12,0l.1-.12H102a.23.23,0,0,0,.08-.17l0-.13.08-.14a.16.16,0,0,0,0-.12Zm-.11.1-.09.14a.08.08,0,0,0,0,.07l0,.13h-.11a.05.05,0,0,0,0,0l-.11.12,0-.15s0,0,0,0l-.09-.05.12-.08a.21.21,0,0,0,0-.06l0-.16.06.1s0,0,0,0h0Z"/>
                            <path id="Trazado_259" data-name="Trazado 259" d="M101.81,140.55c-.36.2-.66,0-.66-.41a1.36,1.36,0,0,1,.4-.93s.06,0,.06,0a.1.1,0,0,1,0,.09,1,1,0,0,0-.29,1c.11.27.44.24.72-.05a1,1,0,0,0,.29-1,.3.3,0,0,0-.3-.18s0,0,0-.06a.1.1,0,0,1,.07-.08h0c.33,0,.5.34.36.81a1.37,1.37,0,0,1-.6.81Z"/>
                            <path id="Trazado_260" data-name="Trazado 260" d="M101.8,139.13s0,0,0,0a.09.09,0,0,1,0,0s0-.05.07,0,0,.05,0,.09S101.81,139.12,101.8,139.13Z"/>
                            <g id="Grupo_796" data-name="Grupo 796">
                                <path id="Trazado_261" data-name="Trazado 261" d="M100.93,140.27a1.88,1.88,0,0,1,.87-1.52c.48-.27.88,0,.88.55a1.87,1.87,0,0,1-.87,1.51C101.33,141.08,100.93,140.83,100.93,140.27Zm.09-.05c0,.51.36.73.8.49a1.71,1.71,0,0,0,.78-1.36c0-.52-.36-.73-.8-.49a1.66,1.66,0,0,0-.78,1.36Z"/>
                            </g>
                        </g>
                        <g id="Grupo_799" data-name="Grupo 799">
                            <path id="Elipse_16-2" data-name="Elipse 16-2" class="cls-29" d="M96.14,141.93a1.79,1.79,0,0,0-.83,1.45c0,.54.38.77.85.51a1.81,1.81,0,0,0,.83-1.44C97,141.91,96.6,141.68,96.14,141.93Z"/>
                            <path id="Trazado_257-2" data-name="Trazado 257-2" class="cls-29" d="M96.11,142.62l-.07.19-.14.1a.08.08,0,0,0,0,.07l0,0,.1.06,0,.18s0,0,0,0,0,0,0,0l.13-.15h.13s0,0,0-.05,0,0,0,0l0-.15.1-.17a.08.08,0,0,0,0-.07h0l-.14.05-.07-.11s0,0,0,0a.05.05,0,0,0,0,0Z"/>
                            <path id="Trazado_258-2" data-name="Trazado 258-2" d="M96.47,142.61a0,0,0,0,0-.06,0h0l-.12.05,0-.1s0,0-.09,0h0a.15.15,0,0,0-.08.11l0,.15-.12.08,0,.06c0,.07,0,.14,0,.16l.08.05v.15a0,0,0,0,0,0,.06s.08,0,.12,0l.1-.13h.16a.23.23,0,0,0,.08-.17l0-.12.08-.15a.13.13,0,0,0,0-.12Zm-.11.1-.09.15s0,0,0,.06l0,.13h-.11s0,0,0,0l-.1.13V143s0,0,0,0l-.09-.05.12-.09,0-.06,0-.16.06.1a0,0,0,0,0,0,0Z"/>
                            <path id="Trazado_259-2" data-name="Trazado 259-2" d="M96.15,143.69c-.36.2-.66,0-.66-.4a1.45,1.45,0,0,1,.39-.95s.06,0,.07,0a.12.12,0,0,1,0,.1,1,1,0,0,0-.3,1c.12.27.45.24.73,0a1,1,0,0,0,.3-1,.3.3,0,0,0-.31-.19s0,0,0-.06a.11.11,0,0,1,.06-.07h0c.34,0,.5.33.37.8a1.38,1.38,0,0,1-.6.82Z"/>
                            <path id="Trazado_260-2" data-name="Trazado 260-2" d="M96.14,142.26s0,0,0,0a.09.09,0,0,1,0,0,.07.07,0,0,1,.08,0s0,.05,0,.09Z"/>
                            <g id="Grupo_796-2" data-name="Grupo 796-2">
                                <path id="Trazado_261-2" data-name="Trazado 261-2" d="M95.26,143.4a1.86,1.86,0,0,1,.88-1.52c.48-.27.88,0,.89.54a1.91,1.91,0,0,1-.87,1.53C95.67,144.21,95.27,144,95.26,143.4Zm.09-.05c0,.52.37.73.8.49a1.7,1.7,0,0,0,.79-1.37c0-.51-.37-.73-.8-.48A1.7,1.7,0,0,0,95.35,143.35Z"/>
                            </g>
                        </g>
                        <g id="Grupo_800" data-name="Grupo 800">
                            <path id="Elipse_16-3" data-name="Elipse 16-3" class="cls-29" d="M98,140.89a1.76,1.76,0,0,0-.83,1.44c0,.54.38.77.85.52a1.81,1.81,0,0,0,.82-1.45C98.87,140.86,98.49,140.63,98,140.89Z"/>
                            <path id="Trazado_257-3" data-name="Trazado 257-3" class="cls-29" d="M98,141.57l-.07.19-.14.1a.11.11,0,0,0,0,.07,0,0,0,0,0,0,0l.1.06,0,.18s0,0,0,0l0,0,.13-.14h.13s0,0,0,0a0,0,0,0,0,0,0l0-.16.1-.17a.08.08,0,0,0,0-.07h0l-.14.06-.06-.12s0,0-.06,0l0,0Z"/>
                            <path id="Trazado_258-3" data-name="Trazado 258-3" d="M98.36,141.56a0,0,0,0,0-.06,0h0l-.12,0,0-.09a.05.05,0,0,0-.08,0h0a.19.19,0,0,0-.09.11l0,.15-.11.09a.09.09,0,0,0-.06.06c0,.06,0,.13,0,.15l.09,0,0,.15a.07.07,0,0,0,0,.06s.08,0,.12,0l.1-.12h.16a.21.21,0,0,0,.08-.17l0-.12.08-.14a.15.15,0,0,0,0-.13Zm-.11.11-.08.14a.08.08,0,0,0,0,.07l0,.13h-.11s0,0,0,0l-.1.12,0-.15a.05.05,0,0,0,0,0l-.09-.06.12-.08a.21.21,0,0,0,0-.06l0-.16.06.1a0,0,0,0,0,0,0Z"/>
                            <path id="Trazado_259-3" data-name="Trazado 259-3" d="M98.05,142.64c-.37.2-.67,0-.67-.41a1.41,1.41,0,0,1,.4-.94,0,0,0,0,1,.07,0,.17.17,0,0,1,0,.1,1,1,0,0,0-.29,1c.12.26.44.24.72-.05a1,1,0,0,0,.3-1,.3.3,0,0,0-.3-.19s0,0,0-.06a.12.12,0,0,1,.07-.07h0c.34,0,.5.33.37.8a1.4,1.4,0,0,1-.61.82Z"/>
                            <path id="Trazado_260-3" data-name="Trazado 260-3" d="M98,141.22s0,0,0,0a.13.13,0,0,1,0-.06s.06,0,.08,0,0,0,0,.09A.08.08,0,0,1,98,141.22Z"/>
                            <g id="Grupo_796-3" data-name="Grupo 796-3">
                                <path id="Trazado_261-3" data-name="Trazado 261-3" d="M97.16,142.35a1.85,1.85,0,0,1,.87-1.51c.48-.27.88,0,.89.54a1.89,1.89,0,0,1-.87,1.52C97.56,143.17,97.16,142.92,97.16,142.35Zm.08,0c0,.51.37.73.8.48a1.7,1.7,0,0,0,.79-1.36c0-.51-.37-.73-.8-.49a1.73,1.73,0,0,0-.79,1.37Z"/>
                            </g>
                        </g>
                        <g id="Grupo_801" data-name="Grupo 801">
                            <path id="Elipse_16-4" data-name="Elipse 16-4" class="cls-29" d="M99.92,139.84a1.79,1.79,0,0,0-.83,1.44c0,.55.38.78.84.52a1.78,1.78,0,0,0,.83-1.44C100.75,139.82,100.38,139.59,99.92,139.84Z"/>
                            <path id="Trazado_257-4" data-name="Trazado 257-4" class="cls-29" d="M99.88,140.53l-.06.19-.14.1a.07.07,0,0,0,0,.07,0,0,0,0,0,0,0l.11.06,0,.18s0,0,0,0a0,0,0,0,0,0,0l.13-.15h.13s0,0,0-.05a0,0,0,0,0,0,0l0-.15.1-.17a.08.08,0,0,0,0-.07,0,0,0,0,0,0,0l-.14,0-.06-.11s0,0-.06,0,0,0,0,0Z"/>
                            <path id="Trazado_258-4" data-name="Trazado 258-4" d="M100.25,140.51a0,0,0,0,0-.06,0h0l-.11,0,0-.09a.06.06,0,0,0-.09,0h0a.21.21,0,0,0-.08.11l0,.15-.12.09a.1.1,0,0,0,0,.06c0,.06,0,.13,0,.15l.08.05,0,.15a.13.13,0,0,0,0,.06s.09,0,.13,0l.1-.12h.1l0,0h0a.21.21,0,0,0,.08-.17l0-.12.08-.14a.19.19,0,0,0,0-.13Zm-.11.1-.09.15a.07.07,0,0,0,0,.06l0,.13H100l0,0-.11.13,0-.15a0,0,0,0,0,0,0l-.09-.05.12-.09a.1.1,0,0,0,0,0l0-.16.06.1s0,0,0,0Z"/>
                            <path id="Trazado_259-4" data-name="Trazado 259-4" d="M99.93,141.59c-.36.2-.66,0-.66-.4a1.39,1.39,0,0,1,.4-.94s0,0,.06,0a.1.1,0,0,1,0,.09,1,1,0,0,0-.3,1c.12.27.45.25.73,0a1.07,1.07,0,0,0,.29-1,.3.3,0,0,0-.3-.18s0,0,0-.06a.1.1,0,0,1,.07-.08h0c.33,0,.5.34.36.81a1.33,1.33,0,0,1-.6.81Z"/>
                            <path id="Trazado_260-4" data-name="Trazado 260-4" d="M99.92,140.17a0,0,0,0,1-.06,0l0,0s.05-.05.07,0,0,0,0,.09A0,0,0,0,1,99.92,140.17Z"/>
                            <g id="Grupo_796-4" data-name="Grupo 796-4">
                                <path id="Trazado_261-4" data-name="Trazado 261-4" d="M99,141.31a1.88,1.88,0,0,1,.87-1.51c.49-.27.89,0,.89.54a1.86,1.86,0,0,1-.87,1.51C99.45,142.12,99.05,141.88,99,141.31Zm.09-.05c0,.51.37.73.8.49a1.69,1.69,0,0,0,.78-1.36c0-.51-.36-.73-.79-.49a1.7,1.7,0,0,0-.79,1.36Z"/>
                            </g>
                        </g>
                        <g id="Grupo_798" data-name="Grupo 798">
                            <path id="Elipse_16-5" data-name="Elipse 16-5" class="cls-30" d="M94.24,143a1.79,1.79,0,0,0-.83,1.45c0,.54.39.77.85.51a1.76,1.76,0,0,0,.83-1.44C95.08,143,94.7,142.73,94.24,143Z"/>
                            <path id="Trazado_257-5" data-name="Trazado 257-5" class="cls-30" d="M94.21,143.67l-.06.19L94,144a.08.08,0,0,0,0,.07s0,0,0,0l.1.06,0,.18s0,.05,0,0l0,0,.13-.15h.13s0,0,.05,0,0,0,0,0l0-.15.1-.17a.08.08,0,0,0,0-.07h0l-.14.05-.07-.12s0,0,0,0a.05.05,0,0,0,0,0Z"/>
                            <path id="Trazado_258-5" data-name="Trazado 258-5" d="M94.58,143.66a.06.06,0,0,0-.07,0h0l-.12,0,0-.1s0,0-.09,0h0a.2.2,0,0,0-.09.11l0,.15-.11.08-.06.06c0,.07,0,.14,0,.16l.09,0,0,.15a.13.13,0,0,0,0,.06s.08,0,.13,0l.1-.12h.16a.23.23,0,0,0,.08-.17l0-.12.08-.15a.16.16,0,0,0,0-.12Zm-.11.1-.09.15a.13.13,0,0,0,0,.06l0,.13h-.11a.05.05,0,0,0,0,0l-.11.12,0-.15a0,0,0,0,0,0,0L94,144l.12-.09a.1.1,0,0,0,0,0l0-.16.06.1s0,0,0,0Z"/>
                            <path id="Trazado_259-5" data-name="Trazado 259-5" d="M94.26,144.74c-.37.2-.67,0-.67-.41a1.39,1.39,0,0,1,.4-.94s.05,0,.06,0a.1.1,0,0,1,0,.09,1,1,0,0,0-.3,1c.12.26.45.24.74-.05a1.07,1.07,0,0,0,.29-1,.3.3,0,0,0-.31-.18s0,0,0-.07a.1.1,0,0,1,.07-.07h0c.34,0,.5.34.37.81a1.4,1.4,0,0,1-.61.82Z"/>
                            <path id="Trazado_260-5" data-name="Trazado 260-5" d="M94.24,143.31s0,0,0,0a.07.07,0,0,1,0-.05s.06-.06.08,0,0,.05,0,.08A.08.08,0,0,1,94.24,143.31Z"/>
                            <g id="Grupo_796-5" data-name="Grupo 796-5">
                                <path id="Trazado_261-5" data-name="Trazado 261-5" d="M93.36,144.46a1.89,1.89,0,0,1,.88-1.53c.49-.27.89,0,.9.54a1.89,1.89,0,0,1-.88,1.53C93.77,145.27,93.37,145,93.36,144.46Zm.09-.05c0,.51.37.73.81.48a1.73,1.73,0,0,0,.79-1.37.51.51,0,0,0-.81-.49A1.72,1.72,0,0,0,93.45,144.41Z"/>
                            </g>
                        </g>
                    </g>
                    <path id="Trazado_410" data-name="Trazado 410" class="cls-16" d="M119.18,100.81,93,114.7l0,2,26.15-13.91Z"/>
                    <path id="Trazado_411" data-name="Trazado 411" class="cls-16" d="M119.19,103.94,93.05,117.87l0,2,26.12-14Z"/>
                    <path id="Trazado_412" data-name="Trazado 412" class="cls-16" d="M119.19,107.05l-26.1,14,0,2,26.08-14Z"/>
                    <path id="Trazado_413" data-name="Trazado 413" class="cls-16" d="M119.2,110.15l-8.28,4.46v1.93l8.27-4.47Z"/>
                    <path id="Trazado_414" data-name="Trazado 414" class="cls-19" d="M112.3,119.26,93.19,129.62l0,1.55,19.1-10.38Z"/>
                    <path id="Trazado_415" data-name="Trazado 415" class="cls-19" d="M101,136.09l-7.7,4.24,0,1.46,7.7-4.24Z"/>
                    <path id="Trazado_416" data-name="Trazado 416" class="cls-20" d="M105.58,139.68l-12.2,6.77,0,1.25,12.18-6.78Z"/>
                    <path id="Trazado_417" data-name="Trazado 417" class="cls-19" d="M112.31,121.85l-6,3.25v1.52l6-3.25Z"/>
                    <path id="Trazado_418" data-name="Trazado 418" class="cls-20" d="M112.32,124.57l-11.15,6.09v1.16l11.15-6.1Z"/>
                </g>
            </g>
        </g>
    </g>
</svg>