<svg xmlns="http://www.w3.org/2000/svg" viewBox="0 0 21 21" fill="#67148F">
    <g>
            <path d="M11.26,6.22a2.46,2.46,0,1,0,3.48,0A2.46,2.46,0,0,0,11.26,6.22Zm2.32,2.32a.82.82,0,1,1,0-1.16A.82.82,0,0,1,13.58,8.54Z"/>
            <path d="M20.33.71A2.33,2.33,0,0,0,18.42,0a18.43,18.43,0,0,0-4.2.92A12.44,12.44,0,0,0,9.59,3.72h0l-.17.17L.57,6.76A.82.82,0,0,0,.24,8.12l4,4a4.07,4.07,0,0,0-2.29,1.15c-.66.66-1.17,2-1.55,4.07C.13,18.79,0,20.06,0,20.11A.82.82,0,0,0,.83,21H.9c.05,0,1.32-.11,2.77-.38,2.08-.39,3.41-.9,4.07-1.55a4.07,4.07,0,0,0,1.15-2.3l4,4a.82.82,0,0,0,.58.24l.2,0a.82.82,0,0,0,.59-.55L17,11.56a.82.82,0,0,0-.54-1h0a.82.82,0,0,0-.91.18l-5.14,5.2-5.3-5.29,5.32-5.36a.82.82,0,0,0,.14-.14l.22-.22c2.43-2.38,6-3.05,7.84-3.24a.69.69,0,0,1,.57.21.72.72,0,0,1,.2.6,16.16,16.16,0,0,1-1.43,5,.82.82,0,1,0,1.47.72A17.81,17.81,0,0,0,21,2.65,2.35,2.35,0,0,0,20.33.71ZM14.51,14l-1.42,4.6-1.58-1.58Zm-8.82.39a.63.63,0,0,1,.79-.08l.19.19a.63.63,0,0,1-.08.79,3.85,3.85,0,0,1-1.28.38A3.83,3.83,0,0,1,5.69,14.43Zm0,2.87a6,6,0,0,0,1.51-.44,2.44,2.44,0,0,1-.62,1C6,18.52,3.65,19,1.76,19.26c.24-1.89.73-4.21,1.35-4.83a2.44,2.44,0,0,1,1-.62,6,6,0,0,0-.45,1.5c-.13.66-.18,1.25-.18,1.27a.82.82,0,0,0,.82.89h.06S5,17.42,5.69,17.3ZM3.9,9.45,2.35,7.9,6.89,6.43Z"/>
        </g>
</svg>