<svg version="1.1" 
    xmlns="http://www.w3.org/2000/svg" 
    xmlns:xlink="http://www.w3.org/1999/xlink" x="0px" y="0px" width="21px" height="20.6px" viewBox="0 0 21 20.6" style="enable-background:new 0 0 21 20.6;" xml:space="preserve">
    <defs>
    </defs>
    <g>
        <path d="M17.7,3.3h-3.5V2.3c0-1.2-1-2.3-2.3-2.3H9.1C7.8,0,6.8,1,6.8,2.3v1.1H3.3C1.5,3.3,0,4.8,0,6.6v9.6c0,1.8,1.5,3.3,3.3,3.3
		H10c0.5,0,0.8-0.4,0.8-0.8c0-0.5-0.4-0.8-0.8-0.8H3.3c-0.9,0-1.6-0.7-1.6-1.6V9.9h8.1v1.2c0,0.5,0.4,0.8,0.8,0.8
		c0.5,0,0.8-0.4,0.8-0.8V9.9h8v1c0,0.5,0.4,0.8,0.8,0.8c0.5,0,0.8-0.4,0.8-0.8V6.6C21,4.8,19.5,3.3,17.7,3.3z M8.5,2.3
		c0-0.3,0.3-0.6,0.6-0.6h2.9c0.3,0,0.6,0.3,0.6,0.6v1.1H8.5V2.3z M19.4,8.3H1.6V6.6C1.6,5.7,2.4,5,3.3,5h14.4c0.9,0,1.6,0.7,1.6,1.6
		V8.3z"/>
        <path d="M20.2,12.7c0-0.1-0.2-0.1-0.2,0l-1.3,1.5c-0.1,0.1-0.1,0.1-0.2,0.1L18,14.5c-0.4,0.1-0.7-0.2-0.7-0.6l0-0.5
		c0-0.1,0-0.2,0.1-0.2l1.3-1.5c0.1-0.1,0-0.2-0.1-0.2c-0.9-0.2-1.8,0.1-2.4,0.9c-0.4,0.6-0.5,1.4-0.3,2.1l-1.5,1.8
		c-0.8-0.2-1.8,0-2.4,0.7c-0.6,0.7-0.7,1.6-0.3,2.4c0,0.1,0.2,0.1,0.2,0l1.3-1.5c0.1-0.1,0.1-0.1,0.2-0.1l0.5-0.1
		c0.4-0.1,0.7,0.2,0.7,0.6l0,0.5c0,0.1,0,0.2-0.1,0.2l-1.3,1.5c-0.1,0.1,0,0.2,0.1,0.2c0.9,0.2,1.8-0.1,2.4-0.9
		c0.5-0.6,0.5-1.4,0.3-2.1l1.5-1.8c0.9,0.3,1.8,0,2.5-0.7C20.4,14.4,20.5,13.5,20.2,12.7z"/>
    </g>
</svg>
