<svg xmlns="http://www.w3.org/2000/svg" viewBox="0 0 71 97.73" fill="#67148F">
    <g >
        <path class="cls-1" d="M36,97.73h-.09A9.06,9.06,0,0,1,28,84.33a1.89,1.89,0,0,1,1.69-1l12.76.12a1.9,1.9,0,0,1,1.67,1A9.07,9.07,0,0,1,36,97.73ZM30.87,87.12a5,5,0,0,0-.23,1.45A5.34,5.34,0,0,0,35.93,94L36,95.84V94a5.35,5.35,0,0,0,5.33-5.29,4.94,4.94,0,0,0-.2-1.45Z"/>
        <path class="cls-1" d="M1.89,86.95A1.89,1.89,0,0,1,0,85c.12-8.57,3.65-18.53,9.47-26.8a32.62,32.62,0,0,1-.32-4.61C9.29,39.5,17.54,27,29.22,23.19a1.89,1.89,0,0,1,1.6.21c1.71,1.1,5,2.94,8,2.94a5.79,5.79,0,0,0,1.59-.21,4.55,4.55,0,0,0,2.49-1.86,1.89,1.89,0,0,1,2.23-.69C56.5,27.91,64,40.2,63.91,54.15a33.75,33.75,0,0,1-.38,4.57C68.47,66,71.05,75,71,85a1.89,1.89,0,0,1-1.89,1.88l-67.22,0ZM29.58,27.07c-9.72,3.62-16.52,14.41-16.64,26.59a30.57,30.57,0,0,0,.38,4.79A1.89,1.89,0,0,1,13,59.83C7.78,67,4.45,75.58,3.87,83.17l63.33,0C66.93,74.4,64.46,66.53,60,60.28a1.89,1.89,0,0,1-.33-1.4,31.51,31.51,0,0,0,.45-4.77C60.25,42.26,54.23,31.8,45,27.62a8.12,8.12,0,0,1-3.57,2.13,9.55,9.55,0,0,1-2.63.36C35.46,30.11,32.06,28.55,29.58,27.07Z"/>
        <path class="cls-1" d="M38.13,24.08h0A21.32,21.32,0,0,1,31,22.47c-.46-.18-.74-.5-.74-.84l.28-17.87C30.62,1.69,33.38,0,36.74,0a8.38,8.38,0,0,1,4.39,1.14,3.24,3.24,0,0,1,1.76,2.7L42.6,22.07a.71.71,0,0,1-.2.46,4.66,4.66,0,0,1-2.75,1.42A8.7,8.7,0,0,1,38.13,24.08Zm-4.65-3a15.3,15.3,0,0,0,4.65,1h0a3.71,3.71,0,0,0,.64,0,1.4,1.4,0,0,0,.66-.29l.28-18a1.57,1.57,0,0,0-.85-1.31A4,4,0,0,0,36.76,2c-1.65,0-3,.82-3,1.82Z"/>

    </g>
</svg>