<svg xmlns="http://www.w3.org/2000/svg" viewBox="0 0 42 42" fill="#67148F">
    <path d="M37.08,6.15H35.44V5.74A5.75,5.75,0,0,0,29.7,0h-24A5.75,5.75,0,0,0,0,5.74v4.1a5.75,5.75,0,0,0,5.74,5.74H21.49a1.64,1.64,0,0,0,0-3.28H5.74A2.46,2.46,0,0,1,3.28,9.84V5.74A2.46,2.46,0,0,1,5.74,3.28h24a2.46,2.46,0,0,1,2.46,2.46v4.1A2.46,2.46,0,0,1,29.7,12.3a1.64,1.64,0,0,0,0,3.28,5.75,5.75,0,0,0,5.74-5.74V9.43h1.64a1.64,1.64,0,0,1,1.64,1.64v6.15a1.64,1.64,0,0,1-1.64,1.64H23.46a6.57,6.57,0,0,0-6.56,6.56v.84H15.26a1.64,1.64,0,0,0-1.64,1.64v9.17a4.92,4.92,0,0,0,9.84,0V27.9a1.64,1.64,0,0,0-1.64-1.64H20.18v-.83a3.28,3.28,0,0,1,3.28-3.28H37.08A4.93,4.93,0,0,0,42,17.23V11.07A4.93,4.93,0,0,0,37.08,6.15ZM20.18,37.08a1.64,1.64,0,0,1-3.28,0V29.55h3.28Z"/>
</svg>