<svg xmlns="http://www.w3.org/2000/svg" viewBox="0 0 42 42" fill="#ffffff">
    <g>
            <path d="M41.52,8.08,35.35,1.92A6.52,6.52,0,0,0,30.71,0h0a6.52,6.52,0,0,0-4.64,1.93h0L24.67,3.35A1.64,1.64,0,1,0,27,5.65l1.39-1.41a3.26,3.26,0,0,1,2.32-1h0a3.26,3.26,0,0,1,2.32,1L37.3,8.5H35.85a1.64,1.64,0,0,0-1.64,1.64v1.43H32.81a1.64,1.64,0,0,0-1.64,1.64v1.48H29.69a1.64,1.64,0,0,0-1.64,1.64v1.56H26.5a1.64,1.64,0,0,0-1.64,1.64v1.89H23.46A1.64,1.64,0,0,0,21.82,23v1.48H20.34a1.64,1.64,0,0,0-1.64,1.64v1.56H17.14a1.64,1.64,0,0,0-1.64,1.64v2.19L8.34,24.43,21.15,11.54a1.64,1.64,0,1,0-2.33-2.31l-16.92,17a6.57,6.57,0,0,0,0,9.28l6,6a1.64,1.64,0,0,0,2.32-2.32l-6-6a3.29,3.29,0,0,1,0-4.64L6,26.76l8.71,8.66a1.64,1.64,0,0,0,1.16.48h0a1.64,1.64,0,0,0,1.16-.51l1.25-1.3A1.64,1.64,0,0,0,18.78,33V31h1.56A1.64,1.64,0,0,0,22,29.37V27.81h1.48a1.64,1.64,0,0,0,1.64-1.64V24.69H26.5A1.64,1.64,0,0,0,28.14,23V21.16h1.55a1.64,1.64,0,0,0,1.64-1.64V18h1.48a1.64,1.64,0,0,0,1.64-1.64V14.84h1.39a1.64,1.64,0,0,0,1.64-1.64V11.78h2a1.64,1.64,0,0,0,1.16-.48l.9-.9a1.64,1.64,0,0,0,0-2.32Z"/>
        </g>
</svg>