<svg xmlns="http://www.w3.org/2000/svg" viewBox="0 0 42 42" fill="#67148F">
    <g>
            <path class="cls-1" d="M.5,2.28V30.65a.16.16,0,0,0,.26.14l13.85-13.5a.44.44,0,0,0,0-.61L.77,2.15A.16.16,0,0,0,.5,2.28Z"/>
            <path class="cls-1" d="M27.58,18l-3.23,3.39a3.63,3.63,0,0,1-2.64,1.16,3.48,3.48,0,0,1-2.53-1.1L15.88,18l-.09-.1L2.17,31.17a.1.1,0,0,0,.06.17h39a.1.1,0,0,0,.06-.17L27.68,17.9Z"/>
            <path class="cls-1" d="M23.9,19.85a2.73,2.73,0,0,1-4.33,0L1.53.5h40.4Z"/>
            <path class="cls-1" d="M42.79,2.35V30.72a.16.16,0,0,1-.26.14L28.68,17.36a.44.44,0,0,1,0-.61L42.52,2.22A.16.16,0,0,1,42.79,2.35Z"/>
        </g>
</svg>