<svg xmlns="http://www.w3.org/2000/svg" viewBox="0 0 21 19.9" fill="#23c3f1">
        <g>
            <path d="M10.54,19.26c.72,0,2.08.71,2.79.64a3.21,3.21,0,0,0,2-1.42c.16-.26.35-.49.51-.75a.86.86,0,0,1,.55-.39A9.58,9.58,0,0,0,17.49,17a3.8,3.8,0,0,0,1-.53,2.8,2.8,0,0,0,1.05-2.31,4.54,4.54,0,0,1,0-1.46,4.92,4.92,0,0,1,.86-1.2l0,0a2.43,2.43,0,0,0,.07-2.93c-.25-.38-.56-.72-.83-1.09a.8.8,0,0,1-.15-.41c0-.55,0-1.1,0-1.65A2.37,2.37,0,0,0,17.89,3c-.51-.18-1-.33-1.56-.47a.88.88,0,0,1-.55-.4c-.23-.35-.47-.7-.72-1a2.51,2.51,0,0,0-3-1c-.4.14-.8.27-1.19.43a.94.94,0,0,1-.73,0C9.76.44,9.37.32,9,.18a2.51,2.51,0,0,0-3.1,1c-.25.35-.48.72-.74,1.06a.88.88,0,0,1-.43.29c-.38.11-.77.17-1.16.25A2.49,2.49,0,0,0,1.45,5.36c0,.56,0,1.12,0,1.68a.81.81,0,0,1-.15.42c-.23.32-.49.62-.73.94a2.47,2.47,0,0,0,0,3.15c.24.32.5.62.73.94a.75.75,0,0,1,.14.39c0,.61,0,1.22,0,1.83a2.16,2.16,0,0,0,1.06,1.89,2.83,2.83,0,0,0,.51.29c.14,0,1.18.35,1.38.42a4.32,4.32,0,0,1,.61.2.79.79,0,0,1,.16.19c.24.35.49.69.72,1A2.13,2.13,0,0,0,7.61,19.9C8.36,19.88,9.79,19.24,10.54,19.26Zm8.2-8.92c-.25.32-.5.64-.76.95a2.1,2.1,0,0,0-.49,1.35c0,.52,0,1,0,1.57a.78.78,0,0,1-.63.85l-1.17.33a2.67,2.67,0,0,0-1.54,1.1l-.76,1.11a.47.47,0,0,1-.66.21l-1.24-.44a2.72,2.72,0,0,0-1.94,0l-1.19.42c-.41.14-.53.1-.78-.26l-.7-1a2.72,2.72,0,0,0-1.58-1.13l-1.46-.43a.38.38,0,0,1-.31-.45c0-.3,0-.6,0-.9a3.17,3.17,0,0,0,0-.41,6,6,0,0,0-.11-1.07A2.17,2.17,0,0,0,3,11.33c-.24-.35-.53-.68-.79-1s-.22-.42,0-.71.49-.65.75-1a2.25,2.25,0,0,0,.52-1.5c0-.59,0-1.17,0-1.76,0-.4.09-.51.49-.59l1.09-.22A2.65,2.65,0,0,0,6.88,3.41l.72-1c.23-.32.35-.37.72-.24s.78.27,1.17.42a2.77,2.77,0,0,0,2,0l1.22-.43a.46.46,0,0,1,.64.21l.75,1.08A2.67,2.67,0,0,0,15.7,4.54c.46.12.91.26,1.36.4s.42.19.42.57c0,.7,0,1.41.06,2.11a2,2,0,0,0,.34.87c.25.39.56.74.85,1.1S19,10,18.74,10.34Z"/>
            <path d="M15.33,10a.82.82,0,0,0-1,.66A3.89,3.89,0,1,1,11.59,6.2.82.82,0,0,0,12,4.62,5.54,5.54,0,1,0,16,11,.82.82,0,0,0,15.33,10Z"/>
            <path d="M9.48,9a.82.82,0,1,0-1.16,1.16l1.21,1.21a1.44,1.44,0,0,0,2,0l3.58-3.55A.82.82,0,1,0,14,6.66l-3.44,3.4Z"/>
        </g>
</svg>