<svg xmlns="http://www.w3.org/2000/svg" viewBox="0 0 21 21" fill="#ffffff">
    <g id="Capa_1-2" data-name="Capa 1">
        <path d="M10.46,8.29a.82.82,0,1,1-.82.82A.82.82,0,0,1,10.46,8.29Zm2.87.82a.82.82,0,1,0,.82-.82A.82.82,0,0,0,13.33,9.11ZM6,9.11a.82.82,0,1,0,.82-.82A.82.82,0,0,0,6,9.11ZM20.28,16.8a2.46,2.46,0,0,1-3.48,3.48l-4.5-4.49a.84.84,0,0,1-.21-.35l-1-3.23a.81.81,0,0,1,1-1l3.31.91a.91.91,0,0,1,.37.21Zm-6.68-2,3,3,1.16-1.16-3-3-1.67-.46ZM19.12,18,19,17.8,17.8,19l.16.16A.82.82,0,0,0,19.12,18ZM11,17H10.5a10,10,0,0,1-3.77-.73.86.86,0,0,0-.63,0L2.36,17.86l1.26-3A.84.84,0,0,0,3.48,14,7,7,0,0,1,1.64,9.35c0-4.25,4-7.71,8.86-7.71s8.86,3.46,8.86,7.71a6.74,6.74,0,0,1-.74,3,.82.82,0,0,0,1.47.73A8.27,8.27,0,0,0,21,9.35C21,4.19,16.29,0,10.5,0S0,4.19,0,9.35A8.51,8.51,0,0,0,1.91,14.7L.06,19.08a.82.82,0,0,0,.76,1.14.87.87,0,0,0,.32-.06l5.29-2.24a11.41,11.41,0,0,0,4.07.73H11A.82.82,0,0,0,11,17Z"/>
    </g>
</svg>