<svg xmlns="http://www.w3.org/2000/svg" viewBox="0 0 21 21" fill="#ffffff">
        <g>
            <path d="M21,2.48V7.2a2.49,2.49,0,0,1-2.48,2.48.34.34,0,0,0-.34.34v1a1.15,1.15,0,0,1-2,.82h0l-1.58-1.64a1.4,1.4,0,0,0-.52-.37.82.82,0,0,1,.6-1.53A3,3,0,0,1,15.78,9h0l.75.78a2,2,0,0,1,2-1.79.84.84,0,0,0,.84-.84V2.48a.84.84,0,0,0-.84-.84H14.85a.82.82,0,0,1,0-1.64h3.67A2.49,2.49,0,0,1,21,2.48ZM6.23,5.78A.82.82,0,1,0,5.41,5,.82.82,0,0,0,6.23,5.78Zm2.87,0A.82.82,0,1,0,8.29,5,.82.82,0,0,0,9.11,5.78Zm-5.7,0A.82.82,0,1,0,2.58,5,.82.82,0,0,0,3.4,5.78Zm17.6,14v.36a.82.82,0,0,1-1.64,0v-.36a.57.57,0,0,0-.19-.43,3.41,3.41,0,0,0-4.42,0,.57.57,0,0,0-.19.43v.36a.82.82,0,0,1-1.64,0v-.36a.57.57,0,0,0-.19-.42,3.29,3.29,0,0,0-2.23-.82,3.29,3.29,0,0,0-2.23.82.57.57,0,0,0-.19.42v.36a.82.82,0,0,1-1.64,0v-.36a.57.57,0,0,0-.19-.43A3.25,3.25,0,0,0,4,18.58a3.25,3.25,0,0,0-2.21.81.57.57,0,0,0-.19.43v.36a.82.82,0,0,1-1.64,0v-.36a2.21,2.21,0,0,1,.74-1.65A4.82,4.82,0,0,1,2,17.36a2.46,2.46,0,1,1,4.22,0,4.82,4.82,0,0,1,1.07.69,4.85,4.85,0,0,1,1.13-.71,2.46,2.46,0,1,1,4.22,0,4.85,4.85,0,0,1,1.13.71,4.82,4.82,0,0,1,1.13-.72,2.46,2.46,0,1,1,4.22,0,4.82,4.82,0,0,1,1.18.78A2.21,2.21,0,0,1,21,19.82ZM3.28,16.12a.82.82,0,1,0,.82-.82A.82.82,0,0,0,3.28,16.12Zm7.22.82a.82.82,0,1,0-.82-.82A.82.82,0,0,0,10.5,16.94Zm5.66-.82A.82.82,0,1,0,17,15.3.82.82,0,0,0,16.16,16.12ZM0,7.2V2.48A2.49,2.49,0,0,1,2.48,0H10a2.49,2.49,0,0,1,2.48,2.48V7.2A2.49,2.49,0,0,1,10,9.68H7.63a1.75,1.75,0,0,0-1.24.51L4.81,11.83h0a1.15,1.15,0,0,1-2-.82V10a.34.34,0,0,0-.34-.34A2.49,2.49,0,0,1,0,7.2Zm1.64,0A.84.84,0,0,0,2.48,8a2,2,0,0,1,2,1.79L5.21,9h0A3.38,3.38,0,0,1,7.63,8H10a.84.84,0,0,0,.84-.84V2.48A.84.84,0,0,0,10,1.64H2.48a.84.84,0,0,0-.84.84Z"/>
        </g>
</svg>