<svg xmlns="http://www.w3.org/2000/svg" viewBox="0 0 42 42"  fill="#ffffff">
    <g>
            <path d="M40.36,28.05A1.64,1.64,0,0,0,42,26.41V6.56A6.57,6.57,0,0,0,35.44,0H6.56A6.57,6.57,0,0,0,0,6.56V35.44A6.57,6.57,0,0,0,6.56,42H35.44A6.57,6.57,0,0,0,42,35.44a1.64,1.64,0,0,0-3.28,0,3.29,3.29,0,0,1-3.28,3.28H23V32.16H34.45a1.64,1.64,0,0,0,0-3.28H32.81v-6.4h5.91v3.94A1.64,1.64,0,0,0,40.36,28.05ZM38.72,6.56v3H32.81V3.28h2.63A3.29,3.29,0,0,1,38.72,6.56Zm-24.94,3V3.28H29.53V9.6ZM6.56,3.28H10.5V9.6H8.2a1.64,1.64,0,0,0,0,3.28h11.4V19.2H3.28V6.56A3.29,3.29,0,0,1,6.56,3.28ZM3.28,28.88v-6.4H10.5v6.4Zm16.41,9.84H6.56a3.29,3.29,0,0,1-3.28-3.28V32.16H19.69ZM31.17,19.2a1.64,1.64,0,0,0-1.64,1.64v8H13.78v-6.4H24.53a1.64,1.64,0,0,0,0-3.28H22.89V12.88H38.72V19.2Z"/>
    </g>
</svg>