<svg xmlns="http://www.w3.org/2000/svg" viewBox="0 0 21 21" fill="#ffffff">
        <g>
            <path d="M4.1,4.63a.82.82,0,0,1,.82-.82H16.08a.82.82,0,0,1,0,1.64H4.92A.82.82,0,0,1,4.1,4.63ZM16.9,7.92a.82.82,0,0,0-.82-.82H4.92a.82.82,0,0,0,0,1.64H16.08A.82.82,0,0,0,16.9,7.92Zm-12,2.46a.82.82,0,0,0,0,1.64H8.7a.82.82,0,0,0,0-1.64ZM20.28,16.8a2.46,2.46,0,0,1-3.48,3.48l-4.49-4.49a.82.82,0,0,1-.21-.36l-.92-3.31a.82.82,0,0,1,1-1l3.23,1a.82.82,0,0,1,.34.21Zm-6.65-2,3,3,1.16-1.16-3-3-1.6-.49ZM19.12,18,19,17.8,17.8,19l.16.16A.82.82,0,0,0,19.12,18ZM17.72,0H3.28A3.28,3.28,0,0,0,0,3.28V17.72A3.28,3.28,0,0,0,3.28,21h10a.82.82,0,1,0,0-1.64h-10a1.64,1.64,0,0,1-1.64-1.64V3.28A1.64,1.64,0,0,1,3.28,1.64H17.72a1.64,1.64,0,0,1,1.64,1.64V13.37a.82.82,0,0,0,1.64,0V3.28A3.28,3.28,0,0,0,17.72,0Z"/>
        </g>
</svg>