<svg xmlns="http://www.w3.org/2000/svg" viewBox="0 0 21 21" fill="#67148F">
        <g >
            <path d="M20.18,3.12A.82.82,0,0,0,21,2.3v0A2.26,2.26,0,0,0,18.75,0a6.87,6.87,0,0,0-2.29.47,5.51,5.51,0,0,0-3.08,2.81L9.79,2.91a3.27,3.27,0,0,0-2.65.94L1,10a3.29,3.29,0,0,0,0,4.64L5.6,19.3A2.71,2.71,0,0,0,7,20.45,6.77,6.77,0,0,0,9.72,21a6.77,6.77,0,0,0,2.77-.56,3.74,3.74,0,0,0,.72-.43,3.74,3.74,0,0,0,.72.43,7.16,7.16,0,0,0,5.53,0C20.8,19.83,21,19,21,18.54V12.18c0-.45-.2-1.29-1.54-1.91a5.84,5.84,0,0,0-1.22-.4l-.37-2.51A6.74,6.74,0,0,0,19.66,6a.82.82,0,0,0-1.23-1.08,4.68,4.68,0,0,1-.82.73l-.19-1.29a.82.82,0,0,0-.73-.7l-1.54-.16A3.93,3.93,0,0,1,17,2a5.31,5.31,0,0,1,1.75-.37.62.62,0,0,1,.62.62v0A.82.82,0,0,0,20.18,3.12ZM9.72,19.36a5,5,0,0,1-2.2-.47v0l-.45-.45V17.25a6.84,6.84,0,0,0,2.67.51h.09a.82.82,0,0,0,0-1.64H9.72a3.65,3.65,0,0,1-2.66-.82,3.65,3.65,0,0,1,2.66-.82,5.17,5.17,0,0,1,1.94.36c.53.22.7.45.72.51v3.18A3.57,3.57,0,0,1,9.72,19.36Zm9.64-7.17v6.33a3.57,3.57,0,0,1-2.67.83A3.57,3.57,0,0,1,14,18.53V17.25a6.84,6.84,0,0,0,2.67.51h.09a.82.82,0,0,0,0-1.64h-.07A3.57,3.57,0,0,1,14,15.29V14.13a6.85,6.85,0,0,0,2.67.51h.09a.82.82,0,0,0,0-1.64h-.08A3.65,3.65,0,0,1,14,12.18a3.65,3.65,0,0,1,2.66-.82A3.57,3.57,0,0,1,19.36,12.19ZM16.07,6.4a11.14,11.14,0,0,1-2.95.66.82.82,0,0,0,0,1.64h0a12.45,12.45,0,0,0,3.1-.64l.24,1.67a6.7,6.7,0,0,0-2.63.55c-1.34.62-1.54,1.46-1.54,1.91,0,0,0,0,0,.07s0,0,0,.05v1.06a6.67,6.67,0,0,0-2.67-.53A6.77,6.77,0,0,0,7,13.39C5.61,14,5.41,14.85,5.41,15.3v0h0v1.44l-3.29-3.3a1.64,1.64,0,0,1,0-2.32L8.29,5a1.64,1.64,0,0,1,1.33-.47L13.83,5h0l2.06.21Z"/>
        </g>

</svg>