<svg xmlns="http://www.w3.org/2000/svg" viewBox="0 0 42 38.37" fill="#ffffff">
        <g>
            <path d="M40.55,30.46a5,5,0,1,0-7-7l-2.63,2.63a1.88,1.88,0,0,1-2.65,0l-4.7-4.7a1.55,1.55,0,0,0-1.09-.45,1.52,1.52,0,0,0-1.09.45,6.81,6.81,0,0,1-9.63,0L7.5,17.13,17.13,7.5l4.25,4.25a6.78,6.78,0,0,1,2,4.41,1.55,1.55,0,0,0,1.54,1.46H25A1.54,1.54,0,0,0,26.44,16a9.86,9.86,0,0,0-2.88-6.42L19.31,5.33l.47-.47A1.55,1.55,0,1,0,17.6,2.67l-3,3L9.33.45A1.55,1.55,0,0,0,7.14,2.64l5.24,5.24L7.88,12.39,2.64,7.14A1.55,1.55,0,0,0,.45,9.33L5.7,14.57l-3,3a1.54,1.54,0,1,0,2.18,2.19l.47-.47,4.25,4.25a9.89,9.89,0,0,0,12.81,1l3.69,3.69a5,5,0,0,0,7,0l2.63-2.63a1.87,1.87,0,0,1,2.65,2.65l-2.63,2.63a5,5,0,0,0,0,7,1.54,1.54,0,1,0,2.18-2.19,1.86,1.86,0,0,1,0-2.64Z"/>
        </g>
</svg>