<svg xmlns="http://www.w3.org/2000/svg" viewBox="0 0 21.38 21" fill="#ffffff">
    <g >
            <path d="M18,3.38h-3.6V2.3A2.3,2.3,0,0,0,12.15,0H9.23a2.3,2.3,0,0,0-2.3,2.3V3.38H3.34A3.35,3.35,0,0,0,0,6.73v9.73A3.35,3.35,0,0,0,3.34,19.8h6.81a.84.84,0,1,0,0-1.67H3.34a1.67,1.67,0,0,1-1.67-1.67V10.11H9.9v1.25a.84.84,0,1,0,1.67,0V10.11h8.14v1a.84.84,0,1,0,1.67,0V6.73A3.35,3.35,0,0,0,18,3.38ZM8.61,2.3a.63.63,0,0,1,.62-.63h2.92a.63.63,0,0,1,.63.63V3.38H8.61ZM19.71,8.44h-18V6.73A1.67,1.67,0,0,1,3.34,5.06H18a1.67,1.67,0,0,1,1.67,1.67Z"/>
            <path d="M20.59,13a.13.13,0,0,0-.23,0l-1.29,1.54a.43.43,0,0,1-.24.14l-.5.11a.57.57,0,0,1-.69-.58l0-.52a.42.42,0,0,1,.1-.25l1.29-1.54a.13.13,0,0,0-.07-.22,2.33,2.33,0,0,0-2.75,3l-1.54,1.83a2.33,2.33,0,0,0-2.8,3.15.13.13,0,0,0,.23,0l1.29-1.54a.43.43,0,0,1,.24-.14l.5-.11a.57.57,0,0,1,.69.58l0,.52a.42.42,0,0,1-.1.25l-1.29,1.54a.13.13,0,0,0,.07.22,2.33,2.33,0,0,0,2.72-3.06l1.5-1.78A2.33,2.33,0,0,0,20.59,13Z"/>
        </g>
</svg>