<svg xmlns="http://www.w3.org/2000/svg" viewBox="0 0 10 10" fill="#ffffff">
        <g id="Capa_1-2" data-name="Capa 1">
            <path d="M5,2.44A2.56,2.56,0,1,0,7.56,5,2.56,2.56,0,0,0,5,2.44ZM5,6.67A1.67,1.67,0,1,1,6.67,5,1.67,1.67,0,0,1,5,6.67ZM8.27,2.33a.6.6,0,1,1-.6-.6A.6.6,0,0,1,8.27,2.33Zm1.7.61A3,3,0,0,0,9.16.84,3,3,0,0,0,7.06,0c-.83,0-3.3,0-4.12,0A3,3,0,0,0,.84.84,3,3,0,0,0,0,2.94c0,.83,0,3.3,0,4.12A3,3,0,0,0,.84,9.16,3,3,0,0,0,2.94,10c.83,0,3.3,0,4.12,0a3,3,0,0,0,2.09-.81A3,3,0,0,0,10,7.06c0-.83,0-3.3,0-4.12Zm-1.07,5a1.69,1.69,0,0,1-1,1A11,11,0,0,1,5,9.1a11.1,11.1,0,0,1-2.95-.2,1.69,1.69,0,0,1-1-1A11,11,0,0,1,.9,5a11.1,11.1,0,0,1,.2-2.95,1.69,1.69,0,0,1,1-1A11,11,0,0,1,5,.9a11.1,11.1,0,0,1,2.95.2,1.69,1.69,0,0,1,1,1A11,11,0,0,1,9.1,5,11,11,0,0,1,8.9,7.95Z"/>
        </g>
</svg>