<svg xmlns="http://www.w3.org/2000/svg" viewBox="0 0 38.71 42" fill="#67148F">
        <g >
            <path d="M27.11,9.7c-3.23,0-6.45,0-9.68,0-2.1,0-4.2,0-6.31,0a2.68,2.68,0,0,0-2.91,2.82c0,1.77-.08,3.55-.05,5.33,0,2.14,1,3.11,3.17,3.13,1.56,0,3.12,0,4.68,0l.22,0a1.25,1.25,0,1,0,0-2.49h0c-1.45,0-2.9,0-4.35,0-.92,0-1.32-.23-1.26-1.22.07-1.37,0-2.75,0-4.13,0-.72.19-1,1-1q7.66,0,15.32,0c.83,0,1.07.34,1,1.1,0,1.34-.05,2.68,0,4,0,.94-.25,1.28-1.22,1.26-1.87,0-3.74,0-5.61,0h0A1.24,1.24,0,0,0,21.23,21l.18,0h0c2,0,3.94,0,5.91,0s3.19-1.09,3.23-3.23c0-1.56,0-3.12,0-4.68C30.51,10.77,29.44,9.71,27.11,9.7Z"/>
            <path d="M38.64,13.29a2.44,2.44,0,0,0-2-2.52c-1.36-.17-1.41-.76-1.43-1.94,0-.18,0-.36,0-.54C35.16,3.24,32,.05,27,0c-2.58,0-5.15,0-7.73,0h0c-2.68,0-5.37,0-8.05,0a7.59,7.59,0,0,0-7.13,4.5,9.5,9.5,0,0,0-.73,4.89c0,.71-.11,1.11-.94,1.24A2.62,2.62,0,0,0,0,13.44c0,1.2,0,2.39,0,3.59a2.58,2.58,0,0,0,2.31,2.72c.9.12,1,.53,1,1.28,0,2.29,0,4.57,0,6.86A14.31,14.31,0,0,0,13.82,41.35a23.4,23.4,0,0,0,9.51.31,13.35,13.35,0,0,0,5.81-2.32,1.24,1.24,0,1,0-1.3-2.1h0a12.27,12.27,0,0,1-3.54,1.59c-5.89,1.63-12.11.92-15.84-3.85a11.67,11.67,0,0,1-2.61-7.34q0-9.63,0-19.25c0-3.89,2.12-6,6-6,5,0,10-.06,15,0a8.47,8.47,0,0,1,3.49,1,4.17,4.17,0,0,1,2.34,3.9c0,3.52,0,10.55.06,10.55,0,3.08,0,6.16,0,9.25a15.65,15.65,0,0,1-.33,3.12s0,.06,0,.09a1.24,1.24,0,0,0,1.22,1.51,1.23,1.23,0,0,0,.35-.05l.07,0a1.24,1.24,0,0,0,.3-.15h0a1.25,1.25,0,0,0,.25-.25v0l.08-.12a.57.57,0,0,0,.06-.12,1.23,1.23,0,0,0,.1-.37,13,13,0,0,0,.27-1.94c.15-2.6.09-5.22.09-7.83,0-.71.11-1.1,1-1.2a2.63,2.63,0,0,0,2.49-2.69A30.72,30.72,0,0,0,38.64,13.29ZM3.31,16.78c0,.23,0,.65-.45.65a.49.49,0,0,1-.49-.54c-.05-1.12-.05-2.24,0-3.36A.5.5,0,0,1,2.84,13c.36,0,.45.41.47.64a14.78,14.78,0,0,1,0,1.62A11.91,11.91,0,0,1,3.31,16.78Zm33,.12a.55.55,0,0,1-.6.54c-.29,0-.44-.43-.47-.66a12.37,12.37,0,0,1,0-1.52,14.85,14.85,0,0,1,0-1.63c0-.23.17-.65.48-.65a.58.58,0,0,1,.59.55A29.68,29.68,0,0,1,36.29,16.9Z"/>
        </g>
</svg>