<svg xmlns="http://www.w3.org/2000/svg" viewBox="0 0 21 21.01" fill="#ffffff">
    <defs>
        <style>.cls-1{fill:none;}</style>
    </defs>
        <g >
            <path d="M4.08,4.63a.82.82,0,0,1,.82-.82H16.06a.82.82,0,0,1,0,1.64H4.9A.82.82,0,0,1,4.08,4.63Z"/>
            <path d="M16.88,7.92a.82.82,0,0,0-.82-.82H4.9a.82.82,0,0,0,0,1.64H16.06A.82.82,0,0,0,16.88,7.92Z"/>
            <path d="M4.9,10.38A.82.82,0,0,0,4.9,12H8.67a.82.82,0,1,0,0-1.64Z"/>
            <g >
                <circle id="Elipse_16-5" data-name="Elipse 16-5" class="cls-1" cx="16.04" cy="16.04" r="4.71"/>
                <path id="Trazado_257-5" data-name="Trazado 257-5" class="cls-1" d="M16.25,14.52l.36.73.8.12a.24.24,0,0,1,.13.4l-.58.57.14.8a.24.24,0,0,1-.34.25L16,17l-.72.38a.24.24,0,0,1-.34-.25l.14-.8-.58-.57a.24.24,0,0,1,.13-.4l.8-.12.36-.73a.24.24,0,0,1,.43,0Z"/>
                <path id="Trazado_258-5" data-name="Trazado 258-5" d="M14.19,15.44a.53.53,0,0,0,.13.54l.47.46-.11.65a.53.53,0,0,0,.44.61h.09a.53.53,0,0,0,.25-.06l.58-.31.58.31a.53.53,0,0,0,.77-.56l-.11-.65.47-.46a.53.53,0,0,0-.29-.9L16.8,15l-.29-.59a.53.53,0,0,0-.48-.3h0a.53.53,0,0,0-.47.3l-.29.59-.65.09a.53.53,0,0,0-.43.36Zm1.32.1a.29.29,0,0,0,.22-.16l.31-.62.31.62a.3.3,0,0,0,.22.16l.69.1-.5.48a.29.29,0,0,0-.08.26l.12.68-.61-.32a.3.3,0,0,0-.27,0l-.61.32.12-.68a.3.3,0,0,0-.09-.26l-.5-.48Z"/>
                <path id="Trazado_259-5" data-name="Trazado 259-5" d="M16,19.75a3.71,3.71,0,0,0,1.42-7.14.29.29,0,0,0-.23.54,3.12,3.12,0,1,1-2.38,0,.29.29,0,0,0-.2-.55h0A3.71,3.71,0,0,0,16,19.75Z"/>
                <path id="Trazado_260-5" data-name="Trazado 260-5" d="M16,12.92a.29.29,0,1,0-.21-.09A.3.3,0,0,0,16,12.92Z"/>
                <g >
                    <path  d="M16,21a5,5,0,1,1,5-5A5,5,0,0,1,16,21Zm0-9.42A4.46,4.46,0,1,0,20.5,16,4.46,4.46,0,0,0,16,11.58Z"/>
                </g>
            </g>
            <path d="M17.72,0H3.28A3.28,3.28,0,0,0,0,3.28V17.72A3.28,3.28,0,0,0,3.28,21H9.57a.83.83,0,1,0,0-1.65H3.28a1.64,1.64,0,0,1-1.64-1.64V3.28A1.64,1.64,0,0,1,3.28,1.64H17.72a1.64,1.64,0,0,1,1.64,1.64V9.45h0s0,0,0,.06a.83.83,0,1,0,1.65,0V3.28A3.28,3.28,0,0,0,17.72,0Z"/>
        </g>
</svg>