<svg xmlns="http://www.w3.org/2000/svg" viewBox="0 0 10 10" fill="#ffffff">
        <g id="Capa_1-2" data-name="Capa 1"> 
            <path d="M5,0A4.83,4.83,0,0,0,0,4.85,4.74,4.74,0,0,0,1.57,8.44c.17.15.13.24.16,1.17a.4.4,0,0,0,.42.39l.15,0c1.07-.47,1.08-.51,1.26-.46A4.93,4.93,0,0,0,10,4.85,4.81,4.81,0,0,0,5,0ZM8,3.73,6.55,6.06a.75.75,0,0,1-1,.23l0,0L4.29,5.39a.3.3,0,0,0-.36,0L2.35,6.59A.24.24,0,0,1,2,6.27L3.47,3.94a.75.75,0,0,1,1-.23l0,0,1.17.88a.3.3,0,0,0,.36,0l1.58-1.2A.24.24,0,0,1,8,3.73Z"/>
        </g>
</svg>