<svg xmlns="http://www.w3.org/2000/svg" viewBox="0 0 10 10" fill="#ffffff">
        <g >
            <path d="M4.09,0A3.83,3.83,0,0,0,0,3.59C0,5,.79,5.8,1.27,5.8c.2,0,.31-.55.31-.71s-.47-.58-.47-1.36A2.71,2.71,0,0,1,3.93,1,2.14,2.14,0,0,1,6.3,3.18c0,1.06-.43,3.06-1.81,3.06a.89.89,0,0,1-.93-.88c0-.76.53-1.49.53-2.27,0-1.33-1.88-1.09-1.88.52a2.35,2.35,0,0,0,.19,1,21.93,21.93,0,0,0-.84,4.19c0,.38.05.75.09,1.13.07.08,0,.07.14,0A7.06,7.06,0,0,0,3.22,6.51a1.63,1.63,0,0,0,1.39.72c2.13,0,3.08-2.07,3.08-3.94A3.41,3.41,0,0,0,4.09,0Z"/>
    </g>
</svg>