<svg xmlns="http://www.w3.org/2000/svg" viewBox="0 0 21 21" fill="#67148F">
    <g>
        <path d="M11.32,21H9.68a2.46,2.46,0,0,1-2.46-2.46v-4.8H2.46A2.46,2.46,0,0,1,0,11.28V9.64A2.46,2.46,0,0,1,2.46,7.18H7.22V2.46A2.46,2.46,0,0,1,9.68,0h1.64a2.46,2.46,0,0,1,2.46,2.46V7.18h4.76A2.46,2.46,0,0,1,21,9.64v1.64a2.46,2.46,0,0,1-2.46,2.46H13.78v.7a.82.82,0,0,1-1.64,0V12.92A.82.82,0,0,1,13,12.1h5.58a.82.82,0,0,0,.82-.82V9.64a.82.82,0,0,0-.82-.82H13A.82.82,0,0,1,12.14,8V2.46a.82.82,0,0,0-.82-.82H9.68a.82.82,0,0,0-.82.82V8A.82.82,0,0,1,8,8.82H2.46a.82.82,0,0,0-.82.82v1.64a.82.82,0,0,0,.82.82H8a.82.82,0,0,1,.82.82v5.62a.82.82,0,0,0,.82.82h1.64a.82.82,0,0,0,.82-.82.82.82,0,0,1,1.64,0A2.46,2.46,0,0,1,11.32,21Z"/>
    </g>
</svg>