<svg version="1.1" 
    xmlns="http://www.w3.org/2000/svg" 
    xmlns:xlink="http://www.w3.org/1999/xlink" x="0px" y="0px" width="21px" height="21px" viewBox="0 0 21 21" style="enable-background:new 0 0 21 21;" xml:space="preserve">
    <defs>
    </defs>
    <path d="M4.1,4.6c0-0.5,0.4-0.8,0.8-0.8h11.2c0.5,0,0.8,0.4,0.8,0.8s-0.4,0.8-0.8,0.8H4.9C4.5,5.5,4.1,5.1,4.1,4.6z M16.9,7.9
	c0-0.5-0.4-0.8-0.8-0.8H4.9c-0.5,0-0.8,0.4-0.8,0.8s0.4,0.8,0.8,0.8h11.2C16.5,8.7,16.9,8.4,16.9,7.9z M4.9,10.4
	c-0.5,0-0.8,0.4-0.8,0.8S4.5,12,4.9,12h3.8c0.5,0,0.8-0.4,0.8-0.8s-0.4-0.8-0.8-0.8H4.9z M20.3,16.8c1,1,1,2.5,0,3.5
	c-0.5,0.5-1.1,0.7-1.7,0.7s-1.3-0.2-1.7-0.7l-4.5-4.5c-0.1-0.1-0.2-0.2-0.2-0.4l-0.9-3.3c-0.1-0.3,0-0.6,0.2-0.8
	c0.2-0.2,0.5-0.3,0.8-0.2l3.2,1c0.1,0,0.2,0.1,0.3,0.2L20.3,16.8z M13.6,14.8l3,3l1.2-1.2l-3-3l-1.6-0.5L13.6,14.8z M19.1,18
	L19,17.8L17.8,19l0.2,0.2c0.3,0.3,0.8,0.3,1.2,0C19.4,18.8,19.4,18.3,19.1,18z M17.7,0H3.3C1.5,0,0,1.5,0,3.3v14.4
	C0,19.5,1.5,21,3.3,21h10c0.5,0,0.8-0.4,0.8-0.8s-0.4-0.8-0.8-0.8h-10c-0.9,0-1.6-0.7-1.6-1.6V3.3c0-0.9,0.7-1.6,1.6-1.6h14.4
	c0.9,0,1.6,0.7,1.6,1.6v10.1c0,0.5,0.4,0.8,0.8,0.8s0.8-0.4,0.8-0.8V3.3C21,1.5,19.5,0,17.7,0z"/>
</svg>

