<svg xmlns="http://www.w3.org/2000/svg" viewBox="0 0 21 21" fill="#ffffff">
    <g >
        <path d="M10.29,11.15h.4a9,9,0,0,1,4.19,1.13.82.82,0,1,0,.8-1.43A10.39,10.39,0,0,0,13.84,10a5.57,5.57,0,1,0-6.68,0,10.65,10.65,0,0,0-3.43,1.88A10.77,10.77,0,0,0,.05,18a2.49,2.49,0,0,0,.51,2.09A2.46,2.46,0,0,0,2.49,21H8.9a.82.82,0,0,0,0-1.64H2.49a.87.87,0,0,1-.66-.31.89.89,0,0,1-.17-.72A9.07,9.07,0,0,1,10.29,11.15ZM6.56,5.58A3.94,3.94,0,1,1,10.7,9.51h-.39A4,4,0,0,1,6.56,5.58ZM21,15.25a2,2,0,0,1-.6,1.45l-1.53,1.52a.82.82,0,1,1-1.16-1.16l1-1H14.09a1.66,1.66,0,0,0,0,3.32.82.82,0,0,1,0,1.64,3.24,3.24,0,0,1-2.33-1,3.31,3.31,0,0,1,2.35-5.63h4.57l-.94-.94a.81.81,0,0,1,0-1.16.82.82,0,0,1,1.16,0l1.52,1.5A2,2,0,0,1,21,15.25Z"/>
    </g>
</svg>