<svg xmlns="http://www.w3.org/2000/svg" viewBox="0 0 21 21" fill="#67148F">
    <g>
        <path d="M20.18,14.44a.82.82,0,0,0,.82-.82V3.36a.86.86,0,0,0-.24-.58L18.22.24A.86.86,0,0,0,17.64,0H3.28A3.28,3.28,0,0,0,0,3.28V17.72A3.28,3.28,0,0,0,3.28,21H17.72A3.28,3.28,0,0,0,21,17.72a.82.82,0,0,0-1.64,0,1.65,1.65,0,0,1-1.64,1.64H3.28a1.65,1.65,0,0,1-1.64-1.64V3.28A1.65,1.65,0,0,1,3.28,1.64V5.41A2.47,2.47,0,0,0,5.74,7.88h7.8A2.47,2.47,0,0,0,16,5.41V1.64h1.3L19.36,3.7v9.92A.82.82,0,0,0,20.18,14.44Zm-5.82-9a.82.82,0,0,1-.82.82H5.74a.82.82,0,0,1-.82-.82V1.64h6.15V3.77a.82.82,0,0,0,1.64,0V1.64h1.65ZM4.1,9.52a.82.82,0,0,0-.82.82V16.9a.82.82,0,0,0,.82.82H16.9a.82.82,0,0,0,.82-.82V10.34a.82.82,0,0,0-.82-.82Zm12,6.56H4.92V11.16H16.08Z"/>
    </g>
</svg>