<svg version="1.1" 
    xmlns="http://www.w3.org/2000/svg" 
    xmlns:xlink="http://www.w3.org/1999/xlink" x="0px" y="0px" width="21px" height="17.2px" viewBox="0 0 21 17.2" style="enable-background:new 0 0 21 17.2;" xml:space="preserve">
    <style type="text/css">
	.st0{opacity:0;fill:#D6CD1A;}
	.st1{opacity:0;}
    </style>
    <defs>
    </defs>
    <g>
        <path class="st0" d="M10.5,15.1c-4.1,0-7.4-3.3-7.4-7.4s3.3-7.4,7.4-7.4c4.1,0,7.3,3.3,7.4,7.4C17.9,11.8,14.6,15.1,10.5,15.1z"/>
        <path d="M6.6,6.6C6.5,7,6.6,7.5,6.9,7.8l1,1l-0.2,1.4c-0.1,0.6,0.3,1.2,0.9,1.3c0.1,0,0.1,0,0.2,0c0.2,0,0.4,0,0.5-0.1l1.2-0.6
		l1.2,0.6c0.5,0.3,1.2,0.1,1.5-0.5c0.1-0.2,0.2-0.5,0.1-0.7l-0.2-1.4l1-1c0.4-0.4,0.5-1.1,0-1.6C14,6,13.7,5.9,13.5,5.8l-1.4-0.2
		l-0.6-1.2c-0.2-0.4-0.6-0.6-1-0.6l0,0c-0.4,0-0.8,0.2-1,0.6L8.9,5.6L7.5,5.8C7.1,5.9,6.7,6.2,6.6,6.6L6.6,6.6z M8.9,6.4
		c0.3,0,0.5-0.2,0.7-0.5l0.6-1.3c0.1-0.2,0.5-0.2,0.6,0l0.6,1.3c0.1,0.3,0.4,0.4,0.7,0.5l1.4,0.2c0.3,0,0.4,0.4,0.2,0.5l-1,1
		c-0.2,0.2-0.3,0.5-0.3,0.8l0.2,1.4c0,0.3-0.2,0.5-0.5,0.3L10.9,10c-0.3-0.1-0.6-0.1-0.8,0l-1.2,0.7c-0.2,0.1-0.5-0.1-0.5-0.3
		l0.2-1.4c0-0.3,0-0.6-0.3-0.8l-1-1C7.2,7,7.3,6.6,7.5,6.6L8.9,6.4z"/>
        <g>
            <path id="Trazado_259-5_1_" d="M10.5,13.6c3.2,0,5.8-2.6,5.8-5.8c0-2.3-1.4-4.5-3.6-5.4c-0.2-0.1-0.5,0-0.6,0.3
			c-0.1,0.2,0,0.5,0.2,0.6c2.5,1,3.7,3.9,2.6,6.4s-3.9,3.7-6.4,2.6S5,8.4,6,5.9c0.5-1.2,1.4-2.2,2.6-2.6C8.9,3.2,9,2.9,8.9,2.7
			C8.8,2.4,8.6,2.3,8.3,2.4c0,0,0,0,0,0C5.3,3.6,3.9,7,5.1,10C6,12.1,8.1,13.6,10.5,13.6L10.5,13.6z"/>
            <path id="Trazado_260-5_1_" d="M10.5,2.9c0.3,0,0.5-0.2,0.5-0.5c0-0.1,0-0.2-0.1-0.3c-0.2-0.2-0.5-0.2-0.7,0
			c-0.2,0.2-0.2,0.5,0,0.7C10.3,2.8,10.4,2.9,10.5,2.9z"/>
        </g>
        <path d="M10.5,0C6.2,0,2.7,3.5,2.7,7.8s3.5,7.8,7.8,7.8c4.3,0,7.7-3.5,7.8-7.8C18.3,3.5,14.8,0,10.5,0z M10.5,14.7
		c-3.8,0-7-3.1-7-7s3.1-7,7-7c3.8,0,7,3.1,7,7C17.5,11.6,14.3,14.7,10.5,14.7z"/>
        <g class="st1">
            <path d="M8.6,14.8c-1.7-0.5-3.2-1.5-4.1-2.9c-1.2,0.4-2.3,0.8-3.4,1.3l3.1,0.8l-0.6,2.1C5.1,15.5,6.8,15,8.6,14.8z"/>
            <path d="M20,13.3c-1.1-0.5-2.2-1-3.4-1.3c-1,1.4-2.4,2.5-4.1,2.9c1.8,0.2,3.4,0.6,5,1.3l-0.6-2.1L20,13.3z"/>
        </g>
        <path d="M21,13.3c-0.2-0.1-0.4-0.2-0.6-0.3c-1.1-0.6-2.4-1.1-3.6-1.5c-0.1,0.2-0.2,0.4-0.4,0.6c1.1,0.3,2.1,0.7,3,1.2l-2.9,0.8
		l0.5,2c-1.4-0.6-2.9-1-4.5-1.2c-0.7,0.2-1.3,0.3-2,0.3c-0.7,0-1.4-0.1-2-0.3C6.9,15,5.3,15.4,3.9,16l0.5-2l-2.9-0.8
		c1-0.5,2-0.9,3-1.2c-0.1-0.2-0.3-0.4-0.4-0.6c-1.3,0.4-2.5,0.9-3.6,1.5c0,0-0.4,0.2-0.6,0.3l3.8,1L3,17.2c0.2-0.1,0.5-0.2,0.7-0.3
		c2.1-1,4.4-1.5,6.8-1.5c2.4,0,4.7,0.5,6.8,1.5c0.2,0.1,0.5,0.2,0.7,0.3l-0.8-2.9L21,13.3z"/>
    </g>
</svg>
