<!-- <svg version="1.1" xmlns="http://www.w3.org/2000/svg" xmlns:xlink="http://www.w3.org/1999/xlink" x="0px" y="0px" width="21px" height="17.2px" viewBox="0 0 21 17.2" style="enable-background:new 0 0 21 17.2;" xml:space="preserve">
    <style type="text/css">
	.st0{opacity:0;fill:#D6CD1A;}
	.st1{opacity:0;}
    </style>
    <defs>
    </defs>
    <g>
        <path class="st0" d="M10.5,15.1c-4.1,0-7.4-3.3-7.4-7.4s3.3-7.4,7.4-7.4c4.1,0,7.3,3.3,7.4,7.4C17.9,11.8,14.6,15.1,10.5,15.1z"/>
        <path d="M6.6,6.6C6.5,7,6.6,7.5,6.9,7.8l1,1l-0.2,1.4c-0.1,0.6,0.3,1.2,0.9,1.3c0.1,0,0.1,0,0.2,0c0.2,0,0.4,0,0.5-0.1l1.2-0.6
		l1.2,0.6c0.5,0.3,1.2,0.1,1.5-0.5c0.1-0.2,0.2-0.5,0.1-0.7l-0.2-1.4l1-1c0.4-0.4,0.5-1.1,0-1.6C14,6,13.7,5.9,13.5,5.8l-1.4-0.2
		l-0.6-1.2c-0.2-0.4-0.6-0.6-1-0.6l0,0c-0.4,0-0.8,0.2-1,0.6L8.9,5.6L7.5,5.8C7.1,5.9,6.7,6.2,6.6,6.6L6.6,6.6z M8.9,6.4
		c0.3,0,0.5-0.2,0.7-0.5l0.6-1.3c0.1-0.2,0.5-0.2,0.6,0l0.6,1.3c0.1,0.3,0.4,0.4,0.7,0.5l1.4,0.2c0.3,0,0.4,0.4,0.2,0.5l-1,1
		c-0.2,0.2-0.3,0.5-0.3,0.8l0.2,1.4c0,0.3-0.2,0.5-0.5,0.3L10.9,10c-0.3-0.1-0.6-0.1-0.8,0l-1.2,0.7c-0.2,0.1-0.5-0.1-0.5-0.3
		l0.2-1.4c0-0.3,0-0.6-0.3-0.8l-1-1C7.2,7,7.3,6.6,7.5,6.6L8.9,6.4z"/>
        <g>
            <path id="Trazado_259-5_1_" d="M10.5,13.6c3.2,0,5.8-2.6,5.8-5.8c0-2.3-1.4-4.5-3.6-5.4c-0.2-0.1-0.5,0-0.6,0.3
			c-0.1,0.2,0,0.5,0.2,0.6c2.5,1,3.7,3.9,2.6,6.4s-3.9,3.7-6.4,2.6S5,8.4,6,5.9c0.5-1.2,1.4-2.2,2.6-2.6C8.9,3.2,9,2.9,8.9,2.7
			C8.8,2.4,8.6,2.3,8.3,2.4c0,0,0,0,0,0C5.3,3.6,3.9,7,5.1,10C6,12.1,8.1,13.6,10.5,13.6L10.5,13.6z"/>
            <path id="Trazado_260-5_1_" d="M10.5,2.9c0.3,0,0.5-0.2,0.5-0.5c0-0.1,0-0.2-0.1-0.3c-0.2-0.2-0.5-0.2-0.7,0
			c-0.2,0.2-0.2,0.5,0,0.7C10.3,2.8,10.4,2.9,10.5,2.9z"/>
        </g>
        <path d="M10.5,0C6.2,0,2.7,3.5,2.7,7.8s3.5,7.8,7.8,7.8c4.3,0,7.7-3.5,7.8-7.8C18.3,3.5,14.8,0,10.5,0z M10.5,14.7
		c-3.8,0-7-3.1-7-7s3.1-7,7-7c3.8,0,7,3.1,7,7C17.5,11.6,14.3,14.7,10.5,14.7z"/>
        <g class="st1">
            <path d="M8.6,14.8c-1.7-0.5-3.2-1.5-4.1-2.9c-1.2,0.4-2.3,0.8-3.4,1.3l3.1,0.8l-0.6,2.1C5.1,15.5,6.8,15,8.6,14.8z"/>
            <path d="M20,13.3c-1.1-0.5-2.2-1-3.4-1.3c-1,1.4-2.4,2.5-4.1,2.9c1.8,0.2,3.4,0.6,5,1.3l-0.6-2.1L20,13.3z"/>
        </g>
        <path d="M21,13.3c-0.2-0.1-0.4-0.2-0.6-0.3c-1.1-0.6-2.4-1.1-3.6-1.5c-0.1,0.2-0.2,0.4-0.4,0.6c1.1,0.3,2.1,0.7,3,1.2l-2.9,0.8
		l0.5,2c-1.4-0.6-2.9-1-4.5-1.2c-0.7,0.2-1.3,0.3-2,0.3c-0.7,0-1.4-0.1-2-0.3C6.9,15,5.3,15.4,3.9,16l0.5-2l-2.9-0.8
		c1-0.5,2-0.9,3-1.2c-0.1-0.2-0.3-0.4-0.4-0.6c-1.3,0.4-2.5,0.9-3.6,1.5c0,0-0.4,0.2-0.6,0.3l3.8,1L3,17.2c0.2-0.1,0.5-0.2,0.7-0.3
		c2.1-1,4.4-1.5,6.8-1.5c2.4,0,4.7,0.5,6.8,1.5c0.2,0.1,0.5,0.2,0.7,0.3l-0.8-2.9L21,13.3z"/>
    </g>
</svg> -->


<svg xmlns="http://www.w3.org/2000/svg" viewBox="0 0 21 21">
    <defs>
        <style>.cls-1{fill:#bdbdbd;}.cls-2{fill:#f0f0f0;}</style>
    </defs>
    <g id="Capa_2" data-name="Capa 2">
        <g id="Capa_1-2" data-name="Capa 1">
            <path class="cls-1" d="M.77,19.53a1.2,1.2,0,0,0,1.32,1h2a1.2,1.2,0,0,0,1.32-1V9.19a1.2,1.2,0,0,0-1.32-1h-2a1.2,1.2,0,0,0-1.32,1Z"/>
            <path class="cls-2" d="M17.48,19.42c.39-.13.7-.47.7-.66a.68.68,0,0,0-.37-.57.92.92,0,0,1-.53-.82,1,1,0,0,1,1-.93h.19a.73.73,0,0,0,.66-.77c0-.24-.36-.62-.58-.74l0,0a.73.73,0,0,1-.43-.78c0-.31.1-.62.88-.66a.68.68,0,0,0,.58-.69c0-.32,0-1-.29-1-.5-.13-1-.42-1-.87a1,1,0,0,1,.48-.82,1.36,1.36,0,0,0,.42-.81.7.7,0,0,0-.7-.7H13.08A2.34,2.34,0,0,1,10.5,6.41V5.87c0-.49.36-.75,1.24-2.51.14-.27.26-.52.38-.76a.91.91,0,0,0,0-.23c0-.45-1-1.12-1.42-1.12a.78.78,0,0,0-.54.21L9.77,2,5.56,8.56A2.48,2.48,0,0,1,6,9.9v1.61A20.59,20.59,0,0,0,17.48,19.42Z"/>
            <path d="M2.46,7.71H3.69a2.43,2.43,0,0,1,.77.12l4.05-6.3L9,.78l0,0A2.43,2.43,0,0,1,10.84,0,2.46,2.46,0,0,1,13.3,2.46a2.73,2.73,0,0,1-.13.8l0,.05,0,0-.42.82a22.24,22.24,0,0,0-1.06,2.31c.06.43.63.69,1,.69h5.4a2.34,2.34,0,0,1,2.34,2.34,2.37,2.37,0,0,1-.33,1.19,2.34,2.34,0,0,1,.9,1.84,2.38,2.38,0,0,1-.6,1.58,2.35,2.35,0,0,1-.33.3,2.33,2.33,0,0,1-.93,3.22,2.17,2.17,0,0,1,.22,1A2.3,2.3,0,0,1,17,21H9a.82.82,0,0,1,0-1.64h8a.68.68,0,0,0,.71-.76.7.7,0,0,0-.37-.57.92.92,0,0,1-.53-.82,1,1,0,0,1,1-.93H18a.7.7,0,0,0,.36-1.3l0,0a.9.9,0,0,1-.55-.83.92.92,0,0,1,1-.89.68.68,0,0,0,.58-.69.71.71,0,0,0-.53-.68,1,1,0,0,1-.82-1,1,1,0,0,1,.47-.82.69.69,0,0,0-.39-1.27h-5.4A2.61,2.61,0,0,1,10,6.5v0c0-.5.36-1.26,1.25-3l.38-.76a.91.91,0,0,0,0-.23.82.82,0,0,0-.82-.82.79.79,0,0,0-.55.21l-.41.58L5.76,8.84a2.41,2.41,0,0,1,.39,1.33v8.37A2.46,2.46,0,0,1,3.69,21H2.46A2.46,2.46,0,0,1,0,18.54V10.17A2.46,2.46,0,0,1,2.46,7.71ZM1.64,18.54a.82.82,0,0,0,.82.82H3.69a.82.82,0,0,0,.82-.82V10.17a.82.82,0,0,0-.82-.82H2.46a.82.82,0,0,0-.82.82Z"/>
        </g>
    </g>
</svg>