<svg xmlns="http://www.w3.org/2000/svg" viewBox="0 0 10 10" fill="#ffffff">
        <g id="Capa_1-2" data-name="Capa 1">
            <path d="M8.5,1.45a5,5,0,0,0-7.8,6L0,10l2.63-.69A4.94,4.94,0,0,0,5,9.91H5a5,5,0,0,0,5-5A5,5,0,0,0,8.5,1.45ZM5,9.08A4.11,4.11,0,0,1,2.9,8.5l-.15-.09-1.56.41L1.61,7.3l-.1-.16A4.13,4.13,0,1,1,9.16,5,4.16,4.16,0,0,1,5,9.08ZM7.26,6c-.12-.06-.73-.36-.85-.4s-.2-.06-.28.06-.32.4-.39.49-.15.09-.27,0A3.37,3.37,0,0,1,3.79,4.7c-.13-.22.13-.2.36-.68a.23.23,0,0,0,0-.22c0-.06-.28-.67-.38-.92s-.2-.21-.28-.21H3.24a.46.46,0,0,0-.33.15,1.39,1.39,0,0,0-.43,1A2.43,2.43,0,0,0,3,5.14,5.53,5.53,0,0,0,5.1,7a2.42,2.42,0,0,0,1.49.31,1.27,1.27,0,0,0,.83-.59,1,1,0,0,0,.07-.59C7.46,6.08,7.38,6.05,7.26,6Z"/>
        </g>
</svg>