<svg aria-hidden="true" style="position: absolute; width: 0; height: 0; overflow: hidden;" version="1.1"
    xmlns="http://www.w3.org/2000/svg"
    xmlns:xlink="http://www.w3.org/1999/xlink">

    <defs>

        <symbol id="jardineria" viewBox="0 0 10 10">
            <title>gardering</title>
            <path d="M9.2,0.8c0,0.6-0.2,1.7-0.9,2.4C8.1,3.4,7.9,3.5,7.7,3.6C7.5,3.7,7.4,3.9,7.5,4.1c0.1,0.2,0.2,0.3,0.4,0.3
			c0,0,0.1,0,0.1,0C8.3,4.2,8.6,4,8.8,3.7C10,2.6,10,0.7,10,0.4c0,0,0,0,0,0C10,0.2,9.8,0,9.6,0C9.5,0,7.5-0.1,6.2,1.1
			c-0.5,0.5-0.7,1-0.7,1.5c0,0.4,0.2,0.8,0.3,1C5.5,4.1,5.2,4.5,5,5c0,0.1-0.1,0.2-0.1,0.3c-0.2-0.3-0.4-0.6-0.7-1
			c0.1-0.2,0.3-0.5,0.3-1c0-0.5-0.2-1-0.7-1.5C2.5,0.7,0.5,0.8,0.4,0.8C0.2,0.8,0,1,0,1.2c0,0.2,0,2.2,1.1,3.3
			c0.5,0.5,1,0.7,1.5,0.7c0,0,0.5,0,1-0.2C3.8,5.2,3.9,5.4,4,5.5c0.4,0.6,0.6,1.1,0.6,1.1c0,0,0,0,0,0.1c0,0.1,0,0.2,0,0.3v0.5
			C4.4,7.3,4.2,7.3,4,7.3c-0.7,0-1.2,0.5-1.3,1.2c-0.6,0.1-1,0.6-1,1.2c0,0.2,0.2,0.4,0.4,0.4s0.4-0.2,0.4-0.4
			c0-0.2,0.2-0.4,0.4-0.4c0.1,0,0.1,0,0.2,0c0.1,0.1,0.3,0,0.4-0.1c0.1-0.1,0.2-0.3,0.1-0.4c0-0.1,0-0.1,0-0.2
			c0-0.3,0.2-0.5,0.5-0.5c0.3,0,0.5,0.2,0.5,0.5c0,0.2,0.1,0.3,0.3,0.3c0.2,0,0.3,0,0.4-0.2c0.1-0.2,0.3-0.3,0.5-0.3
			c0.3,0,0.5,0.2,0.5,0.5c0,0.1,0.1,0.2,0.2,0.3c0.1,0.1,0.2,0.1,0.3,0c0,0,0.1,0,0.1,0c0.2,0,0.4,0.2,0.4,0.4
			c0,0.2,0.2,0.4,0.4,0.4s0.4-0.2,0.4-0.4C8.1,9,7.6,8.5,7,8.4C6.8,8,6.3,7.7,5.8,7.7c-0.1,0-0.2,0-0.3,0c0.3-0.5,1-1.1,1.3-1.2
			C7,6.4,7.1,6.2,7,6C6.9,5.8,6.7,5.7,6.5,5.7C6.2,5.8,5.8,6.1,5.4,6.5C5.5,5.6,5.9,4.7,6.6,4l1.6-1.7c0.2-0.2,0.1-0.4,0-0.6
			C8,1.6,7.8,1.6,7.6,1.8L6.4,3.1c0-0.1-0.1-0.3-0.1-0.4c0-0.3,0.2-0.6,0.5-1C7.5,1,8.6,0.8,9.2,0.8z M3.6,3.7
			C3.3,3.4,2.8,3,2.3,2.5C2.1,2.4,1.9,2.4,1.8,2.6S1.7,3,1.8,3.2c0.5,0.4,1,0.8,1.3,1.2C3,4.4,2.8,4.5,2.7,4.5C2.3,4.5,2,4.3,1.7,4
			C1,3.3,0.8,2.2,0.8,1.6c0.6,0,1.7,0.2,2.4,0.9c0.3,0.3,0.5,0.6,0.5,1C3.7,3.5,3.6,3.7,3.6,3.7z"/>
        </symbol>

        <symbol id="carpinteria">
            <title>carpinteria</title>
            <path d="M41.5,8.1l-6.2-6.2C34.1,0.7,32.5,0,30.7,0c0,0,0,0,0,0c-1.8,0-3.4,0.7-4.6,1.9c0,0,0,0,0,0l-1.4,1.4C24,4,24,5,24.7,5.7
	c0.6,0.6,1.7,0.6,2.3,0l1.4-1.4c0.6-0.6,1.4-1,2.3-1h0c0.9,0,1.7,0.3,2.3,1l4.3,4.3l-1.4,0c0,0,0,0,0,0c-0.4,0-0.9,0.2-1.2,0.5
	c-0.3,0.3-0.5,0.7-0.5,1.2v1.4h-1.4c-0.9,0-1.6,0.7-1.6,1.6v1.5h-1.5c-0.9,0-1.6,0.7-1.6,1.6v1.6h-1.6c-0.9,0-1.6,0.7-1.6,1.6v1.9
	h-1.4c-0.9,0-1.6,0.7-1.6,1.6v1.5h-1.5c-0.9,0-1.6,0.7-1.6,1.6v1.6h-1.6c-0.9,0-1.6,0.7-1.6,1.6v2.2l-7.2-7.1l12.8-12.9
	c0.6-0.6,0.6-1.7,0-2.3c-0.6-0.6-1.7-0.6-2.3,0l-16.9,17c-2.6,2.6-2.5,6.7,0,9.3l6,6C8.3,41.8,8.7,42,9.1,42c0.4,0,0.8-0.2,1.2-0.5
	c0.6-0.6,0.6-1.7,0-2.3l-6-6c-1.3-1.3-1.3-3.4,0-4.6L6,26.8l8.7,8.7c0.3,0.3,0.7,0.5,1.2,0.5h0c0.4,0,0.9-0.2,1.2-0.5l1.3-1.3
	c0.3-0.3,0.5-0.7,0.5-1.1V31h1.6c0.9,0,1.6-0.7,1.6-1.6v-1.6h1.5c0.9,0,1.6-0.7,1.6-1.6v-1.5h1.4c0.9,0,1.6-0.7,1.6-1.6v-1.9h1.6
	c0.9,0,1.6-0.7,1.6-1.6V18h1.5c0.9,0,1.6-0.7,1.6-1.6v-1.5h1.4c0.9,0,1.6-0.7,1.6-1.6v-1.4l2,0h0c0.4,0,0.9-0.2,1.2-0.5l0.9-0.9
	c0.3-0.3,0.5-0.7,0.5-1.2C42,8.8,41.8,8.4,41.5,8.1z"/>
        </symbol>

        <symbol id="wedding-planner" viewBox="0 0 10 10">
            <title>wedding-planner</title>
            <g>
                <path d="M7.7,1.6h0.8l0.7-1c0-0.1,0-0.1,0-0.2L9.1,0.1C9,0,9,0,8.9,0H7.3C7.2,0,7.2,0,7.1,0.1L7,0.4c0,0.1,0,0.1,0,0.2L7.7,1.6z"/>
                <path d="M8.6,2.2L8.6,2.2c0.2,0,0.2-0.1,0.2-0.2c0-0.1-0.1-0.2-0.2-0.2H7.5C7.4,1.9,7.3,2,7.3,2.1c0,0.1,0.1,0.2,0.2,0.2h0.1
		C6.8,2.5,6.3,3.1,6.3,3.9c0,1,0.8,1.8,1.8,1.8c1,0,1.8-0.8,1.8-1.8C9.9,3.1,9.4,2.5,8.6,2.2z M8.1,5.1c-0.6,0-1.2-0.5-1.2-1.2
		s0.5-1.2,1.2-1.2c0.6,0,1.2,0.5,1.2,1.2S8.7,5.1,8.1,5.1z"/>
                <path d="M8.1,6.3c-0.2,0-0.4,0.2-0.4,0.4v1H2.4V0.8h0.1h0.1h3v0C5.9,0.8,6,0.6,6,0.4S5.9,0,5.6,0h-3H2.5H1.3C0.6,0,0.1,0.5,0.1,1.2
		v7.7c0,0.6,0.5,1.2,1.2,1.2h6.9c0.2,0,0.4-0.2,0.4-0.4c0-0.2-0.2-0.4-0.4-0.4H1.3C1.1,9.2,0.9,9,0.9,8.8c0-0.2,0.2-0.4,0.4-0.4h6.9
		c0.2,0,0.4-0.2,0.4-0.4V6.7C8.5,6.4,8.3,6.3,8.1,6.3z M1.7,7.7H1.3c-0.1,0-0.3,0-0.4,0.1V1.2c0-0.2,0.2-0.4,0.4-0.4h0.4V7.7z"/>
            </g>
            <rect style="fill: none" width="10" height="10"/>
        </symbol>

        <symbol id="pintores">
            <title>painters</title>
            <path d="M37.1,6.2h-1.6V5.7c0-3.2-2.6-5.7-5.7-5.7h-24C2.6,0,0,2.6,0,5.7v4.1c0,3.2,2.6,5.7,5.7,5.7h15.8c0.9,0,1.6-0.7,1.6-1.6
			s-0.7-1.6-1.6-1.6H5.7c-1.4,0-2.5-1.1-2.5-2.5V5.7c0-1.4,1.1-2.5,2.5-2.5h24c1.4,0,2.5,1.1,2.5,2.5v4.1c0,1.4-1.1,2.5-2.5,2.5
			c-0.9,0-1.6,0.7-1.6,1.6s0.7,1.6,1.6,1.6c3.2,0,5.7-2.6,5.7-5.7V9.4h1.6c0.9,0,1.6,0.7,1.6,1.6v6.2c0,0.9-0.7,1.6-1.6,1.6H23.5
			c-3.6,0-6.6,2.9-6.6,6.6v0.8l-1.6,0c-0.9,0-1.6,0.7-1.6,1.6v9.2c0,2.7,2.2,4.9,4.9,4.9s4.9-2.2,4.9-4.9v-9.2
			c0-0.4-0.2-0.9-0.5-1.2c-0.3-0.3-0.7-0.5-1.2-0.5h0l-1.6,0v-0.8c0-1.8,1.5-3.3,3.3-3.3h13.6c2.7,0,4.9-2.2,4.9-4.9v-6.2
			C42,8.4,39.8,6.2,37.1,6.2z M20.2,37.1c0,0.9-0.7,1.6-1.6,1.6s-1.6-0.7-1.6-1.6v-7.5l3.3,0V37.1z"/>
        </symbol>

        <symbol id="electricistas" viewBox="0 0 10 10">
            <title>electricians</title>
            <path d="M9.2,6.5V1.6c0-0.4-0.4-0.8-0.8-0.8H1.6c-0.4,0-0.8,0.4-0.8,0.8v6.9c0,0.4,0.4,0.8,0.8,0.8h6.9c0.4,0,0.8-0.4,0.8-0.8
	C9.2,8.2,9.4,8,9.6,8S10,8.2,10,8.4C10,9.3,9.3,10,8.4,10H1.6C0.7,10,0,9.3,0,8.4V1.6C0,0.7,0.7,0,1.6,0h6.9C9.3,0,10,0.7,10,1.6
	v4.9c0,0.2-0.2,0.4-0.4,0.4S9.2,6.7,9.2,6.5z M6.7,4.4L6.5,4.5c-0.1,0.2-0.1,0.4,0,0.6S7,5.2,7.1,5l0.1-0.2C7.5,4.6,7.5,4.3,7.4,4
	C7.3,3.7,7,3.5,6.6,3.5H6l0.7-1.1c0.1-0.1,0.1-0.3,0-0.4C6.6,1.9,6.5,1.8,6.4,1.8H4.3C4.2,1.8,4,1.9,4,2L2.6,4.4
	c-0.2,0.3-0.2,0.7,0,1c0.2,0.3,0.5,0.5,0.8,0.5h0.6L3.5,7.5C3.4,7.6,3.4,7.8,3.5,8C3.6,8.1,3.8,8.2,4,8.2h0c0.2,0,0.3-0.1,0.5-0.2
	c0,0,0,0,0,0l1.6-1.8c0.1-0.2,0.1-0.4,0-0.6c-0.2-0.1-0.4-0.1-0.6,0l-0.9,1L5,5.6c0-0.1,0-0.3,0-0.4S4.8,5.1,4.7,5.1H3.5
	C3.4,5.1,3.3,5,3.3,5c0,0-0.1-0.1,0-0.2l1.2-2.2h1.1L5,3.7C4.9,3.8,4.9,4,5,4.1C5,4.2,5.2,4.3,5.3,4.3L6.7,4.4
	C6.7,4.3,6.7,4.3,6.7,4.4C6.7,4.3,6.7,4.3,6.7,4.4C6.7,4.4,6.7,4.4,6.7,4.4z"/>
            <rect style="fill: none" width="10" height="10"/>
        </symbol>

        <symbol id="construccion">
            <title>builder</title>
            <path d="M40.4,28.1c0.9,0,1.6-0.7,1.6-1.6V6.6C42,2.9,39.1,0,35.4,0H6.6C2.9,0,0,2.9,0,6.6v28.9C0,39.1,2.9,42,6.6,42h28.9
	c3.6,0,6.6-2.9,6.6-6.6c0-0.9-0.7-1.6-1.6-1.6s-1.6,0.7-1.6,1.6c0,1.8-1.5,3.3-3.3,3.3H23v-6.6h11.5c0.9,0,1.6-0.7,1.6-1.6
	s-0.7-1.6-1.6-1.6h-1.6v-6.4h5.9v3.9C38.7,27.3,39.5,28.1,40.4,28.1z M38.7,6.6v3h-5.9V3.3h2.6C37.2,3.3,38.7,4.8,38.7,6.6z
	 M13.8,9.6V3.3h15.8v6.3H13.8z M6.6,3.3h3.9v6.3H8.2c-0.9,0-1.6,0.7-1.6,1.6s0.7,1.6,1.6,1.6h11.4v6.3H3.3V6.6
	C3.3,4.8,4.8,3.3,6.6,3.3z M3.3,28.9v-6.4h7.2v6.4H3.3z M19.7,38.7H6.6c-1.8,0-3.3-1.5-3.3-3.3v-3.3h16.4V38.7z M31.2,19.2
	c-0.9,0-1.6,0.7-1.6,1.6v8H13.8v-6.4h10.7c0.9,0,1.6-0.7,1.6-1.6s-0.7-1.6-1.6-1.6h-1.6v-6.3h15.8v6.3H31.2z"/>
        </symbol>

        <symbol id="mecanica" viewBox="0 0 10 10">
            <title>mechanical</title>
            <path d="M9.9,1.7c0-0.1-0.1-0.2-0.3-0.3c-0.1,0-0.3,0-0.4,0.1L8.1,2.7L7.4,2.6L7.3,2l1.1-1.2c0.1-0.1,0.1-0.2,0.1-0.4
	c0-0.1-0.1-0.2-0.3-0.3C8.1,0.1,7.8,0,7.5,0c0,0,0,0,0,0C6.8,0,6.2,0.2,5.7,0.6C5.1,1,4.8,1.6,4.8,2.3c0,0.3,0.1,0.7,0.3,1L3.3,5.1
	C3,4.9,2.6,4.8,2.3,4.8c0,0,0,0,0,0C1.6,4.8,1,5.1,0.6,5.7C0.2,6.2,0,6.8,0,7.5c0,0.3,0.1,0.6,0.1,0.8c0,0.1,0.1,0.2,0.3,0.3
	c0.1,0,0.3,0,0.4-0.1L2,7.3l0.6,0.1l0.1,0.6L1.6,9.2C1.5,9.3,1.4,9.5,1.5,9.6c0,0.1,0.1,0.2,0.3,0.3C2,10,2.2,10,2.5,10h0
	c0.8,0,1.6-0.3,2.1-0.8C5,8.8,5.2,8.3,5.2,7.7c0-0.4-0.2-1-0.5-1.3c-0.1-0.2-0.4-0.2-0.6,0C4,6.5,4,6.7,4.1,6.9
	c0.2,0.2,0.3,0.6,0.3,0.8c0,0.4-0.2,0.8-0.4,0.9C3.7,9,3.2,9.2,2.7,9.2l0.8-0.8c0.1-0.1,0.1-0.2,0.1-0.4L3.3,7
	c0-0.1-0.1-0.3-0.3-0.3L1.9,6.5c-0.1,0-0.3,0-0.4,0.1L0.8,7.3c0-0.4,0.2-0.8,0.4-1.2c0.2-0.3,0.5-0.6,1.1-0.6h0
	c0.2,0,0.6,0.1,0.8,0.3C3.2,6,3.5,6,3.6,5.8l2.2-2.2C5.9,3.5,6,3.4,6,3.3c0-0.1,0-0.2-0.1-0.2C5.7,2.9,5.6,2.5,5.6,2.3
	c0-0.6,0.3-0.9,0.6-1.1C6.5,1,6.9,0.8,7.3,0.8L6.6,1.6C6.5,1.7,6.4,1.8,6.5,1.9L6.7,3c0,0.1,0.1,0.3,0.3,0.3l1.1,0.3
	c0.1,0,0.3,0,0.4-0.1l0.8-0.8c0,0.5-0.2,1-0.6,1.3C8.5,4.2,8.1,4.4,7.7,4.4c0,0,0,0,0,0c-0.2,0-0.6-0.1-0.8-0.3C6.8,4,6.5,4,6.4,4.2
	l-1,1c-0.2,0.2-0.2,0.4,0,0.6c0.2,0.2,0.4,0.2,0.6,0l0.8-0.8c0.3,0.2,0.7,0.3,1,0.3h0c0.6,0,1.1-0.2,1.5-0.6C9.7,4.1,10,3.3,10,2.5
	C10,2.2,10,2,9.9,1.7z"/>
            <rect y="0" style="fill: none" width="10" height="10"/>
        </symbol>

        <symbol id="panaderia" viewBox="0 0 10 10">
            <title>bakery</title>
            <path d="M9.4,0.6C9,0.2,8.5,0,7.9,0C6.8,0,5.3,0.7,4.8,1.7C4.7,1.9,4.7,2.1,4.7,2.4c-0.2,0-0.4,0-0.5,0c-0.6,0-1.2,0.5-1.2,1.2
			c0,0.1,0,0.3,0.1,0.4c-0.2,0-0.3,0-0.5,0C2,4,1.6,4.5,1.6,5.1c0,0.1,0,0.3,0.1,0.4C1.4,5.5,1.2,5.5,1,5.6C0.7,5.8,0,6.7,0,8.2
			c0,0.5,0.2,0.9,0.5,1.3C0.9,9.8,1.4,10,1.9,10c0,0,0.1,0,0.1,0c0.5,0,1-0.1,1.5-0.4c1.1-0.5,2.4-1.4,3.5-2.5
			c0.2-0.2,0.2-0.4,0-0.6c-0.2-0.2-0.4-0.2-0.6,0C5.4,7.7,4.2,8.5,3.2,8.9c-0.7,0.3-1.6,0.5-2.1,0C1,8.8,0.8,8.5,0.8,8.2
			c0-0.6,0.2-1.1,0.3-1.3c0.2-0.3,0.3-0.5,0.4-0.5c0.1,0,0.1-0.1,0.2-0.1c0.5,0,1.3,0.2,1.8,0.5c0.2,0.1,0.4,0,0.5-0.2
			C4.1,6.4,4,6.1,3.8,6C3.5,5.9,3.1,5.7,2.7,5.6C2.5,5.5,2.3,5.3,2.3,5.1c0-0.3,0.2-0.4,0.4-0.4c0.4,0,1.2,0.1,2,0.5
			C5,5.2,5.2,5.2,5.3,5c0.1-0.2,0-0.4-0.2-0.5C4.8,4.3,4.5,4.2,4.3,4.1c0,0,0,0,0,0C4,4,3.9,3.8,3.9,3.5c0-0.2,0.2-0.4,0.4-0.4
			c0.1,0,0.7,0,1.5,0.3c0,0,0,0,0,0c0,0,0,0,0,0C6,3.5,6.1,3.6,6.3,3.7c0.2,0.1,0.4,0,0.5-0.2c0.1-0.2,0-0.4-0.2-0.5
			C6.4,2.9,6.3,2.8,6.1,2.7C5.8,2.6,5.6,2.4,5.5,2.2c0,0,0-0.1,0-0.2C5.8,1.3,7,0.8,7.9,0.8c0.4,0,0.7,0.1,1,0.3
			C9.2,1.5,9.3,2,9.2,2.6C9,3.3,8.6,4.1,7.9,4.9C7.8,5.1,7.8,5.4,8,5.5c0.1,0.1,0.2,0.1,0.2,0.1c0.1,0,0.2-0.1,0.3-0.2
			C10.1,3.3,10.4,1.6,9.4,0.6z"/>
            <rect style="fill: none" width="10" height="10"/>
        </symbol>

        <symbol id="informatica" viewBox="0 0 10 10">
            <title>computing</title>
            <path d="M9.2,4.2v-2c0-0.4-0.4-0.8-0.8-0.8H1.6c-0.4,0-0.8,0.4-0.8,0.8v3.9C0.8,6.6,1.1,7,1.6,7h6.9c0.4,0,0.8-0.4,0.8-0.8
	c0-0.2,0.2-0.4,0.4-0.4S10,6,10,6.2C10,7,9.3,7.7,8.4,7.7h-3v0.8h1.4c0.2,0,0.4,0.2,0.4,0.4c0,0.2-0.2,0.4-0.4,0.4H3.2
	C3,9.3,2.9,9.1,2.9,8.9c0-0.2,0.2-0.4,0.4-0.4h1.4V7.7h-3C0.7,7.7,0,7,0,6.2V2.3c0-0.9,0.7-1.6,1.6-1.6h6.9c0.9,0,1.6,0.7,1.6,1.6v2
	c0,0.2-0.2,0.4-0.4,0.4S9.2,4.4,9.2,4.2z M7.6,2.8H5.3C5.1,2.8,4.9,3,4.9,3.2c0,0.2,0.2,0.4,0.4,0.4h2.3C7.8,3.6,8,3.4,8,3.2
	C8,3,7.8,2.8,7.6,2.8z M4.4,2.1C4.3,1.9,4,1.9,3.9,2.1L3,3.1L2.7,2.8c-0.2-0.2-0.4-0.2-0.6,0C2,2.9,2,3.2,2.1,3.3l0.4,0.4
	c0,0,0,0,0,0C2.7,3.9,2.9,4,3,4c0,0,0,0,0,0c0.2,0,0.4-0.1,0.5-0.3l0.9-1.1C4.6,2.4,4.6,2.2,4.4,2.1L4.4,2.1z M7.6,5.2H5.3
	c-0.2,0-0.4,0.2-0.4,0.4C4.9,5.8,5.1,6,5.3,6h2.3C7.8,6,8,5.8,8,5.6C8,5.4,7.8,5.2,7.6,5.2z M4.4,4.5C4.3,4.3,4,4.3,3.9,4.5L3,5.5
	L2.7,5.2C2.6,5,2.3,5,2.1,5.2C2,5.3,2,5.6,2.1,5.7l0.4,0.4c0,0,0,0,0,0C2.7,6.3,2.9,6.4,3,6.4c0,0,0,0,0,0c0.2,0,0.4-0.1,0.5-0.3
	L4.5,5C4.6,4.8,4.6,4.6,4.4,4.5L4.4,4.5z"/>
            <rect style="fill: none" width="10" height="10"/>
        </symbol>

        <symbol id="conductores" viewBox="0 0 10 10">
            <title>drivers</title>
            <path d="M6.6,4.8C6.8,4.9,6.9,4.9,7.1,5c0.8,0.4,1.5,0.9,2.1,1.7c0.2,0.3,0.2,0.5,0,0.6C8.9,7.5,8.7,7.4,8.5,7.1
	C7.4,5.7,6,5.1,4.2,5.4C2.5,5.7,1.3,6.8,0.8,8.5c0,0.1-0.1,0.3,0,0.4c0,0.2,0.2,0.3,0.4,0.3c0.3,0,0.6,0,0.9,0
	C2.2,8.3,2.6,7.6,3.3,7c0.5-0.4,1.2-0.6,1.8-0.5c1.4,0.1,2.4,1,2.7,2.7c0.3,0,0.7,0,1,0c0.2,0,0.3-0.2,0.3-0.5c0-0.1,0-0.3,0.1-0.4
	C9.5,8.1,9.9,8.3,10,8.6C10.1,9.2,9.6,10,8.9,10c-0.2,0-0.4,0-0.7,0c-2.3,0-4.6,0-6.9,0c-0.9,0-1.5-0.7-1.2-1.6
	c0.4-1.7,1.5-2.9,3.1-3.6c0.1,0,0.1-0.1,0.2-0.1C2.7,4.2,2.3,3.4,2.3,2.5c0-0.7,0.3-1.3,0.9-1.8c1.1-0.9,2.7-0.9,3.7,0.1
	C7.9,1.8,8,3.6,6.6,4.8z M5,0.8c-1,0-1.9,0.8-1.9,1.9c0,1,0.9,1.9,1.9,1.9c1,0,1.9-0.8,1.9-1.9C6.9,1.6,6,0.8,5,0.8z M3.7,7.8
	C4,8,4.2,8.1,4.5,8.3c0.3,0.2,0.7,0.2,1,0C5.7,8.2,5.9,8,6.2,7.9c0,0,0.1-0.1,0.1-0.1C5.6,7.1,4.4,7.1,3.7,7.8z M5.6,9.2
	c0.5,0,1,0,1.6,0C7,8.9,6.9,8.6,6.9,8.3C6.4,8.6,6,8.9,5.6,9.2z M4.4,9.2C4,8.9,3.6,8.6,3.1,8.3C3,8.6,3,8.9,2.9,9.2
	C3.4,9.2,3.9,9.2,4.4,9.2z"/>
            <rect x="0" style="fill: none" width="10" height="10"/>
        </symbol>

        <symbol id="mozos" viewBox="0 0 10 10">
            <title>waiters</title>
            <g>
                <path d="M6.5,5.7C7,5.3,7.3,4.7,7.3,4V3.5C7.5,3.3,7.7,3,7.7,2.7c0-0.4-0.2-0.7-0.5-0.9C7,0.8,6.1,0,5,0H4.4c0,0,0,0-0.1,0
		c0,0,0,0,0,0c0,0-0.1,0-0.1,0c0,0,0,0,0,0C4,0.1,2.3,0.9,2.3,2.1c0,0.1,0,0.8,0.4,1.3c0,0,0,0,0,0V4c0,0.7,0.3,1.3,0.8,1.7
		C1.9,6.3,0.8,7.8,0.8,9.6C0.8,9.8,1,10,1.3,10s0.4-0.2,0.4-0.4c0-1.8,1.5-3.3,3.3-3.3c1.8,0,3.3,1.5,3.3,3.3c0,0.2,0.2,0.4,0.4,0.4
		s0.4-0.2,0.4-0.4C9.2,7.8,8.1,6.3,6.5,5.7z M5,0.8c0.6,0,1.1,0.3,1.3,0.8H6c-0.7,0-1-0.5-1.2-0.8H5z M3.3,2.8
		C3.1,2.6,3.1,2.2,3.1,2.1c0,0,0,0,0,0c0-0.3,0.5-0.7,1-1c0.2,0.7,0.8,1.5,2,1.5h0.6c0.1,0,0.2,0.1,0.2,0.2c0,0.1-0.1,0.2-0.2,0.2
		H3.8C3.5,2.9,3.4,2.9,3.3,2.8z M6.5,4c0,0.8-0.7,1.5-1.5,1.5C4.2,5.4,3.5,4.8,3.5,4V3.8h0.2h2.7V4z"/>
                <path d="M2.9,8.7c-0.2,0-0.4,0.2-0.4,0.4v0.5c0,0.2,0.2,0.4,0.4,0.4c0.2,0,0.4-0.2,0.4-0.4V9.1C3.3,8.8,3.1,8.7,2.9,8.7z"/>
                <path d="M5.6,8.5c0.1,0,0.1,0,0.2,0c0.2,0,0.3-0.1,0.4-0.2c0.1-0.2,0-0.5-0.2-0.6l-0.1,0l0.1,0c0.2-0.1,0.3-0.4,0.2-0.6
		C6.1,6.9,5.8,6.8,5.6,6.9L5,7.2L4.4,6.9c-0.2-0.1-0.5,0-0.6,0.2C3.7,7.3,3.8,7.6,4,7.7l0.1,0L4,7.8C3.8,7.9,3.7,8.1,3.8,8.3
		c0.1,0.2,0.4,0.3,0.6,0.2L5,8.2L5.6,8.5z"/>
                <path d="M7.3,9.2H5c-0.2,0-0.4,0.2-0.4,0.4C4.6,9.8,4.8,10,5,10h2.3c0.2,0,0.4-0.2,0.4-0.4C7.7,9.4,7.5,9.2,7.3,9.2z"/>
            </g>
            <rect style="fill: none" width="10" height="10"/>
        </symbol>

        <symbol id="meserxs" viewBox="0 0 10 10">
            <title>waiters</title>
            <g>
                <path d="M6.5,5.7C7,5.3,7.3,4.7,7.3,4V3.5C7.5,3.3,7.7,3,7.7,2.7c0-0.4-0.2-0.7-0.5-0.9C7,0.8,6.1,0,5,0H4.4c0,0,0,0-0.1,0
		c0,0,0,0,0,0c0,0-0.1,0-0.1,0c0,0,0,0,0,0C4,0.1,2.3,0.9,2.3,2.1c0,0.1,0,0.8,0.4,1.3c0,0,0,0,0,0V4c0,0.7,0.3,1.3,0.8,1.7
		C1.9,6.3,0.8,7.8,0.8,9.6C0.8,9.8,1,10,1.3,10s0.4-0.2,0.4-0.4c0-1.8,1.5-3.3,3.3-3.3c1.8,0,3.3,1.5,3.3,3.3c0,0.2,0.2,0.4,0.4,0.4
		s0.4-0.2,0.4-0.4C9.2,7.8,8.1,6.3,6.5,5.7z M5,0.8c0.6,0,1.1,0.3,1.3,0.8H6c-0.7,0-1-0.5-1.2-0.8H5z M3.3,2.8
		C3.1,2.6,3.1,2.2,3.1,2.1c0,0,0,0,0,0c0-0.3,0.5-0.7,1-1c0.2,0.7,0.8,1.5,2,1.5h0.6c0.1,0,0.2,0.1,0.2,0.2c0,0.1-0.1,0.2-0.2,0.2
		H3.8C3.5,2.9,3.4,2.9,3.3,2.8z M6.5,4c0,0.8-0.7,1.5-1.5,1.5C4.2,5.4,3.5,4.8,3.5,4V3.8h0.2h2.7V4z"/>
                <path d="M2.9,8.7c-0.2,0-0.4,0.2-0.4,0.4v0.5c0,0.2,0.2,0.4,0.4,0.4c0.2,0,0.4-0.2,0.4-0.4V9.1C3.3,8.8,3.1,8.7,2.9,8.7z"/>
                <path d="M5.6,8.5c0.1,0,0.1,0,0.2,0c0.2,0,0.3-0.1,0.4-0.2c0.1-0.2,0-0.5-0.2-0.6l-0.1,0l0.1,0c0.2-0.1,0.3-0.4,0.2-0.6
		C6.1,6.9,5.8,6.8,5.6,6.9L5,7.2L4.4,6.9c-0.2-0.1-0.5,0-0.6,0.2C3.7,7.3,3.8,7.6,4,7.7l0.1,0L4,7.8C3.8,7.9,3.7,8.1,3.8,8.3
		c0.1,0.2,0.4,0.3,0.6,0.2L5,8.2L5.6,8.5z"/>
                <path d="M7.3,9.2H5c-0.2,0-0.4,0.2-0.4,0.4C4.6,9.8,4.8,10,5,10h2.3c0.2,0,0.4-0.2,0.4-0.4C7.7,9.4,7.5,9.2,7.3,9.2z"/>
            </g>
            <rect style="fill: none" width="10" height="10"/>
        </symbol>

        <symbol id="docentes" viewBox="0 0 10 10">
            <title>teachers</title>
            <path d="M8,6.3c-0.2,0-0.4,0.2-0.4,0.4v1H2.3V0.8h0.2c0.2,0,0.4-0.2,0.4-0.4S2.8,0,2.6,0H1.2C0.5,0,0,0.5,0,1.2v7.7
	C0,9.5,0.5,10,1.2,10H8c0.2,0,0.4-0.2,0.4-0.4S8.2,9.2,8,9.2H1.2C1,9.2,0.8,9,0.8,8.8S1,8.4,1.2,8.4H8c0.2,0,0.4-0.2,0.4-0.4V6.7
	C8.4,6.4,8.2,6.3,8,6.3z M0.8,7.7V1.2C0.8,1,1,0.8,1.2,0.8h0.4v6.9H1.2C1,7.7,0.9,7.7,0.8,7.7z M10,1.4C9.9,1.2,9.7,1,9.5,0.9
	L7.3,0.1C6.8,0,6.3,0,5.9,0.1L3.7,0.9C3.4,1,3.2,1.3,3.2,1.6s0.2,0.5,0.5,0.6l0.8,0.3C4.4,2.7,4.3,3.3,4.3,4.4
	c0,0.2,0.2,0.4,0.4,0.4c0,0,0.8,0.1,1.7,0.6c0.1,0.1,0.2,0.1,0.2,0.1c0,0,0,0,0,0c0,0,0,0,0,0c0.1,0,0.2,0,0.2-0.1
	c0.8-0.5,1.7-0.6,1.7-0.6c0.2,0,0.4-0.2,0.4-0.4c0-1.1-0.1-1.7-0.2-1.9l0.6-0.2v0.8c0,0.2,0.2,0.4,0.4,0.4S10,3.4,10,3.1V1.5
	C10,1.5,10,1.4,10,1.4L10,1.4z M8.1,4.1C7.7,4.1,7.2,4.3,6.6,4.6C6,4.3,5.4,4.1,5.1,4.1c0-0.8,0.1-1.2,0.2-1.3L5.9,3h0
	c0.2,0.1,0.4,0.1,0.7,0.1c0.2,0,0.5,0,0.7-0.1l0.7-0.2C8,2.9,8.1,3.3,8.1,4.1L8.1,4.1z M7,2.3c-0.3,0.1-0.6,0.1-0.8,0h0l-2-0.7
	l2-0.7c0.3-0.1,0.6-0.1,0.8,0l2,0.7L7,2.3z"/>
            <rect y="0" style="fill: none" width="10" height="10"/>
        </symbol>

        <symbol id="artistas" viewBox="0 0 10 10">
            <title>artists</title>
            <g>
                <path d="M9.5,5.6C9.2,5.5,9,5.6,8.8,5.8C8.4,6.3,8,6.8,7.6,7.3C7.6,7.4,7.5,7.4,7.4,7.4c-0.1,0-0.2,0-0.3-0.1
		C6.6,7.3,6.2,7.7,6,8.1c0,0.2,0,0.3,0,0.5c0,0.4-0.1,0.7-0.4,1c-0.1,0.1-0.1,0.2,0,0.3C5.6,10,5.7,10,5.8,10c0.5-0.1,1-0.2,1.4-0.4
		c0.2-0.1,0.4-0.2,0.6-0.3c0.3-0.3,0.5-0.6,0.4-1c0-0.1,0-0.1,0.1-0.2c0.5-0.5,1-0.9,1.5-1.4C10,6.5,10,6.3,10,6.1
		C9.9,5.8,9.7,5.6,9.5,5.6z M7.6,8.9C7.2,9.2,6.7,9.3,6.3,9.4c0.2-0.4,0.2-0.7,0.2-1.1C6.5,8,6.7,7.8,7,7.8c0.3,0,0.6,0.2,0.7,0.5
		C7.8,8.5,7.7,8.8,7.6,8.9z M9.5,6.4c0,0-0.1,0.1-0.1,0.1C8.9,6.9,8.5,7.3,8,7.7c0,0,0,0-0.1,0.1c-0.1,0-0.1-0.1,0-0.1
		c0.4-0.5,0.8-1,1.2-1.5C9.2,6,9.4,6,9.5,6.1C9.6,6.1,9.6,6.3,9.5,6.4z"/>
                <path d="M5,2.4c-0.6,0-0.9,0.3-0.9,0.4C4,2.9,3.9,3,3.9,3.1c0,0.2,0.2,0.4,0.4,0.4c0.1,0,0.2-0.1,0.3-0.2l0,0c0,0,0,0,0,0
		c0,0,0.1-0.1,0.4-0.1c0.2,0,0.4,0.1,0.4,0.1c0,0,0,0,0,0l0,0c0.1,0.1,0.2,0.2,0.3,0.2c0.2,0,0.4-0.2,0.4-0.4C6.1,3,6,2.9,6,2.8
		C5.9,2.8,5.6,2.4,5,2.4z"/>
                <path d="M4.9,4.6c-0.2-0.1-0.4,0-0.5,0.2c0,0-0.2,0.3-0.7,0.3C3.2,5,3,4.8,3,4.8C2.9,4.6,2.8,4.5,2.6,4.5c-0.2,0-0.4,0.2-0.4,0.4
		c0,0.1,0,0.1,0,0.2l0,0c0.1,0.3,0.6,0.7,1.4,0.7c0.8,0,1.3-0.5,1.4-0.7C5.2,4.9,5.1,4.7,4.9,4.6z"/>
                <path d="M2.4,3.2c0.2,0,0.4,0.1,0.4,0.1c0,0,0,0,0,0l0,0c0.1,0.1,0.2,0.2,0.3,0.2c0.2,0,0.4-0.2,0.4-0.4c0-0.1,0-0.2-0.1-0.3
		c0-0.1-0.4-0.4-0.9-0.4c-0.6,0-0.9,0.3-0.9,0.4C1.4,2.9,1.3,3,1.3,3.1c0,0.2,0.2,0.4,0.4,0.4C1.8,3.5,2,3.5,2,3.4l0,0c0,0,0,0,0,0
		C2,3.4,2.2,3.2,2.4,3.2z"/>
                <path d="M10,2.9c0-0.3-0.1-0.5-0.3-0.7C9.4,2,9.2,2,8.9,2.1C8.6,2.2,8.1,2.3,7.4,2.4V0.9c0-0.3-0.1-0.5-0.3-0.7C6.8,0,6.5,0,6.3,0
		C5.8,0.2,4.9,0.4,3.7,0.4C2.5,0.4,1.6,0.2,1.1,0C0.8,0,0.6,0,0.3,0.2C0.1,0.3,0,0.6,0,0.9v3c0,1,0.4,1.9,1.1,2.7
		c0.6,0.6,1.3,1.1,1.8,1.3C3,7.9,3.2,7.9,3.3,8C3.7,8.5,4.2,9,4.9,9.5l0,0C5,9.5,5,9.5,5.1,9.5c0.2,0,0.4-0.2,0.4-0.4
		c0-0.1-0.1-0.2-0.2-0.3l0,0C4.9,8.5,4.5,8.3,4.2,7.9c0.1,0,0.2-0.1,0.2-0.1c0,0,0.1,0,0.1-0.1c0.1,0,0.2-0.1,0.3-0.1
		c0,0.1,0.1,0.1,0.2,0.2c0.1,0,0.1,0,0.2,0c0.1,0,0.3-0.1,0.3-0.2c0,0,0.2-0.3,0.7-0.3c0,0,0.1,0,0.1,0l0.7-0.6
		C6.9,6.6,6.6,6.5,6.3,6.5c0,0,0,0,0,0c0,0,0,0,0,0c0.3-0.3,0.5-0.6,0.7-1c0,0,0,0,0,0c0.2,0,0.3-0.1,0.3-0.2c0.1,0,0.2-0.1,0.3-0.1
		C7.8,5.2,8,5.4,8,5.4c0,0,0,0,0,0l0,0c0.1,0.1,0.2,0.2,0.3,0.2c0.2,0,0.4-0.2,0.4-0.4c0-0.1-0.1-0.2-0.1-0.3l0,0
		c0,0-0.4-0.4-0.9-0.4c-0.1,0-0.2,0-0.3,0c0-0.2,0.1-0.4,0.1-0.7V3.1c0.8-0.1,1.4-0.2,1.8-0.4c0,0,0,0,0.1,0c0,0,0,0,0,0.1v1.9h0
		c0,0,0,0,0,0c0,0.2,0.2,0.4,0.4,0.4C9.8,5.2,10,5,10,4.8c0,0,0,0,0,0h0V2.9z M6.6,3.8c0,1.8-1.6,2.9-2.5,3.3c0,0-0.1,0-0.1,0
		c-0.2,0.1-0.5,0.1-0.8,0C2.3,6.7,0.8,5.6,0.8,3.8v-3c0,0,0,0,0-0.1c0,0,0,0,0.1,0C1.5,1,2.4,1.2,3.7,1.2C5,1.2,5.9,1,6.5,0.8
		c0,0,0,0,0.1,0c0,0,0,0,0,0.1V3.8z"/>
            </g>
            <rect style="fill: none" width="10" height="10"/>
        </symbol>

        <symbol id="gasfiteria" viewBox="0 0 10 10">
            <title>plumbing</title>
            <path d="M9.6,4.7c0.2,0,0.4-0.2,0.4-0.4V3.2C10,3,9.8,2.9,9.6,2.9S9.2,3,9.2,3.2c0,0.1-0.1,0.2-0.2,0.2H7c-0.1,0-0.2-0.1-0.2-0.2
	c0-0.2-0.2-0.4-0.4-0.4S6,3,6,3.2c0,0.1-0.1,0.2-0.2,0.2H3.7V2.9c0-0.1,0.1-0.2,0.2-0.2h0c0.2,0,0.4-0.2,0.4-0.4S4.1,2,3.9,2
	C3.8,2,3.7,1.9,3.7,1.8V1c0-0.1,0.1-0.2,0.2-0.2c0.2,0,0.4-0.2,0.4-0.4S4.1,0,3.9,0H0.4C0.2,0,0,0.2,0,0.4s0.2,0.4,0.4,0.4
	c0.1,0,0.2,0.1,0.2,0.2v0.8C0.6,1.9,0.5,2,0.4,2h0C0.2,2,0,2.1,0,2.3s0.2,0.4,0.4,0.4c0.1,0,0.2,0.1,0.2,0.2v4.1
	c0,0.1-0.1,0.2-0.2,0.2C0.2,7.2,0,7.4,0,7.6S0.2,8,0.4,8c0.1,0,0.2,0.1,0.2,0.2V9c0,0.1-0.1,0.2-0.2,0.2C0.2,9.2,0,9.4,0,9.6
	S0.2,10,0.4,10h3.5c0.2,0,0.4-0.2,0.4-0.4S4.1,9.2,3.9,9.2C3.8,9.2,3.7,9.1,3.7,9V8.2C3.7,8.1,3.8,8,3.9,8c0.2,0,0.4-0.2,0.4-0.4
	S4.1,7.2,3.9,7.2c-0.1,0-0.2-0.1-0.2-0.2V6.6h2.1C5.9,6.6,6,6.7,6,6.8C6,7,6.2,7.1,6.4,7.1S6.8,7,6.8,6.8c0-0.1,0.1-0.2,0.2-0.2H9
	c0.1,0,0.2,0.1,0.2,0.2c0,0.2,0.2,0.4,0.4,0.4S10,7,10,6.8c0-0.5-0.4-1-1-1H7c-0.1,0-0.1,0-0.2,0V4.2c0.1,0,0.1,0,0.2,0H9
	c0.1,0,0.1,0,0.2,0v0.2C9.2,4.6,9.4,4.7,9.6,4.7z M2.9,0.8c0,0.1,0,0.1,0,0.2v0.8c0,0.1,0,0.1,0,0.2H1.4c0-0.1,0-0.1,0-0.2V1
	c0-0.1,0-0.1,0-0.2H2.9z M1.3,9.2c0-0.1,0-0.1,0-0.2V8.2c0-0.1,0-0.1,0-0.2h1.6c0,0.1,0,0.1,0,0.2V9c0,0.1,0,0.1,0,0.2H1.3z
	 M5.8,5.8H3.7c-0.4,0-0.8,0.4-0.8,0.8v0.5c0,0.1,0,0.1,0,0.2H1.3c0-0.1,0-0.1,0-0.2V2.9c0-0.1,0-0.1,0-0.2h1.6c0,0.1,0,0.1,0,0.2
	v0.5c0,0.4,0.4,0.8,0.8,0.8h2.1c0.1,0,0.1,0,0.2,0v1.6C5.9,5.8,5.8,5.8,5.8,5.8z"/>
            <rect style="fill: none" width="10" height="10"/>
        </symbol>

        <symbol id="fiestas" viewBox="0 0 10 10">
            <title>partys</title>
            <g>
                <path d="M2.4,3.6c0.1,0.1,0.2,0.1,0.3,0.1c0.1,0,0.2,0,0.3-0.1c0.1-0.2,0.1-0.4,0-0.6L2.1,2.2C1.9,2,1.7,2,1.5,2.2
		c-0.1,0.2-0.1,0.4,0,0.6L2.4,3.6z"/>
                <path d="M2.6,1.6c0.1,0.1,0.2,0.2,0.4,0.2c0.1,0,0.1,0,0.2,0c0.2-0.1,0.3-0.3,0.2-0.5L2.8,0.2C2.7,0,2.5-0.1,2.3,0
		C2.1,0.1,2,0.3,2.1,0.5L2.6,1.6z"/>
                <circle cx="0.9" cy="1.5" r="0.4"/>
                <path d="M9.6,9.2H9.2V8.3c0-0.2-0.2-0.4-0.4-0.4S8.4,8.1,8.4,8.3v0.9H1.6V8.6h5.5c0.2,0,0.4-0.2,0.4-0.4S7.3,7.8,7.1,7.8H1.6V7.2
		c0.3-0.1,0.7-0.3,0.9-0.5c0,0,0.1-0.1,0.2-0.1c0,0,0,0,0,0c0.1,0,0.2,0,0.2,0.1C3.2,7,3.5,7.2,3.9,7.2h0c0.3,0,0.6-0.2,0.9-0.5
		c0,0,0.1-0.1,0.2-0.1c0.1,0,0.2,0,0.2,0.1C5.5,7,5.8,7.2,6.1,7.2h0c0.3,0,0.6-0.2,0.9-0.5c0.1-0.1,0.1-0.1,0.2-0.1c0,0,0,0,0,0
		c0.1,0,0.2,0,0.2,0.1c0.2,0.3,0.7,0.5,1,0.5h0c0,0,0,0,0,0c0.5,0,1.3-0.4,1.3-1.2c0-0.6-0.2-1.1-0.7-1.5c-0.4-0.4-1-0.6-1.5-0.6
		H5.4V3c0.5-0.2,0.8-0.6,0.8-1.1c0-0.2,0-0.5-0.4-1.1C5.5,0.5,5.3,0.2,5.3,0.2C5.2,0.1,5.1,0,5,0S4.8,0.1,4.7,0.2
		c0,0-0.2,0.3-0.4,0.6c-0.4,0.7-0.4,1-0.4,1.1c0,0.5,0.3,0.9,0.8,1.1v0.9H2.4C1.1,3.9,0.2,4.9,0.2,6c0,0.5,0.2,0.8,0.6,1v2.1H0.4
		C0.2,9.2,0,9.4,0,9.6S0.2,10,0.4,10h9.2C9.8,10,10,9.8,10,9.6S9.8,9.2,9.6,9.2z M5,1.2C5,1.2,5,1.1,5,1.2c0.1-0.1,0.1,0,0.1,0
		c0.3,0.5,0.3,0.7,0.3,0.7c0,0.2-0.2,0.4-0.4,0.4c-0.2,0-0.4-0.2-0.4-0.4C4.6,1.9,4.6,1.7,5,1.2z M1.4,6.5c0,0-0.1,0-0.2-0.1
		C1.1,6.4,1,6.3,1,6c0-0.8,0.6-1.3,1.4-1.3h5.3c0.8,0,1.4,0.6,1.4,1.3c0,0.1,0,0.2-0.2,0.3C8.8,6.4,8.6,6.4,8.6,6.4h0
		c-0.1,0-0.3-0.1-0.4-0.2C7.9,5.9,7.6,5.8,7.3,5.8C7,5.8,6.7,6,6.5,6.2C6.3,6.4,6.2,6.4,6.2,6.4h0C6.1,6.4,6,6.4,5.8,6.2
		C5.6,6,5.4,5.8,5,5.8c-0.3,0-0.6,0.1-0.9,0.4C4,6.4,3.9,6.4,3.9,6.4h0c-0.1,0-0.2-0.1-0.3-0.2C3.3,6,3,5.8,2.7,5.8c0,0,0,0,0,0
		C2.4,5.8,2.1,6,1.9,6.2C1.8,6.3,1.5,6.5,1.4,6.5L1.4,6.5z"/>
                <path d="M7,3.6c0.1,0.1,0.2,0.1,0.3,0.1c0.1,0,0.2,0,0.3-0.1l0.9-0.8c0.2-0.1,0.2-0.4,0-0.6C8.3,2,8.1,2,7.9,2.2L7.1,3
		C6.9,3.1,6.9,3.4,7,3.6z"/>
                <path d="M6.9,1.8c0.1,0,0.1,0,0.2,0c0.2,0,0.3-0.1,0.4-0.2l0.5-1.1C8,0.3,7.9,0.1,7.7,0C7.5-0.1,7.2,0,7.2,0.2L6.7,1.3
		C6.6,1.5,6.7,1.8,6.9,1.8z"/>
                <circle cx="9.1" cy="1.5" r="0.4"/>
            </g>
            <rect style="fill: none" width="10" height="10"/>
        </symbol>

    </defs>
</svg>